<?xml version="1.0" encoding="UTF-8"?>
<!DOCTYPE svg PUBLIC "-//W3C//DTD SVG 1.1//EN" "http://www.w3.org/Graphics/SVG/1.1/DTD/svg11.dtd">
<!-- Creator: CorelDRAW 2021.5 -->
<svg xmlns="http://www.w3.org/2000/svg" xml:space="preserve" width="110px" height="32px" version="1.1" style="shape-rendering:geometricPrecision; text-rendering:geometricPrecision; image-rendering:optimizeQuality; fill-rule:evenodd; clip-rule:evenodd"
viewBox="0 0 21.91 6.36"
 xmlns:xlink="http://www.w3.org/1999/xlink"
 xmlns:xodm="http://www.corel.com/coreldraw/odm/2003">
 <defs>
  <style type="text/css">
   <![CDATA[
    .fil1 {fill:black;fill-rule:nonzero}
    .fil2 {fill:#69FFD5;fill-rule:nonzero}
    .fil0 {fill:#FF00B3;fill-rule:nonzero}
   ]]>
  </style>
 </defs>
 <g id="Layer_x0020_1">
  <metadata id="CorelCorpID_0Corel-Layer"/>
  <polygon class="fil0" points="21.91,6.36 0,6.36 0,1.91 21.91,1.91 "/>
  <path class="fil1" d="M4.15 4.1c0,-0.36 0.11,-0.47 0.27,-0.47 0.18,0 0.29,0.13 0.29,0.49 0,0.36 -0.1,0.48 -0.27,0.48 -0.18,0 -0.29,-0.13 -0.29,-0.5zm0.88 0.01c0,-0.55 -0.23,-0.75 -0.59,-0.75 -0.35,0 -0.61,0.23 -0.61,0.76 0,0.55 0.23,0.74 0.59,0.74 0.36,0 0.61,-0.23 0.61,-0.75zm0.27 -0.73l0 1.46 0.31 0 0 -0.54 0.02 0c0.07,0 0.11,0.01 0.14,0.07l0.24 0.47 0.37 0 -0.22 -0.4c-0.07,-0.12 -0.11,-0.18 -0.19,-0.21l0 -0.01c0.17,-0.04 0.31,-0.15 0.31,-0.41 0,-0.3 -0.19,-0.43 -0.51,-0.43l-0.47 0zm0.31 0.27l0.13 0c0.14,0 0.21,0.06 0.21,0.19 0,0.13 -0.05,0.21 -0.22,0.21l-0.12 0 0 -0.4zm0.96 1.19l0.46 0c0.53,0 0.68,-0.39 0.68,-0.76 0,-0.46 -0.21,-0.7 -0.69,-0.7l-0.45 0 0 1.46zm0.32 -1.19l0.11 0c0.23,0 0.39,0.11 0.39,0.46 0,0.28 -0.09,0.47 -0.39,0.47l-0.11 0 0 -0.93zm1.97 1.19l0 -0.26 -0.57 0 0 -0.35 0.47 0 0 -0.26 -0.47 0 0 -0.32 0.55 0 0 -0.27 -0.87 0 0 1.46 0.89 0zm0.28 -1.46l0 1.46 0.32 0 0 -0.54 0.02 0c0.06,0 0.1,0.01 0.13,0.07l0.24 0.47 0.38 0 -0.22 -0.4c-0.07,-0.12 -0.12,-0.18 -0.2,-0.21l0 -0.01c0.17,-0.04 0.31,-0.15 0.31,-0.41 0,-0.3 -0.18,-0.43 -0.5,-0.43l-0.48 0zm0.32 0.27l0.12 0c0.14,0 0.22,0.06 0.22,0.19 0,0.13 -0.05,0.21 -0.22,0.21l-0.12 0 0 -0.4zm1.79 0.45c0,-0.36 0.11,-0.47 0.27,-0.47 0.17,0 0.28,0.13 0.28,0.49 0,0.36 -0.1,0.48 -0.27,0.48 -0.17,0 -0.28,-0.13 -0.28,-0.5zm0.88 0.01c0,-0.55 -0.23,-0.75 -0.6,-0.75 -0.35,0 -0.61,0.23 -0.61,0.76 0,0.55 0.23,0.74 0.6,0.74 0.35,0 0.61,-0.23 0.61,-0.75zm0.56 -0.33c0.06,0.16 0.12,0.3 0.19,0.45l0.32 0.61 0.37 0 0 -1.46 -0.3 0 0 0.47c0,0.15 0,0.35 0.02,0.55l-0.01 0c-0.05,-0.14 -0.13,-0.3 -0.2,-0.44l-0.3 -0.58 -0.38 0 0 1.46 0.3 0 0 -0.55c0,-0.25 -0.01,-0.36 -0.02,-0.51l0.01 0zm1.22 -0.4l0 1.46 0.86 0 0 -0.26 -0.54 0 0 -1.2 -0.32 0zm1.07 1.46l0.32 0 0 -1.46 -0.32 0 0 1.46zm0.97 -1.06c0.06,0.16 0.12,0.3 0.19,0.45l0.32 0.61 0.37 0 0 -1.46 -0.3 0 0 0.47c0,0.15 0,0.35 0.02,0.55l-0.01 0c-0.05,-0.14 -0.13,-0.3 -0.2,-0.44l-0.3 -0.58 -0.38 0 0 1.46 0.3 0 0 -0.55c0,-0.25 0,-0.36 -0.02,-0.51l0.01 0zm2.11 1.06l0 -0.26 -0.57 0 0 -0.35 0.47 0 0 -0.26 -0.47 0 0 -0.32 0.55 0 0 -0.27 -0.87 0 0 1.46 0.89 0z"/>
  <path class="fil2" d="M3.5 1.66c0,0 0,0.01 0,0.01 -0.02,0.03 -0.03,0.06 -0.05,0.1 0,0 -0.01,0.01 -0.01,0.02 0,0 0,0 0,0 -0.01,0.01 -0.02,0.02 -0.02,0.04 0,0 -0.01,0.01 -0.01,0.02 -0.04,0.05 -0.07,0.1 -0.11,0.16 0.04,-0.01 0.08,-0.02 0.1,-0.04 0,0 0.01,0 0.01,0 0.02,-0.01 0.04,-0.02 0.06,-0.04 0.01,0.01 0.01,0 0.02,0 0.01,-0.01 0.03,-0.01 0.04,-0.03l0 0c0.01,0 0.02,-0.01 0.03,-0.02l0 0c0.01,0 0.01,0 0.01,-0.01l0 0c0.01,0 0.01,0 0.01,-0.01l0 0c0.01,0 0.02,0 0.03,-0.01l0 -0.01 0 0.01c0.08,-0.03 0.11,-0.01 0.12,0.08 0,0.01 0.01,0.03 0.01,0.04 0,0.01 0,0.02 0,0.02 0,0.2 -0.06,0.38 -0.15,0.56 -0.12,0.21 -0.3,0.36 -0.54,0.44 -0.16,0.06 -0.32,0.11 -0.49,0.16 0,0 -0.01,0 -0.01,0.01 -0.15,0.06 -0.17,0.15 -0.07,0.27 0.01,0.01 0.02,0.02 0.03,0.03 0.03,0.03 0.04,0.06 0.02,0.1 -0.03,0.03 -0.06,0.04 -0.1,0.03 -0.09,-0.03 -0.18,-0.06 -0.27,-0.1 -0.15,-0.06 -0.3,-0.14 -0.44,-0.23 -0.01,-0.01 -0.02,-0.01 -0.03,-0.02l0 0c-0.01,-0.01 -0.02,-0.02 -0.03,-0.02l0 0c0,-0.01 -0.01,-0.01 -0.02,-0.01l0 0c0,-0.01 -0.01,-0.01 -0.01,-0.01l0 0c0,-0.01 -0.01,-0.01 -0.02,-0.02l0 0.01c-0.04,-0.05 -0.09,-0.09 -0.14,-0.13l0 0c0,-0.01 0,-0.01 -0.01,-0.01 0,0 0,0 0,0 0,0 0,-0.01 -0.01,-0.01l0 0c-0.04,-0.05 -0.08,-0.1 -0.13,-0.15 0,0 0,0 0,0 0,-0.01 0,-0.02 -0.01,-0.02l0 -0.01c-0.04,-0.05 -0.07,-0.1 -0.1,-0.15 0,-0.01 0,-0.02 0,-0.02 -0.01,-0.03 -0.02,-0.05 -0.04,-0.08l0 0.01c0,-0.02 -0.01,-0.04 -0.01,-0.06 -0.04,-0.12 -0.06,-0.24 -0.05,-0.37 0,-0.12 0.04,-0.24 0.08,-0.35l0 -0.01c0.02,-0.02 0.03,-0.05 0.04,-0.08 0.01,0 0.01,-0.01 0,-0.01 0.02,-0.02 0.03,-0.04 0.04,-0.06 0,0 0,0 0,0 0,-0.01 0.01,-0.01 0.01,-0.02l0 0.01c0.05,-0.06 0.09,-0.13 0.14,-0.19l0 0c0.01,0 0.02,-0.02 0.03,-0.03 0,0 0,0 0,0 0.02,-0.01 0.03,-0.02 0.04,-0.04l0 0 0 -0.01c0.04,-0.02 0.07,-0.05 0.1,-0.09l0 0c0.01,0 0.02,0 0.02,-0.01l0 0c0.06,-0.04 0.11,-0.09 0.17,-0.13 0,0 0,0 0,0 0.01,0 0.02,-0.01 0.03,-0.02l0 0c0.05,-0.02 0.1,-0.06 0.15,-0.09l0 0c0.01,0 0.02,-0.01 0.02,-0.01l0 -0.01c0.07,-0.03 0.14,-0.07 0.2,-0.12l0.01 0c0.18,-0.09 0.35,-0.19 0.46,-0.38 0.06,-0.11 0.1,-0.23 0.05,-0.36 -0.01,-0.02 -0.02,-0.04 -0.03,-0.06 -0.02,-0.04 -0.03,-0.07 0,-0.1 0.02,-0.03 0.06,-0.02 0.09,-0.01 0.09,0.05 0.17,0.1 0.25,0.16 0.01,0 0.02,0 0.03,0.01l0 0c0,0.01 0.01,0.01 0.02,0.01l0 0 -0.01 0c0.06,0.05 0.12,0.1 0.18,0.15 0,0 0,-0.01 0,-0.01 0,0.01 0,0.01 0.01,0.02l-0.01 -0.01c0.04,0.05 0.08,0.09 0.12,0.13l0 0c0,0.02 0.02,0.03 0.03,0.05l0 0c0.09,0.13 0.16,0.27 0.19,0.43 0.05,0.23 0.04,0.45 -0.05,0.67 -0.01,0.01 -0.01,0.03 -0.02,0.04z"/>
 </g>
</svg>
