<?xml version="1.0" encoding="UTF-8"?>
<!DOCTYPE svg PUBLIC "-//W3C//DTD SVG 1.1//EN" "http://www.w3.org/Graphics/SVG/1.1/DTD/svg11.dtd">
<!-- Creator: CorelDRAW 2021.5 -->
<svg xmlns="http://www.w3.org/2000/svg" xml:space="preserve" width="913px" height="118px" version="1.1" style="shape-rendering:geometricPrecision; text-rendering:geometricPrecision; image-rendering:optimizeQuality; fill-rule:evenodd; clip-rule:evenodd"
viewBox="0 0 908.8 117.27"
 xmlns:xlink="http://www.w3.org/1999/xlink"
 xmlns:xodm="http://www.corel.com/coreldraw/odm/2003">
 <defs>
  <style type="text/css">
   <![CDATA[
    .fil1 {fill:#3AAA35;fill-rule:nonzero}
    .fil2 {fill:#8EFF4C;fill-rule:nonzero}
    .fil0 {fill:#E93842;fill-rule:nonzero}
   ]]>
  </style>
 </defs>
 <g id="Layer_x0020_1">
  <metadata id="CorelCorpID_0Corel-Layer"/>
  <polygon class="fil0" points="908.8,117.13 0,117.13 0,0 908.8,25.9 "/>
  <polygon class="fil1" points="908.8,117.13 0,117.13 0,0 908.8,25.9 "/>
  <path class="fil1" d="M274.51 45.2c-0.69,1.91 -1.38,3.83 -2.2,6.1 -3.16,-0.28 -6.71,-0.59 -10.3,-0.9 -1.57,2.45 -1.3,5.36 -1.55,8.02 -0.54,5.49 -1.02,10.99 -1.46,16.5l85.5 -15.72c-4.29,-0.46 -8.58,-0.92 -12.87,-1.37 -11.51,-1.21 -23.02,-2.3 -34.53,-3.5 -7.16,-0.74 -14.31,-1.58 -21.47,-2.4 -0.55,-0.06 -1.09,-0.29 -2,-0.55 0.26,-1.3 0.53,-2.44 0.69,-3.6 0.12,-0.85 0.15,-1.72 0.19,-2.58z"/>
  <path class="fil1" d="M419.3 11.95l0.27 3.09c0.06,0.72 -0.03,1.44 0.04,2.16 0.17,1.74 1.83,3.93 3.43,4.46 1.56,0.51 2.15,-0.78 2.99,-1.73 2.23,-2.55 4.49,-5.07 6.75,-7.6l-13.48 -0.38z"/>
  <path class="fil1" d="M131.72 91.11c0.52,2.54 1.47,3.17 3.72,2.21 1.39,-0.59 2.63,-1.53 3.94,-2.31 5.4,-3.25 10.93,-6.3 16.17,-9.81 4.42,-2.96 9.25,-5.4 12.8,-9.6 1.05,-1.24 1.85,-2.78 2.48,-4.33 0.72,-1.78 -2.4,-9.08 -4.2,-9.5 -1.63,-0.37 -3.41,-0.06 -5.08,0.22 -0.9,0.15 -1.67,0.9 -2.53,1.31 -1.09,0.52 -2.21,0.96 -3.64,1.57 -0.4,-1.59 -0.79,-2.74 -0.97,-3.92 -1.02,-6.79 -10.84,-12.18 -15.29,-9.84 -3.23,1.7 -5.09,4.56 -5.77,8.05 -0.97,4.94 -1.55,10.03 -1.86,15.11 -0.35,5.8 -0.25,11.65 -0.27,17.48 0,1.11 0.27,2.25 0.5,3.36z"/>
  <path class="fil1" d="M44.71 102.66c1.01,-2.96 3.46,-4.21 6.42,-3.29 1.97,0.61 4,1.31 5.76,2.41 4.2,2.63 8.38,5.29 12.54,7.98l57.09 -10.49c-2.14,-1.52 -4.24,-3.08 -6.37,-4.59 -5.2,-3.72 -10.31,-7.61 -15.55,-11.28 -5.98,-4.19 -12.03,-8.26 -18.11,-12.29 -2.76,-1.83 -5.64,-3.43 -8.84,-5.35 0.83,-0.96 1.39,-1.72 2.07,-2.34 5.05,-4.62 10.15,-9.18 15.2,-13.81 6.69,-6.12 13.33,-12.3 20.02,-18.42 4.77,-4.37 9.59,-8.66 14.35,-13.03 3.63,-3.32 7.23,-6.67 10.79,-10.08 1.13,-1.09 2.37,-1.53 3.93,-1.3 5.01,0.72 10.03,1.47 15.05,2.1 6.97,0.86 13.93,1.61 20.9,2.41 6.77,0.78 13.54,1.55 20.31,2.33 7.36,0.85 14.71,1.71 22.06,2.56 6.96,0.8 13.92,1.62 20.89,2.4 8.32,0.92 16.64,1.8 24.97,2.72 3.34,0.37 6.68,0.81 9.92,1.21 0.12,0.64 0.21,0.85 0.18,1.03 -0.61,3.37 -1.19,6.75 -1.88,10.09 -0.61,2.97 -1.41,5.89 -2.01,8.86 -0.14,0.65 0.08,1.41 0.2,2.13 0.95,-3.39 1.97,-6.75 2.84,-10.17 0.77,-3.03 1.32,-6.13 2.05,-9.17 0.62,-2.59 0.77,-2.64 3.43,-2.43 0.38,0.04 0.77,0.05 1.16,0.09 7.26,0.78 14.52,1.59 21.78,2.35 5.03,0.52 10.06,0.92 15.1,1.45 9.86,1.05 19.72,2.16 29.58,3.21 7.25,0.77 14.51,1.55 21.76,2.18 3.67,0.32 7.35,0.41 11.02,0.44 1.96,0.01 2.72,-0.8 2.91,-2.61 0.2,-1.82 0.4,-3.66 0.43,-5.5 0.09,-4.48 0.17,-8.95 0.24,-13.43l-386.9 -11.03 0 117.13 29.34 0 14.73 -2.71c-0.64,-4.03 -0.65,-8 0.64,-11.76z"/>
  <path class="fil1" d="M456 13c-5.51,6.18 -11.08,12.31 -16.56,18.52 -3.58,4.04 -7.12,8.11 -10.66,12.19l69.14 -12.71 0 -16.81 -41.92 -1.19z"/>
  <path class="fil1" d="M188.43 42.72c-2.03,-0.26 -4.06,-0.45 -6.09,-0.55 -2.75,-0.14 -3.07,0.13 -3.17,2.91 -0.19,5.01 -0.32,10.02 -0.42,15.04 -0.18,9.12 -0.34,18.23 -0.48,27.35 -0.02,0.76 -0.02,1.53 -0.03,2.29l11.99 -2.2c0.17,-8.64 0.36,-17.27 0.54,-25.9 0.11,-5.22 0.22,-10.44 0.29,-15.67 0.03,-2.39 -0.44,-2.98 -2.63,-3.27z"/>
  <path class="fil1" d="M227.91 46.89c-2.42,-0.24 -4.83,-0.64 -7.24,-0.87 -1.55,-0.15 -2.07,0.55 -2.16,2.81 -0.14,3.47 -0.2,6.96 -0.32,10.43 -0.27,7.57 -0.59,15.14 -0.85,22.7 0,0.21 -0.01,0.41 -0.02,0.62l11.85 -2.18c0.19,-5.33 0.35,-10.67 0.53,-16 0.14,-3.99 0.28,-7.98 0.4,-11.97 0.03,-1.02 0.05,-2.05 -0.02,-3.08 -0.09,-1.4 -0.69,-2.32 -2.17,-2.46z"/>
  <path class="fil2" d="M21.94 79.2c-7.54,-2.5 -14.77,-5.02 -21.94,-7.37l0 45.44 81.62 0c3.28,-7.59 6.57,-15.17 9.82,-22.76 8.44,-19.68 7.88,-38.49 -3.93,-56.71 -4.66,-7.21 -8.67,-14.85 -16.01,-19.94 -9.11,-6.31 -15.23,-5.68 -22.16,3.17 -2.61,3.34 -4.75,7.18 -6.49,11.07 -5.54,12.37 -10.77,24.89 -16.18,37.33 -1.42,3.26 -3.09,6.41 -4.73,9.77z"/>
  <path class="fil2" d="M0 26.2l7.87 2.52c2.22,0.71 4.75,0.46 8.41,0.76 -0.46,-4.19 -0.3,-7.74 -1.3,-10.91 -1.91,-6.07 -3.85,-12.13 -5.83,-18.17l-9.15 -0.26 0 26.06z"/>
  <path class="fil2" d="M159.48 45.01c1.2,-3.16 2.22,-5.35 2.85,-7.64 0.61,-2.3 1.13,-4.78 -1.27,-6.55 -2.5,-1.84 -7.98,-2.54 -9.8,-0.91 -2.08,1.87 -4.32,3.9 -5.54,6.34 -5.53,11.11 -10.75,22.38 -16,33.64 -0.6,1.3 -0.65,2.86 -1.11,5.08 2.59,0.04 4.74,0.41 6.76,0.05 9.85,-1.79 19.67,-3.74 29.48,-5.7 1.27,-0.25 2.51,-0.77 3.7,-1.31 5.14,-2.34 7.75,-6.06 7.39,-10.45 -0.39,-4.78 -4.27,-9.58 -9.05,-10.96 -2.23,-0.64 -4.56,-0.99 -7.41,-1.59z"/>
  <path class="fil2" d="M219.65 85.74c-20.65,3.98 -19.69,4.6 -22.15,-15.41 -2.66,-21.57 -5.06,-43.18 -7.51,-64.78l139.91 3.99c-4.14,4.89 -8.54,9.6 -13.24,14.12 -1.79,1.72 -3.65,3.38 -5.32,5.21 -14.34,15.77 -31.81,27.69 -49.21,39.62 -12.97,8.89 -27.74,13.75 -42.48,17.25z"/>
  <path class="fil2" d="M473.49 117.27c0.53,-0.6 1.05,-1.19 1.57,-1.79 2.45,-2.77 4.73,-5.81 6.48,-9.06 8.85,-16.41 19.04,-31.97 29.23,-47.54 5.78,-8.84 11.2,-17.85 15.54,-27.53 2.25,-5.05 4.32,-10.41 8.66,-14.21 0.73,-0.65 2.26,-0.5 3.42,-0.48 0.54,0 1.21,0.44 1.6,0.87 14.61,16.09 29.22,32.18 43.76,48.34 2.27,2.52 2.63,5.72 1.08,8.68 -3.17,6.04 -6.45,12.04 -10.02,17.86 -5.13,8.31 -10.29,16.59 -15.49,24.86l-85.83 0z"/>
  <path class="fil2" d="M480.12 13.82c-3.14,6.28 -6.58,12.42 -10.39,18.4 -7.69,12.04 -15.16,24.22 -22.82,36.27 -9.02,14.18 -18.82,27.66 -31.45,39.05 -3.52,3.18 -6.98,6.43 -10.4,9.73l-108.29 0c8.18,-5.82 16.31,-11.69 24.35,-17.69 3.95,-2.96 7.58,-6.4 11.12,-9.85 12.45,-12.12 24.72,-24.42 37.21,-36.49 6.31,-6.1 11.77,-12.74 15.99,-20.46 3.27,-5.99 6.63,-11.99 10.59,-17.53 0.89,-1.25 1.76,-2.5 2.62,-3.75l81.47 2.32z"/>
  <path class="fil2" d="M789.82 66.23c-0.63,1.08 -1.5,1.97 -2.41,2.81 -0.75,0.71 -1.54,1.37 -2.31,2.05 -0.1,0.1 -0.18,0.14 -0.31,0.03 -1.38,-1.17 -2.83,-2.26 -4.02,-3.64 -0.63,-0.72 -1.17,-1.5 -1.38,-2.46 -0.29,-1.41 0.38,-2.8 1.66,-3.36 1.31,-0.59 2.77,-0.2 3.62,0.98 0.14,0.19 0.18,0.17 0.31,-0.01 0.75,-1.04 1.77,-1.48 3.02,-1.23 1.24,0.24 1.99,1.02 2.3,2.23 0.05,0.21 0.05,0.44 0.08,0.66 0,0.7 -0.22,1.34 -0.56,1.94z"/>
  <path class="fil2" d="M802.6 66.23c-0.62,1.08 -1.5,1.97 -2.4,2.81 -0.76,0.71 -1.55,1.37 -2.32,2.05 -0.1,0.1 -0.18,0.14 -0.31,0.03 -1.38,-1.17 -2.83,-2.26 -4.02,-3.64 -0.63,-0.72 -1.17,-1.5 -1.38,-2.46 -0.29,-1.41 0.39,-2.8 1.67,-3.36 1.3,-0.59 2.76,-0.2 3.61,0.98 0.14,0.19 0.18,0.17 0.31,-0.01 0.75,-1.04 1.77,-1.48 3.03,-1.23 1.23,0.24 1.99,1.02 2.29,2.23 0.06,0.21 0.06,0.44 0.08,0.66 0,0.7 -0.22,1.34 -0.56,1.94z"/>
  <path class="fil2" d="M815.38 66.23c-0.62,1.08 -1.49,1.97 -2.4,2.81 -0.75,0.71 -1.54,1.37 -2.31,2.05 -0.11,0.1 -0.19,0.14 -0.32,0.03 -1.38,-1.17 -2.82,-2.26 -4.01,-3.64 -0.63,-0.72 -1.18,-1.5 -1.38,-2.46 -0.3,-1.41 0.38,-2.8 1.66,-3.36 1.3,-0.59 2.76,-0.2 3.62,0.98 0.14,0.19 0.18,0.17 0.31,-0.01 0.74,-1.04 1.76,-1.48 3.02,-1.23 1.23,0.24 1.99,1.02 2.29,2.23 0.06,0.21 0.06,0.44 0.08,0.66 0.01,0.7 -0.21,1.34 -0.56,1.94z"/>
  <path class="fil2" d="M828.16 66.23c-0.62,1.08 -1.49,1.97 -2.4,2.81 -0.75,0.71 -1.54,1.37 -2.31,2.05 -0.11,0.1 -0.18,0.14 -0.32,0.03 -1.38,-1.17 -2.82,-2.26 -4.01,-3.64 -0.63,-0.72 -1.18,-1.5 -1.38,-2.46 -0.3,-1.41 0.38,-2.8 1.66,-3.36 1.3,-0.59 2.77,-0.2 3.62,0.98 0.14,0.19 0.18,0.17 0.31,-0.01 0.75,-1.04 1.76,-1.48 3.02,-1.23 1.24,0.24 1.99,1.02 2.3,2.23 0.05,0.21 0.05,0.44 0.08,0.66 0,0.7 -0.22,1.34 -0.57,1.94z"/>
  <path class="fil2" d="M840.95 66.23c-0.63,1.08 -1.5,1.97 -2.41,2.81 -0.75,0.71 -1.54,1.37 -2.31,2.05 -0.1,0.1 -0.18,0.14 -0.31,0.03 -1.38,-1.17 -2.83,-2.26 -4.02,-3.64 -0.63,-0.72 -1.17,-1.5 -1.38,-2.46 -0.29,-1.41 0.39,-2.8 1.66,-3.36 1.31,-0.59 2.77,-0.2 3.62,0.98 0.14,0.19 0.18,0.17 0.31,-0.01 0.75,-1.04 1.77,-1.48 3.03,-1.23 1.23,0.24 1.99,1.02 2.29,2.23 0.06,0.21 0.06,0.44 0.08,0.66 0,0.7 -0.22,1.34 -0.56,1.94z"/>
 </g>
</svg>
