<?xml version="1.0" encoding="UTF-8"?>
<!DOCTYPE svg PUBLIC "-//W3C//DTD SVG 1.1//EN" "http://www.w3.org/Graphics/SVG/1.1/DTD/svg11.dtd">
<!-- Creator: CorelDRAW 2021.5 -->
<svg xmlns="http://www.w3.org/2000/svg" xml:space="preserve" width="1256px" height="587px" version="1.1" style="shape-rendering:geometricPrecision; text-rendering:geometricPrecision; image-rendering:optimizeQuality; fill-rule:evenodd; clip-rule:evenodd"
viewBox="0 0 1253.25 585.84"
 xmlns:xlink="http://www.w3.org/1999/xlink"
 xmlns:xodm="http://www.corel.com/coreldraw/odm/2003">
 <defs>
  <style type="text/css">
   <![CDATA[
    .fil0 {fill:#77DD5A;fill-rule:nonzero}
    .fil1 {fill:white;fill-rule:nonzero}
   ]]>
  </style>
 </defs>
 <g id="Layer_x0020_1">
  <metadata id="CorelCorpID_0Corel-Layer"/>
  <polygon class="fil0" points="0,585.84 1253.25,585.84 1253.25,0 0,0 "/>
  <path class="fil1" d="M678.69 337.47c0.24,-3.57 -0.54,-6.77 0.72,-8.55 31.94,-44.95 64.06,-89.76 96.23,-134.55 4.57,-6.37 11.21,-9.46 18.69,-8.96 48.46,3.23 95.97,10.73 141.66,26.51 30.67,10.58 61.54,20.61 92.22,31.15 36.1,12.39 70.96,26.92 102.44,48.88 31.01,21.65 63.76,40.86 95.29,61.82 9.27,6.17 18.4,12.6 27.31,19.3l0 212.77 -11.51 0c-6.84,-8.43 -14.36,-16.28 -22.53,-23.64 -20.81,-18.72 -41.74,-37.32 -63.05,-55.46 -8.48,-7.21 -17.9,-13.41 -27.3,-19.44 -33.04,-21.17 -66.39,-41.86 -99.35,-63.14 -16.63,-10.74 -34.09,-19.31 -53.44,-24.52 -14.99,-4.04 -30.06,-8.27 -44.37,-14.07 -65.98,-26.78 -135.33,-39.32 -206.89,-43.22 -15.48,-0.85 -31.35,0 -46.12,-4.88z"/>
 </g>
</svg>
