<?xml version="1.0" encoding="UTF-8"?>
<!DOCTYPE svg PUBLIC "-//W3C//DTD SVG 1.1//EN" "http://www.w3.org/Graphics/SVG/1.1/DTD/svg11.dtd">
<!-- Creator: CorelDRAW 2021.5 -->
<svg xmlns="http://www.w3.org/2000/svg" xml:space="preserve" width="248px" height="42px" version="1.1" style="shape-rendering:geometricPrecision; text-rendering:geometricPrecision; image-rendering:optimizeQuality; fill-rule:evenodd; clip-rule:evenodd"
viewBox="0 0 111.92 19.17"
 xmlns:xlink="http://www.w3.org/1999/xlink"
 xmlns:xodm="http://www.corel.com/coreldraw/odm/2003">
 <defs>
  <style type="text/css">
   <![CDATA[
    .fil0 {fill:#1D1515;fill-rule:nonzero}
    .fil1 {fill:#FFED00;fill-rule:nonzero}
   ]]>
  </style>
 </defs>
 <g id="Layer_x0020_1">
  <metadata id="CorelCorpID_0Corel-Layer"/>
  <path class="fil0" d="M21.93 1.9c0.37,-0.33 0.75,-0.58 1.14,-0.72 0.38,-0.13 0.92,-0.21 1.62,-0.21 0.59,0 1.15,0.04 1.67,0.12 0.71,0.11 1.16,0.27 1.33,0.48 0.16,0.22 0.31,0.52 0.44,0.91 0.14,0.39 0.2,0.71 0.2,0.96 0,0.26 -0.13,0.43 -0.39,0.51 -0.1,0.03 -0.18,0.04 -0.25,0.04 -0.17,0 -0.6,-0.04 -1.26,-0.13 -0.7,-0.1 -1.19,-0.15 -1.49,-0.15 -0.31,0 -0.55,0.07 -0.74,0.21 -0.26,0.21 -0.44,0.58 -0.51,1.14 -0.03,0.38 -0.04,0.92 -0.04,1.63 0,0.4 0,0.6 0.02,0.6 0.04,0 0.24,-0.07 0.57,-0.21 0.76,-0.29 1.28,-0.44 1.56,-0.44l0.14 0c0.51,0.03 0.94,0.2 1.28,0.51 0.15,0.14 0.31,0.33 0.47,0.59 0.17,0.26 0.26,0.47 0.29,0.64 0.05,0.21 0.04,0.37 -0.02,0.46 -0.14,0.3 -0.56,0.45 -1.27,0.45 -0.14,0 -0.52,-0.02 -1.14,-0.05 -0.87,-0.06 -1.36,-0.09 -1.49,-0.09l-0.32 0 -0.03 1.27c-0.04,1.64 -0.21,2.8 -0.51,3.47 -0.11,0.29 -0.19,0.46 -0.23,0.5 -0.13,0.15 -0.33,0.12 -0.63,-0.11 -0.41,-0.31 -0.89,-1.17 -1.41,-2.58 -0.22,-0.58 -0.34,-0.99 -0.38,-1.2 -0.04,-0.2 -0.06,-0.74 -0.06,-1.61l0 -1.28c0,-1.68 0.02,-2.73 0.06,-3.16 0.04,-0.43 0.14,-0.81 0.31,-1.15 0.23,-0.48 0.59,-0.94 1.07,-1.4zm9.42 4.48c0.35,-0.13 0.65,-0.21 0.91,-0.21 0.19,0 0.34,0.01 0.46,0.03 0.9,0.05 1.74,0.34 2.51,0.9 0.39,0.3 0.64,0.59 0.76,0.89 0.07,0.14 0.1,0.28 0.1,0.44 0,0.22 -0.06,0.42 -0.19,0.63 -0.1,0.18 -0.53,0.64 -1.26,1.37 -0.73,0.74 -1.19,1.15 -1.36,1.23 -0.25,0.11 -0.46,0.16 -0.63,0.16 -0.28,0 -0.52,-0.09 -0.74,-0.26 -0.2,-0.14 -0.3,-0.29 -0.3,-0.44 0,-0.11 0.03,-0.22 0.09,-0.33 0.14,-0.31 0.53,-0.69 1.16,-1.16 0.68,-0.52 1.02,-0.84 1.02,-0.97 0,-0.15 -0.15,-0.3 -0.46,-0.45 -0.31,-0.15 -0.66,-0.24 -1.07,-0.27l-0.25 0c-0.3,0 -0.5,0.05 -0.61,0.15 -0.12,0.1 -0.22,0.29 -0.3,0.59 -0.06,0.25 -0.09,0.63 -0.09,1.12 0,0.35 0.02,0.64 0.07,0.85 0.16,0.68 0.55,1.16 1.14,1.45 0.22,0.11 0.55,0.17 1.02,0.18l0.35 0c0.27,0 0.53,-0.02 0.76,-0.07 0.55,-0.11 1.01,-0.27 1.42,-0.49 0.05,-0.03 0.15,-0.05 0.28,-0.05 0.2,0 0.29,0.14 0.29,0.43 0,0.11 0,0.19 -0.02,0.25 -0.07,0.4 -0.27,0.77 -0.57,1.09 -0.24,0.25 -0.43,0.4 -0.56,0.45 -0.23,0.09 -0.52,0.19 -0.84,0.29 -0.65,0.25 -1.27,0.38 -1.86,0.38 -0.29,0 -0.69,-0.04 -1.18,-0.12 -0.3,-0.05 -0.51,-0.11 -0.65,-0.19 -0.51,-0.24 -1,-0.67 -1.46,-1.29 -0.47,-0.61 -0.73,-1.22 -0.79,-1.84 -0.02,-0.11 -0.03,-0.25 -0.03,-0.42 0,-0.15 0.03,-0.39 0.07,-0.72 0.13,-0.87 0.41,-1.6 0.87,-2.18 0.16,-0.23 0.44,-0.51 0.83,-0.82 0.39,-0.31 0.64,-0.46 0.76,-0.46 0.02,0 0.14,-0.04 0.35,-0.14zm10.07 1.84c-0.1,-0.08 -0.2,-0.12 -0.3,-0.12 -0.14,0 -0.39,0.1 -0.78,0.3 -0.67,0.35 -1.17,0.81 -1.52,1.4 -0.1,0.18 -0.15,0.32 -0.15,0.41 0,0.29 0.36,0.69 1.09,1.23 0.72,0.55 1.3,0.84 1.74,0.89 0.2,0.02 0.34,-0.02 0.41,-0.1 0.21,-0.2 0.3,-0.65 0.3,-1.36 0,-0.39 -0.03,-0.74 -0.09,-1.05 -0.17,-0.84 -0.4,-1.37 -0.7,-1.6zm-1.81 -2.05c0.31,-0.07 0.64,-0.11 0.98,-0.11 0.34,0 0.69,0.04 1.05,0.11 0.61,0.13 1.19,0.4 1.74,0.81 0.54,0.41 0.94,0.88 1.2,1.42 0.21,0.41 0.33,0.77 0.38,1.1 0.04,0.32 0.06,0.93 0.06,1.83 0,0.86 0.02,1.4 0.04,1.59 0.02,0.19 0.1,0.37 0.22,0.54 0.09,0.14 0.14,0.27 0.14,0.4 0,0.15 -0.08,0.28 -0.23,0.39 -0.15,0.12 -0.36,0.17 -0.6,0.17 -0.25,0 -0.44,-0.03 -0.57,-0.1 -0.13,-0.06 -0.3,-0.2 -0.5,-0.41l-0.35 -0.37 -0.4 0.32c-0.35,0.28 -0.65,0.47 -0.88,0.56 -0.23,0.09 -0.56,0.14 -0.97,0.14l-0.42 0c-0.54,-0.02 -0.93,-0.07 -1.16,-0.17 -0.73,-0.26 -1.37,-0.7 -1.93,-1.32 -0.18,-0.22 -0.3,-0.37 -0.36,-0.47 -0.05,-0.09 -0.13,-0.3 -0.25,-0.62 -0.2,-0.59 -0.3,-1.15 -0.3,-1.67 0,-0.68 0.17,-1.35 0.5,-2 0.3,-0.64 0.59,-1.04 0.85,-1.21 0.73,-0.49 1.32,-0.8 1.76,-0.93zm7.15 0.52c0.37,-0.42 1.04,-0.63 2.02,-0.63 0.39,0 0.73,0.03 1.03,0.09 0.36,0.08 0.59,0.14 0.7,0.19 0.1,0.06 0.23,0.16 0.37,0.3 0.32,0.36 0.48,0.76 0.48,1.2 0,0.24 -0.06,0.43 -0.18,0.56 -0.11,0.12 -0.22,0.17 -0.35,0.17 -0.13,0 -0.28,-0.07 -0.49,-0.19 -0.31,-0.19 -0.74,-0.36 -1.3,-0.51 -0.34,-0.09 -0.55,-0.12 -0.65,-0.07 -0.07,0.04 -0.11,0.11 -0.11,0.19 0,0.1 0.06,0.28 0.18,0.51 0.26,0.49 0.62,0.94 1.07,1.35 0.68,0.58 1.13,1.05 1.35,1.41 0.43,0.65 0.65,1.12 0.65,1.41 0,0.55 -0.3,0.97 -0.91,1.26 -0.62,0.31 -1.24,0.46 -1.86,0.46 -0.17,0 -0.47,-0.03 -0.9,-0.09 -0.83,-0.14 -1.45,-0.41 -1.86,-0.81 -0.31,-0.29 -0.46,-0.62 -0.46,-1 0,-0.55 0.17,-0.82 0.51,-0.82 0.18,0 0.44,0.12 0.79,0.33 0.38,0.27 0.88,0.41 1.48,0.42 0.4,0.02 0.64,-0.01 0.7,-0.07 0.07,-0.08 0.09,-0.16 0.05,-0.23 -0.04,-0.08 -0.33,-0.39 -0.89,-0.95 -0.88,-0.93 -1.42,-1.61 -1.62,-2.05 -0.21,-0.41 -0.3,-0.81 -0.3,-1.2 0,-0.44 0.17,-0.85 0.5,-1.23zm6.78 -2.91c0.19,-0.04 0.39,-0.02 0.61,0.1 0.12,0.06 0.2,0.17 0.24,0.32 0.04,0.16 0.07,0.53 0.11,1.12l0.04 1.06c0.5,-0.06 0.96,-0.09 1.4,-0.09 0.2,0 0.43,0.01 0.67,0.05 0.11,0.02 0.34,0.06 0.7,0.12 0.35,0.06 0.67,0.11 0.95,0.15 0.28,0.05 0.44,0.09 0.49,0.12 0.03,0.04 0.08,0.05 0.14,0.05 0.06,0 0.13,0.04 0.2,0.12 0.1,0.09 0.15,0.17 0.15,0.25 0,0.17 -0.21,0.39 -0.64,0.65 -0.57,0.35 -1.19,0.64 -1.85,0.86 -0.31,0.11 -0.57,0.16 -0.79,0.16 -0.3,0 -0.67,-0.2 -1.11,-0.6l-0.4 -0.38 -0.12 0.4c-0.09,0.34 -0.14,0.78 -0.14,1.3 0,0.6 0.06,1.17 0.17,1.71 0.1,0.53 0.24,0.85 0.41,0.94 0.06,0.03 0.13,0.04 0.19,0.04 0.26,0 0.6,-0.14 1.02,-0.44 0.42,-0.29 0.82,-0.67 1.21,-1.14 0.45,-0.52 0.72,-0.78 0.82,-0.78 0.01,0 0.09,-0.06 0.24,-0.16 0.16,-0.1 0.33,-0.15 0.5,-0.15 0.29,0 0.49,0.11 0.58,0.33 0.03,0.09 0.04,0.18 0.04,0.26 0,0.37 -0.14,0.99 -0.44,1.87 -0.14,0.52 -0.47,1.03 -1,1.54 -0.27,0.26 -0.49,0.43 -0.65,0.48 -0.23,0.08 -0.45,0.18 -0.67,0.29 -0.51,0.23 -0.97,0.35 -1.37,0.35 -0.73,0 -1.39,-0.22 -1.97,-0.65 -0.59,-0.43 -1.03,-0.93 -1.33,-1.52 -0.17,-0.35 -0.27,-0.76 -0.3,-1.2 -0.01,-0.14 -0.03,-0.35 -0.05,-0.61 -0.03,-0.26 -0.05,-0.5 -0.06,-0.72 -0.02,-0.21 -0.03,-0.41 -0.03,-0.6 0,-0.15 0.02,-0.37 0.05,-0.65 0.01,-0.15 0.02,-0.49 0.02,-1l0 -0.44c0,-0.08 0,-0.18 -0.01,-0.3 0,-0.13 -0.01,-0.21 -0.01,-0.26 0,-0.62 0.08,-1.1 0.23,-1.46 0.14,-0.28 0.4,-0.58 0.78,-0.91 0.38,-0.32 0.71,-0.52 0.98,-0.58zm16.74 5.99c-0.15,-0.4 -0.23,-0.83 -0.23,-1.29 0,-0.73 0.19,-1.36 0.55,-1.88 0.36,-0.52 0.85,-0.78 1.45,-0.78 0.15,0 0.33,0.14 0.54,0.4 -0.2,0.47 -0.34,0.81 -0.45,1.05l0 0.88c0,0.12 0.02,0.58 0.06,1.38 0.04,0.8 0.06,1.37 0.06,1.73 0,0.28 -0.02,0.48 -0.05,0.61l-0.16 0.64c-0.11,0.43 -0.33,0.82 -0.68,1.14 -0.63,0.56 -1.32,0.84 -2.06,0.84 -0.5,0 -1,-0.14 -1.49,-0.42l-0.25 -0.14 -0.26 0.14c-0.38,0.22 -0.88,0.32 -1.51,0.32l-0.16 0c-1.5,-0.06 -2.37,-0.72 -2.6,-1.99 -0.12,-0.7 -0.19,-1.71 -0.19,-3.02 0,-0.79 0.03,-1.33 0.1,-1.63 0.07,-0.41 0.21,-0.76 0.41,-1.04 0.24,-0.33 0.44,-0.49 0.61,-0.49 0.17,0 0.38,0.14 0.61,0.41 0.23,0.29 0.38,0.57 0.48,0.87 0.08,0.23 0.11,0.44 0.11,0.65 0,0.31 -0.09,0.79 -0.27,1.44 -0.17,0.57 -0.26,0.95 -0.26,1.14l0 0.21c0.02,0.41 0.1,0.73 0.24,0.96 0.14,0.22 0.39,0.44 0.76,0.66 0.22,0.12 0.36,0.19 0.44,0.19 0.11,0 0.21,-0.07 0.31,-0.19 0.27,-0.31 0.41,-0.8 0.41,-1.46 0,-0.33 -0.04,-0.79 -0.12,-1.37 -0.06,-0.53 -0.09,-0.83 -0.09,-0.89 0,-0.3 0.23,-0.85 0.7,-1.62 0.39,-0.67 0.67,-1 0.86,-1 0.1,0 0.2,0.14 0.3,0.44 0.11,0.34 0.16,0.9 0.16,1.65 0,0.59 -0.01,1.1 -0.02,1.54 -0.02,0.52 -0.03,1.09 -0.03,1.71 0,0.37 0.01,0.58 0.03,0.63 0.03,0.12 0.12,0.25 0.27,0.39 0.14,0.14 0.26,0.21 0.36,0.21 0.18,0 0.4,-0.11 0.66,-0.33 0.26,-0.21 0.43,-0.44 0.52,-0.69 0.11,-0.29 0.16,-0.55 0.16,-0.77 0,-0.31 -0.09,-0.71 -0.28,-1.23zm3.93 -3.57c0.15,-0.06 0.32,-0.09 0.53,-0.07 0.34,0.04 0.51,0.2 0.51,0.46 0,0.18 0.02,0.31 0.07,0.42 0.12,0.37 0.18,1.01 0.18,1.91 0,0.35 -0.02,1.08 -0.08,2.19 -0.05,1.1 -0.09,1.7 -0.12,1.8 0,0.03 -0.04,0.23 -0.09,0.6 -0.07,0.56 -0.22,0.89 -0.45,1 -0.09,0.06 -0.2,0.05 -0.32,-0.02 -0.39,-0.22 -0.82,-0.94 -1.3,-2.16 -0.19,-0.47 -0.3,-0.82 -0.35,-1.06 -0.05,-0.24 -0.08,-0.71 -0.09,-1.4 0,-0.13 -0.01,-0.31 -0.01,-0.54 -0.01,-0.23 -0.02,-0.4 -0.02,-0.51 0,-0.12 0.01,-0.26 0.02,-0.43 0,-0.16 0.01,-0.25 0.01,-0.26l0.02 -0.44 0.32 -0.44c0.42,-0.58 0.81,-0.93 1.17,-1.05zm0.04 -5.25c0.06,-0.02 0.17,-0.02 0.32,-0.02 0.23,0 0.41,0.03 0.52,0.09 0.17,0.11 0.26,0.42 0.27,0.93l0 0.25c0,0.22 -0.04,0.45 -0.11,0.68 -0.1,0.31 -0.14,0.48 -0.14,0.51 0,0.05 -0.05,0.13 -0.14,0.26 -0.09,0.12 -0.24,0.18 -0.46,0.18 -0.22,0 -0.41,-0.05 -0.56,-0.16 -0.39,-0.25 -0.74,-0.61 -1.05,-1.09 -0.18,-0.26 -0.27,-0.45 -0.27,-0.56 0,-0.06 0.02,-0.13 0.07,-0.21 0.09,-0.14 0.31,-0.31 0.67,-0.5 0.36,-0.19 0.65,-0.31 0.88,-0.36zm3.27 2.83c0.19,-0.04 0.39,-0.02 0.61,0.1 0.12,0.06 0.2,0.17 0.24,0.32 0.04,0.16 0.08,0.53 0.11,1.12l0.04 1.06c0.5,-0.06 0.97,-0.09 1.4,-0.09 0.2,0 0.43,0.01 0.67,0.05 0.11,0.02 0.34,0.06 0.7,0.12 0.35,0.06 0.67,0.11 0.95,0.15 0.28,0.05 0.44,0.09 0.49,0.12 0.03,0.04 0.08,0.05 0.14,0.05 0.06,0 0.13,0.04 0.2,0.12 0.1,0.09 0.15,0.17 0.15,0.25 0,0.17 -0.21,0.39 -0.64,0.65 -0.57,0.35 -1.19,0.64 -1.85,0.86 -0.31,0.11 -0.57,0.16 -0.79,0.16 -0.3,0 -0.67,-0.2 -1.11,-0.6l-0.4 -0.38 -0.12 0.4c-0.09,0.34 -0.13,0.78 -0.13,1.3 0,0.6 0.05,1.17 0.16,1.71 0.11,0.53 0.24,0.85 0.41,0.94 0.06,0.03 0.13,0.04 0.2,0.04 0.25,0 0.59,-0.14 1.02,-0.44 0.41,-0.29 0.81,-0.67 1.2,-1.14 0.45,-0.52 0.72,-0.78 0.82,-0.78 0.01,0 0.09,-0.06 0.25,-0.16 0.15,-0.1 0.32,-0.15 0.49,-0.15 0.3,0 0.49,0.11 0.58,0.33 0.03,0.09 0.04,0.18 0.04,0.26 0,0.37 -0.14,0.99 -0.44,1.87 -0.13,0.52 -0.47,1.03 -1,1.54 -0.27,0.26 -0.49,0.43 -0.65,0.48 -0.23,0.08 -0.45,0.18 -0.67,0.29 -0.51,0.23 -0.97,0.35 -1.37,0.35 -0.73,0 -1.39,-0.22 -1.97,-0.65 -0.59,-0.43 -1.03,-0.93 -1.33,-1.52 -0.17,-0.35 -0.26,-0.76 -0.3,-1.2 -0.01,-0.14 -0.03,-0.35 -0.05,-0.61 -0.03,-0.26 -0.05,-0.5 -0.06,-0.72 -0.02,-0.21 -0.03,-0.41 -0.03,-0.6 0,-0.15 0.02,-0.37 0.05,-0.65 0.01,-0.15 0.02,-0.49 0.02,-1l0 -0.44c0,-0.08 0,-0.18 -0.01,-0.3 0,-0.13 -0.01,-0.21 -0.01,-0.26 0,-0.62 0.08,-1.1 0.23,-1.46 0.14,-0.28 0.4,-0.58 0.78,-0.91 0.38,-0.32 0.71,-0.52 0.98,-0.58zm7.62 -1.11c0.09,-0.03 0.21,-0.04 0.35,-0.04 0.32,0 0.52,0.16 0.6,0.48 0.04,0.14 0.06,0.63 0.1,1.48l0.02 1.28 0.72 0c1.2,0 2.18,0.38 2.92,1.12 0.27,0.24 0.51,0.61 0.73,1.09 0.15,0.32 0.24,0.67 0.27,1.04 0.04,0.38 0.06,1.19 0.09,2.46 0.04,1.77 0.11,2.87 0.23,3.3 0.05,0.16 0.08,0.3 0.08,0.42 0,0.23 -0.08,0.38 -0.23,0.44 -0.04,0.02 -0.1,0.02 -0.21,0.02 -0.29,0 -0.53,-0.05 -0.75,-0.16 -0.18,-0.08 -0.43,-0.25 -0.74,-0.54 -0.31,-0.27 -0.52,-0.5 -0.63,-0.67 -0.23,-0.37 -0.38,-0.72 -0.45,-1.06 -0.07,-0.35 -0.11,-1.03 -0.13,-2.05 -0.03,-1.25 -0.07,-2.05 -0.12,-2.39 -0.06,-0.34 -0.2,-0.6 -0.44,-0.79l-0.25 0.09c-0.38,0.13 -0.69,0.35 -0.93,0.68l-0.14 0.23 -0.04 1.55c-0.05,1.97 -0.12,3.14 -0.19,3.51 -0.08,0.31 -0.22,0.46 -0.42,0.46 -0.15,0 -0.36,-0.1 -0.6,-0.32 -0.21,-0.2 -0.46,-0.6 -0.77,-1.22 -0.31,-0.61 -0.55,-1.18 -0.72,-1.73 -0.07,-0.23 -0.12,-1.98 -0.14,-5.27l0 -1.58 0.16 -0.32c0.14,-0.28 0.27,-0.48 0.4,-0.61 0.14,-0.13 0.35,-0.31 0.64,-0.53 0.28,-0.22 0.48,-0.34 0.59,-0.37zm19.69 -2.67c0.25,0 0.46,0.08 0.64,0.24 0.18,0.17 0.26,0.35 0.26,0.57 0,0.12 -0.05,0.45 -0.16,0.95 -0.07,0.36 -0.15,0.81 -0.23,1.37 -0.06,0.76 -0.1,1.98 -0.12,3.65 -0.03,1.78 -0.06,2.82 -0.09,3.12 -0.03,0.3 -0.17,0.74 -0.4,1.31 -0.26,0.66 -0.58,1.25 -0.97,1.81 -0.39,0.56 -0.7,0.88 -0.95,0.96 -0.12,0.03 -0.33,0.11 -0.6,0.25 -0.48,0.23 -1.17,0.35 -2.07,0.35 -0.26,0 -0.66,-0.05 -1.2,-0.14 -0.53,-0.09 -0.89,-0.18 -1.05,-0.26 -0.17,-0.07 -0.42,-0.22 -0.76,-0.45 -0.33,-0.23 -0.54,-0.39 -0.63,-0.5 -0.35,-0.35 -0.62,-0.8 -0.81,-1.34 -0.18,-0.51 -0.3,-0.93 -0.38,-1.25l-0.23 -0.87 -0.05 -1.5c-0.02,-0.62 -0.06,-1.31 -0.13,-2.07 -0.07,-0.76 -0.1,-1.4 -0.1,-1.9l0 -0.44 0.05 -1.12 0.34 -0.33c0.22,-0.2 0.58,-0.45 1.07,-0.75 0.5,-0.3 0.8,-0.46 0.91,-0.46 0.23,0 0.42,0.13 0.58,0.38 0.04,0.06 0.1,0.24 0.16,0.53 0.06,0.31 0.09,0.95 0.09,1.9 0,0.36 0,0.95 -0.02,1.78 -0.02,0.83 -0.02,1.44 -0.02,1.82 0,1.01 0.03,1.72 0.09,2.14 0.12,0.81 0.36,1.33 0.7,1.56 0.26,0.2 0.65,0.3 1.16,0.3 0.53,0 0.97,-0.12 1.34,-0.35 0.19,-0.12 0.33,-0.26 0.41,-0.42 0.09,-0.15 0.17,-0.44 0.26,-0.86l0.15 -0.71 -0.03 -1.63c0,-0.3 0,-0.82 0,-1.56 -0.01,-0.74 -0.02,-1.24 -0.02,-1.51l0 -1.46 0.19 -0.51c0.24,-0.65 0.54,-1.16 0.88,-1.53 0.47,-0.5 0.89,-0.83 1.3,-1 0.09,-0.04 0.24,-0.07 0.44,-0.07zm2.32 6.69c0.36,-0.42 1.03,-0.63 2.02,-0.63 0.39,0 0.73,0.03 1.03,0.09 0.35,0.08 0.58,0.14 0.7,0.19 0.1,0.06 0.23,0.16 0.36,0.3 0.33,0.36 0.49,0.76 0.49,1.2 0,0.24 -0.06,0.43 -0.18,0.56 -0.11,0.12 -0.23,0.17 -0.35,0.17 -0.13,0 -0.28,-0.07 -0.49,-0.19 -0.31,-0.19 -0.74,-0.36 -1.3,-0.51 -0.34,-0.09 -0.55,-0.12 -0.65,-0.07 -0.08,0.04 -0.12,0.11 -0.12,0.19 0,0.1 0.06,0.28 0.19,0.51 0.26,0.49 0.62,0.94 1.07,1.35 0.68,0.58 1.13,1.05 1.34,1.41 0.44,0.65 0.66,1.12 0.66,1.41 0,0.55 -0.31,0.97 -0.91,1.26 -0.62,0.31 -1.24,0.46 -1.86,0.46 -0.17,0 -0.47,-0.03 -0.91,-0.09 -0.82,-0.14 -1.44,-0.41 -1.85,-0.81 -0.31,-0.29 -0.46,-0.62 -0.46,-1 0,-0.55 0.17,-0.82 0.5,-0.82 0.19,0 0.45,0.12 0.79,0.33 0.39,0.27 0.89,0.41 1.49,0.42 0.4,0.02 0.64,-0.01 0.7,-0.07 0.07,-0.08 0.09,-0.16 0.04,-0.23 -0.03,-0.08 -0.32,-0.39 -0.88,-0.95 -0.88,-0.93 -1.42,-1.61 -1.62,-2.05 -0.21,-0.41 -0.31,-0.81 -0.31,-1.2 0,-0.44 0.18,-0.85 0.51,-1.23z"/>
  <path class="fil1" d="M8.78 19.17c-5.37,0.02 -8.76,-3.11 -8.78,-8.13 -0.02,-5.94 3.01,-9.29 8.41,-9.28 5.12,0.02 8.94,3.66 9,8.59 0.06,5.15 -3.51,8.79 -8.63,8.82z"/>
 </g>
</svg>
