<?xml version="1.0" encoding="UTF-8"?>
<!DOCTYPE svg PUBLIC "-//W3C//DTD SVG 1.1//EN" "http://www.w3.org/Graphics/SVG/1.1/DTD/svg11.dtd">
<!-- Creator: CorelDRAW 2021.5 -->
<svg xmlns="http://www.w3.org/2000/svg" xml:space="preserve" width="213px" height="60px" version="1.1" style="shape-rendering:geometricPrecision; text-rendering:geometricPrecision; image-rendering:optimizeQuality; fill-rule:evenodd; clip-rule:evenodd"
viewBox="0 0 41.64 11.66"
 xmlns:xlink="http://www.w3.org/1999/xlink"
 xmlns:xodm="http://www.corel.com/coreldraw/odm/2003">
 <defs>
  <style type="text/css">
   <![CDATA[
    .fil2 {fill:#1D1515;fill-rule:nonzero}
    .fil0 {fill:#E9148E;fill-rule:nonzero}
    .fil1 {fill:#FFE900;fill-rule:nonzero}
   ]]>
  </style>
 </defs>
 <g id="Layer_x0020_1">
  <metadata id="CorelCorpID_0Corel-Layer"/>
  <path class="fil0" d="M8.41 1.75c-0.17,0.03 -0.32,0.06 -0.5,0.1 -0.12,-0.17 -0.22,-0.35 -0.35,-0.51 -0.33,-0.44 -0.77,-0.69 -1.31,-0.76 -0.12,-0.01 -0.23,-0.02 -0.35,-0.04 -0.3,-0.02 -0.58,0.03 -0.83,0.17 -0.24,0.14 -0.48,0.28 -0.72,0.41 -0.32,0.18 -0.48,0.47 -0.6,0.8 -0.03,0.09 -0.05,0.19 -0.09,0.27 -0.08,0.18 -0.27,0.27 -0.44,0.24 -0.11,-0.02 -0.15,-0.07 -0.14,-0.18 0,-0.02 0.01,-0.05 0.01,-0.07 0.14,-0.49 0.34,-0.95 0.7,-1.32 0.01,-0.01 0.01,-0.02 0.02,-0.02 0.46,-0.28 0.88,-0.65 1.42,-0.76 0.98,-0.21 1.87,-0.01 2.61,0.72 0.22,0.22 0.38,0.46 0.51,0.73 0.03,0.06 0.04,0.14 0.06,0.22z"/>
  <polygon class="fil0" points="10.96,9.45 2.7,10.83 2.11,2.81 9.3,1.83 "/>
  <path class="fil1" d="M3.81 5.15c0.08,-0.2 0.21,-0.32 0.41,-0.31 0.21,0.01 0.32,0.14 0.41,0.3 0.12,0.22 0.12,0.46 0.05,0.7 -0.17,0.57 -0.51,1.03 -1.01,1.39 -0.03,0.02 -0.05,0.02 -0.1,0.05 0.11,-0.64 -0.1,-1.17 -0.45,-1.67 -0.06,-0.09 -0.1,-0.2 -0.11,-0.32 -0.03,-0.18 0.07,-0.37 0.23,-0.43 0.19,-0.07 0.33,-0.03 0.47,0.14 0.03,0.04 0.06,0.08 0.1,0.15z"/>
  <path class="fil1" d="M0.69 1.2c0.05,-0.04 0.03,-0.08 0.04,-0.12 0.05,-0.23 0.14,-0.33 0.36,-0.35 0.17,-0.01 0.34,0.12 0.39,0.31 0.04,0.14 0.03,0.28 0.02,0.41 -0.06,0.54 0.02,1.05 0.36,1.49 -0.04,0.05 -0.09,0.02 -0.13,0.01 -0.55,-0.08 -1.02,-0.31 -1.41,-0.68 -0.15,-0.14 -0.25,-0.31 -0.29,-0.5 -0.05,-0.21 -0.04,-0.42 0.14,-0.58 0.17,-0.16 0.35,-0.09 0.52,0.01z"/>
  <path class="fil1" d="M2.74 3.83c0.06,-0.44 -0.06,-0.84 -0.31,-1.2 -0.07,-0.09 -0.13,-0.19 -0.14,-0.3 -0.02,-0.15 0.02,-0.29 0.18,-0.36 0.16,-0.08 0.29,-0.01 0.38,0.12 0.02,0.02 0.04,0.04 0.05,0.06 0.05,0.01 0.05,-0.03 0.07,-0.05 0.14,-0.19 0.35,-0.21 0.51,-0.04 0.16,0.17 0.2,0.39 0.15,0.6 -0.12,0.5 -0.4,0.9 -0.86,1.18 -0.01,0 -0.02,-0.01 -0.03,-0.01z"/>
  <path class="fil1" d="M2.11 5.45c-0.48,-0.03 -0.86,-0.23 -1.11,-0.64 -0.07,-0.11 -0.07,-0.24 -0.03,-0.36 0.05,-0.15 0.17,-0.21 0.32,-0.16 0.08,0.03 0.12,0.04 0.13,-0.06 0.02,-0.12 0.11,-0.18 0.23,-0.19 0.13,-0.01 0.2,0.07 0.24,0.17 0.01,0.05 0.03,0.11 0.02,0.15 -0.05,0.39 0,0.76 0.2,1.1l0 -0.01z"/>
  <path class="fil2" d="M16.74 4.86c-0.09,-0.02 -0.2,-0.03 -0.3,-0.03 -0.31,0 -0.49,0.07 -0.55,0.21 -0.03,0.08 -0.06,0.21 -0.09,0.4 -0.04,0.21 -0.06,0.37 -0.06,0.49 0,0.17 0.02,0.41 0.08,0.73 0.12,0.78 0.32,1.4 0.61,1.88 0.06,0.09 0.11,0.16 0.16,0.19 0.04,0.02 0.1,0.04 0.19,0.04 0.14,0 0.29,-0.05 0.44,-0.14 0.14,-0.1 0.36,-0.3 0.66,-0.59 0.39,-0.41 0.65,-0.83 0.8,-1.27 0.05,-0.16 0.08,-0.3 0.08,-0.44 0,-0.2 -0.08,-0.38 -0.24,-0.53 -0.2,-0.21 -0.48,-0.4 -0.81,-0.58 -0.34,-0.18 -0.66,-0.3 -0.97,-0.36zm-1.82 -0.8c0.22,-0.19 0.41,-0.32 0.55,-0.38 0.15,-0.07 0.36,-0.1 0.61,-0.1 0.02,0 0.05,0 0.09,0.01 0.04,0 0.09,0.01 0.16,0.01 0.07,0.01 0.13,0.02 0.19,0.02 0.74,0.04 1.34,0.18 1.8,0.41 0.4,0.2 0.63,0.35 0.69,0.44 0.01,0.02 0.04,0.05 0.08,0.09 0.05,0.05 0.07,0.08 0.09,0.1 0.07,0.08 0.17,0.23 0.3,0.47 0.13,0.24 0.21,0.4 0.23,0.5 0.05,0.14 0.09,0.25 0.13,0.36 0.05,0.13 0.09,0.49 0.12,1.07l0 0.13c0,0.09 -0.02,0.2 -0.06,0.34 -0.05,0.18 -0.07,0.28 -0.07,0.31 0,0.02 -0.05,0.13 -0.14,0.32 -0.1,0.18 -0.17,0.32 -0.23,0.42 -0.29,0.47 -0.61,0.82 -0.97,1.05 -0.16,0.11 -0.38,0.2 -0.64,0.27 -0.26,0.07 -0.5,0.11 -0.72,0.11 -0.19,0 -0.32,-0.01 -0.39,-0.04 -0.06,-0.02 -0.18,-0.09 -0.33,-0.21 -0.13,-0.1 -0.2,-0.14 -0.23,-0.14 -0.01,0 -0.05,0.06 -0.12,0.18 -0.11,0.2 -0.22,0.31 -0.32,0.31 -0.07,0 -0.17,-0.09 -0.32,-0.25 -0.14,-0.15 -0.23,-0.28 -0.29,-0.4 -0.06,-0.12 -0.15,-0.35 -0.28,-0.68l-0.18 -0.5 -0.02 -0.35c-0.01,-0.07 -0.02,-0.19 -0.03,-0.36 -0.02,-0.16 -0.03,-0.29 -0.03,-0.39 0,-0.11 0.01,-0.19 0.01,-0.26 0,-0.01 0.01,-0.06 0.01,-0.12 0,-0.07 0.01,-0.12 0.01,-0.17 0,-0.48 -0.02,-0.92 -0.06,-1.31 0,-0.18 0,-0.34 0.01,-0.48 0.01,-0.25 0.04,-0.41 0.07,-0.48 0.04,-0.07 0.13,-0.17 0.28,-0.3zm6.46 2.14c0.17,-0.07 0.31,-0.1 0.44,-0.1 0.09,0 0.16,0 0.22,0.01 0.43,0.02 0.83,0.16 1.2,0.43 0.19,0.14 0.31,0.29 0.37,0.43 0.03,0.06 0.05,0.13 0.05,0.21 0,0.1 -0.03,0.2 -0.09,0.3 -0.06,0.09 -0.26,0.31 -0.61,0.66 -0.35,0.35 -0.57,0.55 -0.65,0.59 -0.12,0.05 -0.22,0.08 -0.3,0.08 -0.14,0 -0.25,-0.05 -0.36,-0.13 -0.1,-0.06 -0.14,-0.14 -0.14,-0.21 0,-0.05 0.01,-0.1 0.04,-0.16 0.07,-0.15 0.25,-0.33 0.56,-0.55 0.32,-0.25 0.49,-0.41 0.49,-0.47 0,-0.07 -0.08,-0.14 -0.22,-0.22 -0.15,-0.07 -0.32,-0.11 -0.52,-0.13l-0.12 0c-0.14,0 -0.24,0.03 -0.29,0.08 -0.06,0.04 -0.11,0.14 -0.14,0.28 -0.03,0.12 -0.05,0.3 -0.05,0.54 0,0.17 0.01,0.3 0.04,0.41 0.07,0.32 0.26,0.55 0.54,0.69 0.11,0.05 0.27,0.08 0.49,0.09l0.17 0c0.13,0 0.25,-0.01 0.36,-0.04 0.27,-0.05 0.49,-0.13 0.68,-0.23 0.03,-0.02 0.08,-0.02 0.14,-0.02 0.09,0 0.14,0.06 0.14,0.2 0,0.05 0,0.09 -0.01,0.12 -0.04,0.19 -0.13,0.37 -0.28,0.53 -0.11,0.11 -0.2,0.18 -0.26,0.21 -0.11,0.04 -0.25,0.09 -0.41,0.14 -0.31,0.12 -0.6,0.18 -0.89,0.18 -0.14,0 -0.33,-0.02 -0.56,-0.06 -0.15,-0.02 -0.25,-0.05 -0.32,-0.09 -0.24,-0.11 -0.47,-0.32 -0.7,-0.62 -0.22,-0.29 -0.35,-0.58 -0.38,-0.88 -0.01,-0.05 -0.01,-0.12 -0.01,-0.2 0,-0.07 0.01,-0.19 0.04,-0.35 0.06,-0.41 0.19,-0.76 0.41,-1.04 0.08,-0.11 0.21,-0.25 0.4,-0.39 0.19,-0.15 0.31,-0.23 0.37,-0.23 0.01,0 0.06,-0.02 0.16,-0.06zm3.27 -2.62c0.05,-0.02 0.13,-0.03 0.23,-0.03 0.08,0 0.14,0.01 0.18,0.04 0.03,0.03 0.06,0.1 0.07,0.19 0.05,0.21 0.07,1.12 0.07,2.74l0 0.58c0,0.88 0.01,1.41 0.03,1.58 0.02,0.16 0.08,0.35 0.2,0.55 0.08,0.17 0.13,0.29 0.13,0.36 0,0.11 -0.03,0.19 -0.1,0.26 -0.07,0.08 -0.15,0.11 -0.26,0.11 -0.07,0 -0.2,-0.05 -0.37,-0.14 -0.18,-0.1 -0.32,-0.19 -0.41,-0.28 -0.17,-0.16 -0.3,-0.39 -0.4,-0.69 -0.08,-0.27 -0.13,-0.48 -0.15,-0.65 -0.03,-0.16 -0.04,-0.46 -0.04,-0.91 0,-0.52 0,-0.98 0.01,-1.37l0.03 -1.52 0.12 -0.18c0.21,-0.33 0.43,-0.54 0.66,-0.64zm1.72 2.53c0.08,-0.03 0.16,-0.04 0.26,-0.03 0.16,0.02 0.24,0.09 0.24,0.22 0,0.08 0.01,0.15 0.04,0.2 0.06,0.18 0.08,0.48 0.08,0.91 0,0.17 -0.01,0.52 -0.03,1.05 -0.03,0.53 -0.05,0.82 -0.06,0.87 0,0.01 -0.02,0.11 -0.05,0.29 -0.03,0.27 -0.1,0.42 -0.21,0.48 -0.05,0.02 -0.1,0.02 -0.16,-0.02 -0.18,-0.1 -0.39,-0.44 -0.62,-1.03 -0.09,-0.23 -0.14,-0.39 -0.17,-0.51 -0.02,-0.11 -0.03,-0.34 -0.04,-0.67 0,-0.06 0,-0.15 -0.01,-0.26 0,-0.11 0,-0.19 0,-0.24 0,-0.06 0,-0.13 0,-0.21 0.01,-0.08 0.01,-0.12 0.01,-0.13l0.01 -0.21 0.15 -0.21c0.21,-0.27 0.39,-0.44 0.56,-0.5zm0.03 -2.52c0.02,-0.01 0.08,-0.01 0.15,-0.01 0.11,0 0.19,0.02 0.25,0.05 0.08,0.05 0.12,0.2 0.13,0.44l0 0.12c0,0.11 -0.02,0.22 -0.06,0.33 -0.04,0.14 -0.06,0.23 -0.06,0.24 0,0.02 -0.03,0.07 -0.07,0.13 -0.05,0.06 -0.12,0.08 -0.22,0.08 -0.11,0 -0.2,-0.02 -0.27,-0.08 -0.19,-0.11 -0.35,-0.29 -0.5,-0.52 -0.09,-0.12 -0.13,-0.21 -0.13,-0.26 0,-0.03 0.01,-0.07 0.03,-0.11 0.04,-0.06 0.15,-0.14 0.32,-0.24 0.17,-0.09 0.31,-0.14 0.43,-0.17zm3.52 2.49c0.17,-0.02 0.25,-0.03 0.26,-0.03 0.05,0 0.1,0.02 0.14,0.05 0.07,0.06 0.11,0.11 0.11,0.16 0,0.04 -0.05,0.11 -0.14,0.22 -0.11,0.12 -0.2,0.26 -0.26,0.4 -0.07,0.15 -0.19,0.48 -0.37,0.99 -0.2,0.56 -0.32,0.9 -0.36,1.02 -0.07,0.28 -0.12,0.49 -0.14,0.64 -0.04,0.29 -0.09,0.47 -0.16,0.54l-0.08 0.09 -0.11 -0.03c-0.05,-0.02 -0.1,-0.05 -0.15,-0.08 -0.06,-0.04 -0.11,-0.08 -0.18,-0.13 -0.07,-0.05 -0.12,-0.09 -0.15,-0.11 -0.09,-0.06 -0.15,-0.13 -0.18,-0.19 -0.03,-0.07 -0.08,-0.2 -0.13,-0.38 -0.05,-0.19 -0.11,-0.38 -0.17,-0.55 -0.07,-0.17 -0.1,-0.26 -0.11,-0.29 -0.09,-0.31 -0.2,-0.56 -0.32,-0.72 -0.06,-0.09 -0.14,-0.23 -0.23,-0.44 -0.09,-0.2 -0.14,-0.33 -0.14,-0.41 0,-0.12 0.09,-0.28 0.27,-0.45 0.22,-0.2 0.39,-0.3 0.51,-0.3 0.14,0 0.23,0.06 0.27,0.18 0.06,0.12 0.11,0.45 0.17,0.97 0.03,0.39 0.09,0.69 0.16,0.92 0.08,0.23 0.15,0.35 0.23,0.35 0.08,0 0.15,-0.17 0.21,-0.52 0.17,-0.99 0.27,-1.51 0.3,-1.56 0.02,-0.04 0.09,-0.11 0.21,-0.18 0.16,-0.09 0.35,-0.14 0.54,-0.16zm1.95 0.12c0.17,-0.07 0.31,-0.1 0.44,-0.1 0.09,0 0.16,0 0.22,0.01 0.43,0.02 0.83,0.16 1.2,0.43 0.19,0.14 0.31,0.29 0.37,0.43 0.03,0.06 0.05,0.13 0.05,0.21 0,0.1 -0.04,0.2 -0.1,0.3 -0.05,0.09 -0.25,0.31 -0.6,0.66 -0.35,0.35 -0.57,0.55 -0.65,0.59 -0.12,0.05 -0.22,0.08 -0.31,0.08 -0.13,0 -0.24,-0.05 -0.35,-0.13 -0.1,-0.06 -0.14,-0.14 -0.14,-0.21 0,-0.05 0.01,-0.1 0.04,-0.16 0.07,-0.15 0.25,-0.33 0.56,-0.55 0.32,-0.25 0.48,-0.41 0.48,-0.47 0,-0.07 -0.07,-0.14 -0.22,-0.22 -0.14,-0.07 -0.31,-0.11 -0.51,-0.13l-0.12 0c-0.14,0 -0.24,0.03 -0.29,0.08 -0.06,0.04 -0.11,0.14 -0.15,0.28 -0.02,0.12 -0.04,0.3 -0.04,0.54 0,0.17 0.01,0.3 0.03,0.41 0.08,0.32 0.27,0.55 0.55,0.69 0.1,0.05 0.27,0.08 0.49,0.09l0.17 0c0.13,0 0.25,-0.01 0.36,-0.04 0.27,-0.05 0.49,-0.13 0.68,-0.23 0.03,-0.02 0.08,-0.02 0.14,-0.02 0.09,0 0.14,0.06 0.14,0.2 0,0.05 0,0.09 -0.01,0.12 -0.04,0.19 -0.13,0.37 -0.28,0.53 -0.11,0.11 -0.2,0.18 -0.27,0.21 -0.11,0.04 -0.24,0.09 -0.4,0.14 -0.31,0.12 -0.61,0.18 -0.89,0.18 -0.14,0 -0.33,-0.02 -0.57,-0.06 -0.14,-0.02 -0.24,-0.05 -0.31,-0.09 -0.24,-0.11 -0.47,-0.32 -0.7,-0.62 -0.22,-0.29 -0.35,-0.58 -0.38,-0.88 -0.01,-0.05 -0.01,-0.12 -0.01,-0.2 0,-0.07 0.01,-0.19 0.03,-0.35 0.06,-0.41 0.2,-0.76 0.42,-1.04 0.08,-0.11 0.21,-0.25 0.4,-0.39 0.19,-0.15 0.31,-0.23 0.37,-0.23 0,0 0.06,-0.02 0.16,-0.06zm4.4 -0.13c0.03,-0.01 0.09,-0.02 0.17,-0.02 0.17,0 0.34,0.09 0.53,0.28 0.18,0.19 0.31,0.37 0.39,0.52 0.05,0.1 0.07,0.19 0.07,0.3 0,0.12 -0.04,0.22 -0.11,0.29 -0.04,0.02 -0.14,0.04 -0.29,0.04 -0.31,0 -0.56,-0.03 -0.77,-0.08 -0.15,-0.04 -0.26,-0.06 -0.32,-0.06l-0.03 0c-0.07,0.03 -0.11,0.27 -0.11,0.73 0,0.37 -0.01,0.64 -0.03,0.82 -0.07,0.58 -0.14,0.91 -0.19,1.02 -0.08,0.15 -0.15,0.22 -0.2,0.22 -0.05,0 -0.14,-0.06 -0.26,-0.18 -0.09,-0.08 -0.16,-0.17 -0.21,-0.27 -0.02,-0.03 -0.08,-0.14 -0.2,-0.33 -0.16,-0.27 -0.25,-0.51 -0.28,-0.73 -0.01,-0.13 -0.03,-0.24 -0.05,-0.34 -0.03,-0.11 -0.04,-0.27 -0.04,-0.49 0,-0.28 0.02,-0.46 0.05,-0.56 0.02,-0.06 0.03,-0.14 0.03,-0.22 0,-0.06 0.04,-0.15 0.13,-0.26 0.15,-0.17 0.3,-0.29 0.44,-0.35 0.33,-0.15 0.76,-0.26 1.28,-0.33zm4.63 0.04c0.12,-0.03 0.23,-0.04 0.34,-0.04 0.12,0 0.23,0.04 0.33,0.12 0.04,0.03 0.07,0.1 0.07,0.19 0,0.09 -0.04,0.17 -0.11,0.25 -0.07,0.08 -0.12,0.17 -0.16,0.3 -0.04,0.12 -0.16,0.58 -0.36,1.37 -0.14,0.54 -0.3,1.04 -0.49,1.47 -0.06,0.13 -0.13,0.32 -0.23,0.57 -0.19,0.51 -0.4,0.87 -0.64,1.08 -0.08,0.09 -0.19,0.15 -0.32,0.19 -0.11,0.03 -0.23,0.05 -0.35,0.05 -0.37,0 -0.69,-0.14 -0.96,-0.42 -0.26,-0.26 -0.42,-0.55 -0.47,-0.89 -0.02,-0.13 -0.03,-0.22 -0.03,-0.27 0,-0.06 0.02,-0.11 0.08,-0.16 0.05,-0.05 0.1,-0.08 0.16,-0.08 0.04,0 0.13,0.03 0.28,0.1 0.12,0.06 0.24,0.18 0.36,0.35 0.12,0.17 0.21,0.28 0.26,0.33 0.06,0.06 0.1,0.09 0.15,0.09 0.01,0 0.04,-0.01 0.09,-0.02 0.09,-0.03 0.15,-0.13 0.17,-0.29 0.02,-0.09 0.03,-0.16 0.03,-0.2 0,-0.14 -0.06,-0.32 -0.17,-0.55 -0.06,-0.12 -0.18,-0.42 -0.38,-0.9 -0.19,-0.47 -0.32,-0.77 -0.38,-0.88 -0.15,-0.32 -0.23,-0.57 -0.23,-0.76 0,-0.13 0.02,-0.24 0.05,-0.31 0.03,-0.07 0.11,-0.16 0.22,-0.27 0.02,-0.02 0.06,-0.06 0.13,-0.12 0.06,-0.06 0.11,-0.1 0.14,-0.13 0.04,-0.02 0.08,-0.05 0.15,-0.08 0.06,-0.03 0.12,-0.05 0.18,-0.05 0.18,0 0.31,0.07 0.38,0.2 0.04,0.09 0.09,0.42 0.13,1.01 0.04,0.59 0.09,0.96 0.17,1.11 0.07,0.17 0.16,0.26 0.28,0.26 0.12,0 0.23,-0.09 0.33,-0.26 0.14,-0.26 0.2,-0.68 0.2,-1.27l0 -0.29c0,-0.26 0.01,-0.41 0.02,-0.44 0.01,-0.06 0.04,-0.11 0.08,-0.16 0.04,-0.05 0.08,-0.08 0.11,-0.08 0.03,0 0.07,-0.01 0.11,-0.03 0.08,-0.04 0.17,-0.07 0.28,-0.09z"/>
 </g>
</svg>
