<?xml version="1.0" encoding="UTF-8"?>
<!DOCTYPE svg PUBLIC "-//W3C//DTD SVG 1.1//EN" "http://www.w3.org/Graphics/SVG/1.1/DTD/svg11.dtd">
<!-- Creator: CorelDRAW 2021.5 -->
<svg xmlns="http://www.w3.org/2000/svg" xml:space="preserve" width="92px" height="15px" version="1.1" style="shape-rendering:geometricPrecision; text-rendering:geometricPrecision; image-rendering:optimizeQuality; fill-rule:evenodd; clip-rule:evenodd"
viewBox="0 0 9.76 1.55"
 xmlns:xlink="http://www.w3.org/1999/xlink"
 xmlns:xodm="http://www.corel.com/coreldraw/odm/2003">
 <defs>
  <style type="text/css">
   <![CDATA[
    .fil0 {fill:#00E1C1;fill-rule:nonzero}
   ]]>
  </style>
 </defs>
 <g id="Layer_x0020_1">
  <metadata id="CorelCorpID_0Corel-Layer"/>
  <path class="fil0" d="M1.65 0.77c-0.1,0.17 -0.24,0.31 -0.38,0.44 -0.12,0.11 -0.24,0.21 -0.36,0.32 -0.02,0.02 -0.03,0.02 -0.05,0.01 -0.22,-0.19 -0.45,-0.36 -0.63,-0.57 -0.1,-0.12 -0.19,-0.24 -0.22,-0.39 -0.05,-0.22 0.06,-0.44 0.26,-0.53 0.21,-0.09 0.44,-0.03 0.57,0.15 0.02,0.03 0.03,0.03 0.05,0 0.11,-0.16 0.27,-0.23 0.47,-0.19 0.2,0.04 0.31,0.16 0.36,0.35 0.01,0.03 0.01,0.07 0.01,0.1 0,0.11 -0.03,0.21 -0.08,0.31z"/>
  <path class="fil0" d="M3.65 0.77c-0.1,0.17 -0.23,0.31 -0.38,0.44 -0.11,0.11 -0.24,0.21 -0.36,0.32 -0.01,0.02 -0.03,0.02 -0.05,0.01 -0.21,-0.19 -0.44,-0.36 -0.63,-0.57 -0.1,-0.12 -0.18,-0.24 -0.21,-0.39 -0.05,-0.22 0.06,-0.44 0.26,-0.53 0.2,-0.09 0.43,-0.03 0.56,0.15 0.03,0.03 0.03,0.03 0.05,0 0.12,-0.16 0.28,-0.23 0.48,-0.19 0.19,0.04 0.31,0.16 0.36,0.35 0.01,0.03 0.01,0.07 0.01,0.1 0,0.11 -0.03,0.21 -0.09,0.31z"/>
  <path class="fil0" d="M5.66 0.77c-0.1,0.17 -0.24,0.31 -0.38,0.44 -0.12,0.11 -0.24,0.21 -0.36,0.32 -0.02,0.02 -0.03,0.02 -0.05,0.01 -0.22,-0.19 -0.45,-0.36 -0.63,-0.57 -0.1,-0.12 -0.19,-0.24 -0.22,-0.39 -0.04,-0.22 0.06,-0.44 0.26,-0.53 0.21,-0.09 0.44,-0.03 0.57,0.15 0.02,0.03 0.03,0.03 0.05,0 0.12,-0.16 0.28,-0.23 0.47,-0.19 0.2,0.04 0.31,0.16 0.36,0.35 0.01,0.03 0.01,0.07 0.02,0.1 0,0.11 -0.04,0.21 -0.09,0.31z"/>
  <path class="fil0" d="M7.66 0.77c-0.1,0.17 -0.23,0.31 -0.37,0.44 -0.12,0.11 -0.25,0.21 -0.37,0.32 -0.01,0.02 -0.03,0.02 -0.05,0.01 -0.21,-0.19 -0.44,-0.36 -0.63,-0.57 -0.1,-0.12 -0.18,-0.24 -0.21,-0.39 -0.05,-0.22 0.06,-0.44 0.26,-0.53 0.2,-0.09 0.43,-0.03 0.56,0.15 0.03,0.03 0.03,0.03 0.05,0 0.12,-0.16 0.28,-0.23 0.48,-0.19 0.19,0.04 0.31,0.16 0.36,0.35 0.01,0.03 0.01,0.07 0.01,0.1 0,0.11 -0.03,0.21 -0.09,0.31z"/>
  <path class="fil0" d="M9.67 0.77c-0.1,0.17 -0.24,0.31 -0.38,0.44 -0.12,0.11 -0.24,0.21 -0.36,0.32 -0.02,0.02 -0.03,0.02 -0.05,0.01 -0.22,-0.19 -0.44,-0.36 -0.63,-0.57 -0.1,-0.12 -0.19,-0.24 -0.22,-0.39 -0.04,-0.22 0.06,-0.44 0.26,-0.53 0.21,-0.09 0.44,-0.03 0.57,0.15 0.02,0.03 0.03,0.03 0.05,0 0.12,-0.16 0.28,-0.23 0.47,-0.19 0.2,0.04 0.32,0.16 0.36,0.35 0.01,0.03 0.01,0.07 0.02,0.1 0,0.11 -0.04,0.21 -0.09,0.31z"/>
 </g>
</svg>
