<?xml version="1.0" encoding="UTF-8"?>
<!DOCTYPE svg PUBLIC "-//W3C//DTD SVG 1.1//EN" "http://www.w3.org/Graphics/SVG/1.1/DTD/svg11.dtd">
<!-- Creator: CorelDRAW 2021.5 -->
<svg xmlns="http://www.w3.org/2000/svg" xml:space="preserve" width="411px" height="126px" version="1.1" style="shape-rendering:geometricPrecision; text-rendering:geometricPrecision; image-rendering:optimizeQuality; fill-rule:evenodd; clip-rule:evenodd"
viewBox="0 0 166.68 51.22"
 xmlns:xlink="http://www.w3.org/1999/xlink"
 xmlns:xodm="http://www.corel.com/coreldraw/odm/2003">
 <defs>
  <style type="text/css">
   <![CDATA[
    .fil2 {fill:black;fill-rule:nonzero}
    .fil4 {fill:#00E1C1;fill-rule:nonzero}
    .fil0 {fill:#E6007E;fill-rule:nonzero}
    .fil1 {fill:#FFEC00;fill-rule:nonzero}
    .fil3 {fill:white;fill-rule:nonzero}
   ]]>
  </style>
 </defs>
 <g id="Layer_x0020_1">
  <metadata id="CorelCorpID_0Corel-Layer"/>
  <polygon class="fil0" points="166.68,33.66 1.82,42.56 0,8.9 164.87,0 "/>
  <polygon class="fil1" points="133.74,45.82 33.77,51.22 32.94,35.93 132.92,30.53 "/>
  <path class="fil2" d="M46.84 44.07c-0.73,0.04 -1.29,-0.4 -1.56,-0.64l-0.69 1.13c0.21,0.22 0.97,0.7 2.14,0.64 1.54,-0.09 2.24,-1.01 2.19,-1.92 -0.1,-1.93 -2.88,-1.63 -2.93,-2.6 -0.02,-0.31 0.21,-0.56 0.64,-0.59 0.64,-0.03 1.01,0.33 1.17,0.51l0.77 -1.03c-0.22,-0.25 -0.87,-0.68 -1.88,-0.62 -1.26,0.06 -2.1,0.9 -2.04,1.9 0.1,1.91 2.88,1.63 2.94,2.59 0.01,0.32 -0.22,0.6 -0.75,0.63zm3.06 -0.74c0.07,1.16 0.6,1.67 1.64,1.62 0.62,-0.04 1,-0.26 1.26,-0.62l0.04 0 0.2 0.44 1.11 -0.06 -0.26 -4.89 -1.31 0.07 0.18 3.39c-0.06,0.16 -0.24,0.6 -0.81,0.63 -0.44,0.02 -0.72,-0.24 -0.75,-0.78l-0.17 -3.15 -1.3 0.07 0.17 3.28zm9.44 -2.29c-0.06,-1.1 -0.63,-1.6 -1.58,-1.55 -0.51,0.03 -1.01,0.28 -1.29,0.65l-0.03 0.01 -0.29 -0.45 -1.02 0.06 0.27 4.88 1.3 -0.07 -0.17 -3.32c0.12,-0.36 0.42,-0.6 0.8,-0.62 0.44,-0.03 0.69,0.25 0.72,0.76l0.17 3.1 1.3 -0.07 -0.18 -3.38zm3.45 1.84c0.01,0.23 -0.14,0.42 -0.54,0.45 -0.59,0.03 -1.09,-0.3 -1.32,-0.54l-0.72 0.94c0.28,0.27 0.95,0.69 2.02,0.63 1.42,-0.08 1.89,-0.98 1.85,-1.63 -0.09,-1.63 -2.38,-1.25 -2.41,-1.98 -0.02,-0.23 0.17,-0.39 0.46,-0.41 0.45,-0.02 0.8,0.22 0.99,0.41l0.79 -0.87c-0.34,-0.35 -0.92,-0.63 -1.8,-0.59 -1.14,0.07 -1.78,0.82 -1.74,1.61 0.09,1.63 2.38,1.27 2.42,1.98zm5.81 -2.04c-0.08,-1.5 0.35,-1.99 1,-2.03 0.74,-0.04 1.23,0.47 1.31,1.99 0.08,1.49 -0.32,2.01 -1.01,2.04 -0.73,0.04 -1.21,-0.47 -1.3,-2zm3.67 -0.18c-0.12,-2.26 -1.14,-3.03 -2.65,-2.95 -1.47,0.08 -2.49,1.09 -2.37,3.29 0.12,2.27 1.12,3.03 2.63,2.95 1.48,-0.08 2.51,-1.08 2.39,-3.29zm1.12 1.4c0.06,1.16 0.59,1.68 1.64,1.62 0.61,-0.03 0.99,-0.25 1.26,-0.61l0.03 -0.01 0.21 0.44 1.1 -0.06 -0.26 -4.88 -1.31 0.07 0.19 3.38c-0.06,0.16 -0.25,0.6 -0.82,0.63 -0.44,0.03 -0.71,-0.24 -0.74,-0.77l-0.17 -3.16 -1.31 0.07 0.18 3.28zm7.04 1.28c0.81,-0.05 1.18,-0.25 1.34,-0.38l-0.39 -0.96c-0.18,0.16 -0.44,0.24 -0.65,0.25 -0.32,0.02 -0.52,-0.14 -0.54,-0.48l-0.13 -2.36 1.22 -0.07 -0.05 -0.99 -1.22 0.06 -0.07 -1.22 -0.83 0.04 -0.38 1.17 -0.62 0.3 0.04 0.81 0.62 -0.03 0.13 2.32c0.06,1.19 0.69,1.58 1.53,1.54zm2.09 1.4c0.8,-0.31 1.52,-1.18 1.47,-2.14 -0.03,-0.59 -0.39,-1.01 -0.96,-0.98 -0.47,0.02 -0.75,0.38 -0.73,0.78l0.01 0.12c0.34,0.1 0.61,0.26 0.63,0.64 0.02,0.39 -0.3,0.74 -0.86,1.02l0.44 0.56zm8.17 -5.19l0 -0.03c0.45,-0.19 0.85,-0.64 0.81,-1.33 -0.07,-1.22 -0.97,-1.52 -2.04,-1.47l-2.17 0.12 0.33 6.06 2 -0.1c2.02,-0.11 2.36,-1.21 2.32,-1.99 -0.05,-0.86 -0.67,-1.22 -1.25,-1.26zm-0.45 -1.11c0.02,0.35 -0.21,0.69 -0.86,0.72l-0.65 0.04 -0.08 -1.34 0.71 -0.04c0.63,-0.03 0.86,0.25 0.88,0.62zm-0.47 3.25l-0.91 0.05 -0.07 -1.45 0.84 -0.04c0.49,-0.03 0.94,0.14 0.97,0.67 0.02,0.35 -0.16,0.74 -0.83,0.77zm3.29 -0.69c0.06,1.16 0.59,1.67 1.64,1.62 0.61,-0.04 0.99,-0.26 1.26,-0.62l0.03 0 0.21 0.44 1.11 -0.06 -0.27 -4.89 -1.3 0.08 0.18 3.38c-0.06,0.16 -0.25,0.6 -0.82,0.63 -0.44,0.02 -0.71,-0.24 -0.74,-0.78l-0.17 -3.15 -1.31 0.07 0.18 3.28zm9.44 -2.29c-0.06,-1.1 -0.64,-1.6 -1.59,-1.55 -0.51,0.03 -1.01,0.28 -1.28,0.65l-0.04 0.01 -0.28 -0.45 -1.02 0.06 0.26 4.88 1.31 -0.07 -0.18 -3.32c0.13,-0.36 0.43,-0.6 0.81,-0.62 0.44,-0.03 0.69,0.25 0.71,0.76l0.17 3.1 1.31 -0.07 -0.18 -3.38zm3.44 1.84c0.01,0.23 -0.13,0.43 -0.54,0.45 -0.59,0.03 -1.08,-0.3 -1.31,-0.54l-0.73 0.94c0.28,0.28 0.96,0.69 2.03,0.63 1.42,-0.08 1.88,-0.98 1.84,-1.63 -0.08,-1.63 -2.37,-1.25 -2.41,-1.98 -0.01,-0.23 0.17,-0.39 0.46,-0.41 0.45,-0.02 0.8,0.22 0.99,0.41l0.79 -0.87c-0.34,-0.35 -0.92,-0.63 -1.8,-0.58 -1.13,0.06 -1.78,0.81 -1.73,1.61 0.08,1.62 2.37,1.26 2.41,1.97zm5.82 -2.04c-0.08,-1.5 0.35,-1.99 1,-2.03 0.73,-0.04 1.22,0.47 1.3,1.99 0.08,1.49 -0.31,2.01 -1.01,2.05 -0.73,0.04 -1.21,-0.48 -1.29,-2.01zm3.66 -0.18c-0.12,-2.26 -1.14,-3.03 -2.65,-2.95 -1.46,0.08 -2.49,1.09 -2.37,3.29 0.13,2.27 1.12,3.03 2.64,2.95 1.47,-0.08 2.5,-1.08 2.38,-3.29zm1.12 1.4c0.06,1.16 0.59,1.68 1.64,1.62 0.62,-0.03 0.99,-0.25 1.26,-0.61l0.03 -0.01 0.21 0.44 1.11 -0.06 -0.27 -4.88 -1.3 0.07 0.18 3.38c-0.06,0.16 -0.24,0.6 -0.82,0.63 -0.44,0.03 -0.71,-0.24 -0.74,-0.77l-0.17 -3.16 -1.31 0.07 0.18 3.28zm7.04 1.28c0.82,-0.05 1.19,-0.25 1.35,-0.38l-0.39 -0.96c-0.19,0.16 -0.45,0.24 -0.66,0.25 -0.32,0.02 -0.52,-0.14 -0.54,-0.48l-0.12 -2.36 1.22 -0.07 -0.06 -0.99 -1.22 0.06 -0.06 -1.22 -0.83 0.04 -0.39 1.18 -0.62 0.29 0.04 0.81 0.63 -0.03 0.12 2.32c0.07,1.19 0.7,1.58 1.53,1.54z"/>
  <path class="fil3" d="M27.27 14.05c0.08,-0.03 0.23,-0.04 0.46,-0.06 0.94,-0.05 1.83,0.11 2.69,0.48 0.3,0.13 0.49,0.23 0.57,0.3 0.08,0.07 0.21,0.22 0.37,0.46 0.07,0.12 0.15,0.23 0.24,0.34 0.09,0.11 0.14,0.19 0.17,0.23 0.02,0.05 0.04,0.13 0.08,0.25 0.02,0.13 0.05,0.31 0.09,0.56 0.04,0.5 0.02,0.8 -0.05,0.88 -0.06,0.06 -0.16,0.1 -0.3,0.1 -0.08,0.01 -0.23,0 -0.42,-0.04 -0.21,-0.03 -0.35,-0.04 -0.44,-0.03 -0.25,-0.03 -0.49,-0.04 -0.72,-0.03 -0.06,0.01 -0.16,0.02 -0.29,0.04 -0.13,0.01 -0.24,0.03 -0.32,0.03 -2.04,0.21 -3.78,1.17 -5.26,2.87 -0.31,0.37 -0.6,0.78 -0.86,1.22 -0.27,0.44 -0.42,0.76 -0.46,0.95l0.01 0.15c0.03,0.49 0.19,0.98 0.49,1.51 0.72,1.36 1.91,2.5 3.56,3.43 1.29,0.74 2.4,1.09 3.33,1.04 0.75,-0.04 1.42,-0.33 2.02,-0.86 0.26,-0.22 0.45,-0.34 0.57,-0.34 0.31,-0.02 0.48,0.14 0.5,0.47 0.01,0.17 -0.07,0.51 -0.24,1.03 -0.17,0.52 -0.32,0.86 -0.46,1.04 -0.85,1.21 -2.13,1.86 -3.83,1.95 -0.52,0.03 -1,0.01 -1.44,-0.05 -0.76,-0.08 -1.65,-0.34 -2.67,-0.79 -1.15,-0.5 -2.08,-1.13 -2.8,-1.89 -0.72,-0.76 -1.32,-1.77 -1.81,-3.02 -0.46,-1.17 -0.71,-2.16 -0.75,-2.95 -0.02,-0.41 -0.02,-0.73 0.01,-0.94 0.15,-1.55 0.62,-2.97 1.43,-4.26 0.37,-0.58 0.83,-1.16 1.41,-1.73 0.57,-0.58 1.14,-1.03 1.7,-1.37 0.47,-0.3 1.27,-0.55 2.4,-0.76 0.1,-0.03 0.23,-0.06 0.39,-0.09 0.15,-0.03 0.29,-0.05 0.4,-0.09 0.11,-0.02 0.18,-0.03 0.23,-0.03zm7.9 1.61c0.12,-0.05 0.28,-0.08 0.46,-0.09 0.43,-0.02 0.72,0.18 0.85,0.61 0.05,0.18 0.12,0.84 0.23,1.98l0.12 1.71 0.97 -0.05c1.62,-0.09 2.95,0.34 4,1.29 0.37,0.3 0.72,0.78 1.05,1.41 0.23,0.42 0.38,0.88 0.45,1.38 0.07,0.5 0.16,1.59 0.3,3.29 0.17,2.37 0.35,3.83 0.55,4.41 0.07,0.21 0.12,0.39 0.12,0.56 0.02,0.31 -0.07,0.52 -0.27,0.61 -0.05,0.02 -0.13,0.03 -0.28,0.04 -0.38,0.02 -0.71,-0.03 -1.01,-0.16 -0.26,-0.09 -0.6,-0.31 -1.04,-0.67 -0.43,-0.35 -0.73,-0.63 -0.89,-0.86 -0.33,-0.47 -0.56,-0.94 -0.68,-1.39 -0.13,-0.46 -0.23,-1.37 -0.32,-2.74 -0.13,-1.68 -0.24,-2.74 -0.34,-3.2 -0.1,-0.45 -0.32,-0.79 -0.64,-1.02l-0.34 0.14c-0.49,0.19 -0.89,0.52 -1.19,0.97l-0.17 0.32 0.05 2.09c0.08,2.64 0.08,4.21 0.01,4.72 -0.09,0.42 -0.26,0.63 -0.54,0.65 -0.2,0.01 -0.48,-0.12 -0.83,-0.39 -0.29,-0.26 -0.66,-0.78 -1.11,-1.58 -0.46,-0.8 -0.83,-1.55 -1.09,-2.27 -0.12,-0.3 -0.31,-2.66 -0.58,-7.06l-0.11 -2.12 0.19 -0.44c0.17,-0.39 0.33,-0.67 0.49,-0.85 0.18,-0.19 0.45,-0.44 0.82,-0.76 0.36,-0.31 0.62,-0.48 0.77,-0.53zm10.63 4.17c0.2,-0.09 0.43,-0.14 0.71,-0.14 0.46,0.04 0.7,0.24 0.72,0.59 0.01,0.23 0.05,0.42 0.12,0.55 0.19,0.5 0.32,1.34 0.38,2.55 0.03,0.48 0.05,1.46 0.06,2.95 0.01,1.48 0,2.29 -0.04,2.42 0,0.04 -0.03,0.31 -0.08,0.82 -0.05,0.75 -0.23,1.2 -0.53,1.37 -0.12,0.09 -0.26,0.09 -0.43,-0.01 -0.54,-0.26 -1.16,-1.2 -1.9,-2.8 -0.29,-0.62 -0.46,-1.08 -0.54,-1.4 -0.08,-0.31 -0.16,-0.94 -0.23,-1.87 -0.01,-0.17 -0.03,-0.41 -0.05,-0.72 -0.03,-0.31 -0.05,-0.54 -0.06,-0.68 -0.01,-0.17 -0.01,-0.36 -0.01,-0.58 -0.01,-0.22 0,-0.34 0,-0.35l-0.01 -0.6 0.4 -0.61c0.52,-0.8 1.02,-1.3 1.49,-1.49zm-0.32 -7.04c0.08,-0.03 0.23,-0.05 0.43,-0.06 0.31,-0.02 0.54,0.01 0.7,0.09 0.23,0.13 0.38,0.54 0.43,1.22l0.02 0.35c0.02,0.29 -0.02,0.59 -0.1,0.9 -0.11,0.43 -0.16,0.66 -0.16,0.7 0.01,0.07 -0.05,0.18 -0.16,0.36 -0.12,0.17 -0.32,0.26 -0.61,0.28 -0.29,0.01 -0.55,-0.04 -0.76,-0.18 -0.54,-0.3 -1.03,-0.76 -1.48,-1.38 -0.27,-0.34 -0.41,-0.58 -0.41,-0.73 -0.01,-0.08 0.02,-0.18 0.08,-0.29 0.11,-0.19 0.4,-0.44 0.86,-0.72 0.47,-0.28 0.85,-0.46 1.16,-0.54zm4.55 7.78c0.92,-0.68 1.79,-1.04 2.62,-1.08l0.1 -0.01c0.8,-0.04 1.41,0.01 1.82,0.16 0.17,0.05 0.34,0.17 0.53,0.34 0.18,0.18 0.29,0.34 0.32,0.48 0.01,0.04 0.06,0.17 0.17,0.38 0.11,0.22 0.16,0.39 0.17,0.51 0,0.13 -0.03,0.24 -0.08,0.35 -0.06,0.1 -0.24,0.15 -0.55,0.12 -0.17,-0.01 -0.55,0.01 -1.13,0.04 -0.79,0.04 -1.53,0.3 -2.2,0.77 -0.27,0.18 -0.58,0.47 -0.96,0.89 -0.37,0.42 -0.59,0.73 -0.66,0.92 -0.06,0.14 -0.08,0.31 -0.07,0.5 0.01,0.29 0.11,0.58 0.29,0.88 0.6,1.03 1.49,1.79 2.66,2.27 0.55,0.24 1.02,0.35 1.42,0.33 0.37,-0.02 0.73,-0.15 1.07,-0.37 0.2,-0.14 0.37,-0.21 0.52,-0.22 0.25,-0.01 0.38,0.11 0.39,0.38 0.01,0.17 -0.04,0.43 -0.17,0.77 -0.42,1.02 -1.3,1.56 -2.63,1.64 -0.6,0.03 -1.27,-0.05 -2.01,-0.23 -1.63,-0.48 -2.78,-1.63 -3.44,-3.45 -0.17,-0.44 -0.27,-0.97 -0.31,-1.6 -0.04,-0.75 0.04,-1.44 0.24,-2.08 0.16,-0.47 0.42,-0.97 0.79,-1.49 0.37,-0.53 0.73,-0.93 1.1,-1.2zm7.93 -5.65c0.18,-0.07 0.36,-0.11 0.53,-0.12 0.43,-0.02 0.72,0.1 0.87,0.36 0.07,0.14 0.16,1.27 0.3,3.39l0.2 3.18c0.13,0.01 0.28,0.01 0.47,0 0.48,-0.03 0.87,-0.39 1.19,-1.07 0.37,-0.82 0.96,-1.47 1.74,-1.93 0.32,-0.19 0.59,-0.28 0.8,-0.29 0.52,-0.03 0.85,0.53 0.99,1.66l0.02 0.28c0.05,0.96 -0.16,1.84 -0.64,2.66 -0.17,0.3 -0.2,0.48 -0.06,0.53 0.1,0.04 0.28,0.24 0.53,0.59 0.25,0.34 0.44,0.68 0.58,0.98 0.17,0.35 0.29,0.96 0.39,1.85 0.09,1 0.17,1.68 0.26,2.05 0.2,0.94 0.3,1.51 0.31,1.7 0.01,0.11 -0.01,0.2 -0.05,0.29 -0.07,0.15 -0.25,0.23 -0.54,0.25 -0.09,0 -0.28,-0.02 -0.57,-0.04 -0.72,-0.13 -1.36,-0.57 -1.93,-1.31 -0.57,-0.74 -0.96,-1.65 -1.17,-2.77 -0.11,-0.58 -0.4,-1.07 -0.86,-1.48 -0.44,-0.4 -0.8,-0.59 -1.09,-0.57 -0.19,0.01 -0.3,0.16 -0.36,0.47 -0.06,0.31 -0.1,1.02 -0.12,2.15 -0.03,1.35 -0.09,2.08 -0.16,2.19 -0.03,0.05 -0.11,0.15 -0.27,0.33l-0.32 -0.14c-0.17,-0.07 -0.31,-0.18 -0.43,-0.34 -0.12,-0.14 -0.36,-0.48 -0.7,-1 -0.48,-0.75 -0.86,-1.5 -1.15,-2.25 -0.2,-0.53 -0.37,-2.09 -0.51,-4.66 -0.01,-0.21 -0.02,-0.54 -0.04,-0.99 -0.01,-0.44 -0.02,-0.79 -0.03,-1.04 -0.08,-1.71 -0.07,-2.67 0.03,-2.91 0.14,-0.36 0.41,-0.76 0.83,-1.2 0.4,-0.44 0.72,-0.71 0.96,-0.8zm11.84 3.86c0.45,-0.21 0.85,-0.33 1.19,-0.35 0.26,-0.01 0.46,-0.01 0.63,0 1.21,0 2.36,0.34 3.43,1.03 0.54,0.37 0.9,0.75 1.09,1.14 0.1,0.18 0.15,0.37 0.16,0.58 0.02,0.3 -0.05,0.57 -0.21,0.86 -0.12,0.25 -0.66,0.9 -1.58,1.93 -0.94,1.05 -1.52,1.63 -1.74,1.74 -0.33,0.17 -0.61,0.26 -0.84,0.27 -0.37,0.02 -0.7,-0.08 -1.01,-0.29 -0.28,-0.17 -0.42,-0.37 -0.43,-0.57 -0.01,-0.15 0.02,-0.29 0.1,-0.45 0.16,-0.42 0.65,-0.96 1.47,-1.64 0.87,-0.75 1.3,-1.21 1.29,-1.38 -0.01,-0.2 -0.22,-0.39 -0.65,-0.57 -0.42,-0.17 -0.91,-0.27 -1.45,-0.29l-0.34 0.02c-0.4,0.02 -0.67,0.11 -0.81,0.25 -0.15,0.14 -0.27,0.41 -0.36,0.81 -0.06,0.34 -0.07,0.85 -0.04,1.51 0.03,0.48 0.08,0.86 0.16,1.14 0.27,0.9 0.82,1.52 1.63,1.86 0.3,0.13 0.76,0.19 1.38,0.17l0.47 -0.03c0.37,-0.02 0.72,-0.06 1.02,-0.14 0.73,-0.19 1.34,-0.44 1.86,-0.76 0.08,-0.05 0.21,-0.08 0.38,-0.09 0.27,-0.01 0.41,0.17 0.43,0.55 0.01,0.15 0,0.26 -0.01,0.34 -0.08,0.55 -0.31,1.05 -0.7,1.51 -0.29,0.34 -0.53,0.56 -0.72,0.63 -0.3,0.14 -0.67,0.3 -1.1,0.46 -0.85,0.38 -1.67,0.6 -2.46,0.64 -0.4,0.02 -0.93,0 -1.6,-0.07 -0.4,-0.05 -0.69,-0.11 -0.88,-0.21 -0.7,-0.28 -1.39,-0.83 -2.06,-1.62 -0.67,-0.79 -1.07,-1.59 -1.19,-2.41 -0.03,-0.15 -0.05,-0.34 -0.07,-0.57 -0.01,-0.2 0.01,-0.53 0.05,-0.97 0.1,-1.17 0.43,-2.17 1,-2.99 0.2,-0.32 0.56,-0.71 1.06,-1.15 0.5,-0.45 0.82,-0.67 0.99,-0.68 0.03,0 0.17,-0.07 0.46,-0.21zm13.51 6.74c-0.02,-0.33 0.01,-0.84 0.11,-1.51 0.09,-0.66 0.12,-1.18 0.1,-1.53 -0.03,-0.52 -0.11,-0.9 -0.25,-1.14 -0.34,-0.63 -0.87,-0.93 -1.57,-0.89 -0.36,0.02 -0.7,0.15 -1.01,0.4 -0.32,0.25 -0.57,0.55 -0.74,0.92 -0.09,0.17 -0.13,0.47 -0.14,0.91l0.02 0.31c0.01,0.25 0.12,0.73 0.33,1.45 0.2,0.57 0.3,1.02 0.32,1.33 0.01,0.29 -0.05,0.66 -0.19,1.1 -0.08,0.29 -0.17,0.68 -0.25,1.13 0,0.03 -0.01,0.12 -0.03,0.29 -0.03,0.17 -0.05,0.28 -0.06,0.33 -0.03,0.05 -0.05,0.14 -0.09,0.25 -0.03,0.12 -0.07,0.2 -0.13,0.25 -0.06,0.05 -0.14,0.07 -0.22,0.07 -0.17,0.01 -0.37,-0.07 -0.62,-0.26 -0.25,-0.19 -0.45,-0.42 -0.62,-0.71 -0.2,-0.29 -0.34,-0.56 -0.4,-0.79 -0.07,-0.22 -0.24,-1 -0.52,-2.34 -0.25,-1.18 -0.39,-1.9 -0.4,-2.16 -0.02,-0.31 0.03,-0.73 0.15,-1.26 0.12,-0.59 0.28,-1.06 0.49,-1.41 0.54,-0.81 1.17,-1.43 1.9,-1.84 0.47,-0.26 0.78,-0.41 0.93,-0.46 0.15,-0.05 0.51,-0.09 1.07,-0.12l0.13 -0.01c1.1,-0.04 2.1,0.24 3.01,0.84 0.7,0.46 1.25,1.14 1.64,2.04 0.23,0.59 0.43,1.99 0.57,4.18 0.11,1.77 0.24,2.73 0.37,2.91 0.09,0.15 0.14,0.3 0.15,0.46 0.01,0.28 -0.1,0.51 -0.33,0.71 -0.12,0.12 -0.29,0.18 -0.49,0.19 -0.46,0.02 -1.04,-0.27 -1.74,-0.88 -0.57,-0.49 -0.95,-0.92 -1.15,-1.29 -0.2,-0.36 -0.31,-0.85 -0.34,-1.47zm14.09 -5.2c-0.39,-0.17 -0.68,-0.24 -0.86,-0.23 -0.25,0.02 -0.42,0.22 -0.53,0.62 -0.05,0.21 -0.11,0.57 -0.16,1.07 -0.04,0.32 -0.07,0.54 -0.06,0.69l0.19 0.99c0.11,0.58 0.19,0.93 0.22,1.05 0.03,0.12 0.12,0.23 0.25,0.3 0.09,0.04 0.18,0.05 0.26,0.05 0.2,-0.02 0.52,-0.17 0.94,-0.49 0.4,-0.29 0.75,-0.65 1.04,-1.07 0.28,-0.43 0.41,-0.81 0.39,-1.17 -0.01,-0.29 -0.18,-0.62 -0.51,-0.98 -0.33,-0.36 -0.72,-0.64 -1.17,-0.83zm-0.43 -6.72c-0.3,-0.13 -0.57,-0.19 -0.82,-0.17 -0.1,0 -0.17,0.02 -0.22,0.04 -0.14,0.08 -0.26,0.47 -0.37,1.14 -0.1,0.56 -0.14,1.03 -0.12,1.41 0.02,0.38 0.11,0.85 0.27,1.42 0.16,0.52 0.37,0.76 0.66,0.75 0.28,-0.02 0.67,-0.26 1.19,-0.74 0.51,-0.47 0.87,-0.92 1.05,-1.35 0.11,-0.3 0.16,-0.5 0.15,-0.63 -0.01,-0.16 -0.06,-0.33 -0.15,-0.49 -0.12,-0.18 -0.36,-0.44 -0.73,-0.76 -0.37,-0.33 -0.68,-0.53 -0.91,-0.62zm-1.31 -3.43c0.37,-0.08 0.73,-0.13 1.05,-0.15l0.06 0c1.2,-0.06 2.28,0.21 3.27,0.83 0.99,0.63 1.69,1.46 2.1,2.5 0.29,0.69 0.45,1.38 0.49,2.04 0.05,0.97 -0.16,1.89 -0.63,2.78 -0.17,0.34 -0.26,0.56 -0.25,0.64 0,0.08 0.11,0.3 0.32,0.66 0.57,0.97 0.88,1.94 0.93,2.89 0.06,1 -0.14,1.94 -0.59,2.84 -0.32,0.68 -0.89,1.35 -1.73,2.01 -0.5,0.38 -1.19,0.67 -2.05,0.89 -0.19,0.05 -0.42,0.08 -0.71,0.1 -0.44,0.02 -0.92,-0.07 -1.46,-0.3l-0.54 -0.22 -0.3 0.2c-0.25,0.16 -0.42,0.24 -0.52,0.25 -0.25,0.01 -0.66,-0.34 -1.24,-1.08 -0.56,-0.74 -1.07,-1.68 -1.53,-2.8l-0.43 -1.04 -0.22 -3.39c-0.02,-0.39 -0.05,-0.85 -0.08,-1.38 -0.04,-0.53 -0.07,-0.89 -0.08,-1.05 -0.04,-0.81 -0.04,-1.52 -0.02,-2.15l0.03 -1.13 0.33 -0.74c0.19,-0.4 0.5,-0.85 0.9,-1.35 0.43,-0.49 0.71,-0.78 0.83,-0.86 0.2,-0.16 0.54,-0.36 1.04,-0.59 0.48,-0.23 0.83,-0.36 1.03,-0.4zm18.63 5.46c0.02,0.25 0,0.48 -0.05,0.69 -0.05,0.21 -0.07,0.42 -0.06,0.63 0,0.06 -0.01,0.44 -0.04,1.13 -0.03,0.85 -0.04,1.76 -0.01,2.74 0.04,1.94 -0.03,3.14 -0.24,3.61 -0.02,0.05 -0.05,0.11 -0.08,0.21 -0.04,0.1 -0.07,0.18 -0.11,0.26 -0.04,0.07 -0.07,0.12 -0.08,0.17 -0.1,0.22 -0.34,0.53 -0.72,0.93 -0.39,0.4 -0.71,0.69 -0.97,0.85 -0.34,0.2 -0.83,0.4 -1.46,0.57 -0.64,0.19 -1.17,0.29 -1.59,0.31l-0.18 0.01c-0.79,-0.02 -1.56,-0.25 -2.29,-0.69 -1.23,-0.72 -2.15,-2.13 -2.79,-4.22 -0.38,-1.29 -0.6,-2.39 -0.64,-3.28 -0.03,-0.48 0.01,-0.8 0.1,-0.97 0.15,-0.34 0.56,-0.76 1.25,-1.26 0.53,-0.4 0.98,-0.61 1.33,-0.63 0.19,-0.01 0.4,0.05 0.61,0.18 0.34,0.26 0.54,0.9 0.6,1.91 0.01,0.23 0.03,0.89 0.04,1.96 0,0.28 0.01,0.64 0.03,1.1 0.07,1.18 0.33,1.99 0.79,2.42 0.42,0.38 0.9,0.55 1.43,0.52 0.25,-0.02 0.49,-0.09 0.71,-0.23 0.62,-0.39 0.9,-1.2 0.83,-2.44 -0.02,-0.46 -0.11,-1.03 -0.24,-1.72 -0.12,-0.49 -0.19,-0.98 -0.21,-1.48 -0.06,-1.06 0.29,-2.03 1.06,-2.9 0.43,-0.55 0.9,-0.93 1.41,-1.14 0.15,-0.07 0.39,-0.11 0.75,-0.13 0.32,-0.02 0.54,0.03 0.64,0.13 0.1,0.11 0.16,0.36 0.18,0.76zm5.51 0.08c0.1,-0.03 0.25,-0.05 0.47,-0.06 0.47,-0.03 0.98,0.2 1.53,0.7 0.53,0.51 0.92,0.98 1.16,1.4 0.15,0.25 0.23,0.51 0.24,0.81 0.02,0.35 -0.07,0.63 -0.27,0.82 -0.09,0.09 -0.37,0.15 -0.8,0.17 -0.85,0.05 -1.57,0.02 -2.16,-0.1 -0.43,-0.09 -0.73,-0.12 -0.91,-0.11l-0.07 0c-0.2,0.07 -0.26,0.76 -0.2,2.05 0.06,1.03 0.07,1.8 0.03,2.31 -0.11,1.61 -0.24,2.56 -0.37,2.86 -0.21,0.43 -0.39,0.64 -0.53,0.65 -0.15,0.01 -0.4,-0.15 -0.75,-0.46 -0.28,-0.21 -0.48,-0.45 -0.63,-0.72 -0.05,-0.07 -0.25,-0.38 -0.61,-0.9 -0.5,-0.73 -0.79,-1.39 -0.88,-2.01 -0.07,-0.35 -0.14,-0.66 -0.21,-0.93 -0.08,-0.3 -0.14,-0.76 -0.18,-1.36 -0.04,-0.78 -0.02,-1.31 0.05,-1.57 0.06,-0.19 0.07,-0.4 0.06,-0.62 -0.01,-0.19 0.1,-0.44 0.33,-0.75 0.39,-0.51 0.78,-0.86 1.16,-1.05 0.92,-0.47 2.09,-0.85 3.54,-1.13zm10.06 2.42c-0.17,-0.05 -0.36,-0.06 -0.56,0 -0.5,0.16 -1,0.45 -1.53,0.88 -0.53,0.43 -0.94,0.9 -1.22,1.39 -0.16,0.29 -0.23,0.5 -0.22,0.67 0.02,0.29 0.34,0.69 0.97,1.2 1.14,0.93 2.13,1.46 2.99,1.55 0.03,0 0.05,0.01 0.09,0.01 0.03,0.01 0.05,0.02 0.07,0.02 0.38,-0.02 0.61,-0.41 0.69,-1.16 0.04,-0.38 0.05,-0.77 0.03,-1.16 -0.05,-0.81 -0.19,-1.54 -0.45,-2.21 -0.26,-0.66 -0.54,-1.05 -0.86,-1.19zm-3.49 -2.15c0.33,-0.38 1.1,-0.6 2.31,-0.66 0.54,-0.03 1.03,-0.02 1.47,0.02 0.76,0.06 1.43,0.31 2.03,0.73 0.22,0.14 0.59,0.45 1.11,0.96 0.51,0.5 0.82,0.83 0.91,0.99 0.14,0.23 0.21,0.51 0.23,0.83 0.01,0.26 0,0.54 -0.05,0.86 -0.21,1.5 -0.28,2.88 -0.21,4.12 0.02,0.4 -0.01,1.22 -0.09,2.46 -0.08,1.25 -0.17,2.15 -0.26,2.72 -0.04,0.4 -0.1,0.72 -0.2,0.98 -0.38,0.95 -0.85,1.69 -1.42,2.21 -0.56,0.52 -1.38,0.81 -2.44,0.87 -0.7,0.04 -1.47,-0.17 -2.28,-0.62 -0.91,-0.56 -1.65,-1.45 -2.23,-2.66 -0.19,-0.39 -0.3,-0.69 -0.31,-0.9 -0.01,-0.16 0.05,-0.35 0.19,-0.54 0.14,-0.15 0.33,-0.23 0.56,-0.24 0.14,-0.01 0.32,0.01 0.53,0.06 0.23,0.07 0.42,0.15 0.57,0.26 0.16,0.11 0.5,0.41 1.05,0.9 0.79,0.71 1.24,1.07 1.34,1.09 0.02,0 0.05,0 0.08,0.01 0.03,0.01 0.06,0.01 0.08,0.01 0.31,-0.02 0.65,-0.22 1.03,-0.59 0.38,-0.38 0.61,-0.76 0.71,-1.16 0.07,-0.26 0.09,-0.67 0.06,-1.22 -0.02,-0.4 -0.06,-0.69 -0.13,-0.87l-1.16 0.1 -0.37 0.02c-0.68,0.03 -1.22,0.01 -1.61,-0.08 -0.39,-0.08 -0.87,-0.28 -1.43,-0.57 -0.7,-0.4 -1.26,-0.84 -1.69,-1.32 -0.42,-0.48 -0.75,-1.12 -0.98,-1.91 -0.15,-0.52 -0.24,-1.02 -0.27,-1.52 -0.06,-1.14 0.19,-2.22 0.77,-3.26 0.25,-0.43 0.44,-0.74 0.6,-0.92 0.16,-0.19 0.41,-0.4 0.75,-0.62l0.75 -0.54zm11.79 -0.89c0.45,-0.21 0.85,-0.33 1.2,-0.35 0.25,-0.01 0.46,-0.01 0.63,0 1.21,0 2.35,0.34 3.42,1.03 0.55,0.37 0.9,0.75 1.09,1.14 0.1,0.18 0.16,0.37 0.17,0.58 0.01,0.3 -0.06,0.57 -0.21,0.86 -0.13,0.25 -0.66,0.9 -1.59,1.93 -0.94,1.05 -1.52,1.63 -1.74,1.74 -0.33,0.17 -0.61,0.26 -0.83,0.27 -0.38,0.02 -0.71,-0.08 -1.01,-0.29 -0.29,-0.17 -0.43,-0.37 -0.44,-0.57 -0.01,-0.15 0.03,-0.29 0.1,-0.45 0.16,-0.42 0.66,-0.96 1.47,-1.64 0.87,-0.75 1.31,-1.21 1.3,-1.38 -0.01,-0.2 -0.23,-0.39 -0.65,-0.57 -0.43,-0.17 -0.91,-0.27 -1.45,-0.29l-0.35 0.02c-0.39,0.02 -0.66,0.11 -0.81,0.25 -0.15,0.14 -0.27,0.41 -0.35,0.81 -0.06,0.34 -0.08,0.85 -0.04,1.51 0.02,0.48 0.08,0.86 0.15,1.14 0.27,0.9 0.82,1.52 1.64,1.86 0.3,0.13 0.75,0.19 1.38,0.17l0.47 -0.03c0.37,-0.02 0.71,-0.06 1.02,-0.14 0.72,-0.19 1.34,-0.44 1.86,-0.76 0.08,-0.05 0.21,-0.08 0.37,-0.09 0.27,-0.01 0.41,0.17 0.43,0.55 0.01,0.15 0.01,0.26 -0.01,0.34 -0.07,0.55 -0.3,1.05 -0.69,1.51 -0.29,0.34 -0.54,0.56 -0.72,0.63 -0.3,0.14 -0.68,0.3 -1.1,0.46 -0.86,0.38 -1.68,0.6 -2.47,0.64 -0.39,0.02 -0.92,0 -1.59,-0.07 -0.4,-0.05 -0.7,-0.11 -0.89,-0.2 -0.7,-0.3 -1.38,-0.84 -2.05,-1.63 -0.68,-0.79 -1.07,-1.59 -1.2,-2.41 -0.03,-0.15 -0.05,-0.34 -0.06,-0.57 -0.01,-0.2 0,-0.53 0.04,-0.97 0.11,-1.17 0.43,-2.17 1,-2.99 0.21,-0.32 0.56,-0.71 1.06,-1.15 0.5,-0.45 0.83,-0.67 0.99,-0.68 0.03,0 0.18,-0.07 0.46,-0.21zm12.28 -1.03c0.1,-0.04 0.26,-0.05 0.47,-0.06 0.48,-0.03 0.98,0.2 1.53,0.69 0.54,0.51 0.92,0.99 1.17,1.41 0.15,0.25 0.22,0.51 0.24,0.8 0.02,0.35 -0.07,0.63 -0.28,0.83 -0.09,0.09 -0.36,0.14 -0.79,0.17 -0.86,0.04 -1.58,0.01 -2.17,-0.11 -0.42,-0.08 -0.72,-0.12 -0.91,-0.11l-0.06 0.01c-0.2,0.07 -0.27,0.75 -0.2,2.04 0.06,1.04 0.06,1.81 0.03,2.31 -0.12,1.61 -0.25,2.57 -0.38,2.87 -0.21,0.42 -0.38,0.64 -0.52,0.64 -0.15,0.01 -0.4,-0.14 -0.75,-0.45 -0.28,-0.22 -0.49,-0.45 -0.64,-0.72 -0.04,-0.08 -0.25,-0.38 -0.6,-0.91 -0.5,-0.72 -0.8,-1.39 -0.89,-2 -0.06,-0.35 -0.13,-0.66 -0.21,-0.93 -0.08,-0.31 -0.14,-0.76 -0.17,-1.36 -0.04,-0.79 -0.03,-1.31 0.05,-1.57 0.05,-0.19 0.06,-0.41 0.05,-0.63 -0.01,-0.18 0.1,-0.44 0.33,-0.74 0.39,-0.52 0.78,-0.87 1.17,-1.05 0.91,-0.47 2.09,-0.85 3.53,-1.13z"/>
  <path class="fil4" d="M9.52 7.01c-0.33,0.23 -0.6,0.54 -0.85,0.86 -0.58,0.65 -0.99,1.4 -1.19,2.25 -0.35,1.55 0.07,2.92 1.01,4.15 1.26,1.64 2.99,2.58 4.91,3.24 0.05,0.02 0.11,0.05 0.15,-0.01 0.04,-0.06 -0.02,-0.1 -0.06,-0.14 -0.15,-0.17 -0.28,-0.35 -0.37,-0.56 -0.2,-0.45 -0.08,-0.87 0.34,-1.14 0.21,-0.13 0.42,-0.23 0.65,-0.3 0.67,-0.18 1.33,-0.37 1.99,-0.55 1.7,-0.46 2.82,-1.55 3.4,-3.21 0.18,-0.52 0.27,-1.06 0.23,-1.61 -0.02,-0.3 -0.04,-0.31 -0.29,-0.15 -0.13,0.09 -0.26,0.17 -0.4,0.24 -0.52,0.28 -1.08,0.47 -1.68,0.48 -0.01,0 -0.26,0.02 -0.26,0.02 0,0 0.14,-0.18 0.17,-0.22 1.43,-1.46 2.2,-3.15 1.87,-5.24 -0.1,-0.61 -0.3,-1.19 -0.66,-1.71l0 0c-0.14,-0.35 -0.38,-0.63 -0.62,-0.91 -0.63,-0.76 -1.39,-1.36 -2.25,-1.83 -0.07,-0.06 -0.17,-0.16 -0.24,-0.11 -0.08,0.05 0.04,0.13 0.07,0.19 0.29,0.67 0.24,1.33 -0.07,1.98 -0.17,0.35 -0.42,0.64 -0.65,0.95l0 0c-0.54,0.53 -1.21,0.88 -1.88,1.23 -0.52,0.28 -1.06,0.54 -1.56,0.88l0.01 0c-0.2,0.05 -0.35,0.18 -0.52,0.28 -0.44,0.28 -0.88,0.56 -1.25,0.94l0.02 0.01 -0.02 -0.01z"/>
 </g>
</svg>
