<?xml version="1.0" encoding="UTF-8"?>
<!DOCTYPE svg PUBLIC "-//W3C//DTD SVG 1.1//EN" "http://www.w3.org/Graphics/SVG/1.1/DTD/svg11.dtd">
<!-- Creator: CorelDRAW 2021.5 -->
<svg xmlns="http://www.w3.org/2000/svg" xml:space="preserve" width="491px" height="112px" version="1.1" style="shape-rendering:geometricPrecision; text-rendering:geometricPrecision; image-rendering:optimizeQuality; fill-rule:evenodd; clip-rule:evenodd"
viewBox="0 0 3223.82 736.67"
 xmlns:xlink="http://www.w3.org/1999/xlink"
 xmlns:xodm="http://www.corel.com/coreldraw/odm/2003">
 <defs>
  <style type="text/css">
   <![CDATA[
    .fil1 {fill:black;fill-rule:nonzero}
    .fil0 {fill:#95C11F;fill-rule:nonzero}
   ]]>
  </style>
 </defs>
 <g id="Layer_x0020_1">
  <metadata id="CorelCorpID_0Corel-Layer"/>
  <path class="fil0" d="M329.27 181.04c-10.38,6.29 -18.79,14.8 -26.78,23.77 -18.12,18.49 -31.64,39.83 -38.89,64.76 -13.1,45.09 -3.04,86.4 22.62,124.24 34.4,50.73 84.18,81.44 139.58,104.36 1.59,0.66 3.35,1.73 4.64,-0.03 1.35,-1.87 -0.6,-3.18 -1.56,-4.41 -4.09,-5.24 -7.6,-10.8 -9.93,-17.04 -5.16,-13.86 -0.84,-25.85 12.03,-33.17 6.19,-3.52 12.74,-6.25 19.74,-7.77 19.85,-4.29 39.67,-8.67 59.55,-12.85 51.26,-10.77 86.09,-41.09 106.01,-89.08 6.25,-15.06 9.99,-30.75 9.81,-47.15 -0.09,-8.95 -0.83,-9.27 -8.35,-4.98 -4.04,2.29 -8.13,4.53 -12.34,6.49 -16.44,7.59 -33.59,12.12 -51.82,11.24 -1.77,-0.09 -7.24,2.32 -4.58,-3.82 1.26,-0.71 2.7,-1.22 3.74,-2.18 44.76,-40.68 70.36,-89.61 64.05,-151.7 -1.86,-18.22 -6.82,-35.88 -16.51,-51.8l-0.04 -0.08c-3.61,-10.52 -10.17,-19.33 -16.71,-28.06 -17.47,-23.27 -38.8,-42.37 -63.46,-57.76 -1.88,-2.08 -4.6,-4.98 -6.75,-3.69 -2.45,1.45 0.89,3.75 1.73,5.68 7.41,20.33 4.78,39.67 -5.61,58.32 -5.61,10.05 -13.4,18.39 -20.77,27.05l-0.03 0.07c-17.02,14.84 -37.38,23.81 -57.55,33.17 -16.02,7.43 -32.43,14.09 -47.62,23.21l0.02 -0.02c-5.8,1.29 -10.6,4.75 -15.65,7.53 -13.53,7.49 -27.08,15.03 -38.54,25.66l0.43 0.43 -0.46 -0.39z"/>
  <path class="fil0" d="M0 671.82l1.78 20.4c0.41,4.73 -0.19,9.5 0.26,14.22 1.1,11.52 12.05,25.96 22.62,29.45 10.34,3.41 14.24,-5.15 19.73,-11.41 14.76,-16.8 29.68,-33.46 44.59,-50.12l-88.98 -2.54z"/>
  <path class="fil1" d="M620.88 369.07c-6.76,-3.31 -11.8,-4.88 -15.1,-4.88 -4.41,0 -7.72,3.47 -9.92,10.55 -1.1,3.61 -2.51,9.91 -3.93,18.88 -1.11,5.51 -1.73,9.45 -1.73,12.12l2.35 17.79c1.42,10.39 2.53,16.68 3,18.88 0.47,2.2 1.88,4.1 4.09,5.51 1.57,0.79 3.15,1.1 4.57,1.1 3.61,0 9.44,-2.51 17.15,-7.71 7.4,-4.88 14,-10.86 19.51,-18.1 5.51,-7.24 8.19,-14.01 8.19,-20.3 0,-5.2 -2.68,-11.18 -8.19,-17.94 -5.51,-6.77 -12.27,-12.12 -19.99,-15.9zm-1.25 -119.92c-5.2,-2.53 -9.92,-3.78 -14.32,-3.78 -1.9,0 -3.15,0.15 -3.94,0.47 -2.67,1.41 -5.19,8.18 -7.71,19.98 -2.36,9.92 -3.46,18.26 -3.46,24.87 0,6.77 1.1,15.27 3.46,25.65 2.2,9.29 5.82,13.86 11.01,13.86 4.88,0 12.12,-3.93 21.72,-11.96 9.6,-7.88 16.37,-15.59 19.99,-22.99 2.2,-5.19 3.3,-8.81 3.3,-11.01 0,-2.99 -0.78,-5.98 -2.2,-8.97 -1.88,-3.3 -5.98,-8.03 -12.27,-14.16 -6.3,-6.15 -11.49,-10.08 -15.58,-11.96zm-19.99 -62.18c6.77,-1.1 13.06,-1.57 18.88,-1.57l1.11 0c21.24,0 40.29,5.98 57.28,17.94 17,12.13 28.65,27.55 34.95,46.43 4.4,12.59 6.61,24.87 6.61,36.67 0,17.31 -4.57,33.53 -13.86,48.79 -3.3,5.98 -5.03,9.76 -5.03,11.18 0,1.41 1.73,5.51 5.03,12.12 9.29,17.78 13.86,35.25 13.86,52.25 0,17.78 -4.41,34.31 -13.23,49.89 -6.29,11.8 -17.15,23.13 -32.73,33.99 -9.29,6.3 -21.72,10.86 -37.3,13.86 -3.3,0.78 -7.56,1.1 -12.75,1.1 -7.71,0 -16.21,-2.21 -25.5,-6.78l-9.44 -4.4 -5.51 3.3c-4.57,2.68 -7.71,3.94 -9.45,3.94 -4.56,0 -11.48,-6.77 -21.08,-20.46 -9.28,-13.69 -17.47,-30.85 -24.56,-51.15l-6.61 -18.89 -0.62 -60.43c0,-7.08 0,-15.27 -0.16,-24.71 -0.16,-9.44 -0.32,-15.74 -0.32,-18.73 0,-14.32 0.63,-27.07 1.73,-38.24l1.58 -19.99 6.61 -12.75c3.77,-7.09 9.6,-14.8 17.31,-23.29 8.03,-8.19 13.22,-13.06 15.58,-14.48 3.63,-2.68 9.92,-5.83 18.89,-9.45 8.81,-3.62 15.11,-5.66 18.73,-6.14zm325.97 114.9c0,4.56 -0.47,8.66 -1.56,12.27 -1.1,3.62 -1.74,7.4 -1.74,11.18 0,1.1 -0.63,7.71 -1.73,19.98 -1.41,15.11 -2.36,31.32 -2.83,48.79 -1.1,34.47 -3.62,55.72 -7.71,63.9 -0.47,0.79 -0.95,1.89 -1.74,3.63 -0.78,1.73 -1.41,3.14 -2.19,4.4 -0.8,1.26 -1.27,2.21 -1.58,2.99 -1.89,3.78 -6.45,9.13 -13.7,15.89 -7.23,6.77 -13.22,11.5 -17.94,14.17 -6.29,3.3 -15.1,6.3 -26.6,8.82 -11.49,2.67 -21.08,3.93 -28.48,3.93l-3.31 0c-14.01,-1.1 -27.38,-5.98 -39.98,-14.48 -21.08,-14 -36.19,-39.97 -45.47,-77.75 -5.51,-23.29 -8.35,-42.97 -8.35,-58.86 0,-8.5 0.95,-14.16 2.84,-17.16 2.98,-5.82 10.69,-12.9 23.28,-21.08 9.93,-6.77 18.11,-10.08 24.4,-10.08 3.3,0 6.93,1.26 10.55,3.93 5.83,4.88 8.81,16.37 8.81,34.48 0,4.08 -0.32,15.74 -1.1,34.93 -0.32,4.88 -0.47,11.34 -0.47,19.52 0,21.09 3.93,35.73 11.65,43.75 7.08,7.08 15.42,10.55 25.02,10.55 4.41,0 8.66,-1.1 12.75,-3.31 11.48,-6.29 17.15,-20.46 17.15,-42.65 0,-8.18 -0.94,-18.42 -2.67,-30.69 -1.58,-8.81 -2.37,-17.63 -2.37,-26.6 0,-18.88 7.25,-35.72 21.72,-50.52 8.19,-9.28 16.84,-15.58 26.13,-18.89 2.67,-1.1 7.08,-1.57 13.38,-1.57 5.82,0 9.6,0.95 11.33,2.99 1.73,2.04 2.51,6.46 2.51,13.54zm97.78 6.76c1.73,-0.47 4.56,-0.62 8.34,-0.62 8.5,0 17.31,4.56 26.6,13.84 8.97,9.6 15.42,18.42 19.36,26.13 2.36,4.57 3.46,9.29 3.46,14.48 0,6.3 -1.89,11.18 -5.66,14.48 -1.74,1.41 -6.62,2.2 -14.33,2.2 -15.27,0 -28.01,-1.25 -38.4,-3.93 -7.4,-1.89 -12.75,-2.84 -16.05,-2.84l-1.11 0c-3.62,1.1 -5.5,13.23 -5.5,36.2 0,18.42 -0.63,32.11 -1.73,41.09 -3.63,28.48 -6.77,45.32 -9.45,50.52 -4.09,7.39 -7.39,11.01 -9.91,11.01 -2.68,0 -6.93,-2.99 -12.91,-8.82 -4.72,-4.09 -8.19,-8.49 -10.54,-13.37 -0.79,-1.42 -4.1,-7.08 -9.92,-16.69 -8.19,-13.37 -12.75,-25.49 -13.85,-36.51 -0.78,-6.3 -1.73,-11.8 -2.83,-16.68 -1.1,-5.51 -1.73,-13.69 -1.73,-24.39 0,-14.01 0.78,-23.3 2.36,-27.86 1.1,-3.31 1.57,-7.09 1.57,-11.02 0,-3.3 2.2,-7.71 6.61,-12.91 7.4,-8.81 14.64,-14.63 21.72,-17.62 16.68,-7.4 37.93,-13.06 63.9,-16.69zm176.46 52.73c-2.99,-1.1 -6.29,-1.41 -9.92,-0.63 -8.96,2.36 -18.25,7.08 -28.01,14.16 -9.91,7.24 -17.62,15.11 -23.14,23.61 -2.98,4.89 -4.4,8.66 -4.4,11.65 0,5.19 5.35,12.59 16.05,22.19 19.36,17.79 36.52,28.01 51.63,30.53 0.47,0 0.94,0.16 1.57,0.32 0.48,0.16 0.94,0.31 1.26,0.31 6.76,0 11.18,-6.61 13.38,-19.99 1.1,-6.61 1.57,-13.53 1.57,-20.62 0,-14.32 -1.89,-27.53 -5.82,-39.66 -3.93,-11.96 -8.66,-19.2 -14.17,-21.87zm-59.96 -41.71c6.29,-6.29 20.14,-9.44 41.7,-9.44 9.61,0 18.42,0.63 26.13,1.73 13.38,1.89 25.19,6.93 35.41,14.95 3.78,2.68 10.08,8.66 18.73,18.1 8.66,9.44 13.85,15.58 15.27,18.57 2.2,4.1 3.3,9.13 3.3,14.96 0,4.56 -0.62,9.59 -1.73,15.1 -5.19,26.6 -7.71,50.99 -7.71,73.19 0,7.08 -1.26,21.56 -3.94,43.59 -2.67,22.04 -5.03,38.09 -7.23,48.01 -1.11,7.08 -2.53,12.74 -4.41,17.31 -7.71,16.52 -16.84,29.27 -27.38,37.93 -10.55,8.65 -25.34,13.06 -44.23,13.06 -12.59,0 -25.97,-4.41 -39.97,-13.22 -15.59,-10.86 -27.87,-27.23 -37.15,-49.42 -2.99,-7.08 -4.56,-12.43 -4.56,-16.21 0,-2.99 1.25,-6.14 3.93,-9.44 2.68,-2.52 5.98,-3.78 10.08,-3.78 2.51,0 5.66,0.47 9.44,1.58 3.93,1.41 7.23,3.14 9.91,5.18 2.68,2.05 8.5,7.72 17.79,17.01 13.38,13.37 20.93,20.14 22.82,20.62 0.31,0 0.78,0.15 1.42,0.31 0.46,0.15 0.93,0.15 1.25,0.15 5.51,0 11.81,-3.14 18.89,-9.44 7.08,-6.29 11.64,-12.91 13.85,-19.99 1.42,-4.4 2.2,-11.64 2.2,-21.56 0,-7.08 -0.47,-12.27 -1.57,-15.58l-20.62 0.63 -6.61 0c-12.12,0 -21.72,-0.95 -28.48,-2.83 -6.93,-1.89 -15.27,-5.83 -24.87,-11.65 -12.12,-7.71 -21.72,-16.05 -28.81,-25.03 -7.08,-8.96 -12.27,-20.61 -15.57,-34.93 -2.21,-9.29 -3.31,-18.26 -3.31,-27.23 0,-20.3 5.5,-39.34 16.68,-57.13 4.88,-7.4 8.66,-12.75 11.65,-15.89 2.99,-3.15 7.55,-6.62 13.85,-10.24l13.85 -8.97zm210.46 -4.41c8.18,-3.3 15.42,-5.03 21.56,-5.03 4.56,0 8.18,0.15 11.17,0.63 21.57,1.1 41.56,8.18 59.97,21.56 9.29,7.08 15.27,14.17 18.25,21.25 1.58,3.3 2.37,6.76 2.37,10.54 0,5.2 -1.58,10.08 -4.57,14.95 -2.52,4.41 -12.59,15.43 -30.06,32.89 -17.63,17.64 -28.49,27.39 -32.58,29.28 -5.98,2.68 -11.01,3.94 -15.11,3.94 -6.61,0 -12.43,-2.05 -17.62,-6.14 -4.88,-3.31 -7.25,-6.93 -7.25,-10.55 0,-2.67 0.79,-5.19 2.21,-7.87 3.31,-7.39 12.59,-16.52 27.7,-27.7 16.21,-12.59 24.39,-20.3 24.39,-23.29 0,-3.62 -3.61,-7.24 -11.01,-10.86 -7.4,-3.46 -15.9,-5.67 -25.5,-6.45l-6.14 0c-7.08,0 -11.96,1.26 -14.63,3.62 -2.84,2.36 -5.2,7.08 -7.09,14.16 -1.42,5.98 -2.2,14.96 -2.2,26.76 0,8.5 0.63,15.27 1.73,20.46 3.93,16.21 13.06,27.7 27.23,34.47 5.2,2.67 13.22,4.09 24.39,4.4l8.34 0c6.62,0 12.75,-0.47 18.26,-1.57 13.06,-2.68 24.23,-6.61 33.84,-11.81 1.42,-0.78 3.78,-1.1 6.76,-1.1 4.73,0 7.09,3.31 7.09,10.08 0,2.67 -0.16,4.71 -0.47,6.13 -1.89,9.61 -6.45,18.26 -13.86,26.13 -5.5,5.83 -10.06,9.44 -13.37,10.54 -5.51,2.21 -12.28,4.57 -19.99,7.08 -15.58,5.98 -30.37,8.98 -44.38,8.98 -7.09,0 -16.53,-0.95 -28.33,-2.83 -7.08,-1.1 -12.28,-2.52 -15.59,-4.41 -12.11,-5.82 -23.75,-16.21 -34.93,-30.85 -11.17,-14.64 -17.47,-29.27 -18.89,-44.07 -0.47,-2.67 -0.63,-5.98 -0.63,-10.07 0,-3.62 0.63,-9.44 1.73,-17.15 2.99,-20.78 9.76,-38.25 20.62,-52.26 3.93,-5.51 10.7,-12.12 19.99,-19.51 9.28,-7.4 15.26,-11.02 18.26,-11.02 0.47,0 3.15,-1.1 8.34,-3.31zm219.27 -6.61c1.73,-0.47 4.56,-0.62 8.34,-0.62 8.5,0 17.31,4.56 26.6,13.84 8.97,9.6 15.43,18.42 19.36,26.13 2.36,4.57 3.46,9.29 3.46,14.48 0,6.3 -1.89,11.18 -5.66,14.48 -1.73,1.41 -6.61,2.2 -14.33,2.2 -15.27,0 -28.01,-1.25 -38.4,-3.93 -7.4,-1.89 -12.75,-2.84 -16.05,-2.84l-1.11 0c-3.62,1.1 -5.5,13.23 -5.5,36.2 0,18.42 -0.63,32.11 -1.73,41.09 -3.63,28.48 -6.78,45.32 -9.45,50.52 -4.09,7.39 -7.39,11.01 -9.91,11.01 -2.68,0 -6.93,-2.99 -12.91,-8.82 -4.72,-4.09 -8.19,-8.49 -10.54,-13.37 -0.79,-1.42 -4.1,-7.08 -9.92,-16.69 -8.18,-13.37 -12.75,-25.49 -13.85,-36.51 -0.78,-6.3 -1.73,-11.8 -2.83,-16.68 -1.1,-5.51 -1.73,-13.69 -1.73,-24.39 0,-14.01 0.78,-23.3 2.36,-27.86 1.1,-3.31 1.57,-7.09 1.57,-11.02 0,-3.3 2.2,-7.71 6.61,-12.91 7.4,-8.81 14.64,-14.63 21.72,-17.62 16.68,-7.4 37.93,-13.06 63.9,-16.69zm90.38 13.86c8.65,-9.92 24.7,-14.96 48.31,-14.96 9.28,0 17.47,0.79 24.56,2.21 8.49,1.73 14,3.3 16.67,4.56 2.52,1.42 5.51,3.78 8.82,7.09 7.71,8.49 11.65,18.09 11.65,28.8 0,5.51 -1.42,10.07 -4.41,13.37 -2.68,2.68 -5.35,3.93 -8.35,3.93 -2.98,0 -6.76,-1.57 -11.64,-4.56 -7.4,-4.4 -17.79,-8.5 -31.16,-12.11 -8.03,-2.21 -13.22,-2.84 -15.58,-1.74 -1.73,1.11 -2.68,2.67 -2.68,4.57 0,2.52 1.42,6.61 4.41,12.11 6.3,11.81 14.79,22.67 25.49,32.27 16.37,14 27.08,25.34 32.27,33.84 10.39,15.57 15.58,26.75 15.58,33.83 0,13.07 -7.24,22.98 -21.72,30.06 -14.79,7.4 -29.59,11.03 -44.38,11.03 -4.09,0 -11.33,-0.8 -21.72,-2.21 -19.68,-3.3 -34.47,-9.76 -44.38,-19.36 -7.4,-7.08 -11.02,-14.95 -11.02,-23.92 0,-13.06 4.09,-19.52 12.12,-19.52 4.4,0 10.7,2.68 18.89,7.88 9.28,6.29 21.09,9.59 35.56,9.91 9.61,0.47 15.27,-0.16 16.69,-1.58 1.73,-1.89 2.2,-3.77 1.1,-5.67 -0.79,-1.73 -7.71,-9.28 -21.09,-22.65 -21.09,-22.2 -33.99,-38.56 -38.87,-48.95 -4.88,-9.92 -7.25,-19.52 -7.25,-28.8 0,-10.39 4.1,-20.15 12.13,-29.43zm308.69 125.43c0,-5.82 1.1,-14.79 3.47,-26.6 2.2,-11.8 3.3,-20.93 3.3,-27.23 0,-9.28 -1.1,-16.05 -3.3,-20.45 -5.51,-11.5 -14.64,-17.32 -27.23,-17.32 -6.3,0 -12.43,2.05 -18.26,6.14 -5.98,4.1 -10.7,9.28 -14.01,15.58 -1.73,2.99 -2.83,8.34 -3.3,16.05l0 5.52c0,4.56 1.42,13.22 4.41,26.12 2.99,10.39 4.4,18.41 4.4,23.93 0,5.18 -1.41,11.64 -4.4,19.35 -1.73,5.2 -3.62,11.96 -5.51,19.99 0,0.47 -0.31,2.05 -0.78,5.03 -0.64,3 -1.11,4.88 -1.42,5.83 -0.48,0.94 -0.95,2.36 -1.73,4.4 -0.8,2.05 -1.58,3.46 -2.68,4.26 -1.1,0.78 -2.52,1.1 -3.93,1.1 -3,0 -6.46,-1.73 -10.71,-5.36 -4.25,-3.46 -7.71,-7.86 -10.38,-13.06 -3.31,-5.51 -5.51,-10.38 -6.46,-14.48 -0.94,-3.93 -3.3,-17.94 -6.93,-42.02 -3.3,-21.25 -5.03,-34.15 -5.03,-38.88 0,-5.51 1.26,-12.9 3.93,-22.18 2.68,-10.39 5.98,-18.57 10.08,-24.56 10.23,-14 22.03,-24.39 35.41,-31 8.66,-4.09 14.32,-6.45 17,-7.24 2.67,-0.79 9.13,-1.1 19.2,-1.1l2.2 0c19.68,0.31 37.15,6.29 52.73,17.78 12.12,8.81 21.25,21.4 27.23,37.77 3.61,10.71 5.66,35.73 6.13,74.92 0.32,31.48 1.58,48.79 3.78,52.09 1.41,2.68 2.2,5.36 2.2,8.34 0,4.88 -2.2,8.98 -6.61,12.28 -2.2,1.89 -5.19,2.83 -8.81,2.83 -8.18,0 -18.26,-5.82 -30.06,-17.31 -9.6,-9.29 -16.05,-17.15 -19.2,-23.92 -3.15,-6.61 -4.73,-15.42 -4.73,-26.6z"/>
  <path class="fil1" d="M2062.54 194.22c-6.15,39.97 -21.09,97.1 -32.74,130l31.16 -3.47c14.96,-25.5 38.72,-85.46 51.62,-132.05l-50.04 5.52z"/>
  <path class="fil1" d="M2469.65 174.23l12.27 -7.25 9.45 1.11c6.29,0.79 10.54,1.57 12.59,2.67 2.04,1.1 2.99,3.62 2.99,7.4 0,9.6 -1.58,21.41 -4.56,35.57 -3.31,13.38 -4.88,30.37 -4.88,50.99 0,5.51 0.15,9.29 0.47,11.18 1.1,9.28 2.05,51.93 2.83,128.27 0,8.81 -2.2,20.46 -6.61,34.94 -9.28,30.05 -25.02,50.36 -47.21,61.07 -12.59,6.29 -27.23,9.75 -43.92,10.54 -4.4,0.31 -9.75,0.47 -16.04,0.47 -7.09,0 -17.48,-3.15 -31.17,-9.45l-16.05 -8.18 -11.65 5.51c-15.9,7.72 -33.21,11.96 -51.62,12.75 -1.11,0 -2.68,0 -4.72,0.15 -2.05,0.17 -3.47,0.32 -4.25,0.32 -7.08,0 -17.31,-3.15 -31.01,-9.45 -21.09,-9.91 -36.52,-24.7 -46.11,-44.37 -3.62,-8.03 -5.98,-14.96 -6.93,-20.47 -0.94,-5.5 -1.41,-17.94 -1.41,-37.3l0 -48.78c0.31,-82.16 1.73,-127.49 4.41,-135.98 2.67,-8.19 6.76,-14.8 12.27,-19.84 5.51,-4.88 11.49,-7.4 17.78,-7.4 2.21,0 3.78,0.17 4.88,0.48 5.19,1.42 11.02,6.3 17.32,14.63 6.29,8.35 11.01,17.16 14.32,26.45 2.67,8.49 3.93,15.74 3.93,21.72 0,4.4 -1.26,15.11 -3.93,32.26 -9.61,52.41 -14.32,85.77 -14.32,99.94 0,3.93 0.15,6.77 0.47,8.18 2.99,17.47 14,33.21 32.73,47.22 7.4,5.51 12.91,8.34 16.22,8.34 6.61,0 12.11,-5.04 16.68,-14.95 4.72,-10.39 7.87,-22.35 9.44,-36.04 0.79,-6.77 1.1,-11.8 1.1,-15.11 0,-8.03 -1.73,-24.87 -5.04,-50.52 -1.88,-17.79 -2.83,-29.12 -2.83,-34.31 0,-8.97 2.05,-19.36 6.14,-31.17 6.29,-18.41 14.17,-35.56 23.61,-51.15 9.45,-15.57 16.68,-23.29 21.87,-23.29 5.51,0 9.61,7.55 12.28,22.82 2.68,14.01 3.93,32.58 3.93,55.56 0,19.2 -0.15,35.89 -0.62,49.89 -1.1,47.06 -1.73,76.34 -1.73,87.82 0,11.18 1.1,18.89 3.46,23.3 1.73,3.61 4.88,7.86 9.13,12.74 4.25,4.88 8.02,7.25 11.33,7.25 6.76,0 14.32,-4.25 22.82,-12.6 8.49,-8.34 14.79,-17.78 18.89,-28.48 2.2,-5.98 3.3,-13.69 3.3,-23.3 0,-10.86 -1.73,-24.08 -5.04,-39.97 -7.39,-36.36 -11.01,-65.16 -11.01,-86.72 0,-21.09 3.3,-38.09 9.91,-51 8.18,-14.47 19.52,-25.96 33.84,-34.46zm135.07 134.4c1.73,-0.47 4.57,-0.62 8.34,-0.62 8.51,0 17.32,4.56 26.6,13.84 8.97,9.6 15.42,18.42 19.36,26.13 2.36,4.57 3.46,9.29 3.46,14.48 0,6.3 -1.89,11.18 -5.67,14.48 -1.73,1.41 -6.61,2.2 -14.32,2.2 -15.26,0 -28.01,-1.25 -38.4,-3.93 -7.39,-1.89 -12.75,-2.84 -16.05,-2.84l-1.1 0c-3.62,1.1 -5.51,13.23 -5.51,36.2 0,18.42 -0.64,32.11 -1.73,41.09 -3.62,28.48 -6.77,45.32 -9.45,50.52 -4.09,7.39 -7.39,11.01 -9.91,11.01 -2.68,0 -6.93,-2.99 -12.91,-8.82 -4.72,-4.09 -8.18,-8.49 -10.54,-13.37 -0.79,-1.42 -4.1,-7.08 -9.91,-16.69 -8.19,-13.37 -12.76,-25.49 -13.86,-36.51 -0.79,-6.3 -1.73,-11.8 -2.83,-16.68 -1.1,-5.51 -1.73,-13.69 -1.73,-24.39 0,-14.01 0.79,-23.3 2.36,-27.86 1.1,-3.31 1.57,-7.09 1.57,-11.02 0,-3.3 2.21,-7.71 6.61,-12.91 7.4,-8.81 14.64,-14.63 21.72,-17.62 16.69,-7.4 37.93,-13.06 63.9,-16.69zm177.57 50.52c-2.52,-1.88 -4.88,-2.83 -7.25,-2.83 -3.3,0 -9.44,2.36 -18.72,7.24 -15.89,8.18 -28.02,19.36 -36.2,33.37 -2.52,4.41 -3.78,7.71 -3.78,9.91 0,6.77 8.66,16.53 26.13,29.43 17.31,13.07 31.16,19.99 41.55,21.1 4.88,0.47 8.18,-0.32 9.91,-2.21 4.88,-4.88 7.24,-15.74 7.24,-32.74 0,-9.28 -0.78,-17.62 -2.2,-25.02 -4.09,-19.99 -9.6,-32.74 -16.68,-38.25zm-43.28 -48.94c7.4,-1.73 15.26,-2.68 23.44,-2.68 8.03,0 16.37,0.95 24.87,2.68 14.8,2.99 28.65,9.44 41.71,19.2 12.9,9.92 22.51,21.24 28.8,34.15 4.88,9.6 7.87,18.42 8.97,26.13 1.1,7.71 1.58,22.34 1.58,43.91 0,20.62 0.31,33.36 0.94,37.93 0.48,4.56 2.21,8.97 5.19,13.06 2.2,3.31 3.31,6.46 3.31,9.44 0,3.63 -1.89,6.77 -5.51,9.45 -3.62,2.67 -8.49,3.93 -14.32,3.93 -5.98,0 -10.54,-0.79 -13.69,-2.35 -3.15,-1.42 -7.08,-4.73 -11.96,-9.93l-8.34 -8.81 -9.45 7.71c-8.5,6.77 -15.58,11.18 -21.09,13.38 -5.51,2.21 -13.37,3.31 -23.29,3.31l-10.07 0c-12.91,-0.47 -22.2,-1.73 -27.7,-3.93 -17.47,-6.3 -32.74,-16.84 -46.12,-31.64 -4.4,-5.19 -7.24,-8.82 -8.5,-11.18 -1.41,-2.2 -3.3,-7.23 -5.98,-14.95 -4.87,-14 -7.24,-27.38 -7.24,-39.97 0,-16.21 3.93,-32.11 11.81,-47.69 7.4,-15.27 14.16,-24.87 20.46,-28.96 17.47,-11.8 31.47,-19.2 42.18,-22.19zm237.06 50.52c-7.09,-3.3 -11.97,-3.62 -14.96,-1.1 -3.61,2.98 -7.39,9.28 -11.33,18.89 -3.94,9.59 -6.61,19.51 -8.02,29.43 -0.79,3.77 -1.1,11.33 -1.1,22.82 0,10.7 0.31,17.31 1.1,19.99 1.41,6.29 5.19,9.44 11.01,9.44 3.62,0 7.71,-0.79 12.27,-2.21 18.42,-5.98 33.06,-14.95 43.76,-26.75 7.08,-7.4 10.54,-13.85 10.54,-19.36 0,-4.88 -2.2,-10.54 -6.61,-17.15 -10.7,-16.69 -22.97,-28.02 -36.66,-34zm-21.1 -48.32c8.19,-1.42 15.74,-2.2 22.83,-2.2 12.11,0 22.82,1.26 32.1,3.93 14.95,4.41 28.18,12.44 39.97,23.92 6.3,6.3 11.03,11.81 14.01,16.37 3,4.57 6.14,11.96 9.45,21.88l4.41 12.75 0 42.81 -5.51 13.38c-7.4,18.1 -16.84,31.94 -28.02,41.7 -11.33,9.92 -27.07,16.84 -47.06,20.94 -8.02,1.41 -13.85,2.2 -17.15,2.2 -8.5,0 -18.57,-2.52 -30.06,-7.72l-6.62 -2.19c-0.78,8.02 -1.41,16.99 -2.2,26.6 -2.99,39.65 -8.49,59.48 -16.68,59.48 -4.09,0 -8.18,-2.35 -12.12,-7.23 -2.36,-3 -6.45,-10.39 -12.27,-22.2 -5.83,-11.8 -9.76,-20.61 -11.65,-26.12 -1.89,-5.51 -3.78,-10.86 -5.51,-16.06 -2.36,-5.51 -3.62,-20.62 -3.93,-45.01 0,-7.08 0,-12.59 0,-16.68l0 -22.19c0,-28.49 1.89,-47.54 5.5,-57.13 3.31,-8.98 8.51,-17.94 15.27,-27.07 6.77,-8.98 13.85,-15.74 20.94,-20.15 9.59,-6.3 20.92,-11.02 34.3,-14.01zm154.9 10.08c8.66,-9.92 24.72,-14.96 48.32,-14.96 9.29,0 17.47,0.79 24.55,2.21 8.5,1.73 14.01,3.3 16.69,4.56 2.52,1.42 5.51,3.78 8.81,7.09 7.71,8.49 11.65,18.09 11.65,28.8 0,5.51 -1.42,10.07 -4.41,13.37 -2.67,2.68 -5.35,3.93 -8.34,3.93 -2.99,0 -6.77,-1.57 -11.65,-4.56 -7.4,-4.4 -17.78,-8.5 -31.16,-12.11 -8.02,-2.21 -13.22,-2.84 -15.58,-1.74 -1.73,1.11 -2.67,2.67 -2.67,4.57 0,2.52 1.41,6.61 4.4,12.11 6.3,11.81 14.79,22.67 25.5,32.27 16.37,14 27.07,25.34 32.26,33.84 10.39,15.57 15.58,26.75 15.58,33.83 0,13.07 -7.23,22.98 -21.72,30.06 -14.79,7.4 -29.59,11.03 -44.38,11.03 -4.09,0 -11.33,-0.8 -21.72,-2.21 -19.67,-3.3 -34.47,-9.76 -44.38,-19.36 -7.4,-7.08 -11.02,-14.95 -11.02,-23.92 0,-13.06 4.09,-19.52 12.12,-19.52 4.41,0 10.7,2.68 18.88,7.88 9.29,6.29 21.09,9.59 35.58,9.91 9.6,0.47 15.26,-0.16 16.68,-1.58 1.73,-1.89 2.2,-3.77 1.1,-5.67 -0.79,-1.73 -7.71,-9.28 -21.09,-22.65 -21.09,-22.2 -34,-38.56 -38.88,-48.95 -4.87,-9.92 -7.23,-19.52 -7.23,-28.8 0,-10.39 4.09,-20.15 12.11,-29.43z"/>
 </g>
</svg>
