<?xml version="1.0" encoding="UTF-8"?>
<!DOCTYPE svg PUBLIC "-//W3C//DTD SVG 1.1//EN" "http://www.w3.org/Graphics/SVG/1.1/DTD/svg11.dtd">
<!-- Creator: CorelDRAW 2021.5 -->
<svg xmlns="http://www.w3.org/2000/svg" xml:space="preserve" width="223px" height="104px" version="1.1" style="shape-rendering:geometricPrecision; text-rendering:geometricPrecision; image-rendering:optimizeQuality; fill-rule:evenodd; clip-rule:evenodd"
viewBox="0 0 110.36 51.43"
 xmlns:xlink="http://www.w3.org/1999/xlink"
 xmlns:xodm="http://www.corel.com/coreldraw/odm/2003">
 <defs>
  <style type="text/css">
   <![CDATA[
    .fil1 {fill:black;fill-rule:nonzero}
    .fil0 {fill:#66EDDA;fill-rule:nonzero}
   ]]>
  </style>
 </defs>
 <g id="Layer_x0020_1">
  <metadata id="CorelCorpID_0Corel-Layer"/>
  <path class="fil0" d="M5.38 13.65c-0.78,0.47 -1.41,1.12 -2.01,1.79 -1.37,1.4 -2.39,3.01 -2.94,4.89 -0.98,3.4 -0.23,6.51 1.71,9.36 2.59,3.83 6.35,6.14 10.52,7.87 0.12,0.05 0.26,0.13 0.35,0 0.1,-0.14 -0.04,-0.24 -0.11,-0.33 -0.31,-0.4 -0.58,-0.82 -0.75,-1.29 -0.39,-1.04 -0.07,-1.95 0.9,-2.5 0.47,-0.26 0.96,-0.47 1.49,-0.58 1.5,-0.33 2.99,-0.66 4.49,-0.97 3.87,-0.82 6.49,-3.1 7.99,-6.72 0.48,-1.14 0.76,-2.32 0.74,-3.56 0,-0.67 -0.06,-0.69 -0.63,-0.37 -0.3,0.17 -0.61,0.34 -0.93,0.49 -1.23,0.57 -2.53,0.91 -3.9,0.85 -0.14,-0.01 -0.55,0.17 -0.35,-0.29 0.1,-0.06 0.2,-0.09 0.28,-0.17 3.38,-3.06 5.31,-6.75 4.83,-11.43 -0.14,-1.38 -0.51,-2.71 -1.24,-3.91l0 -0.01c-0.28,-0.79 -0.77,-1.45 -1.27,-2.11 -1.31,-1.76 -2.92,-3.2 -4.78,-4.36 -0.14,-0.15 -0.35,-0.37 -0.51,-0.28 -0.18,0.11 0.07,0.29 0.13,0.43 0.56,1.54 0.36,2.99 -0.42,4.4 -0.42,0.76 -1.01,1.39 -1.57,2.04l0 0.01c-1.28,1.11 -2.82,1.79 -4.34,2.5 -1.21,0.56 -2.44,1.06 -3.59,1.75l0 0c-0.43,0.09 -0.8,0.35 -1.18,0.56 -1.02,0.57 -2.04,1.14 -2.9,1.94l0.03 0.03 -0.04 -0.03z"/>
  <path class="fil1" d="M24.09 18.27c0.27,-0.05 0.74,-0.08 1.42,-0.08 1.17,0 2.42,0.13 3.75,0.39 1.32,0.28 2.23,0.56 2.74,0.87 1.28,0.84 1.92,2.08 1.92,3.73 0,1.22 -0.37,1.91 -1.09,2.05 -0.02,0 -0.06,0.01 -0.12,0.03l-0.09 0c-0.11,0 -0.75,-0.32 -1.93,-0.96 -1.48,-0.8 -3,-1.21 -4.55,-1.21 -0.73,0 -1.16,0.16 -1.31,0.47 -0.06,0.16 -0.08,0.3 -0.08,0.41 0,0.48 0.32,1.27 0.96,2.39 0.7,1.15 2.24,2.97 4.61,5.48 1.36,1.46 2.29,2.5 2.76,3.14 0.47,0.64 0.8,1.27 0.96,1.89 0.08,0.36 0.13,0.74 0.13,1.13 0,1.5 -0.58,2.57 -1.75,3.21 -0.99,0.56 -2.09,1 -3.32,1.31 -0.6,0.13 -1.36,0.2 -2.25,0.2 -1.36,0 -2.81,-0.09 -4.32,-0.28 -0.87,-0.11 -1.9,-0.53 -3.11,-1.24 -1.22,-0.71 -1.97,-1.39 -2.24,-2.03 -0.23,-0.47 -0.33,-0.97 -0.33,-1.5 0,-0.29 0.01,-0.5 0.03,-0.63 0.23,-1.16 0.7,-1.72 1.43,-1.72 0.53,0 1.14,0.26 1.84,0.79 1.48,1.09 3.38,1.64 5.69,1.64 0.58,0 1.06,-0.11 1.43,-0.32 0.36,-0.2 0.54,-0.46 0.54,-0.77 0,-0.21 -0.06,-0.37 -0.16,-0.5 -0.06,-0.12 -0.82,-0.96 -2.31,-2.52 -1.87,-1.96 -3.11,-3.28 -3.69,-4 -0.58,-0.71 -1.09,-1.47 -1.5,-2.28 -0.37,-0.7 -0.66,-1.21 -0.88,-1.55l-0.33 -0.58 0 -1.31c0,-0.8 0.07,-1.43 0.21,-1.87 0.35,-1.01 0.97,-1.85 1.86,-2.54 0.88,-0.68 1.9,-1.09 3.08,-1.24zm13.38 2.98c0.17,-0.06 0.38,-0.08 0.63,-0.08 0.58,0 0.95,0.3 1.09,0.88 0.06,0.25 0.11,1.14 0.17,2.67l0.04 2.3 1.3 0c2.17,0 3.93,0.68 5.27,2.02 0.47,0.44 0.91,1.1 1.3,1.97 0.28,0.58 0.44,1.21 0.5,1.87 0.06,0.68 0.11,2.15 0.17,4.44 0.06,3.18 0.19,5.16 0.41,5.95 0.09,0.28 0.14,0.53 0.14,0.76 0,0.41 -0.15,0.68 -0.42,0.79 -0.06,0.02 -0.18,0.04 -0.38,0.04 -0.51,0 -0.95,-0.1 -1.34,-0.29 -0.33,-0.14 -0.78,-0.46 -1.34,-0.97 -0.56,-0.5 -0.94,-0.9 -1.13,-1.21 -0.41,-0.67 -0.69,-1.31 -0.82,-1.92 -0.13,-0.62 -0.2,-1.86 -0.22,-3.69 -0.06,-2.26 -0.13,-3.7 -0.23,-4.31 -0.11,-0.62 -0.37,-1.09 -0.78,-1.43l-0.46 0.17c-0.68,0.23 -1.24,0.63 -1.68,1.22l-0.25 0.42 -0.08 2.8c-0.08,3.55 -0.2,5.65 -0.33,6.32 -0.14,0.56 -0.39,0.83 -0.76,0.83 -0.27,0 -0.64,-0.19 -1.09,-0.58 -0.37,-0.37 -0.82,-1.09 -1.38,-2.19 -0.56,-1.11 -1,-2.14 -1.29,-3.12 -0.15,-0.42 -0.23,-3.59 -0.26,-9.51l0 -2.85 0.29 -0.58c0.25,-0.51 0.49,-0.87 0.71,-1.09 0.25,-0.25 0.64,-0.57 1.16,-0.96 0.51,-0.39 0.86,-0.61 1.06,-0.67zm20.01 10.01c-0.19,-0.15 -0.36,-0.22 -0.54,-0.22 -0.25,0 -0.72,0.18 -1.42,0.55 -1.19,0.62 -2.11,1.46 -2.72,2.52 -0.19,0.33 -0.29,0.58 -0.29,0.74 0,0.51 0.65,1.25 1.97,2.22 1.31,0.99 2.35,1.51 3.13,1.59 0.37,0.04 0.62,-0.02 0.75,-0.16 0.37,-0.37 0.55,-1.19 0.55,-2.47 0,-0.7 -0.06,-1.33 -0.17,-1.89 -0.31,-1.51 -0.72,-2.47 -1.26,-2.88zm-3.26 -3.69c0.56,-0.13 1.15,-0.21 1.77,-0.21 0.6,0 1.23,0.08 1.87,0.21 1.12,0.22 2.16,0.71 3.15,1.44 0.97,0.75 1.69,1.61 2.17,2.58 0.37,0.72 0.59,1.39 0.67,1.97 0.09,0.58 0.12,1.68 0.12,3.31 0,1.55 0.03,2.52 0.07,2.86 0.04,0.34 0.17,0.68 0.4,0.98 0.16,0.25 0.25,0.49 0.25,0.72 0,0.27 -0.15,0.51 -0.42,0.71 -0.27,0.2 -0.64,0.3 -1.08,0.3 -0.45,0 -0.79,-0.06 -1.03,-0.18 -0.24,-0.11 -0.54,-0.36 -0.9,-0.75l-0.63 -0.66 -0.71 0.58c-0.65,0.51 -1.18,0.84 -1.59,1.01 -0.42,0.16 -1.01,0.24 -1.76,0.24l-0.76 0c-0.97,-0.03 -1.67,-0.13 -2.09,-0.29 -1.32,-0.48 -2.47,-1.27 -3.48,-2.39 -0.33,-0.39 -0.54,-0.66 -0.64,-0.84 -0.1,-0.17 -0.25,-0.55 -0.45,-1.13 -0.37,-1.05 -0.54,-2.06 -0.54,-3.01 0,-1.22 0.29,-2.42 0.89,-3.6 0.55,-1.15 1.06,-1.87 1.54,-2.18 1.32,-0.89 2.37,-1.45 3.18,-1.67zm17.84 -0.12c0.13,-0.04 0.34,-0.05 0.63,-0.05 0.64,0 1.3,0.34 2,1.04 0.68,0.73 1.16,1.39 1.46,1.97 0.18,0.35 0.26,0.7 0.26,1.1 0,0.47 -0.14,0.84 -0.42,1.09 -0.14,0.11 -0.5,0.16 -1.08,0.16 -1.16,0 -2.12,-0.09 -2.9,-0.29 -0.56,-0.15 -0.96,-0.22 -1.21,-0.22l-0.08 0c-0.28,0.09 -0.42,1 -0.42,2.73 0,1.39 -0.05,2.42 -0.13,3.1 -0.27,2.15 -0.51,3.42 -0.71,3.81 -0.31,0.56 -0.56,0.83 -0.75,0.83 -0.2,0 -0.52,-0.23 -0.97,-0.66 -0.36,-0.31 -0.62,-0.65 -0.8,-1.01 -0.06,-0.11 -0.31,-0.54 -0.74,-1.26 -0.62,-1.01 -0.97,-1.92 -1.05,-2.75 -0.06,-0.48 -0.13,-0.89 -0.21,-1.26 -0.09,-0.42 -0.13,-1.03 -0.13,-1.84 0,-1.06 0.06,-1.76 0.17,-2.1 0.09,-0.25 0.12,-0.54 0.12,-0.83 0,-0.25 0.17,-0.58 0.5,-0.97 0.56,-0.67 1.11,-1.11 1.64,-1.33 1.26,-0.56 2.86,-0.99 4.82,-1.26zm7.32 0.16c0.27,-0.1 0.59,-0.15 0.96,-0.13 0.62,0.09 0.93,0.37 0.93,0.85 0,0.3 0.03,0.55 0.12,0.74 0.22,0.68 0.33,1.82 0.33,3.44 0,0.65 -0.05,1.96 -0.14,3.96 -0.1,1.99 -0.17,3.07 -0.23,3.24 0,0.06 -0.06,0.41 -0.16,1.09 -0.12,1.01 -0.4,1.6 -0.81,1.8 -0.17,0.11 -0.36,0.1 -0.58,-0.05 -0.7,-0.39 -1.47,-1.68 -2.34,-3.89 -0.34,-0.84 -0.55,-1.47 -0.63,-1.91 -0.08,-0.43 -0.14,-1.27 -0.17,-2.53 0,-0.22 -0.01,-0.54 -0.02,-0.96 -0.01,-0.41 -0.02,-0.72 -0.02,-0.91 0,-0.23 0.01,-0.49 0.02,-0.78 0.01,-0.3 0.02,-0.46 0.02,-0.48l0.04 -0.79 0.58 -0.8c0.76,-1.03 1.46,-1.66 2.1,-1.89zm0.08 -9.45c0.11,-0.04 0.31,-0.05 0.59,-0.05 0.41,0 0.72,0.06 0.92,0.16 0.31,0.21 0.48,0.76 0.5,1.68l0 0.46c0,0.39 -0.07,0.8 -0.2,1.21 -0.18,0.56 -0.26,0.87 -0.26,0.93 0,0.08 -0.09,0.23 -0.25,0.46 -0.17,0.23 -0.44,0.33 -0.83,0.33 -0.39,0 -0.74,-0.09 -1.01,-0.29 -0.7,-0.44 -1.33,-1.1 -1.89,-1.96 -0.33,-0.48 -0.5,-0.81 -0.5,-1.01 0,-0.11 0.05,-0.24 0.13,-0.38 0.17,-0.25 0.57,-0.56 1.21,-0.9 0.65,-0.35 1.18,-0.56 1.59,-0.64zm10.68 19.79c0,-0.44 0.08,-1.12 0.26,-2.01 0.16,-0.89 0.25,-1.57 0.25,-2.05 0,-0.7 -0.09,-1.21 -0.25,-1.54 -0.42,-0.87 -1.11,-1.31 -2.06,-1.31 -0.47,0 -0.93,0.16 -1.37,0.47 -0.45,0.3 -0.81,0.7 -1.06,1.17 -0.13,0.23 -0.21,0.63 -0.25,1.21l0 0.42c0,0.34 0.11,0.99 0.33,1.97 0.23,0.78 0.34,1.39 0.34,1.8 0,0.39 -0.11,0.88 -0.34,1.46 -0.13,0.39 -0.27,0.9 -0.41,1.51 0,0.03 -0.03,0.15 -0.06,0.38 -0.05,0.22 -0.08,0.36 -0.11,0.44 -0.03,0.07 -0.07,0.17 -0.13,0.33 -0.06,0.15 -0.12,0.26 -0.2,0.32 -0.08,0.06 -0.19,0.08 -0.3,0.08 -0.22,0 -0.48,-0.13 -0.8,-0.4 -0.32,-0.26 -0.59,-0.6 -0.79,-0.99 -0.25,-0.41 -0.41,-0.78 -0.48,-1.09 -0.07,-0.3 -0.25,-1.35 -0.53,-3.17 -0.24,-1.6 -0.38,-2.57 -0.38,-2.93 0,-0.41 0.1,-0.97 0.3,-1.67 0.2,-0.78 0.45,-1.4 0.76,-1.85 0.77,-1.06 1.66,-1.84 2.67,-2.34 0.65,-0.31 1.08,-0.49 1.28,-0.55 0.2,-0.06 0.69,-0.08 1.45,-0.08l0.17 0c1.48,0.02 2.8,0.48 3.97,1.34 0.92,0.67 1.6,1.62 2.05,2.85 0.28,0.81 0.43,2.69 0.47,5.65 0.02,2.37 0.12,3.68 0.28,3.93 0.11,0.2 0.17,0.4 0.17,0.63 0,0.36 -0.17,0.67 -0.5,0.92 -0.17,0.14 -0.39,0.21 -0.66,0.21 -0.62,0 -1.38,-0.43 -2.27,-1.3 -0.73,-0.7 -1.21,-1.29 -1.45,-1.8 -0.24,-0.5 -0.35,-1.17 -0.35,-2.01zm14.14 -6.53c-0.22,-0.08 -0.47,-0.1 -0.75,-0.04 -0.67,0.17 -1.37,0.53 -2.11,1.06 -0.75,0.55 -1.33,1.14 -1.74,1.78 -0.23,0.37 -0.33,0.66 -0.33,0.88 0,0.39 0.4,0.95 1.21,1.68 1.46,1.34 2.75,2.11 3.89,2.3 0.03,0 0.07,0.01 0.12,0.02 0.03,0.01 0.07,0.02 0.09,0.02 0.51,0 0.84,-0.49 1.01,-1.5 0.08,-0.5 0.12,-1.02 0.12,-1.56 0,-1.08 -0.14,-2.07 -0.44,-2.99 -0.3,-0.9 -0.65,-1.45 -1.07,-1.65zm-4.52 -3.14c0.48,-0.48 1.52,-0.71 3.15,-0.71 0.72,0 1.38,0.04 1.97,0.13 1,0.14 1.89,0.52 2.67,1.12 0.28,0.21 0.75,0.66 1.41,1.37 0.65,0.71 1.04,1.17 1.15,1.4 0.16,0.31 0.25,0.69 0.25,1.13 0,0.34 -0.05,0.72 -0.13,1.14 -0.39,2 -0.58,3.84 -0.58,5.51 0,0.54 -0.1,1.63 -0.3,3.29 -0.2,1.66 -0.38,2.87 -0.55,3.62 -0.08,0.53 -0.19,0.96 -0.33,1.31 -0.58,1.24 -1.27,2.2 -2.06,2.86 -0.8,0.65 -1.91,0.98 -3.34,0.98 -0.95,0 -1.96,-0.33 -3.01,-1 -1.18,-0.82 -2.1,-2.05 -2.8,-3.72 -0.23,-0.54 -0.35,-0.94 -0.35,-1.23 0,-0.22 0.1,-0.46 0.3,-0.71 0.2,-0.19 0.45,-0.28 0.76,-0.28 0.19,0 0.43,0.03 0.71,0.12 0.3,0.1 0.55,0.23 0.75,0.39 0.2,0.15 0.64,0.58 1.34,1.28 1.01,1.01 1.58,1.52 1.72,1.55 0.02,0 0.06,0.02 0.11,0.03 0.03,0.01 0.07,0.01 0.09,0.01 0.42,0 0.89,-0.24 1.43,-0.71 0.53,-0.48 0.87,-0.98 1.04,-1.51 0.11,-0.33 0.17,-0.88 0.17,-1.62 0,-0.54 -0.04,-0.93 -0.12,-1.18l-1.56 0.05 -0.49 0c-0.92,0 -1.64,-0.07 -2.15,-0.22 -0.53,-0.14 -1.15,-0.43 -1.88,-0.87 -0.91,-0.58 -1.63,-1.21 -2.17,-1.89 -0.53,-0.68 -0.92,-1.55 -1.17,-2.63 -0.17,-0.71 -0.25,-1.38 -0.25,-2.06 0,-1.53 0.41,-2.96 1.25,-4.31 0.37,-0.55 0.66,-0.96 0.88,-1.19 0.23,-0.24 0.57,-0.5 1.05,-0.78l1.04 -0.67z"/>
 </g>
</svg>
