<?xml version="1.0" encoding="UTF-8"?>
<!DOCTYPE svg PUBLIC "-//W3C//DTD SVG 1.1//EN" "http://www.w3.org/Graphics/SVG/1.1/DTD/svg11.dtd">
<!-- Creator: CorelDRAW 2021.5 -->
<svg xmlns="http://www.w3.org/2000/svg" xml:space="preserve" width="170px" height="77px" version="1.1" style="shape-rendering:geometricPrecision; text-rendering:geometricPrecision; image-rendering:optimizeQuality; fill-rule:evenodd; clip-rule:evenodd"
viewBox="0 0 53.36 24.24"
 xmlns:xlink="http://www.w3.org/1999/xlink"
 xmlns:xodm="http://www.corel.com/coreldraw/odm/2003">
 <defs>
  <style type="text/css">
   <![CDATA[
    .fil1 {fill:black;fill-rule:nonzero}
    .fil0 {fill:#00ADEF;fill-rule:nonzero}
   ]]>
  </style>
 </defs>
 <g id="Layer_x0020_1">
  <metadata id="CorelCorpID_0Corel-Layer"/>
  <path class="fil0" d="M3.41 8.65c-0.49,0.3 -0.9,0.71 -1.28,1.13 -0.86,0.89 -1.51,1.91 -1.86,3.1 -0.62,2.15 -0.14,4.12 1.09,5.93 1.64,2.43 4.02,3.89 6.66,4.99 0.08,0.03 0.16,0.08 0.22,0 0.07,-0.09 -0.02,-0.16 -0.07,-0.21 -0.2,-0.25 -0.36,-0.52 -0.47,-0.82 -0.25,-0.66 -0.04,-1.23 0.57,-1.58 0.3,-0.17 0.61,-0.3 0.94,-0.37 0.95,-0.21 1.9,-0.42 2.85,-0.62 2.45,-0.51 4.11,-1.96 5.06,-4.25 0.3,-0.72 0.48,-1.47 0.47,-2.26 0,-0.42 -0.04,-0.44 -0.4,-0.23 -0.19,0.11 -0.39,0.21 -0.59,0.31 -0.78,0.36 -1.6,0.58 -2.47,0.53 -0.09,0 -0.35,0.11 -0.22,-0.18 0.06,-0.03 0.13,-0.06 0.18,-0.1 2.13,-1.95 3.36,-4.28 3.06,-7.25 -0.09,-0.87 -0.33,-1.71 -0.79,-2.47l0 -0.01c-0.18,-0.5 -0.49,-0.92 -0.8,-1.34 -0.84,-1.11 -1.86,-2.02 -3.03,-2.76 -0.09,-0.1 -0.22,-0.24 -0.33,-0.17 -0.11,0.06 0.05,0.17 0.09,0.27 0.35,0.97 0.22,1.89 -0.27,2.78 -0.27,0.48 -0.64,0.88 -0.99,1.3l-0.01 0c-0.81,0.71 -1.78,1.14 -2.74,1.58 -0.77,0.36 -1.55,0.68 -2.28,1.11l0 0c-0.27,0.06 -0.5,0.23 -0.75,0.36 -0.64,0.36 -1.29,0.72 -1.84,1.23l0.02 0.02 -0.02 -0.02z"/>
  <path class="fil1" d="M10.92 10.63c-0.23,-0.06 -0.47,-0.09 -0.72,-0.09 -0.74,0 -1.18,0.17 -1.32,0.51 -0.07,0.19 -0.14,0.51 -0.21,0.95 -0.09,0.5 -0.14,0.89 -0.14,1.17 0,0.41 0.06,0.98 0.19,1.73 0.28,1.86 0.77,3.34 1.46,4.48 0.14,0.23 0.26,0.38 0.37,0.45 0.1,0.07 0.25,0.11 0.45,0.11 0.35,0 0.71,-0.12 1.05,-0.35 0.34,-0.23 0.87,-0.7 1.57,-1.41 0.93,-0.95 1.56,-1.96 1.91,-3.02 0.13,-0.37 0.19,-0.71 0.19,-1.04 0,-0.47 -0.19,-0.9 -0.56,-1.27 -0.49,-0.49 -1.14,-0.95 -1.94,-1.38 -0.81,-0.42 -1.58,-0.7 -2.3,-0.84zm-4.35 -1.91c0.53,-0.46 0.98,-0.77 1.33,-0.92 0.35,-0.15 0.84,-0.22 1.45,-0.22 0.04,0 0.11,0 0.21,0.01 0.09,0.01 0.22,0.02 0.38,0.04 0.16,0.02 0.31,0.03 0.45,0.03 1.77,0.1 3.2,0.43 4.29,0.98 0.94,0.49 1.49,0.84 1.65,1.06 0.02,0.03 0.08,0.1 0.19,0.21 0.1,0.11 0.17,0.18 0.21,0.24 0.16,0.18 0.4,0.55 0.7,1.11 0.31,0.56 0.5,0.96 0.57,1.19 0.1,0.33 0.2,0.61 0.29,0.85 0.13,0.33 0.23,1.18 0.29,2.55l0 0.32c0,0.21 -0.04,0.48 -0.13,0.82 -0.12,0.41 -0.18,0.65 -0.18,0.72 0,0.07 -0.11,0.32 -0.33,0.77 -0.23,0.44 -0.41,0.77 -0.55,1 -0.69,1.12 -1.46,1.95 -2.31,2.5 -0.38,0.26 -0.89,0.48 -1.52,0.65 -0.63,0.17 -1.2,0.25 -1.71,0.25 -0.46,0 -0.77,-0.03 -0.93,-0.08 -0.15,-0.05 -0.43,-0.23 -0.79,-0.5 -0.3,-0.24 -0.48,-0.35 -0.54,-0.35 -0.03,0 -0.13,0.14 -0.29,0.43 -0.26,0.49 -0.52,0.74 -0.77,0.74 -0.16,0 -0.41,-0.2 -0.76,-0.58 -0.33,-0.36 -0.55,-0.68 -0.7,-0.97 -0.14,-0.27 -0.36,-0.82 -0.66,-1.6l-0.43 -1.2 -0.05 -0.83c-0.01,-0.19 -0.04,-0.47 -0.07,-0.85 -0.04,-0.39 -0.06,-0.7 -0.06,-0.95 0,-0.25 0.01,-0.45 0.03,-0.61 0,-0.04 0,-0.14 0.01,-0.29 0.01,-0.16 0.02,-0.29 0.02,-0.39 0,-1.15 -0.05,-2.2 -0.14,-3.14 0,-0.42 0.01,-0.8 0.02,-1.14 0.04,-0.58 0.1,-0.96 0.18,-1.14 0.08,-0.17 0.3,-0.41 0.65,-0.71zm16.71 4.77c0.08,-0.02 0.22,-0.03 0.4,-0.03 0.4,0 0.82,0.22 1.27,0.66 0.42,0.46 0.73,0.88 0.92,1.25 0.11,0.22 0.17,0.45 0.17,0.69 0,0.3 -0.09,0.54 -0.27,0.7 -0.09,0.06 -0.32,0.1 -0.69,0.1 -0.73,0 -1.34,-0.06 -1.83,-0.19 -0.36,-0.09 -0.61,-0.13 -0.77,-0.13l-0.05 0c-0.18,0.05 -0.27,0.63 -0.27,1.73 0,0.88 -0.03,1.53 -0.08,1.96 -0.17,1.36 -0.32,2.16 -0.45,2.41 -0.19,0.36 -0.35,0.53 -0.47,0.53 -0.13,0 -0.33,-0.14 -0.62,-0.42 -0.22,-0.2 -0.39,-0.41 -0.5,-0.64 -0.04,-0.07 -0.2,-0.34 -0.48,-0.8 -0.39,-0.64 -0.61,-1.22 -0.66,-1.74 -0.04,-0.3 -0.08,-0.57 -0.13,-0.8 -0.06,-0.26 -0.09,-0.65 -0.09,-1.17 0,-0.66 0.04,-1.11 0.12,-1.33 0.05,-0.15 0.07,-0.33 0.07,-0.52 0,-0.16 0.11,-0.37 0.32,-0.62 0.35,-0.42 0.7,-0.7 1.04,-0.84 0.79,-0.35 1.81,-0.63 3.05,-0.8zm4.64 0.11c0.17,-0.07 0.37,-0.1 0.61,-0.09 0.39,0.06 0.58,0.24 0.58,0.54 0,0.19 0.03,0.35 0.08,0.47 0.14,0.43 0.21,1.15 0.21,2.18 0,0.41 -0.03,1.24 -0.09,2.51 -0.06,1.26 -0.11,1.94 -0.14,2.05 0,0.04 -0.04,0.26 -0.11,0.69 -0.07,0.64 -0.25,1.02 -0.51,1.14 -0.11,0.07 -0.23,0.06 -0.37,-0.03 -0.44,-0.25 -0.93,-1.06 -1.48,-2.46 -0.22,-0.54 -0.35,-0.94 -0.4,-1.21 -0.05,-0.27 -0.09,-0.81 -0.1,-1.61 0,-0.14 -0.01,-0.34 -0.02,-0.6 -0.01,-0.27 -0.01,-0.46 -0.01,-0.58 0,-0.15 0,-0.31 0.01,-0.5 0.01,-0.19 0.02,-0.28 0.02,-0.3l0.02 -0.5 0.37 -0.51c0.48,-0.65 0.92,-1.05 1.33,-1.19zm0.05 -5.99c0.07,-0.03 0.2,-0.03 0.37,-0.03 0.26,0 0.46,0.03 0.59,0.1 0.19,0.13 0.3,0.48 0.31,1.06l0 0.29c0,0.25 -0.04,0.51 -0.13,0.77 -0.11,0.35 -0.16,0.55 -0.16,0.59 0,0.05 -0.05,0.15 -0.16,0.29 -0.11,0.14 -0.28,0.21 -0.53,0.21 -0.24,0 -0.46,-0.06 -0.64,-0.19 -0.44,-0.28 -0.84,-0.69 -1.19,-1.24 -0.21,-0.3 -0.32,-0.51 -0.32,-0.64 0,-0.06 0.03,-0.15 0.09,-0.24 0.1,-0.16 0.36,-0.35 0.76,-0.57 0.41,-0.22 0.75,-0.35 1.01,-0.4zm6.76 12.54c0,-0.28 0.05,-0.71 0.17,-1.27 0.1,-0.57 0.15,-1 0.15,-1.31 0,-0.44 -0.05,-0.76 -0.15,-0.97 -0.27,-0.55 -0.7,-0.83 -1.3,-0.83 -0.3,0 -0.6,0.1 -0.88,0.29 -0.28,0.2 -0.51,0.45 -0.67,0.75 -0.08,0.14 -0.13,0.4 -0.15,0.76l0 0.27c0,0.22 0.06,0.63 0.21,1.25 0.14,0.49 0.21,0.88 0.21,1.14 0,0.25 -0.07,0.55 -0.21,0.92 -0.09,0.25 -0.18,0.57 -0.27,0.96 0,0.02 -0.01,0.1 -0.03,0.24 -0.03,0.14 -0.06,0.23 -0.07,0.28 -0.02,0.04 -0.05,0.11 -0.08,0.21 -0.04,0.09 -0.08,0.16 -0.13,0.2 -0.05,0.04 -0.12,0.05 -0.19,0.05 -0.14,0 -0.31,-0.08 -0.51,-0.25 -0.2,-0.17 -0.37,-0.38 -0.5,-0.63 -0.15,-0.26 -0.26,-0.49 -0.31,-0.69 -0.04,-0.19 -0.15,-0.86 -0.33,-2.01 -0.15,-1.01 -0.24,-1.63 -0.24,-1.85 0,-0.27 0.06,-0.62 0.19,-1.06 0.13,-0.5 0.29,-0.89 0.48,-1.18 0.49,-0.66 1.06,-1.16 1.69,-1.48 0.42,-0.19 0.69,-0.31 0.82,-0.34 0.12,-0.04 0.43,-0.06 0.91,-0.06l0.11 0c0.94,0.02 1.77,0.31 2.52,0.85 0.58,0.43 1.01,1.03 1.3,1.81 0.17,0.51 0.27,1.71 0.29,3.58 0.02,1.5 0.08,2.33 0.18,2.49 0.07,0.12 0.11,0.25 0.11,0.39 0,0.24 -0.11,0.43 -0.32,0.59 -0.1,0.09 -0.25,0.14 -0.42,0.14 -0.39,0 -0.87,-0.28 -1.44,-0.83 -0.45,-0.44 -0.76,-0.82 -0.91,-1.14 -0.15,-0.32 -0.23,-0.74 -0.23,-1.27zm5.15 -10.16c0.15,-0.05 0.3,-0.08 0.45,-0.08 0.37,0 0.61,0.12 0.72,0.34 0.05,0.13 0.08,1.09 0.1,2.9l0.03 2.7c0.1,0.02 0.24,0.03 0.39,0.03 0.41,0 0.76,-0.29 1.06,-0.85 0.36,-0.69 0.88,-1.21 1.57,-1.57 0.28,-0.14 0.52,-0.21 0.69,-0.21 0.44,0 0.7,0.49 0.77,1.46l0 0.24c0,0.81 -0.22,1.56 -0.66,2.23 -0.16,0.24 -0.19,0.39 -0.08,0.45 0.08,0.03 0.23,0.21 0.42,0.52 0.2,0.3 0.35,0.6 0.45,0.86 0.13,0.3 0.21,0.83 0.24,1.59 0.04,0.85 0.08,1.43 0.13,1.75 0.13,0.81 0.19,1.3 0.19,1.46 0,0.09 -0.02,0.17 -0.05,0.24 -0.07,0.13 -0.23,0.19 -0.48,0.19 -0.07,0 -0.23,-0.03 -0.48,-0.06 -0.6,-0.15 -1.13,-0.55 -1.58,-1.2 -0.45,-0.65 -0.73,-1.45 -0.86,-2.41 -0.07,-0.49 -0.3,-0.93 -0.66,-1.3 -0.36,-0.35 -0.66,-0.53 -0.91,-0.53 -0.15,0 -0.26,0.13 -0.32,0.38 -0.07,0.27 -0.13,0.87 -0.2,1.82 -0.09,1.15 -0.18,1.77 -0.24,1.86 -0.03,0.04 -0.1,0.12 -0.24,0.26l-0.27 -0.13c-0.14,-0.06 -0.25,-0.17 -0.35,-0.3 -0.1,-0.13 -0.29,-0.43 -0.55,-0.89 -0.37,-0.65 -0.66,-1.31 -0.87,-1.96 -0.14,-0.46 -0.22,-1.79 -0.22,-3.98 0,-0.18 0.01,-0.46 0.02,-0.84 0,-0.38 0.01,-0.67 0.01,-0.89 0.02,-1.45 0.07,-2.27 0.16,-2.47 0.14,-0.3 0.39,-0.63 0.76,-0.98 0.36,-0.35 0.64,-0.56 0.86,-0.63zm8.03 4.16c0.42,-0.47 1.18,-0.71 2.31,-0.71 0.45,0 0.84,0.04 1.18,0.1 0.4,0.09 0.66,0.16 0.79,0.22 0.12,0.07 0.27,0.18 0.42,0.34 0.37,0.41 0.56,0.87 0.56,1.38 0,0.26 -0.07,0.48 -0.21,0.64 -0.13,0.12 -0.26,0.18 -0.4,0.18 -0.14,0 -0.32,-0.07 -0.56,-0.21 -0.35,-0.21 -0.85,-0.41 -1.48,-0.58 -0.39,-0.11 -0.64,-0.14 -0.75,-0.09 -0.08,0.06 -0.13,0.13 -0.13,0.22 0,0.12 0.07,0.32 0.21,0.58 0.3,0.57 0.71,1.08 1.22,1.54 0.78,0.67 1.29,1.21 1.54,1.62 0.5,0.74 0.75,1.28 0.75,1.62 0,0.62 -0.35,1.09 -1.04,1.43 -0.71,0.35 -1.41,0.53 -2.12,0.53 -0.2,0 -0.54,-0.04 -1.04,-0.11 -0.94,-0.16 -1.64,-0.46 -2.12,-0.92 -0.35,-0.34 -0.52,-0.72 -0.52,-1.15 0,-0.62 0.19,-0.93 0.57,-0.93 0.21,0 0.52,0.13 0.91,0.38 0.44,0.3 1,0.46 1.7,0.47 0.45,0.02 0.73,-0.01 0.79,-0.07 0.09,-0.09 0.11,-0.18 0.06,-0.27 -0.04,-0.09 -0.37,-0.45 -1.01,-1.09 -1.01,-1.06 -1.63,-1.84 -1.86,-2.33 -0.23,-0.48 -0.34,-0.94 -0.34,-1.38 0,-0.5 0.19,-0.96 0.57,-1.41z"/>
 </g>
</svg>
