<?xml version="1.0" encoding="UTF-8"?>
<!DOCTYPE svg PUBLIC "-//W3C//DTD SVG 1.1//EN" "http://www.w3.org/Graphics/SVG/1.1/DTD/svg11.dtd">
<!-- Creator: CorelDRAW 2021.5 -->
<svg xmlns="http://www.w3.org/2000/svg" xml:space="preserve" width="295px" height="80px" version="1.1" style="shape-rendering:geometricPrecision; text-rendering:geometricPrecision; image-rendering:optimizeQuality; fill-rule:evenodd; clip-rule:evenodd"
viewBox="0 0 291.28 78.88"
 xmlns:xlink="http://www.w3.org/1999/xlink"
 xmlns:xodm="http://www.corel.com/coreldraw/odm/2003">
 <defs>
  <style type="text/css">
   <![CDATA[
    .fil1 {fill:black;fill-rule:nonzero}
    .fil0 {fill:#FFEA00;fill-rule:nonzero}
   ]]>
  </style>
 </defs>
 <g id="Layer_x0020_1">
  <metadata id="CorelCorpID_0Corel-Layer"/>
  <path class="fil0" d="M10.74 27.24c-1.56,0.94 -2.82,2.23 -4.03,3.57 -2.72,2.79 -4.76,6 -5.85,9.75 -1.97,6.78 -0.45,13 3.41,18.69 5.17,7.63 12.66,12.25 21,15.7 0.24,0.1 0.5,0.26 0.7,0 0.2,-0.28 -0.09,-0.48 -0.24,-0.67 -0.61,-0.78 -1.14,-1.62 -1.49,-2.56 -0.78,-2.08 -0.13,-3.89 1.81,-4.99 0.93,-0.53 1.91,-0.94 2.97,-1.17 2.98,-0.64 5.97,-1.3 8.96,-1.93 7.71,-1.62 12.95,-6.19 15.95,-13.4 0.94,-2.27 1.5,-4.63 1.47,-7.1 -0.01,-1.34 -0.12,-1.39 -1.25,-0.75 -0.61,0.35 -1.23,0.68 -1.86,0.98 -2.47,1.14 -5.05,1.82 -7.8,1.69 -0.26,-0.01 -1.09,0.35 -0.69,-0.57 0.19,-0.11 0.41,-0.19 0.57,-0.33 6.73,-6.12 10.58,-13.49 9.63,-22.83 -0.28,-2.74 -1.02,-5.39 -2.48,-7.79l-0.01 -0.01c-0.54,-1.59 -1.53,-2.91 -2.51,-4.22 -2.63,-3.51 -5.84,-6.38 -9.55,-8.7 -0.28,-0.31 -0.69,-0.74 -1.01,-0.55 -0.37,0.22 0.13,0.56 0.26,0.85 1.11,3.06 0.72,5.97 -0.85,8.78 -0.84,1.51 -2.01,2.77 -3.12,4.07l-0.01 0.01c-2.56,2.23 -5.62,3.58 -8.66,4.99 -2.41,1.12 -4.87,2.12 -7.16,3.49l0 0c-0.87,0.19 -1.59,0.71 -2.35,1.13 -2.04,1.13 -4.08,2.26 -5.8,3.86l0.06 0.07 -0.07 -0.06z"/>
  <path class="fil1" d="M54.47 54.13c-1.02,-0.5 -1.78,-0.73 -2.28,-0.73 -0.66,0 -1.16,0.52 -1.49,1.58 -0.17,0.55 -0.38,1.5 -0.59,2.85 -0.17,0.83 -0.26,1.42 -0.26,1.82l0.35 2.68c0.22,1.56 0.38,2.5 0.45,2.84 0.07,0.33 0.29,0.61 0.62,0.83 0.24,0.11 0.47,0.16 0.68,0.16 0.55,0 1.43,-0.38 2.59,-1.16 1.11,-0.73 2.1,-1.63 2.93,-2.72 0.83,-1.09 1.23,-2.11 1.23,-3.06 0,-0.78 -0.4,-1.68 -1.23,-2.7 -0.83,-1.01 -1.84,-1.82 -3,-2.39zm-0.19 -18.04c-0.79,-0.38 -1.5,-0.57 -2.16,-0.57 -0.28,0 -0.47,0.02 -0.59,0.07 -0.4,0.21 -0.78,1.23 -1.16,3.01 -0.36,1.49 -0.52,2.74 -0.52,3.74 0,1.02 0.16,2.3 0.52,3.86 0.33,1.4 0.88,2.08 1.66,2.08 0.73,0 1.82,-0.59 3.26,-1.8 1.45,-1.18 2.47,-2.34 3.01,-3.45 0.33,-0.79 0.5,-1.33 0.5,-1.66 0,-0.45 -0.12,-0.9 -0.33,-1.35 -0.29,-0.5 -0.9,-1.21 -1.85,-2.13 -0.95,-0.93 -1.73,-1.52 -2.34,-1.8zm-3.01 -9.36c1.02,-0.16 1.96,-0.23 2.84,-0.23l0.17 0c3.19,0 6.06,0.9 8.62,2.7 2.55,1.82 4.31,4.14 5.25,6.98 0.67,1.9 1,3.74 1,5.52 0,2.6 -0.69,5.04 -2.09,7.34 -0.49,0.9 -0.75,1.47 -0.75,1.68 0,0.21 0.26,0.83 0.75,1.83 1.4,2.67 2.09,5.3 2.09,7.86 0,2.67 -0.67,5.16 -1.99,7.5 -0.95,1.78 -2.58,3.48 -4.93,5.12 -1.39,0.95 -3.27,1.63 -5.61,2.08 -0.5,0.12 -1.14,0.17 -1.92,0.17 -1.16,0 -2.44,-0.33 -3.83,-1.02l-1.42 -0.66 -0.83 0.49c-0.69,0.41 -1.16,0.6 -1.42,0.6 -0.69,0 -1.73,-1.02 -3.18,-3.08 -1.39,-2.06 -2.63,-4.64 -3.69,-7.7l-1 -2.84 -0.09 -9.09c0,-1.07 0,-2.3 -0.02,-3.72 -0.03,-1.42 -0.05,-2.37 -0.05,-2.82 0,-2.15 0.09,-4.07 0.26,-5.75l0.24 -3.01 0.99 -1.92c0.57,-1.06 1.44,-2.22 2.6,-3.5 1.21,-1.23 1.99,-1.97 2.35,-2.18 0.54,-0.4 1.49,-0.88 2.84,-1.42 1.33,-0.55 2.27,-0.85 2.82,-0.93zm32.59 18.31c0.26,-0.07 0.68,-0.1 1.25,-0.1 1.28,0 2.61,0.69 4,2.09 1.35,1.44 2.32,2.77 2.92,3.93 0.35,0.69 0.52,1.4 0.52,2.18 0,0.94 -0.29,1.68 -0.86,2.18 -0.26,0.21 -0.99,0.33 -2.15,0.33 -2.3,0 -4.21,-0.19 -5.78,-0.59 -1.11,-0.29 -1.92,-0.43 -2.41,-0.43l-0.17 0c-0.54,0.16 -0.83,1.99 -0.83,5.45 0,2.77 -0.09,4.83 -0.26,6.18 -0.54,4.28 -1.02,6.82 -1.42,7.6 -0.61,1.11 -1.11,1.65 -1.49,1.65 -0.4,0 -1.04,-0.45 -1.94,-1.32 -0.71,-0.62 -1.23,-1.28 -1.59,-2.01 -0.12,-0.22 -0.61,-1.07 -1.49,-2.51 -1.23,-2.02 -1.92,-3.84 -2.09,-5.5 -0.11,-0.94 -0.26,-1.77 -0.42,-2.51 -0.17,-0.83 -0.26,-2.06 -0.26,-3.67 0,-2.11 0.12,-3.5 0.35,-4.19 0.17,-0.5 0.24,-1.07 0.24,-1.66 0,-0.49 0.33,-1.16 0.99,-1.94 1.12,-1.33 2.21,-2.2 3.27,-2.65 2.51,-1.11 5.71,-1.97 9.62,-2.51zm19.37 0.99c1.23,-0.49 2.32,-0.75 3.25,-0.75 0.68,0 1.23,0.02 1.68,0.09 3.24,0.17 6.25,1.23 9.02,3.24 1.4,1.07 2.3,2.14 2.75,3.2 0.23,0.5 0.35,1.02 0.35,1.59 0,0.78 -0.24,1.51 -0.69,2.25 -0.37,0.66 -1.89,2.32 -4.52,4.95 -2.65,2.65 -4.28,4.12 -4.9,4.4 -0.9,0.4 -1.66,0.59 -2.27,0.59 -1,0 -1.87,-0.3 -2.66,-0.92 -0.73,-0.5 -1.08,-1.04 -1.08,-1.59 0,-0.4 0.11,-0.78 0.33,-1.18 0.49,-1.11 1.89,-2.49 4.16,-4.17 2.44,-1.89 3.67,-3.05 3.67,-3.5 0,-0.55 -0.54,-1.09 -1.65,-1.64 -1.12,-0.52 -2.39,-0.85 -3.84,-0.97l-0.92 0c-1.07,0 -1.8,0.19 -2.2,0.55 -0.43,0.35 -0.79,1.06 -1.07,2.13 -0.21,0.9 -0.33,2.25 -0.33,4.02 0,1.28 0.09,2.3 0.26,3.08 0.59,2.44 1.96,4.17 4.1,5.19 0.78,0.4 1.98,0.61 3.67,0.66l1.25 0c1,0 1.92,-0.07 2.75,-0.24 1.96,-0.4 3.64,-0.99 5.09,-1.77 0.21,-0.12 0.57,-0.17 1.02,-0.17 0.71,0 1.06,0.5 1.06,1.52 0,0.4 -0.02,0.71 -0.07,0.92 -0.28,1.45 -0.97,2.75 -2.08,3.93 -0.83,0.88 -1.52,1.42 -2.01,1.59 -0.83,0.33 -1.85,0.68 -3.01,1.06 -2.35,0.9 -4.57,1.35 -6.68,1.35 -1.07,0 -2.49,-0.14 -4.26,-0.42 -1.07,-0.17 -1.85,-0.38 -2.35,-0.67 -1.82,-0.87 -3.57,-2.43 -5.25,-4.64 -1.68,-2.2 -2.63,-4.4 -2.84,-6.63 -0.08,-0.4 -0.1,-0.9 -0.1,-1.51 0,-0.55 0.1,-1.42 0.26,-2.58 0.45,-3.13 1.47,-5.76 3.1,-7.86 0.59,-0.83 1.61,-1.83 3.01,-2.94 1.4,-1.11 2.3,-1.66 2.75,-1.66 0.07,0 0.47,-0.17 1.25,-0.5zm36.24 6.61c-0.38,-0.28 -0.74,-0.43 -1.09,-0.43 -0.5,0 -1.42,0.36 -2.82,1.09 -2.39,1.23 -4.22,2.92 -5.45,5.02 -0.38,0.67 -0.57,1.16 -0.57,1.5 0,1.01 1.31,2.48 3.94,4.42 2.6,1.97 4.68,3.01 6.25,3.18 0.73,0.07 1.23,-0.05 1.49,-0.34 0.73,-0.73 1.09,-2.36 1.09,-4.92 0,-1.4 -0.12,-2.65 -0.33,-3.77 -0.62,-3 -1.45,-4.92 -2.51,-5.75zm-6.52 -7.36c1.12,-0.26 2.3,-0.41 3.53,-0.41 1.21,0 2.47,0.15 3.74,0.41 2.23,0.45 4.31,1.42 6.28,2.89 1.94,1.49 3.39,3.19 4.33,5.13 0.74,1.45 1.19,2.77 1.35,3.93 0.17,1.16 0.24,3.37 0.24,6.61 0,3.1 0.05,5.02 0.14,5.71 0.07,0.68 0.33,1.35 0.78,1.96 0.33,0.5 0.5,0.97 0.5,1.42 0,0.55 -0.28,1.02 -0.83,1.42 -0.54,0.41 -1.28,0.6 -2.15,0.6 -0.9,0 -1.59,-0.12 -2.06,-0.36 -0.48,-0.21 -1.07,-0.71 -1.8,-1.49l-1.26 -1.33 -1.42 1.16c-1.28,1.02 -2.34,1.68 -3.17,2.02 -0.83,0.33 -2.01,0.49 -3.51,0.49l-1.51 0c-1.94,-0.07 -3.34,-0.26 -4.17,-0.59 -2.63,-0.95 -4.92,-2.53 -6.94,-4.76 -0.66,-0.78 -1.09,-1.32 -1.28,-1.68 -0.21,-0.33 -0.49,-1.09 -0.9,-2.25 -0.73,-2.11 -1.09,-4.12 -1.09,-6.01 0,-2.44 0.6,-4.83 1.78,-7.18 1.11,-2.3 2.13,-3.74 3.08,-4.36 2.63,-1.77 4.73,-2.88 6.34,-3.33zm26.65 -11.28c0.5,-0.16 0.97,-0.23 1.42,-0.23 1.16,0 1.92,0.35 2.27,1.06 0.17,0.41 0.26,3.44 0.34,9.12l0.07 8.52c0.33,0.05 0.75,0.08 1.25,0.08 1.28,0 2.39,-0.9 3.34,-2.68 1.11,-2.16 2.77,-3.81 4.93,-4.93 0.9,-0.45 1.63,-0.66 2.17,-0.66 1.4,0 2.21,1.54 2.42,4.59l0 0.76c0,2.56 -0.69,4.9 -2.09,7.01 -0.49,0.78 -0.59,1.26 -0.23,1.42 0.26,0.12 0.71,0.67 1.32,1.64 0.62,0.97 1.09,1.89 1.43,2.72 0.4,0.95 0.63,2.6 0.75,5 0.12,2.67 0.24,4.52 0.41,5.51 0.4,2.56 0.59,4.1 0.59,4.6 0,0.28 -0.05,0.54 -0.17,0.76 -0.21,0.4 -0.71,0.59 -1.49,0.59 -0.24,0 -0.73,-0.07 -1.52,-0.19 -1.89,-0.45 -3.55,-1.71 -4.97,-3.77 -1.42,-2.06 -2.32,-4.57 -2.72,-7.57 -0.21,-1.57 -0.93,-2.94 -2.09,-4.1 -1.11,-1.11 -2.06,-1.68 -2.84,-1.68 -0.49,0 -0.83,0.4 -1.01,1.2 -0.22,0.83 -0.43,2.73 -0.64,5.74 -0.29,3.62 -0.55,5.56 -0.76,5.84 -0.07,0.12 -0.31,0.38 -0.76,0.83l-0.83 -0.4c-0.45,-0.21 -0.8,-0.54 -1.11,-0.97 -0.31,-0.4 -0.9,-1.35 -1.73,-2.79 -1.16,-2.06 -2.08,-4.13 -2.75,-6.19 -0.45,-1.44 -0.68,-5.63 -0.68,-12.52 0,-0.57 0.02,-1.45 0.04,-2.65 0.03,-1.19 0.05,-2.11 0.05,-2.8 0.05,-4.57 0.21,-7.15 0.5,-7.76 0.45,-0.95 1.23,-1.99 2.39,-3.11 1.14,-1.11 2.04,-1.77 2.7,-1.99zm25.84 -4.09c1.33,-1.21 2.7,-2.09 4.1,-2.58 1.39,-0.5 3.33,-0.76 5.82,-0.76 2.13,0 4.15,0.14 6.01,0.43 2.59,0.37 4.17,0.94 4.79,1.72 0.59,0.78 1.14,1.87 1.61,3.27 0.47,1.4 0.71,2.56 0.71,3.44 0,0.94 -0.47,1.56 -1.42,1.84 -0.33,0.12 -0.64,0.17 -0.9,0.17 -0.62,0 -2.13,-0.17 -4.52,-0.5 -2.51,-0.35 -4.29,-0.52 -5.36,-0.52 -1.11,0 -1.98,0.26 -2.67,0.76 -0.95,0.73 -1.56,2.08 -1.83,4.09 -0.11,1.35 -0.16,3.29 -0.16,5.85 0,1.45 0.02,2.18 0.07,2.18 0.17,0 0.88,-0.26 2.08,-0.76 2.73,-1.06 4.6,-1.58 5.62,-1.58l0.49 0c1.83,0.12 3.37,0.73 4.6,1.84 0.54,0.5 1.11,1.19 1.7,2.11 0.59,0.92 0.93,1.71 1.04,2.3 0.17,0.78 0.15,1.35 -0.07,1.68 -0.49,1.07 -2.03,1.59 -4.59,1.59 -0.5,0 -1.87,-0.05 -4.1,-0.17 -3.12,-0.21 -4.9,-0.33 -5.35,-0.33l-1.16 0 -0.09 4.59c-0.17,5.9 -0.76,10.07 -1.83,12.46 -0.4,1.06 -0.68,1.66 -0.85,1.82 -0.45,0.55 -1.18,0.43 -2.25,-0.4 -1.49,-1.11 -3.2,-4.22 -5.09,-9.28 -0.78,-2.11 -1.23,-3.56 -1.37,-4.31 -0.15,-0.74 -0.22,-2.68 -0.22,-5.8l0 -4.6c0,-6.06 0.07,-9.85 0.22,-11.39 0.14,-1.54 0.52,-2.91 1.11,-4.14 0.83,-1.73 2.13,-3.39 3.86,-5.02zm41.25 22.73c-0.37,-0.28 -0.73,-0.43 -1.09,-0.43 -0.49,0 -1.42,0.36 -2.81,1.09 -2.4,1.23 -4.22,2.92 -5.45,5.02 -0.38,0.67 -0.57,1.16 -0.57,1.5 0,1.01 1.3,2.48 3.93,4.42 2.61,1.97 4.69,3.01 6.25,3.18 0.74,0.07 1.24,-0.05 1.5,-0.34 0.73,-0.73 1.09,-2.36 1.09,-4.92 0,-1.4 -0.12,-2.65 -0.34,-3.77 -0.61,-3 -1.44,-4.92 -2.51,-5.75zm-6.51 -7.36c1.11,-0.26 2.3,-0.41 3.53,-0.41 1.21,0 2.46,0.15 3.74,0.41 2.23,0.45 4.31,1.42 6.28,2.89 1.94,1.49 3.38,3.19 4.33,5.13 0.73,1.45 1.18,2.77 1.35,3.93 0.17,1.16 0.24,3.37 0.24,6.61 0,3.1 0.04,5.02 0.14,5.71 0.07,0.68 0.33,1.35 0.78,1.96 0.33,0.5 0.5,0.97 0.5,1.42 0,0.55 -0.29,1.02 -0.83,1.42 -0.55,0.41 -1.28,0.6 -2.16,0.6 -0.9,0 -1.58,-0.12 -2.06,-0.36 -0.47,-0.21 -1.06,-0.71 -1.8,-1.49l-1.25 -1.33 -1.42 1.16c-1.28,1.02 -2.35,1.68 -3.17,2.02 -0.83,0.33 -2.02,0.49 -3.51,0.49l-1.52 0c-1.94,-0.07 -3.33,-0.26 -4.16,-0.59 -2.63,-0.95 -4.93,-2.53 -6.94,-4.76 -0.66,-0.78 -1.09,-1.32 -1.28,-1.68 -0.21,-0.33 -0.5,-1.09 -0.9,-2.25 -0.73,-2.11 -1.09,-4.12 -1.09,-6.01 0,-2.44 0.59,-4.83 1.78,-7.18 1.11,-2.3 2.13,-3.74 3.08,-4.36 2.62,-1.77 4.73,-2.88 6.34,-3.33zm25.72 1.84c1.31,-1.49 3.72,-2.25 7.27,-2.25 1.4,0 2.63,0.12 3.7,0.33 1.28,0.26 2.1,0.5 2.51,0.69 0.38,0.21 0.83,0.57 1.32,1.07 1.16,1.28 1.75,2.72 1.75,4.33 0,0.83 -0.21,1.52 -0.66,2.01 -0.4,0.41 -0.8,0.6 -1.25,0.6 -0.45,0 -1.02,-0.24 -1.76,-0.69 -1.11,-0.66 -2.67,-1.28 -4.68,-1.82 -1.21,-0.34 -1.99,-0.43 -2.35,-0.26 -0.26,0.16 -0.4,0.4 -0.4,0.68 0,0.38 0.21,1 0.66,1.82 0.95,1.78 2.23,3.41 3.84,4.86 2.46,2.11 4.07,3.81 4.85,5.09 1.57,2.34 2.35,4.03 2.35,5.09 0,1.97 -1.09,3.46 -3.27,4.52 -2.23,1.12 -4.45,1.66 -6.68,1.66 -0.61,0 -1.7,-0.12 -3.27,-0.33 -2.96,-0.5 -5.18,-1.47 -6.67,-2.91 -1.12,-1.07 -1.66,-2.25 -1.66,-3.6 0,-1.97 0.61,-2.94 1.82,-2.94 0.66,0 1.61,0.4 2.84,1.19 1.4,0.94 3.18,1.44 5.35,1.49 1.45,0.07 2.3,-0.03 2.52,-0.24 0.26,-0.28 0.33,-0.57 0.16,-0.85 -0.12,-0.26 -1.16,-1.4 -3.17,-3.41 -3.17,-3.34 -5.12,-5.8 -5.85,-7.37 -0.73,-1.49 -1.09,-2.93 -1.09,-4.33 0,-1.56 0.62,-3.03 1.82,-4.43zm24.4 -10.44c0.69,-0.17 1.4,-0.07 2.18,0.33 0.45,0.22 0.73,0.62 0.87,1.16 0.15,0.57 0.26,1.92 0.38,4.03l0.17 3.83c1.77,-0.21 3.45,-0.33 5.02,-0.33 0.73,0 1.54,0.05 2.41,0.17 0.4,0.07 1.23,0.21 2.51,0.42 1.28,0.22 2.42,0.41 3.44,0.57 0.99,0.17 1.58,0.31 1.75,0.43 0.12,0.12 0.28,0.16 0.5,0.16 0.21,0 0.47,0.15 0.73,0.43 0.36,0.33 0.52,0.64 0.52,0.92 0,0.6 -0.76,1.38 -2.27,2.33 -2.06,1.27 -4.29,2.32 -6.68,3.1 -1.11,0.4 -2.06,0.59 -2.84,0.59 -1.07,0 -2.39,-0.74 -4,-2.18l-1.42 -1.35 -0.43 1.42c-0.33,1.23 -0.5,2.8 -0.5,4.69 0,2.15 0.19,4.21 0.6,6.13 0.37,1.92 0.87,3.06 1.49,3.39 0.21,0.12 0.45,0.16 0.68,0.16 0.93,0 2.16,-0.52 3.67,-1.58 1.49,-1.07 2.94,-2.42 4.34,-4.1 1.61,-1.89 2.58,-2.84 2.93,-2.84 0.05,0 0.36,-0.19 0.9,-0.57 0.57,-0.35 1.16,-0.52 1.78,-0.52 1.06,0 1.75,0.4 2.08,1.19 0.12,0.33 0.17,0.63 0.17,0.92 0,1.32 -0.52,3.57 -1.59,6.75 -0.5,1.84 -1.7,3.69 -3.6,5.51 -0.99,0.95 -1.77,1.54 -2.34,1.76 -0.83,0.28 -1.64,0.61 -2.42,1.01 -1.82,0.83 -3.48,1.26 -4.92,1.26 -2.63,0 -5,-0.78 -7.11,-2.32 -2.1,-1.54 -3.69,-3.36 -4.76,-5.47 -0.61,-1.28 -0.97,-2.72 -1.08,-4.33 -0.05,-0.5 -0.12,-1.24 -0.2,-2.18 -0.09,-0.95 -0.16,-1.8 -0.21,-2.58 -0.07,-0.79 -0.09,-1.5 -0.09,-2.18 0,-0.55 0.04,-1.33 0.16,-2.35 0.05,-0.54 0.07,-1.75 0.07,-3.57l0 -1.59c0,-0.28 0,-0.64 -0.02,-1.09 -0.02,-0.45 -0.05,-0.76 -0.05,-0.92 0,-2.23 0.29,-3.98 0.83,-5.26 0.5,-1.02 1.45,-2.11 2.82,-3.27 1.35,-1.16 2.53,-1.87 3.53,-2.08z"/>
 </g>
</svg>
