<?xml version="1.0" encoding="UTF-8"?>
<!DOCTYPE svg PUBLIC "-//W3C//DTD SVG 1.1//EN" "http://www.w3.org/Graphics/SVG/1.1/DTD/svg11.dtd">
<!-- Creator: CorelDRAW 2021.5 -->
<svg xmlns="http://www.w3.org/2000/svg" xml:space="preserve" width="253px" height="86px" version="1.1" style="shape-rendering:geometricPrecision; text-rendering:geometricPrecision; image-rendering:optimizeQuality; fill-rule:evenodd; clip-rule:evenodd"
viewBox="0 0 164.73 56.11"
 xmlns:xlink="http://www.w3.org/1999/xlink"
 xmlns:xodm="http://www.corel.com/coreldraw/odm/2003">
 <defs>
  <style type="text/css">
   <![CDATA[
    .fil1 {fill:black;fill-rule:nonzero}
    .fil0 {fill:#F39200;fill-rule:nonzero}
   ]]>
  </style>
 </defs>
 <g id="Layer_x0020_1">
  <metadata id="CorelCorpID_0Corel-Layer"/>
  <path class="fil0" d="M7.07 17.93c-1.02,0.63 -1.86,1.47 -2.65,2.36 -1.79,1.83 -3.13,3.94 -3.85,6.41 -1.3,4.47 -0.3,8.56 2.24,12.31 3.41,5.02 8.34,8.07 13.83,10.34 0.15,0.06 0.33,0.17 0.45,-0.01 0.14,-0.18 -0.05,-0.31 -0.15,-0.43 -0.41,-0.52 -0.75,-1.07 -0.98,-1.69 -0.51,-1.37 -0.09,-2.56 1.19,-3.29 0.61,-0.35 1.26,-0.62 1.95,-0.77 1.97,-0.42 3.93,-0.86 5.9,-1.27 5.08,-1.07 8.53,-4.07 10.5,-8.82 0.62,-1.5 0.99,-3.05 0.97,-4.67 0,-0.89 -0.08,-0.92 -0.82,-0.5 -0.4,0.23 -0.81,0.45 -1.22,0.64 -1.63,0.76 -3.33,1.21 -5.14,1.12 -0.17,-0.01 -0.71,0.23 -0.45,-0.38 0.12,-0.07 0.27,-0.12 0.37,-0.21 4.43,-4.03 6.97,-8.88 6.34,-15.03 -0.18,-1.81 -0.67,-3.56 -1.63,-5.13l-0.01 -0.01c-0.35,-1.04 -1,-1.92 -1.65,-2.78 -1.73,-2.31 -3.84,-4.2 -6.29,-5.72 -0.18,-0.21 -0.45,-0.5 -0.67,-0.37 -0.24,0.15 0.09,0.37 0.18,0.57 0.73,2.01 0.47,3.92 -0.56,5.77 -0.56,1 -1.33,1.82 -2.06,2.68l0 0.01c-1.69,1.47 -3.7,2.36 -5.7,3.28 -1.59,0.74 -3.21,1.4 -4.72,2.3l0 0c-0.57,0.13 -1.05,0.47 -1.55,0.75 -1.34,0.74 -2.68,1.49 -3.81,2.54l0.04 0.04 -0.05 -0.04z"/>
  <path class="fil1" d="M23.33 24.64c-0.22,-0.08 -0.42,-0.12 -0.6,-0.13 -0.33,-0.01 -0.74,0.05 -1.23,0.17 -2.19,0.51 -3.91,1.56 -5.17,3.11 -0.28,0.4 -0.42,0.69 -0.42,0.86 -0.01,0.3 0.19,0.79 0.6,1.46 0.81,1.2 1.78,2.31 2.92,3.32 1.13,1.03 2.03,1.56 2.73,1.62 0.51,0.02 0.93,-0.25 1.23,-0.81 0.29,-0.55 0.59,-1.57 0.89,-3.07l0.35 -1.8 -0.21 -1.66c-0.26,-1.81 -0.62,-2.83 -1.09,-3.07zm-4.45 -6c0.81,-0.08 1.56,-0.1 2.26,-0.07 1.54,0.06 3.02,0.5 4.46,1.32 3.48,1.96 5.5,4.73 6.07,8.31 0.17,1.15 0.12,5.51 -0.17,13.1 -0.21,5.5 -0.19,8.81 0.06,9.95 0.23,0.96 0.33,1.65 0.31,2.06 -0.03,0.89 -0.53,1.31 -1.48,1.27l-0.26 -0.01c-0.92,-0.11 -1.9,-0.65 -2.97,-1.63 -1.07,-0.97 -1.89,-2.08 -2.46,-3.32 -0.51,-1.08 -0.82,-2.7 -0.93,-4.87 -0.06,-1.25 -0.14,-2.02 -0.24,-2.32 -0.12,-0.48 -0.88,-1.37 -2.28,-2.67 -1.41,-1.3 -2.53,-2.17 -3.35,-2.61 -0.29,-0.15 -0.65,-0.24 -1.09,-0.26 -0.4,-0.01 -0.7,0.05 -0.89,0.19 -0.37,0.28 -0.62,0.78 -0.75,1.53 -0.12,0.76 -0.26,2.88 -0.42,6.35 -0.16,3.06 -0.34,4.81 -0.53,5.2 -0.23,0.51 -0.62,0.76 -1.13,0.74 -0.55,-0.02 -1,-0.27 -1.35,-0.77 -1.26,-1.7 -2.31,-3.94 -3.16,-6.73l-0.48 -1.66 0.15 -5.78c0.14,-3.69 0.27,-6.28 0.4,-7.74l0.21 -2.03 0.82 -1.56c0.55,-1.01 1.32,-1.98 2.31,-2.9 0.95,-0.88 1.85,-1.5 2.71,-1.88 1.6,-0.7 3,-1.11 4.18,-1.21zm26.88 18.23c-0.26,-0.15 -0.68,-0.24 -1.26,-0.26 -1.16,-0.05 -2.33,0.18 -3.48,0.65 -0.61,0.27 -1.13,0.53 -1.58,0.81 -0.83,0.52 -1.26,1.11 -1.28,1.78 -0.02,0.36 0.04,0.83 0.16,1.38 0.32,1.48 1.16,2.91 2.49,4.32 0.81,0.84 1.41,1.27 1.76,1.28 0.71,0.03 1.47,-0.91 2.34,-2.83 0.87,-1.91 1.32,-3.63 1.38,-5.17 0.01,-0.3 0,-0.63 -0.07,-1 -0.09,-0.52 -0.25,-0.84 -0.46,-0.96zm0.48 -11.19c0.32,-0.48 0.82,-0.69 1.56,-0.66 0.7,0.02 1.46,0.44 2.32,1.24 0.86,0.8 1.41,1.52 1.68,2.15 0.08,0.11 0.17,0.57 0.28,1.34 0.11,0.74 0.1,3.2 -0.06,7.42 -0.16,4.1 -0.36,6.57 -0.61,7.41 -0.21,0.75 -0.57,1.58 -1.07,2.48 -0.52,0.9 -0.97,1.54 -1.36,1.89 -1.74,1.51 -3.74,2.37 -5.97,2.58 -0.74,0.05 -1.15,0.07 -1.22,0.06 -0.39,-0.01 -0.98,-0.11 -1.74,-0.28 -1.24,-0.24 -2.18,-0.54 -2.82,-0.89 -0.66,-0.35 -1.4,-0.96 -2.26,-1.85 -1.02,-1.09 -1.71,-2.26 -2.06,-3.47 -0.37,-1.16 -0.51,-2.68 -0.44,-4.55 0.03,-0.73 0.11,-1.29 0.23,-1.69 0.44,-1.31 1.3,-2.52 2.56,-3.64 0.95,-0.89 1.6,-1.43 1.93,-1.63 0.34,-0.21 1.15,-0.52 2.46,-0.96l1.94 -0.58 1.49 0.06c0.33,0.01 0.73,0.03 1.23,0.06 0.5,0.04 0.76,0.06 0.8,0.06l0.54 0.02 0.23 -6.1 0.36 -0.47zm19.09 11.93c-0.26,-0.15 -0.68,-0.24 -1.26,-0.26 -1.16,-0.05 -2.33,0.17 -3.48,0.64 -0.61,0.28 -1.13,0.54 -1.58,0.82 -0.83,0.51 -1.26,1.11 -1.28,1.78 -0.02,0.35 0.04,0.82 0.16,1.37 0.32,1.48 1.16,2.92 2.49,4.33 0.81,0.84 1.41,1.27 1.76,1.28 0.71,0.03 1.47,-0.91 2.34,-2.83 0.87,-1.92 1.32,-3.63 1.38,-5.17 0.01,-0.3 0,-0.63 -0.07,-1.01 -0.09,-0.51 -0.25,-0.83 -0.46,-0.95zm0.48 -11.2c0.32,-0.47 0.82,-0.68 1.55,-0.66 0.71,0.03 1.47,0.45 2.33,1.25 0.86,0.79 1.41,1.51 1.68,2.15 0.08,0.11 0.17,0.57 0.28,1.34 0.11,0.73 0.1,3.2 -0.06,7.42 -0.16,4.1 -0.36,6.57 -0.61,7.4 -0.21,0.76 -0.57,1.59 -1.07,2.49 -0.52,0.9 -0.97,1.54 -1.36,1.88 -1.74,1.51 -3.74,2.37 -5.97,2.59 -0.74,0.05 -1.15,0.06 -1.22,0.06 -0.39,-0.02 -0.98,-0.12 -1.74,-0.28 -1.24,-0.24 -2.18,-0.54 -2.82,-0.89 -0.66,-0.35 -1.4,-0.96 -2.26,-1.85 -1.02,-1.1 -1.71,-2.26 -2.06,-3.48 -0.37,-1.15 -0.51,-2.67 -0.44,-4.54 0.03,-0.73 0.11,-1.29 0.23,-1.69 0.44,-1.31 1.3,-2.52 2.56,-3.65 0.95,-0.88 1.6,-1.42 1.93,-1.63 0.34,-0.2 1.14,-0.51 2.46,-0.95l1.94 -0.58 1.49 0.06c0.33,0.01 0.73,0.02 1.23,0.06 0.5,0.03 0.76,0.06 0.8,0.06l0.54 0.02 0.23 -6.11 0.36 -0.47zm9.01 13.65c1.78,-1.29 4.16,-1.87 7.16,-1.76 0.41,0.02 1.64,0.11 3.69,0.3 2.03,0.18 3.18,0.3 3.45,0.36 0.65,0.2 1.33,0.97 2.05,2.32 0.63,1.1 0.93,2.21 0.92,3.34l0.01 1.27 -1.15 1.06c-1.76,-0.06 -4.4,-0.18 -7.95,-0.36 -3.56,-0.16 -6.23,-0.28 -8.03,-0.35l-1.13 -0.49c-1.63,-0.69 -2.43,-1.47 -2.39,-2.34 0.02,-0.7 1.14,-1.81 3.37,-3.35zm46.75 -12.22c-0.21,-0.12 -0.49,-0.17 -0.82,-0.18 -0.4,-0.02 -1.03,0.07 -1.88,0.25 -1.12,0.26 -2.34,0.74 -3.69,1.45 -2.14,1.22 -3.79,2.34 -4.93,3.37 -1.16,1.04 -2,2.18 -2.53,3.4 -0.16,0.33 -0.25,0.81 -0.28,1.43 -0.05,1.39 0.23,2.72 0.84,3.99 0.75,1.64 2.21,3.1 4.36,4.36 2.15,1.29 4.34,1.96 6.57,2.05 1.69,0.06 2.98,-0.08 3.87,-0.41 1.34,-0.49 2.06,-2.24 2.17,-5.25 0.05,-1.17 -0.07,-2.87 -0.35,-5.11 -0.27,-2.23 -0.6,-3.96 -0.96,-5.19 -0.67,-2.33 -1.47,-3.72 -2.37,-4.16zm-8 -5.42c0.33,0.02 0.89,-0.03 1.69,-0.12 0.78,-0.1 1.27,-0.16 1.46,-0.19 0.51,-0.06 1.23,-0.07 2.15,-0.03 0.87,0.03 1.46,0.08 1.76,0.17 1.59,0.39 2.8,0.89 3.62,1.47 0.14,0.11 0.54,0.34 1.19,0.7 0.25,0.14 0.7,0.47 1.39,0.98 0.47,0.38 1.16,1.08 2.07,2.08 0.91,1.01 1.47,1.68 1.63,1.98 0.72,1.23 1.29,2.59 1.72,4.07l0.54 1.79 -0.06 3.13 -0.05 1.32c-0.04,1.2 -0.17,2.12 -0.38,2.73 -0.21,0.62 -0.7,1.66 -1.49,3.15 -0.72,1.25 -1.29,2.16 -1.73,2.76 -0.44,0.59 -1.22,1.37 -2.32,2.31 -2.81,2.5 -6.06,3.67 -9.77,3.53 -0.84,-0.03 -1.87,-0.16 -3.06,-0.38 -2.56,-0.5 -4.8,-1.52 -6.72,-3.06 -1.45,-1.13 -2.59,-2.3 -3.44,-3.53 -0.84,-1.22 -1.55,-2.76 -2.13,-4.6 -0.53,-1.63 -0.77,-3.36 -0.7,-5.15 0.07,-1.79 0.24,-3.11 0.51,-3.93 0.26,-0.81 0.8,-1.95 1.59,-3.43 0.04,-0.11 0.07,-0.17 0.12,-0.21 0.03,-0.03 0.07,-0.09 0.12,-0.19 0.05,-0.09 0.08,-0.16 0.12,-0.24 0.43,-0.75 1.21,-1.69 2.36,-2.78 1.15,-1.1 2.24,-1.96 3.28,-2.63 0.69,-0.45 1.56,-0.81 2.63,-1.1 0.78,-0.2 1.25,-0.37 1.4,-0.51 0.08,-0.07 0.23,-0.1 0.5,-0.09zm29.85 26.77c0.02,-0.57 0.17,-1.46 0.44,-2.62 0.27,-1.16 0.41,-2.06 0.43,-2.68 0.04,-0.92 -0.05,-1.59 -0.25,-2.04 -0.5,-1.15 -1.38,-1.76 -2.63,-1.81 -0.62,-0.02 -1.24,0.16 -1.83,0.54 -0.61,0.38 -1.09,0.88 -1.44,1.49 -0.19,0.29 -0.31,0.81 -0.39,1.58l-0.02 0.54c-0.02,0.45 0.09,1.31 0.34,2.6 0.25,1.04 0.37,1.84 0.34,2.39 -0.01,0.51 -0.18,1.15 -0.5,1.9 -0.19,0.5 -0.41,1.17 -0.62,1.96 0,0.04 -0.04,0.2 -0.1,0.49 -0.07,0.29 -0.13,0.48 -0.16,0.57 -0.05,0.09 -0.1,0.23 -0.19,0.43 -0.08,0.2 -0.17,0.34 -0.28,0.41 -0.11,0.08 -0.25,0.1 -0.39,0.1 -0.3,-0.01 -0.64,-0.2 -1.04,-0.57 -0.41,-0.36 -0.74,-0.81 -0.98,-1.33 -0.31,-0.56 -0.51,-1.05 -0.59,-1.46 -0.08,-0.39 -0.26,-1.79 -0.53,-4.19 -0.24,-2.11 -0.37,-3.4 -0.35,-3.86 0.02,-0.55 0.17,-1.28 0.47,-2.19 0.31,-1.01 0.66,-1.81 1.09,-2.39 1.07,-1.35 2.27,-2.33 3.62,-2.94 0.87,-0.37 1.44,-0.58 1.71,-0.65 0.27,-0.07 0.91,-0.07 1.91,-0.04l0.21 0.01c1.95,0.11 3.66,0.76 5.16,1.96 1.16,0.92 2.02,2.2 2.55,3.84 0.32,1.07 0.43,3.56 0.33,7.44 -0.09,3.11 -0.03,4.83 0.18,5.17 0.13,0.27 0.2,0.54 0.19,0.83 -0.02,0.49 -0.26,0.88 -0.7,1.19 -0.23,0.18 -0.53,0.26 -0.89,0.25 -0.81,-0.03 -1.78,-0.64 -2.91,-1.83 -0.91,-0.95 -1.52,-1.75 -1.81,-2.43 -0.29,-0.67 -0.41,-1.55 -0.37,-2.66zm10.52 -12.03c0.9,-0.95 2.5,-1.39 4.84,-1.3 0.92,0.03 1.73,0.14 2.42,0.31 0.84,0.2 1.38,0.38 1.64,0.51 0.24,0.15 0.53,0.4 0.84,0.73 0.73,0.87 1.09,1.84 1.05,2.9 -0.02,0.54 -0.18,0.99 -0.49,1.31 -0.27,0.25 -0.54,0.37 -0.84,0.35 -0.3,-0.01 -0.66,-0.18 -1.13,-0.49 -0.72,-0.46 -1.73,-0.91 -3.04,-1.32 -0.79,-0.24 -1.3,-0.33 -1.54,-0.23 -0.18,0.11 -0.27,0.26 -0.28,0.45 -0.01,0.25 0.11,0.66 0.39,1.21 0.58,1.19 1.38,2.3 2.4,3.29 1.57,1.45 2.59,2.61 3.07,3.47 0.97,1.58 1.44,2.71 1.42,3.41 -0.05,1.29 -0.81,2.25 -2.27,2.89 -1.49,0.68 -2.97,0.98 -4.43,0.93 -0.4,-0.02 -1.12,-0.12 -2.14,-0.3 -1.94,-0.4 -3.38,-1.1 -4.32,-2.08 -0.71,-0.73 -1.04,-1.52 -1,-2.41 0.04,-1.29 0.47,-1.92 1.27,-1.89 0.44,0.02 1.05,0.31 1.84,0.85 0.89,0.66 2.05,1.03 3.48,1.11 0.95,0.09 1.51,0.05 1.66,-0.09 0.18,-0.18 0.23,-0.36 0.13,-0.56 -0.07,-0.17 -0.73,-0.94 -2,-2.32 -2.01,-2.27 -3.22,-3.94 -3.67,-4.99 -0.44,-1 -0.64,-1.96 -0.61,-2.87 0.04,-1.03 0.48,-1.98 1.31,-2.87z"/>
 </g>
</svg>
