<?xml version="1.0" encoding="UTF-8"?>
<!DOCTYPE svg PUBLIC "-//W3C//DTD SVG 1.1//EN" "http://www.w3.org/Graphics/SVG/1.1/DTD/svg11.dtd">
<!-- Creator: CorelDRAW 2021.5 -->
<svg xmlns="http://www.w3.org/2000/svg" xml:space="preserve" width="187px" height="83px" version="1.1" style="shape-rendering:geometricPrecision; text-rendering:geometricPrecision; image-rendering:optimizeQuality; fill-rule:evenodd; clip-rule:evenodd"
viewBox="0 0 64.73 28.95"
 xmlns:xlink="http://www.w3.org/1999/xlink"
 xmlns:xodm="http://www.corel.com/coreldraw/odm/2003">
 <defs>
  <style type="text/css">
   <![CDATA[
    .fil1 {fill:black;fill-rule:nonzero}
    .fil0 {fill:#8EFF4C;fill-rule:nonzero}
   ]]>
  </style>
 </defs>
 <g id="Layer_x0020_1">
  <metadata id="CorelCorpID_0Corel-Layer"/>
  <path class="fil0" d="M3.77 9.57c-0.54,0.33 -0.99,0.78 -1.41,1.25 -0.96,0.98 -1.67,2.11 -2.06,3.42 -0.69,2.39 -0.16,4.57 1.2,6.57 1.82,2.68 4.45,4.3 7.37,5.51 0.09,0.04 0.18,0.09 0.25,0 0.07,-0.1 -0.03,-0.17 -0.08,-0.23 -0.22,-0.28 -0.4,-0.57 -0.53,-0.9 -0.27,-0.74 -0.04,-1.37 0.64,-1.76 0.32,-0.18 0.67,-0.33 1.04,-0.41 1.05,-0.22 2.1,-0.45 3.15,-0.68 2.71,-0.56 4.55,-2.17 5.6,-4.7 0.33,-0.8 0.53,-1.63 0.52,-2.49 -0.01,-0.48 -0.05,-0.49 -0.44,-0.27 -0.22,0.13 -0.43,0.24 -0.66,0.35 -0.87,0.4 -1.77,0.64 -2.74,0.59 -0.09,0 -0.38,0.12 -0.24,-0.2 0.07,-0.04 0.15,-0.07 0.2,-0.12 2.37,-2.15 3.72,-4.73 3.38,-8.01 -0.09,-0.96 -0.36,-1.9 -0.87,-2.74l0 0c-0.19,-0.56 -0.54,-1.02 -0.88,-1.49 -0.93,-1.23 -2.05,-2.23 -3.36,-3.05 -0.09,-0.11 -0.24,-0.26 -0.35,-0.19 -0.13,0.07 0.04,0.2 0.09,0.3 0.39,1.07 0.25,2.09 -0.3,3.08 -0.29,0.53 -0.7,0.97 -1.09,1.43l-0.01 0c-0.89,0.79 -1.97,1.26 -3.04,1.75 -0.84,0.4 -1.71,0.75 -2.51,1.23l0 0c-0.31,0.07 -0.56,0.25 -0.83,0.4 -0.71,0.39 -1.43,0.79 -2.04,1.35l0.03 0.03 -0.03 -0.02z"/>
  <path class="fil1" d="M12.67 10.21c0.19,-0.03 0.53,-0.04 1,-0.02 0.82,0.03 1.69,0.16 2.62,0.38 0.91,0.22 1.54,0.45 1.89,0.68 0.88,0.62 1.29,1.5 1.25,2.65 -0.03,0.86 -0.31,1.33 -0.82,1.41 -0.02,0 -0.04,0.01 -0.08,0.03l-0.07 -0.01c-0.07,0 -0.51,-0.24 -1.32,-0.72 -1.02,-0.61 -2.07,-0.93 -3.16,-0.97 -0.51,-0.02 -0.82,0.08 -0.93,0.29 -0.04,0.12 -0.06,0.22 -0.06,0.29 -0.02,0.33 0.19,0.9 0.61,1.7 0.46,0.82 1.49,2.14 3.08,3.96 0.91,1.05 1.53,1.81 1.85,2.27 0.31,0.46 0.52,0.91 0.62,1.35 0.05,0.25 0.07,0.52 0.06,0.79 -0.04,1.06 -0.47,1.79 -1.31,2.21 -0.71,0.36 -1.49,0.64 -2.35,0.82 -0.43,0.08 -0.96,0.11 -1.59,0.08 -0.95,-0.03 -1.96,-0.14 -3.01,-0.31 -0.61,-0.1 -1.32,-0.41 -2.15,-0.94 -0.84,-0.54 -1.34,-1.03 -1.52,-1.48 -0.14,-0.34 -0.2,-0.69 -0.19,-1.07 0.01,-0.2 0.02,-0.35 0.04,-0.44 0.19,-0.8 0.54,-1.19 1.04,-1.17 0.38,0.02 0.8,0.22 1.27,0.61 1.01,0.8 2.33,1.24 3.95,1.3 0.4,0.01 0.74,-0.05 1,-0.19 0.27,-0.13 0.4,-0.31 0.41,-0.53 0,-0.14 -0.04,-0.26 -0.11,-0.35 -0.04,-0.08 -0.55,-0.69 -1.54,-1.82 -1.27,-1.42 -2.09,-2.39 -2.48,-2.9 -0.39,-0.51 -0.73,-1.06 -1,-1.63 -0.24,-0.5 -0.42,-0.87 -0.57,-1.12l-0.22 -0.41 0.04 -0.92c0.02,-0.56 0.08,-1 0.19,-1.3 0.28,-0.7 0.73,-1.27 1.38,-1.73 0.63,-0.45 1.35,-0.72 2.18,-0.79zm13.05 9.6c-0.13,-0.11 -0.25,-0.16 -0.38,-0.17 -0.17,0 -0.5,0.11 -1,0.35 -0.86,0.4 -1.52,0.97 -1.98,1.69 -0.14,0.23 -0.21,0.4 -0.22,0.52 -0.01,0.35 0.42,0.89 1.32,1.6 0.89,0.73 1.61,1.12 2.15,1.2 0.26,0.03 0.44,0 0.53,-0.1 0.27,-0.25 0.41,-0.82 0.45,-1.71 0.02,-0.49 -0.01,-0.94 -0.07,-1.33 -0.17,-1.06 -0.44,-1.75 -0.8,-2.05zm-2.19 -2.67c0.39,-0.08 0.81,-0.11 1.24,-0.1 0.43,0.02 0.87,0.09 1.31,0.19 0.78,0.19 1.49,0.56 2.16,1.1 0.67,0.55 1.15,1.17 1.46,1.86 0.24,0.52 0.38,0.99 0.42,1.4 0.04,0.41 0.04,1.18 -0.01,2.32 -0.04,1.09 -0.05,1.76 -0.02,2 0.02,0.25 0.1,0.48 0.25,0.7 0.11,0.18 0.16,0.35 0.15,0.51 0,0.19 -0.11,0.35 -0.31,0.49 -0.19,0.13 -0.45,0.19 -0.76,0.18 -0.32,-0.01 -0.56,-0.07 -0.72,-0.15 -0.16,-0.09 -0.36,-0.27 -0.61,-0.55l-0.42 -0.48 -0.52 0.38c-0.46,0.34 -0.84,0.56 -1.14,0.67 -0.29,0.1 -0.71,0.15 -1.23,0.13l-0.54 -0.02c-0.68,-0.05 -1.16,-0.14 -1.45,-0.27 -0.91,-0.36 -1.7,-0.95 -2.37,-1.76 -0.22,-0.28 -0.37,-0.48 -0.43,-0.6 -0.07,-0.12 -0.16,-0.39 -0.28,-0.81 -0.23,-0.75 -0.33,-1.46 -0.31,-2.12 0.03,-0.86 0.27,-1.69 0.72,-2.5 0.42,-0.79 0.8,-1.28 1.14,-1.48 0.94,-0.59 1.7,-0.96 2.27,-1.09zm9.77 -6.27c0.13,-0.05 0.32,-0.08 0.6,-0.07 0.21,0.01 0.37,0.06 0.47,0.14 0.08,0.09 0.14,0.25 0.18,0.51 0.09,0.55 0.06,2.95 -0.1,7.21l-0.06 1.53c-0.09,2.33 -0.11,3.71 -0.08,4.15 0.03,0.45 0.19,0.93 0.46,1.48 0.22,0.45 0.32,0.77 0.32,0.95 -0.02,0.29 -0.11,0.52 -0.29,0.7 -0.18,0.18 -0.42,0.26 -0.69,0.25 -0.19,-0.01 -0.52,-0.14 -0.98,-0.42 -0.46,-0.26 -0.8,-0.52 -1.03,-0.77 -0.43,-0.44 -0.76,-1.06 -0.99,-1.85 -0.18,-0.71 -0.3,-1.28 -0.34,-1.72 -0.04,-0.43 -0.05,-1.23 0,-2.4 0.05,-1.37 0.1,-2.57 0.17,-3.61l0.21 -4.01 0.34 -0.46c0.59,-0.84 1.2,-1.37 1.81,-1.61zm8.43 9.54c-0.13,-0.1 -0.26,-0.16 -0.38,-0.16 -0.18,-0.01 -0.5,0.1 -1,0.34 -0.86,0.4 -1.52,0.97 -1.98,1.69 -0.14,0.23 -0.22,0.4 -0.22,0.52 -0.01,0.36 0.42,0.89 1.32,1.6 0.89,0.73 1.61,1.12 2.15,1.2 0.26,0.03 0.43,0 0.53,-0.1 0.27,-0.24 0.41,-0.81 0.45,-1.71 0.02,-0.49 -0.01,-0.93 -0.07,-1.33 -0.18,-1.06 -0.44,-1.74 -0.8,-2.05zm-2.19 -2.67c0.39,-0.08 0.81,-0.11 1.24,-0.09 0.43,0.01 0.86,0.08 1.31,0.19 0.77,0.18 1.49,0.55 2.16,1.09 0.66,0.55 1.15,1.17 1.46,1.86 0.23,0.52 0.37,0.99 0.42,1.4 0.04,0.41 0.04,1.18 -0.01,2.32 -0.04,1.09 -0.05,1.77 -0.02,2.01 0.01,0.24 0.1,0.48 0.25,0.7 0.11,0.18 0.16,0.34 0.15,0.5 -0.01,0.19 -0.11,0.36 -0.31,0.49 -0.19,0.13 -0.45,0.19 -0.76,0.18 -0.32,-0.01 -0.56,-0.06 -0.72,-0.15 -0.16,-0.08 -0.37,-0.27 -0.61,-0.55l-0.43 -0.48 -0.51 0.39c-0.46,0.34 -0.84,0.56 -1.14,0.66 -0.29,0.11 -0.71,0.15 -1.24,0.13l-0.53 -0.02c-0.68,-0.05 -1.17,-0.14 -1.45,-0.26 -0.91,-0.37 -1.7,-0.96 -2.37,-1.76 -0.23,-0.29 -0.37,-0.48 -0.43,-0.61 -0.07,-0.12 -0.16,-0.39 -0.29,-0.8 -0.23,-0.75 -0.32,-1.46 -0.3,-2.13 0.03,-0.85 0.27,-1.69 0.72,-2.49 0.42,-0.79 0.8,-1.29 1.14,-1.49 0.94,-0.59 1.7,-0.95 2.27,-1.09zm14.35 3.21c-0.14,-0.08 -0.36,-0.13 -0.67,-0.14 -0.62,-0.02 -1.24,0.1 -1.86,0.35 -0.32,0.14 -0.6,0.28 -0.84,0.43 -0.44,0.28 -0.67,0.59 -0.68,0.95 -0.01,0.19 0.02,0.44 0.08,0.73 0.17,0.79 0.62,1.56 1.33,2.31 0.44,0.45 0.75,0.68 0.94,0.68 0.38,0.02 0.79,-0.48 1.25,-1.5 0.46,-1.03 0.7,-1.94 0.74,-2.76 0,-0.16 -0.01,-0.34 -0.04,-0.54 -0.05,-0.27 -0.14,-0.44 -0.25,-0.51zm0.26 -5.97c0.17,-0.25 0.44,-0.37 0.83,-0.35 0.37,0.01 0.78,0.24 1.24,0.66 0.45,0.43 0.75,0.81 0.89,1.15 0.04,0.06 0.09,0.3 0.15,0.71 0.06,0.4 0.05,1.71 -0.03,3.96 -0.08,2.19 -0.19,3.51 -0.32,3.95 -0.12,0.4 -0.31,0.85 -0.58,1.33 -0.27,0.48 -0.51,0.82 -0.72,1 -0.93,0.81 -1.99,1.27 -3.19,1.38 -0.39,0.03 -0.61,0.04 -0.65,0.03 -0.21,0 -0.52,-0.06 -0.92,-0.15 -0.67,-0.12 -1.17,-0.28 -1.51,-0.47 -0.35,-0.19 -0.75,-0.51 -1.2,-0.99 -0.55,-0.58 -0.91,-1.2 -1.11,-1.85 -0.19,-0.62 -0.27,-1.43 -0.23,-2.42 0.02,-0.39 0.06,-0.69 0.13,-0.91 0.23,-0.69 0.69,-1.34 1.36,-1.94 0.51,-0.47 0.85,-0.76 1.03,-0.87 0.18,-0.11 0.61,-0.28 1.31,-0.51l1.03 -0.31 0.8 0.03c0.18,0.01 0.39,0.02 0.66,0.03 0.26,0.02 0.41,0.04 0.42,0.04l0.29 0.01 0.13 -3.26 0.19 -0.25zm4.83 4.14c0.48,-0.5 1.33,-0.74 2.58,-0.69 0.49,0.02 0.92,0.08 1.29,0.16 0.45,0.11 0.73,0.21 0.87,0.28 0.13,0.08 0.29,0.21 0.45,0.39 0.39,0.46 0.58,0.98 0.56,1.54 -0.01,0.29 -0.09,0.53 -0.26,0.7 -0.14,0.14 -0.29,0.2 -0.45,0.19 -0.15,0 -0.35,-0.09 -0.6,-0.26 -0.38,-0.25 -0.92,-0.49 -1.62,-0.7 -0.42,-0.14 -0.69,-0.18 -0.82,-0.13 -0.1,0.06 -0.15,0.14 -0.15,0.24 -0.01,0.13 0.06,0.35 0.21,0.65 0.31,0.63 0.73,1.22 1.28,1.75 0.83,0.77 1.38,1.39 1.63,1.85 0.52,0.85 0.77,1.45 0.76,1.82 -0.03,0.69 -0.43,1.2 -1.21,1.54 -0.79,0.37 -1.58,0.53 -2.36,0.5 -0.22,-0.01 -0.6,-0.07 -1.14,-0.16 -1.04,-0.21 -1.8,-0.58 -2.31,-1.11 -0.38,-0.39 -0.55,-0.81 -0.53,-1.29 0.02,-0.69 0.25,-1.02 0.68,-1 0.23,0.01 0.56,0.16 0.98,0.45 0.47,0.35 1.09,0.55 1.86,0.59 0.5,0.05 0.8,0.03 0.88,-0.05 0.09,-0.09 0.12,-0.19 0.07,-0.29 -0.04,-0.1 -0.39,-0.51 -1.07,-1.24 -1.07,-1.21 -1.72,-2.1 -1.95,-2.66 -0.24,-0.54 -0.35,-1.05 -0.33,-1.54 0.02,-0.55 0.26,-1.05 0.7,-1.53z"/>
 </g>
</svg>
