<?xml version="1.0" encoding="UTF-8"?>
<!DOCTYPE svg PUBLIC "-//W3C//DTD SVG 1.1//EN" "http://www.w3.org/Graphics/SVG/1.1/DTD/svg11.dtd">
<!-- Creator: CorelDRAW 2021.5 -->
<svg xmlns="http://www.w3.org/2000/svg" xml:space="preserve" width="255px" height="77px" version="1.1" style="shape-rendering:geometricPrecision; text-rendering:geometricPrecision; image-rendering:optimizeQuality; fill-rule:evenodd; clip-rule:evenodd"
viewBox="0 0 171.4 51.67"
 xmlns:xlink="http://www.w3.org/1999/xlink"
 xmlns:xodm="http://www.corel.com/coreldraw/odm/2003">
 <defs>
  <style type="text/css">
   <![CDATA[
    .fil1 {fill:black;fill-rule:nonzero}
    .fil0 {fill:#E6007E;fill-rule:nonzero}
   ]]>
  </style>
 </defs>
 <g id="Layer_x0020_1">
  <metadata id="CorelCorpID_0Corel-Layer"/>
  <path class="fil0" d="M7.32 18.55c-1.07,0.64 -1.93,1.51 -2.75,2.43 -1.85,1.9 -3.24,4.08 -3.98,6.64 -1.34,4.62 -0.31,8.85 2.32,12.72 3.52,5.2 8.62,8.35 14.3,10.7 0.16,0.06 0.34,0.17 0.47,-0.01 0.14,-0.19 -0.06,-0.32 -0.16,-0.45 -0.42,-0.53 -0.78,-1.11 -1.02,-1.74 -0.53,-1.42 -0.08,-2.65 1.24,-3.4 0.63,-0.36 1.3,-0.64 2.02,-0.8 2.03,-0.44 4.06,-0.89 6.1,-1.31 5.25,-1.11 8.82,-4.21 10.86,-9.13 0.64,-1.54 1.02,-3.15 1.01,-4.83 -0.01,-0.92 -0.09,-0.95 -0.86,-0.51 -0.41,0.23 -0.83,0.46 -1.26,0.66 -1.69,0.78 -3.44,1.24 -5.31,1.15 -0.19,0 -0.74,0.24 -0.47,-0.39 0.13,-0.07 0.27,-0.12 0.38,-0.22 4.59,-4.17 7.21,-9.18 6.56,-15.54 -0.19,-1.87 -0.7,-3.68 -1.69,-5.31l0 -0.01c-0.37,-1.07 -1.05,-1.98 -1.72,-2.87 -1.78,-2.38 -3.97,-4.34 -6.5,-5.92 -0.19,-0.21 -0.47,-0.51 -0.69,-0.38 -0.25,0.15 0.09,0.39 0.18,0.59 0.76,2.08 0.49,4.06 -0.58,5.97 -0.57,1.03 -1.37,1.88 -2.12,2.77l-0.01 0.01c-1.74,1.52 -3.83,2.44 -5.89,3.4 -1.64,0.76 -3.32,1.44 -4.88,2.38l0 -0.01c-0.59,0.13 -1.08,0.49 -1.6,0.78 -1.39,0.76 -2.78,1.53 -3.95,2.62l0.04 0.05 -0.04 -0.04z"/>
  <path class="fil1" d="M38.35 24.42c-0.56,-0.2 -0.96,-0.29 -1.19,-0.29 -0.45,0 -0.9,0.45 -1.37,1.37 -0.6,1.06 -1.03,2.43 -1.31,4.09 -0.17,1.02 -0.27,2.08 -0.27,3.18 0,0.76 0.03,1.34 0.11,1.71 0.12,0.72 0.23,1.18 0.37,1.35 0.13,0.2 0.44,0.31 0.94,0.36l0.27 0c0.39,0 1.05,-0.2 2,-0.57 1.94,-0.75 3.32,-1.56 4.15,-2.38 1.06,-1.07 1.59,-2 1.59,-2.79 0,-0.7 -0.45,-1.65 -1.35,-2.86 -1.26,-1.63 -2.57,-2.67 -3.94,-3.17zm-4.2 22.8c0,0.72 -0.21,1.61 -0.65,2.69 -0.44,1.08 -0.92,1.63 -1.45,1.63 -0.76,0 -1.98,-1.63 -3.64,-4.89 -0.96,-1.93 -1.52,-3.55 -1.71,-4.84 -0.05,-0.33 -0.07,-2.69 -0.07,-7.04 0.05,-3.45 0.1,-5.63 0.18,-6.51 0.08,-0.89 0.3,-1.81 0.68,-2.76 0.53,-1.34 1.25,-2.45 2.16,-3.36 0.98,-0.98 2.19,-1.87 3.62,-2.62 1.42,-0.76 2.71,-1.21 3.89,-1.36 0.08,0 0.21,-0.01 0.4,-0.03 0.18,-0.02 0.31,-0.03 0.39,-0.03 2.27,0 4.37,0.48 6.27,1.45 1.89,0.97 3.37,2.17 4.44,3.61 0.5,0.73 1.03,1.76 1.59,3.1 0.57,1.35 0.84,2.5 0.84,3.45 0,1.24 -0.24,2.72 -0.74,4.43 -0.18,0.65 -0.6,1.5 -1.24,2.55 -0.65,1.06 -1.21,1.8 -1.71,2.22 -1.32,1.18 -2.31,1.94 -2.95,2.28 -2.28,1.06 -4,1.59 -5.18,1.59l-0.4 0c-0.73,-0.03 -1.37,-0.18 -1.94,-0.45 -0.87,-0.42 -1.37,-0.68 -1.48,-0.79 -0.37,-0.24 -0.6,-0.35 -0.68,-0.35 -0.04,0 -0.16,0.98 -0.33,2.93 -0.2,1.95 -0.29,2.98 -0.29,3.1zm21.38 -29.24c0.24,-0.11 0.61,-0.17 1.14,-0.17 0.42,0 0.73,0.08 0.92,0.22 0.18,0.16 0.31,0.49 0.39,0.99 0.23,1.04 0.34,5.7 0.34,13.98l0 2.96c0,4.52 0.05,7.19 0.14,8.05 0.1,0.85 0.44,1.79 1,2.82 0.45,0.87 0.68,1.48 0.68,1.82 0,0.57 -0.16,1.02 -0.5,1.37 -0.34,0.37 -0.79,0.55 -1.32,0.55 -0.37,0 -1.02,-0.24 -1.92,-0.74 -0.92,-0.49 -1.6,-0.95 -2.06,-1.42 -0.87,-0.82 -1.55,-2 -2.05,-3.52 -0.41,-1.37 -0.68,-2.46 -0.79,-3.3 -0.11,-0.84 -0.18,-2.39 -0.18,-4.66 0,-2.66 0.02,-4.98 0.07,-7l0.11 -7.79 0.63 -0.92c1.09,-1.66 2.22,-2.74 3.4,-3.24zm17.01 17.87c-0.26,-0.19 -0.5,-0.29 -0.74,-0.29 -0.34,0 -0.97,0.24 -1.92,0.74 -1.63,0.84 -2.87,1.98 -3.71,3.42 -0.25,0.45 -0.38,0.79 -0.38,1.01 0,0.7 0.88,1.7 2.67,3.02 1.78,1.34 3.2,2.05 4.26,2.16 0.5,0.05 0.84,-0.03 1.02,-0.22 0.5,-0.5 0.74,-1.62 0.74,-3.36 0,-0.95 -0.08,-1.8 -0.23,-2.56 -0.42,-2.05 -0.98,-3.36 -1.71,-3.92zm-4.43 -5.02c0.76,-0.17 1.56,-0.27 2.4,-0.27 0.82,0 1.68,0.1 2.55,0.27 1.52,0.31 2.93,0.97 4.27,1.97 1.32,1.02 2.31,2.18 2.95,3.5 0.5,0.98 0.81,1.89 0.92,2.68 0.11,0.79 0.16,2.29 0.16,4.5 0,2.11 0.04,3.41 0.1,3.88 0.05,0.47 0.23,0.92 0.53,1.34 0.23,0.34 0.34,0.66 0.34,0.97 0,0.37 -0.19,0.69 -0.56,0.97 -0.37,0.27 -0.87,0.4 -1.47,0.4 -0.61,0 -1.08,-0.08 -1.4,-0.24 -0.33,-0.15 -0.73,-0.49 -1.23,-1.02l-0.85 -0.9 -0.97 0.79c-0.87,0.69 -1.6,1.14 -2.16,1.37 -0.57,0.22 -1.37,0.34 -2.39,0.34l-1.03 0c-1.32,-0.05 -2.27,-0.18 -2.84,-0.41 -1.79,-0.64 -3.35,-1.72 -4.72,-3.24 -0.45,-0.53 -0.74,-0.9 -0.87,-1.14 -0.15,-0.23 -0.34,-0.74 -0.62,-1.53 -0.5,-1.44 -0.74,-2.81 -0.74,-4.1 0,-1.66 0.41,-3.29 1.21,-4.89 0.76,-1.56 1.45,-2.54 2.1,-2.96 1.79,-1.21 3.22,-1.97 4.32,-2.28zm19.22 -5.85c0.47,-0.11 0.95,-0.05 1.49,0.23 0.3,0.14 0.5,0.42 0.59,0.79 0.1,0.38 0.18,1.3 0.26,2.74l0.11 2.61c1.21,-0.14 2.36,-0.23 3.42,-0.23 0.5,0 1.05,0.04 1.65,0.12 0.27,0.05 0.83,0.14 1.71,0.29 0.87,0.14 1.64,0.27 2.33,0.38 0.68,0.12 1.08,0.21 1.2,0.29 0.08,0.09 0.19,0.12 0.33,0.12 0.15,0 0.33,0.09 0.5,0.29 0.25,0.22 0.36,0.43 0.36,0.63 0,0.4 -0.52,0.93 -1.55,1.58 -1.4,0.87 -2.92,1.58 -4.55,2.11 -0.75,0.27 -1.4,0.4 -1.93,0.4 -0.73,0 -1.63,-0.5 -2.73,-1.48l-0.96 -0.92 -0.29 0.97c-0.23,0.84 -0.34,1.9 -0.34,3.19 0,1.47 0.13,2.87 0.4,4.18 0.26,1.3 0.6,2.08 1.02,2.3 0.14,0.08 0.3,0.12 0.47,0.12 0.62,0 1.46,-0.36 2.49,-1.09 1.02,-0.72 2,-1.64 2.96,-2.79 1.09,-1.28 1.75,-1.93 1.99,-1.93 0.04,0 0.25,-0.13 0.62,-0.39 0.38,-0.24 0.79,-0.35 1.21,-0.35 0.72,0 1.19,0.27 1.42,0.8 0.08,0.23 0.11,0.44 0.11,0.63 0,0.91 -0.36,2.44 -1.08,4.6 -0.34,1.26 -1.16,2.51 -2.45,3.76 -0.68,0.64 -1.21,1.04 -1.6,1.19 -0.56,0.19 -1.11,0.42 -1.64,0.69 -1.25,0.57 -2.37,0.86 -3.36,0.86 -1.79,0 -3.4,-0.53 -4.83,-1.58 -1.44,-1.05 -2.52,-2.29 -3.25,-3.73 -0.42,-0.87 -0.66,-1.85 -0.74,-2.95 -0.03,-0.34 -0.08,-0.84 -0.13,-1.48 -0.06,-0.65 -0.11,-1.23 -0.14,-1.76 -0.05,-0.53 -0.07,-1.02 -0.07,-1.48 0,-0.37 0.04,-0.91 0.12,-1.6 0.03,-0.37 0.05,-1.19 0.05,-2.43l0 -1.08c0,-0.2 0,-0.44 -0.02,-0.75 -0.02,-0.3 -0.03,-0.51 -0.03,-0.63 0,-1.51 0.19,-2.7 0.56,-3.57 0.34,-0.7 0.98,-1.44 1.92,-2.23 0.92,-0.79 1.73,-1.27 2.4,-1.42zm19.23 0c0.46,-0.11 0.95,-0.05 1.48,0.23 0.31,0.14 0.5,0.42 0.6,0.79 0.09,0.38 0.17,1.3 0.25,2.74l0.12 2.61c1.21,-0.14 2.35,-0.23 3.41,-0.23 0.5,0 1.05,0.04 1.65,0.12 0.27,0.05 0.84,0.14 1.71,0.29 0.87,0.14 1.64,0.27 2.34,0.38 0.67,0.12 1.08,0.21 1.19,0.29 0.08,0.09 0.19,0.12 0.34,0.12 0.14,0 0.32,0.09 0.5,0.29 0.24,0.22 0.35,0.43 0.35,0.63 0,0.4 -0.51,0.93 -1.55,1.58 -1.4,0.87 -2.91,1.58 -4.54,2.11 -0.76,0.27 -1.4,0.4 -1.94,0.4 -0.72,0 -1.63,-0.5 -2.72,-1.48l-0.97 -0.92 -0.29 0.97c-0.23,0.84 -0.34,1.9 -0.34,3.19 0,1.47 0.13,2.87 0.41,4.18 0.25,1.3 0.59,2.08 1.01,2.3 0.15,0.08 0.31,0.12 0.47,0.12 0.63,0 1.47,-0.36 2.5,-1.09 1.01,-0.72 2,-1.64 2.95,-2.79 1.09,-1.28 1.76,-1.93 2,-1.93 0.03,0 0.24,-0.13 0.61,-0.39 0.39,-0.24 0.79,-0.35 1.21,-0.35 0.73,0 1.19,0.27 1.42,0.8 0.08,0.23 0.11,0.44 0.11,0.63 0,0.91 -0.35,2.44 -1.08,4.6 -0.34,1.26 -1.16,2.51 -2.45,3.76 -0.68,0.64 -1.21,1.04 -1.6,1.19 -0.56,0.19 -1.11,0.42 -1.64,0.69 -1.24,0.57 -2.37,0.86 -3.35,0.86 -1.79,0 -3.41,-0.53 -4.84,-1.58 -1.44,-1.05 -2.52,-2.29 -3.24,-3.73 -0.42,-0.87 -0.66,-1.85 -0.74,-2.95 -0.04,-0.34 -0.08,-0.84 -0.13,-1.48 -0.07,-0.65 -0.12,-1.23 -0.15,-1.76 -0.05,-0.53 -0.06,-1.02 -0.06,-1.48 0,-0.37 0.03,-0.91 0.11,-1.6 0.03,-0.37 0.05,-1.19 0.05,-2.43l0 -1.08c0,-0.2 0,-0.44 -0.02,-0.75 -0.01,-0.3 -0.03,-0.51 -0.03,-0.63 0,-1.51 0.19,-2.7 0.56,-3.57 0.34,-0.7 0.99,-1.44 1.92,-2.23 0.92,-0.79 1.73,-1.27 2.41,-1.42zm21.44 6.37c0.84,-0.34 1.58,-0.52 2.21,-0.52 0.47,0 0.84,0.02 1.15,0.07 2.21,0.11 4.25,0.84 6.14,2.21 0.95,0.72 1.57,1.45 1.87,2.18 0.16,0.33 0.24,0.69 0.24,1.07 0,0.54 -0.16,1.04 -0.46,1.54 -0.26,0.45 -1.29,1.58 -3.08,3.37 -1.81,1.8 -2.92,2.8 -3.34,3 -0.61,0.27 -1.13,0.4 -1.55,0.4 -0.68,0 -1.27,-0.21 -1.81,-0.63 -0.5,-0.34 -0.74,-0.71 -0.74,-1.08 0,-0.27 0.08,-0.53 0.23,-0.81 0.34,-0.75 1.29,-1.69 2.84,-2.83 1.66,-1.29 2.5,-2.08 2.5,-2.39 0,-0.37 -0.38,-0.74 -1.13,-1.11 -0.76,-0.36 -1.63,-0.58 -2.62,-0.66l-0.62 0c-0.73,0 -1.23,0.13 -1.5,0.37 -0.29,0.24 -0.54,0.72 -0.73,1.45 -0.14,0.61 -0.22,1.53 -0.22,2.74 0,0.87 0.06,1.56 0.17,2.09 0.41,1.67 1.34,2.84 2.79,3.54 0.53,0.27 1.36,0.42 2.5,0.45l0.86 0c0.67,0 1.3,-0.05 1.87,-0.16 1.33,-0.28 2.48,-0.68 3.46,-1.21 0.15,-0.08 0.39,-0.12 0.7,-0.12 0.48,0 0.72,0.34 0.72,1.04 0,0.27 -0.01,0.48 -0.05,0.63 -0.19,0.98 -0.66,1.87 -1.42,2.67 -0.56,0.6 -1.03,0.97 -1.37,1.08 -0.56,0.23 -1.25,0.47 -2.04,0.73 -1.6,0.61 -3.12,0.92 -4.55,0.92 -0.73,0 -1.69,-0.1 -2.9,-0.29 -0.73,-0.12 -1.26,-0.26 -1.6,-0.45 -1.24,-0.6 -2.43,-1.67 -3.58,-3.17 -1.14,-1.49 -1.79,-2.99 -1.93,-4.51 -0.05,-0.27 -0.07,-0.61 -0.07,-1.03 0,-0.37 0.07,-0.97 0.18,-1.76 0.31,-2.13 1,-3.92 2.11,-5.35 0.4,-0.57 1.1,-1.24 2.05,-2 0.95,-0.76 1.56,-1.13 1.87,-1.13 0.05,0 0.32,-0.11 0.85,-0.34zm22.47 -0.68c0.18,-0.05 0.47,-0.06 0.85,-0.06 0.87,0 1.78,0.47 2.73,1.42 0.92,0.98 1.58,1.88 1.98,2.67 0.24,0.47 0.36,0.96 0.36,1.49 0,0.64 -0.2,1.14 -0.58,1.48 -0.18,0.15 -0.68,0.23 -1.47,0.23 -1.57,0 -2.87,-0.13 -3.94,-0.41 -0.75,-0.19 -1.3,-0.29 -1.64,-0.29l-0.11 0c-0.37,0.12 -0.57,1.36 -0.57,3.71 0,1.89 -0.06,3.29 -0.18,4.21 -0.37,2.92 -0.69,4.64 -0.96,5.18 -0.42,0.75 -0.76,1.13 -1.02,1.13 -0.27,0 -0.71,-0.31 -1.32,-0.91 -0.48,-0.42 -0.84,-0.87 -1.08,-1.37 -0.08,-0.14 -0.42,-0.72 -1.02,-1.71 -0.84,-1.37 -1.3,-2.61 -1.42,-3.74 -0.08,-0.64 -0.17,-1.21 -0.29,-1.71 -0.11,-0.56 -0.17,-1.4 -0.17,-2.5 0,-1.43 0.08,-2.38 0.24,-2.85 0.11,-0.34 0.16,-0.73 0.16,-1.13 0,-0.34 0.22,-0.79 0.68,-1.32 0.75,-0.9 1.5,-1.5 2.22,-1.81 1.71,-0.76 3.89,-1.34 6.55,-1.71zm9.26 1.42c0.88,-1.01 2.53,-1.53 4.95,-1.53 0.95,0 1.79,0.08 2.51,0.23 0.87,0.17 1.44,0.33 1.71,0.46 0.26,0.15 0.57,0.39 0.9,0.73 0.79,0.87 1.2,1.85 1.2,2.95 0,0.56 -0.15,1.03 -0.45,1.37 -0.28,0.27 -0.55,0.4 -0.86,0.4 -0.31,0 -0.69,-0.16 -1.19,-0.46 -0.76,-0.46 -1.82,-0.87 -3.19,-1.25 -0.83,-0.22 -1.36,-0.29 -1.6,-0.17 -0.18,0.11 -0.27,0.27 -0.27,0.47 0,0.25 0.14,0.67 0.45,1.24 0.64,1.21 1.51,2.32 2.61,3.3 1.68,1.44 2.77,2.6 3.3,3.47 1.07,1.59 1.6,2.74 1.6,3.47 0,1.33 -0.74,2.35 -2.22,3.07 -1.52,0.76 -3.04,1.13 -4.55,1.13 -0.42,0 -1.16,-0.08 -2.23,-0.22 -2.01,-0.34 -3.53,-1 -4.54,-1.99 -0.76,-0.72 -1.13,-1.53 -1.13,-2.45 0,-1.33 0.42,-2 1.24,-2 0.45,0 1.1,0.28 1.93,0.81 0.96,0.65 2.17,0.98 3.65,1.02 0.98,0.04 1.56,-0.02 1.71,-0.16 0.17,-0.2 0.22,-0.39 0.11,-0.59 -0.08,-0.17 -0.79,-0.95 -2.16,-2.32 -2.16,-2.27 -3.48,-3.95 -3.98,-5.01 -0.5,-1.02 -0.74,-2 -0.74,-2.95 0,-1.07 0.41,-2.07 1.24,-3.02z"/>
 </g>
</svg>
