<?xml version="1.0" encoding="UTF-8"?>
<!DOCTYPE svg PUBLIC "-//W3C//DTD SVG 1.1//EN" "http://www.w3.org/Graphics/SVG/1.1/DTD/svg11.dtd">
<!-- Creator: CorelDRAW 2021.5 -->
<svg xmlns="http://www.w3.org/2000/svg" xml:space="preserve" width="429px" height="103px" version="1.1" style="shape-rendering:geometricPrecision; text-rendering:geometricPrecision; image-rendering:optimizeQuality; fill-rule:evenodd; clip-rule:evenodd"
viewBox="0 0 2989.21 716.28"
 xmlns:xlink="http://www.w3.org/1999/xlink"
 xmlns:xodm="http://www.corel.com/coreldraw/odm/2003">
 <defs>
  <style type="text/css">
   <![CDATA[
    .fil1 {fill:black;fill-rule:nonzero}
    .fil0 {fill:#F39200;fill-rule:nonzero}
   ]]>
  </style>
 </defs>
 <g id="Layer_x0020_1">
  <metadata id="CorelCorpID_0Corel-Layer"/>
  <path class="fil0" d="M62.91 143.55c-8.75,4.86 -15.94,11.61 -22.81,18.76 -15.51,14.7 -27.32,31.87 -34.08,52.21 -12.2,36.78 -5.17,71.15 14.81,103.15 26.79,42.89 66.89,69.75 111.87,90.37 1.29,0.59 2.7,1.54 3.82,0.11 1.18,-1.5 -0.39,-2.62 -1.15,-3.67 -3.21,-4.44 -5.92,-9.16 -7.65,-14.37 -3.84,-11.58 0.1,-21.33 10.94,-26.97 5.22,-2.72 10.7,-4.76 16.52,-5.79 16.49,-2.93 32.98,-5.93 49.5,-8.76 42.61,-7.3 72.27,-31.22 90.18,-70.17 5.62,-12.22 9.17,-25.04 9.55,-38.59 0.19,-7.36 -0.41,-7.65 -6.73,-4.36 -3.41,1.77 -6.86,3.5 -10.38,4.97 -13.79,5.76 -28.08,8.95 -43.09,7.67 -1.45,-0.12 -6.04,1.69 -3.65,-3.3 1.06,-0.55 2.25,-0.92 3.14,-1.67 38.18,-32.16 60.8,-71.71 57.52,-123.11 -0.97,-15.09 -4.51,-29.79 -12,-43.24l-0.04 -0.06c-2.65,-8.79 -7.78,-16.25 -12.91,-23.65 -13.68,-19.73 -30.67,-36.14 -50.54,-49.6 -1.48,-1.77 -3.63,-4.24 -5.45,-3.25 -2.06,1.12 0.62,3.13 1.25,4.75 5.48,16.99 2.72,32.86 -6.44,47.91 -4.93,8.12 -11.61,14.75 -17.96,21.66l-0.03 0.06c-14.48,11.7 -31.56,18.48 -48.48,25.57 -13.44,5.63 -27.16,10.62 -39.98,17.66l0.01 -0.01c-4.81,0.88 -8.88,3.58 -13.13,5.73 -11.4,5.74 -22.8,11.54 -32.58,19.96l0.34 0.37 -0.37 -0.34z"/>
  <path class="fil1" d="M274.26 266.12c3.87,-0.69 10.56,-0.78 20.08,-0.42 16.53,0.62 34,3.12 52.57,7.49 18.4,4.54 31.11,9.03 38.13,13.64 17.59,12.54 25.95,30.25 25.08,53.47 -0.64,17.2 -6.19,26.69 -16.44,28.31 -0.34,-0.01 -0.85,0.14 -1.69,0.44l-1.34 -0.05c-1.5,-0.05 -10.35,-4.9 -26.55,-14.54 -20.45,-12.14 -41.62,-18.63 -63.5,-19.45 -10.19,-0.38 -16.44,1.56 -18.62,5.82 -0.92,2.31 -1.33,4.3 -1.38,5.81 -0.26,6.68 3.84,18.04 12.26,34.08 9.25,16.57 30,43.11 61.91,79.59 18.44,21.27 30.91,36.45 37.25,45.72 6.34,9.28 10.52,18.3 12.54,27.07 0.98,5.06 1.45,10.42 1.23,15.94 -0.79,21.21 -9.54,35.93 -26.41,44.33 -14.16,7.33 -29.92,12.93 -47.29,16.62 -8.59,1.51 -19.31,2.12 -31.84,1.65 -19.21,-0.72 -39.54,-2.82 -60.64,-6.29 -12.14,-1.97 -26.45,-8.35 -43.11,-19.02 -16.83,-10.67 -26.99,-20.58 -30.5,-29.75 -2.92,-6.79 -4.16,-13.87 -3.87,-21.38 0.14,-4.01 0.42,-7.01 0.83,-8.83 3.78,-16.08 10.76,-23.85 20.95,-23.47 7.52,0.28 15.89,4.28 25.47,12.17 20.29,16.14 46.73,24.83 79.3,26.05 8.19,0.32 14.92,-0.94 20.22,-3.75 5.28,-2.65 7.92,-6.22 8.08,-10.57 0.11,-2.84 -0.64,-5.21 -2.07,-7.1 -0.78,-1.71 -11.02,-13.97 -31.07,-36.63 -25.36,-28.55 -42.02,-47.91 -49.83,-58.24 -7.81,-10.33 -14.59,-21.28 -20.01,-32.86 -4.81,-10.05 -8.54,-17.38 -11.54,-22.35l-4.37 -8.35 0.69 -18.38c0.43,-11.35 1.77,-20.16 4,-26.27 5.54,-14.01 14.68,-25.54 27.56,-34.76 12.72,-9.05 27.3,-14.36 43.92,-15.74zm239.79 193.66c-7.38,-3.79 -12.54,-4.33 -15.82,-1.78 -3.95,3.04 -8.22,9.57 -12.78,19.59 -4.55,10.04 -7.79,20.46 -9.68,30.92 -0.99,3.98 -1.63,11.99 -2.09,24.18 -0.42,11.35 -0.35,18.38 0.38,21.25 1.25,6.74 5.13,10.23 11.31,10.46 3.84,0.14 8.21,-0.53 13.11,-1.85 19.79,-5.61 35.67,-14.55 47.5,-26.65 7.81,-7.57 11.75,-14.28 11.96,-20.12 0.2,-5.18 -1.91,-11.28 -6.32,-18.47 -10.7,-18.13 -23.27,-30.65 -37.57,-37.53zm-20.45 -52.12c8.74,-1.18 16.79,-1.72 24.31,-1.44 12.86,0.49 24.16,2.25 33.91,5.46 15.7,5.28 29.4,14.32 41.47,26.98 6.43,6.93 11.22,12.97 14.21,17.93 2.99,4.97 6.04,12.94 9.15,23.59l4.17 13.71 -1.7 45.43 -6.38 13.98c-8.57,18.9 -19.15,33.23 -31.39,43.14 -12.43,10.07 -29.4,16.79 -50.78,20.34 -8.58,1.18 -14.79,1.78 -18.29,1.65 -9.03,-0.33 -19.61,-3.41 -31.6,-9.38l-6.92 -2.6c-1.16,8.48 -2.19,17.98 -3.4,28.14 -4.75,41.97 -11.39,62.79 -20.07,62.46 -4.35,-0.15 -8.6,-2.82 -12.57,-8.16 -2.39,-3.27 -6.44,-11.28 -12.16,-24.04 -5.7,-12.76 -9.53,-22.27 -11.31,-28.19 -1.78,-5.92 -3.58,-11.68 -5.21,-17.26 -2.28,-5.93 -3.01,-22.02 -2.38,-47.92 0.29,-7.51 0.5,-13.36 0.67,-17.7l0.88 -23.56c1.13,-30.23 3.9,-50.36 8.13,-60.4 3.86,-9.39 9.73,-18.7 17.27,-28.13 7.54,-9.24 15.33,-16.14 23.02,-20.54 10.44,-6.29 22.65,-10.86 36.97,-13.49zm171.63 4.77c3.9,-1.36 8.43,-1.86 13.6,-1.33 8.64,1.5 12.83,5.67 12.58,12.35 -0.16,4.34 0.21,7.86 1.28,10.58 2.81,9.64 3.71,25.74 2.86,48.61 -0.34,9.02 -1.71,27.53 -4.1,55.55 -2.39,28.01 -3.96,43.17 -4.88,45.47 -0.04,0.84 -1.06,5.82 -2.92,15.28 -2.21,14.14 -6.36,22.34 -12.32,24.96 -2.38,1.42 -5.05,1.15 -8.15,-0.97 -9.65,-5.88 -19.82,-24.5 -30.85,-56.02 -4.39,-12.04 -6.9,-21 -7.84,-27.22 -0.94,-6.06 -1.33,-17.95 -1,-35.67 0.12,-3.17 0.12,-7.69 0.17,-13.53 0.05,-5.86 0.05,-10.21 0.15,-12.88 0.12,-3.17 0.42,-6.85 0.75,-11.01 0.32,-4.17 0.57,-6.34 0.59,-6.67l0.92 -11.17 8.6 -10.88c11.24,-14.14 21.43,-22.62 30.56,-25.45zm6.16 -133.08c1.53,-0.44 4.38,-0.5 8.22,-0.35 5.84,0.21 10.15,1.21 12.94,2.83 4.23,2.99 6.27,10.94 6.13,23.81l-0.25 6.51c-0.21,5.52 -1.42,11.15 -3.48,16.93 -2.8,7.76 -4.12,12.06 -4.16,12.89 -0.05,1.17 -1.3,3.29 -3.75,6.38 -2.46,3.09 -6.36,4.44 -11.87,4.24 -5.51,-0.21 -10.3,-1.72 -14.04,-4.71 -9.62,-6.55 -18.13,-16.07 -25.52,-28.56 -4.43,-6.85 -6.59,-11.61 -6.48,-14.45 0.05,-1.5 0.79,-3.32 2.04,-5.28 2.46,-3.42 8.31,-7.55 17.51,-12.06 9.2,-4.5 16.83,-7.22 22.71,-8.18zm72.19 154.25c18.48,-11.18 35.58,-16.39 51.28,-15.8l1.84 0.07c15.19,0.57 26.49,2.67 33.89,6.12 3.12,1.29 6.21,3.75 9.42,7.38 3.2,3.64 4.93,6.87 5.33,9.57 -0.03,0.83 0.71,3.2 2.39,7.44 1.68,4.25 2.39,7.62 2.3,9.96 -0.09,2.34 -0.84,4.48 -2.07,6.28 -1.25,1.96 -4.78,2.5 -10.6,1.44 -3.16,-0.45 -10.33,-0.89 -21.19,-1.3 -15.03,-0.56 -29.38,3.08 -42.89,10.77 -5.29,2.98 -11.67,7.92 -19.46,15.15 -7.8,7.24 -12.51,12.58 -14.15,16.03 -1.27,2.63 -2.06,5.78 -2.19,9.29 -0.21,5.51 1.08,11.24 4.03,17.21 9.44,20.43 24.9,36.23 46.07,47.22 9.99,5.56 18.75,8.4 26.27,8.69 7.01,0.26 13.93,-1.49 20.76,-5.08 3.93,-2.36 7.32,-3.41 10.15,-3.3 4.68,0.18 6.93,2.77 6.73,7.95 -0.11,3.17 -1.64,7.96 -4.54,14.04 -9.73,18.54 -27.12,27.25 -52.33,26.3 -11.36,-0.42 -23.81,-3.06 -37.51,-7.76 -29.83,-11.82 -49.51,-35.47 -58.73,-70.78 -2.51,-8.63 -3.47,-18.87 -3.02,-30.72 0.53,-14.2 3.18,-26.98 7.97,-38.68 3.83,-8.55 9.69,-17.52 17.56,-26.76 7.88,-9.24 15.33,-16.15 22.69,-20.73zm298.69 -7.01c6.23,-1.27 12.28,-1.88 17.79,-1.68 6.68,0.26 12.45,2.65 17.46,7.19 2.27,1.92 3.32,5.3 3.14,9.98 -0.19,4.85 -2.36,9.28 -6.36,13.48 -3.65,3.71 -6.69,8.78 -8.77,15.22 -2.25,6.44 -9.51,30.42 -21.78,72.11 -8.58,28.28 -18.08,54.01 -28.81,76.86 -3.42,6.39 -7.8,16.26 -13.48,29.43 -11.21,26.84 -23.12,45.46 -35.72,56.03 -4.85,4.5 -10.66,7.63 -17.41,9.38 -5.91,1.29 -12.29,1.88 -18.97,1.62 -19.21,-0.71 -35.96,-8.7 -49.95,-23.78 -13.18,-14.21 -20.78,-30.21 -22.95,-48.02 -0.9,-7.23 -1.22,-11.93 -1.14,-14.26 0.13,-3.17 1.57,-5.97 4.52,-8.7 2.76,-2.57 5.66,-3.8 8.83,-3.68 2,0.07 6.79,1.92 14.5,5.73 6.23,3.41 12.34,9.83 18.18,19.08 6.35,9.26 10.8,15.45 13.53,18.4 2.73,3.11 5.17,4.71 7.51,4.79 0.84,0.04 2.35,-0.23 4.72,-0.98 4.74,-1.33 8.1,-6.39 9.94,-15.02 1,-4.64 1.64,-8.13 1.73,-10.47 0.28,-7.51 -2.37,-17.15 -7.77,-29.23 -2.93,-6.46 -9.02,-22.58 -18.25,-48.35 -9.25,-25.61 -15.33,-41.55 -18.29,-47.52 -7.56,-17.17 -11.22,-30.69 -10.86,-40.54 0.26,-7.02 1.31,-12.5 3.3,-16.45 1.82,-3.77 5.83,-8.31 11.88,-13.6 1.21,-1.12 3.64,-3.2 7.1,-6.26 3.46,-3.04 6.04,-5.12 7.94,-6.55 1.88,-1.27 4.44,-2.68 7.84,-4.06 3.4,-1.37 6.61,-2.09 9.78,-1.97 9.85,0.37 16.4,4.13 19.64,11.27 2.18,4.44 3.85,22.23 4.85,53.54 1,31.32 3.27,51.14 6.81,59.13 3.5,9.16 8.34,13.86 14.19,14.09 6.35,0.23 12.36,-4.07 18.22,-12.87 7.7,-13.59 12.05,-35.84 13.2,-66.74l0.58 -15.37c0.52,-13.86 1.15,-21.7 2.06,-23.51 0.43,-2.82 1.87,-5.44 4.31,-8.19 2.44,-2.59 4.5,-3.85 6.17,-3.79 1.5,0.06 3.53,-0.54 5.92,-1.62 3.91,-1.86 8.98,-3.17 14.87,-4.12zm381.52 -136.2c5.56,-1.3 10.39,-0.78 14.65,1.72 5.39,3.38 8.01,9.33 7.7,17.52 -0.17,4.67 -1.05,10.16 -2.45,16.29 -6.24,28.04 -10.47,65.01 -13.02,110.58 -0.7,9.83 -1.27,20.68 -1.74,32.88 -0.27,7.18 -0.33,17.88 -0.37,32.09 -0.03,14.39 -0.35,31.77 -1.12,52.31 -1.31,34.91 -3.18,57.76 -5.41,68.21 -2.96,12.1 -6.97,20.81 -12.19,26.3 -5.4,5.66 -13.02,8.21 -22.88,7.84 -4.68,-0.17 -9.99,-1.04 -15.8,-2.43 -8.13,-1.48 -16.83,-5.82 -26.1,-12.85 -4.06,-3.34 -10.19,-9.25 -18.4,-17.75 -8.22,-8.51 -12.2,-13.51 -12.16,-14.68 0.03,-0.84 -1.21,-3.39 -3.9,-7.67 -4.12,-6.02 -10.4,-21.64 -18.81,-46.88 -24.12,-70.48 -41.01,-105.9 -50.87,-106.27 -5.84,-0.22 -8.65,3.35 -8.1,10.9 -0.39,10.19 2.32,22.67 7.96,37.43 5.81,14.43 8.29,33.09 7.42,56.31 -0.24,6.35 -0.59,11.35 -1.23,14.84 -2.84,26.66 -7.14,47.74 -12.58,63.42 -5.61,15.68 -11.09,23.49 -16.6,23.29 -1.5,-0.06 -3.15,-0.78 -4.61,-2.01 -1.46,-1.23 -3.06,-2.96 -4.49,-5.19 -1.59,-2.23 -2.85,-4.28 -3.61,-6.32 -0.93,-1.88 -2.01,-4.26 -3.24,-7.15 -1.4,-2.73 -2.18,-4.42 -2.48,-5.27 -1.56,-2.91 -3.21,-7.82 -5.13,-14.75 -1.91,-6.92 -3.73,-12.18 -5.6,-15.76 -10.81,-28.34 -16.32,-50.8 -16.87,-67.37 -0.89,-29.64 -1.24,-47.22 -1.02,-53.06 0.33,-8.68 0.75,-15.36 1.25,-20.03 2.92,-33 4.48,-52.18 4.68,-57.69 1.36,-27.21 3.72,-45.52 7.26,-55.25 3.58,-10.41 9.78,-19.71 18.27,-27.59 9.35,-8.67 20.38,-12.78 32.91,-12.31 10.85,0.41 20.41,4.44 28.47,12.28 10.49,10.26 20.07,31.36 28.73,63.63 5.1,19.76 12.23,43.78 21.04,71.88 8.82,28.09 15.15,46.39 19.19,54.74 7.26,15.99 13.31,24.08 18.49,24.27 3.17,0.13 6.76,-1.74 10.92,-5.61l0.79 -21.21c0.53,-14.19 -0.76,-33.31 -3.87,-57.34 -4.32,-31.95 -6.19,-53.42 -5.77,-64.45 0.2,-5.51 0.52,-9.51 0.95,-11.84 3.19,-18.44 11.53,-35.52 25.34,-51.57 13.82,-16.04 28.56,-25.52 44.4,-28.43zm91.59 185.24c4.09,-6.53 10.88,-13.64 20.03,-21.15 9.14,-7.52 17.64,-11.05 25.48,-10.75 4.68,0.17 8.79,2.17 12.17,5.81l3.86 4.16 -0.35 27.07c-0.37,9.86 -0.34,17.89 -0.07,23.92 0.28,6.2 0.45,10.39 0.37,12.72l-1.97 21.18c-1.43,15.66 -2.17,26.5 -2.39,32.35 -0.32,8.69 -0.41,15.21 -0.07,19.57 0.08,7.02 -0.14,17.22 -0.64,30.58 -0.88,23.56 -2.64,38.88 -5.23,45.8 -4.37,13.72 -10.96,24.51 -19.45,32.39 -8.49,7.87 -23.2,12.01 -44.12,12.39l-8.35 -0.32c-27.56,-1.03 -45.74,-11.25 -54.87,-30.82 -2.47,-5.61 -3.56,-12.01 -3.31,-19.03 0.44,-11.53 3.16,-17.1 8.17,-16.91 2.5,0.09 7.11,2.1 13.99,5.87 6.55,3.76 13.83,5.87 21.68,6.17 12.19,0.45 20.33,-2.25 24.39,-7.95 2.98,-3.74 5.1,-24.73 6.54,-62.81 1.02,-27.23 0.96,-47.97 0.01,-62.56 -0.87,-8.23 -1.17,-17.77 -0.78,-28.46 0.3,-7.85 1.87,-14.14 4.91,-19.22zm35.46 -160.4c9.58,-1.15 15.28,-1.77 17.29,-1.69 10.52,0.4 15.63,6.94 15.15,19.47 -0.14,3.84 -0.43,7.17 -1.03,9.99 -4.56,27.77 -11.43,41.38 -20.95,41.03 -6.68,-0.25 -16.29,-7.13 -28.67,-20.48 -10.59,-11.77 -15.78,-20.49 -15.58,-26 0.1,-2.68 2.23,-5.78 6.2,-9.14 8.13,-7.22 17.32,-11.56 27.59,-13.18zm152.89 187.55c-2.6,-2.1 -5.07,-3.2 -7.57,-3.3 -3.51,-0.13 -10.12,2.13 -20.16,6.94 -17.2,8.05 -30.51,19.43 -39.75,33.97 -2.85,4.57 -4.32,8.03 -4.41,10.37 -0.27,7.18 8.53,17.88 26.55,32.27 17.86,14.55 32.28,22.45 43.26,24.04 5.16,0.7 8.7,-0.01 10.61,-1.94 5.37,-4.98 8.31,-16.42 8.99,-34.46 0.37,-9.85 -0.13,-18.73 -1.35,-26.64 -3.54,-21.38 -8.88,-35.12 -16.17,-41.25zm-43.98 -53.67c7.91,-1.54 16.31,-2.23 24.99,-1.9 8.52,0.32 17.33,1.65 26.28,3.83 15.58,3.76 30.02,11.16 43.5,22.03 13.3,11.04 23.04,23.45 29.2,37.4 4.8,10.38 7.62,19.85 8.48,28.08 0.86,8.22 0.78,23.78 -0.08,46.66 -0.82,21.88 -0.99,35.42 -0.51,40.29 0.32,4.86 1.98,9.61 5,14.07 2.19,3.59 3.24,6.98 3.13,10.15 -0.15,3.85 -2.28,7.11 -6.23,9.8 -3.95,2.7 -9.17,3.84 -15.36,3.61 -6.34,-0.24 -11.15,-1.25 -14.43,-3.05 -3.29,-1.63 -7.33,-5.29 -12.3,-11l-8.5 -9.68 -10.33 7.8c-9.29,6.84 -16.98,11.23 -22.92,13.36 -5.93,2.12 -14.32,2.97 -24.84,2.58l-10.69 -0.41c-13.68,-1.01 -23.48,-2.71 -29.24,-5.28 -18.29,-7.37 -34.07,-19.17 -47.68,-35.4 -4.47,-5.69 -7.33,-9.65 -8.57,-12.2 -1.42,-2.4 -3.22,-7.82 -5.75,-16.11 -4.62,-15.05 -6.59,-29.35 -6.09,-42.71 0.65,-17.2 5.45,-33.91 14.42,-50.13 8.46,-15.91 16.02,-25.83 22.87,-29.92 19.01,-11.83 34.17,-19.12 45.65,-21.87zm260.77 156.14c0.24,-6.18 1.77,-15.65 4.74,-28.09 2.81,-12.44 4.34,-22.07 4.6,-28.76 0.36,-9.85 -0.54,-17.08 -2.7,-21.84 -5.38,-12.42 -14.84,-18.96 -28.2,-19.46 -6.68,-0.25 -13.28,1.67 -19.62,5.78 -6.51,4.11 -11.73,9.44 -15.49,15.98 -1.95,3.11 -3.34,8.75 -4.14,16.91l-0.23 5.85c-0.18,4.84 0.98,14.08 3.64,27.89 2.76,11.15 3.94,19.72 3.73,25.57 -0.22,5.51 -1.97,12.3 -5.46,20.36 -2.04,5.45 -4.31,12.56 -6.64,21 -0.01,0.5 -0.42,2.16 -1.03,5.31 -0.79,3.15 -1.36,5.14 -1.73,6.12 -0.55,0.98 -1.11,2.47 -2.02,4.61 -0.92,2.14 -1.81,3.62 -3.01,4.41 -1.2,0.79 -2.72,1.06 -4.22,1 -3.17,-0.11 -6.78,-2.09 -11.14,-6.09 -4.38,-3.85 -7.87,-8.67 -10.5,-14.28 -3.29,-5.98 -5.44,-11.24 -6.27,-15.63 -0.85,-4.21 -2.8,-19.17 -5.68,-44.87 -2.66,-22.68 -3.99,-36.44 -3.8,-41.46 0.23,-5.84 1.86,-13.64 5.06,-23.38 3.26,-10.92 7.09,-19.48 11.67,-25.66 11.41,-14.45 24.35,-25.01 38.82,-31.49 9.35,-4 15.45,-6.28 18.33,-7.01 2.87,-0.72 9.73,-0.81 20.41,-0.4l2.34 0.09c20.87,1.12 39.17,8.15 55.24,20.97 12.52,9.84 21.7,23.56 27.39,41.17 3.42,11.5 4.59,38.14 3.54,79.75 -0.93,33.41 -0.28,51.83 1.92,55.43 1.41,2.89 2.13,5.77 2.01,8.94 -0.19,5.18 -2.7,9.43 -7.5,12.77 -2.41,1.91 -5.63,2.8 -9.46,2.65 -8.7,-0.33 -19.15,-6.9 -31.22,-19.57 -9.82,-10.23 -16.35,-18.84 -19.42,-26.15 -3.08,-7.14 -4.4,-16.56 -3.96,-28.42zm208.42 -97.21c-3.46,-1.29 -7.98,-1.47 -13.53,-0.5 -13.18,3.52 -26.47,9.87 -39.7,19.24 -13.23,9.38 -22.27,18.57 -26.97,27.93 -2.18,4.6 -3.32,8.4 -3.45,11.58 -0.08,2.33 0.73,7.55 2.43,15.48 2,9.1 7.53,17.84 16.41,26.2 8.88,8.53 19.37,14.28 31.46,17.41 5.14,1.36 12.29,2.3 21.81,2.66 6.18,0.23 11.71,0.1 16.41,-0.56 11.15,-2.76 17.02,-12.24 17.65,-28.78 0.2,-5.51 0.2,-9.86 -0.02,-13.04 -1.27,-19.62 -3.96,-36.94 -8.09,-51.65 -4.3,-14.72 -8.99,-23.42 -14.41,-25.97zm-80.39 -28.27c19.58,-9.47 39.65,-13.9 60.2,-13.12 5.84,0.21 10.01,0.53 12.84,0.98 27.69,6.22 47.53,17 59.5,32.34 11.33,14.64 19.15,28.81 23.81,42.87 2.57,7.12 3.59,15.86 3.2,26.04 -0.34,9.02 -1.47,17.18 -3.26,24.64 -1.74,6.29 -2.81,12.43 -3.03,18.28 -0.47,12.53 -13.46,28.6 -39.12,48.55 -15.67,11.95 -36.78,17.51 -63.18,16.52 -12.52,-0.47 -22.33,-2.01 -29.76,-4.63 -41.58,-15.27 -65.02,-45.59 -70.34,-91.12 -0.88,-7.56 -1.3,-14.26 -1.08,-20.11 0.41,-11.02 5.11,-24.73 13.93,-41.29 10.94,-19.66 23.14,-32.92 36.29,-39.95zm383.79 -67.71c-7.07,-3.44 -11.86,-5.13 -14.53,-5.23 -3.83,-0.15 -7.76,2.05 -11.45,6.59 -14.64,20.37 -22.54,48 -23.85,82.91 -0.5,13.02 0.18,21.74 2.02,26.17 2.64,5.62 7.05,8.45 13.23,8.69 3.83,0.14 10.4,-0.95 19.53,-3.45 19.97,-6.28 37.26,-17 52.05,-32.16 7.3,-7.26 11.06,-13.97 11.3,-20.33 0.12,-3.17 -1.19,-8.23 -4.1,-15.53 -4.33,-9.2 -10.85,-18.48 -19.52,-27.83 -8.69,-9.36 -16.96,-16.03 -24.68,-19.83zm-21.77 -66.22c2.86,-0.39 7.2,-0.39 13.05,-0.17 22.89,0.85 45.72,7.4 68.84,19.64 24.77,13.14 41.84,30.51 51.23,52.1 6.2,13.28 9.77,29.64 10.55,48.91l-0.16 4c-0.62,16.87 -5.63,34.24 -14.99,51.95 -8.12,15.93 -18.66,29.08 -31.59,39.63 -10.18,8.14 -18.74,13.34 -25.84,15.42 -3.55,1.04 -8.5,3.53 -14.83,7.47 -6.34,3.95 -9.43,6.17 -9.47,7.01 -0.05,1.5 5.17,5.04 15.66,10.62 13.11,7.18 21.92,13.03 26.43,17.72 4.51,4.69 7.95,11.17 10.49,19.13 2.82,9.47 3.97,19.21 3.6,29.07 -0.43,11.36 -2.81,21.13 -6.97,29.5 -4.16,8.38 -10.01,12.85 -17.57,13.73 -4.03,0.35 -8.65,-1.49 -14.02,-5.21 -11.57,-8.29 -25.87,-23.89 -43.07,-46.78 -17.21,-22.88 -30.49,-43.46 -39.67,-61.86 -5.42,-11.25 -9.06,-16.91 -11.07,-16.98 -0.5,-0.02 -0.66,-0.03 -0.66,0.14 -0.01,0.17 -0.19,0.33 -0.52,0.32 -0.52,0.48 -1.24,6.31 -2.51,17.64 -2.09,24.67 -5.9,45.76 -11.74,63.44 -5.85,17.68 -11.37,26.5 -16.88,26.3 -4.85,-0.18 -11.12,-6.61 -18.83,-19.44 -3.61,-6.5 -5.49,-9.91 -5.47,-10.24l-0.62 -1.36c-0.3,-1.19 -0.75,-2.38 -1.53,-3.91 -0.79,-1.37 -1.25,-2.55 -1.7,-3.75 -7.24,-16.49 -13.34,-32.44 -18.27,-48.01l-4.15 -14.2 2.13 -74.36 1.74 -46.43c0.7,-18.54 1.65,-30.71 2.87,-36.52 1.23,-5.81 3.98,-12.4 8.27,-19.76 4.13,-7.38 11.48,-16.12 22.06,-26.26 24.14,-23.52 49.21,-36.29 75.21,-38.5zm186.65 139.15c3.91,-1.36 8.44,-1.86 13.6,-1.33 8.64,1.5 12.84,5.66 12.58,12.34 -0.16,4.35 0.22,7.87 1.28,10.59 2.82,9.64 3.71,25.73 2.86,48.61 -0.34,9.02 -1.71,27.54 -4.1,55.55 -2.39,28.01 -3.96,43.17 -4.88,45.48 -0.04,0.83 -1.06,5.8 -2.92,15.27 -2.2,14.14 -6.36,22.34 -12.31,24.96 -2.39,1.42 -5.06,1.15 -8.16,-0.97 -9.65,-5.88 -19.82,-24.5 -30.84,-56.02 -4.4,-12.04 -6.9,-21 -7.84,-27.22 -0.95,-6.06 -1.34,-17.95 -1.01,-35.66 0.13,-3.18 0.13,-7.7 0.17,-13.55 0.06,-5.85 0.05,-10.2 0.16,-12.87 0.12,-3.17 0.42,-6.84 0.74,-11.02 0.33,-4.16 0.57,-6.33 0.59,-6.66l0.92 -11.17 8.6 -10.88c11.24,-14.14 21.43,-22.61 30.56,-25.45zm6.17 -133.08c1.53,-0.44 4.37,-0.5 8.21,-0.35 5.85,0.21 10.16,1.22 12.95,2.82 4.23,3 6.27,10.94 6.12,23.82l-0.24 6.51c-0.21,5.52 -1.43,11.15 -3.48,16.93 -2.8,7.75 -4.13,12.05 -4.17,12.89 -0.04,1.17 -1.29,3.29 -3.74,6.38 -2.47,3.09 -6.36,4.45 -11.88,4.23 -5.51,-0.2 -10.3,-1.72 -14.03,-4.7 -9.62,-6.55 -18.13,-16.07 -25.52,-28.56 -4.43,-6.85 -6.59,-11.61 -6.49,-14.46 0.06,-1.5 0.8,-3.31 2.04,-5.28 2.47,-3.41 8.31,-7.54 17.51,-12.05 9.2,-4.5 16.83,-7.22 22.72,-8.18zm72.19 154.25c18.48,-11.18 35.57,-16.39 51.27,-15.81l1.84 0.08c15.19,0.57 26.49,2.67 33.89,6.12 3.13,1.28 6.22,3.75 9.42,7.38 3.21,3.63 4.93,6.87 5.33,9.56 -0.03,0.84 0.72,3.21 2.4,7.46 1.68,4.24 2.39,7.61 2.3,9.95 -0.09,2.34 -0.84,4.48 -2.08,6.28 -1.24,1.96 -4.78,2.49 -10.59,1.44 -3.16,-0.45 -10.33,-0.89 -21.19,-1.3 -15.04,-0.56 -29.39,3.08 -42.89,10.77 -5.29,2.98 -11.67,7.92 -19.47,15.16 -7.8,7.23 -12.51,12.57 -14.14,16.02 -1.28,2.63 -2.06,5.78 -2.2,9.28 -0.2,5.52 1.08,11.26 4.04,17.22 9.43,20.42 24.89,36.22 46.07,47.22 9.99,5.56 18.74,8.4 26.26,8.68 7.02,0.27 13.94,-1.48 20.76,-5.07 3.94,-2.37 7.32,-3.4 10.16,-3.3 4.68,0.18 6.92,2.77 6.73,7.94 -0.12,3.18 -1.64,7.97 -4.55,14.05 -9.72,18.53 -27.11,27.25 -52.33,26.3 -11.36,-0.43 -23.8,-3.06 -37.51,-7.76 -29.82,-11.83 -49.51,-35.48 -58.72,-70.78 -2.52,-8.63 -3.48,-18.86 -3.03,-30.72 0.53,-14.2 3.18,-26.98 7.97,-38.68 3.84,-8.55 9.7,-17.53 17.57,-26.76 7.88,-9.24 15.32,-16.16 22.69,-20.73zm190.11 -6.41c8.82,-3.18 16.57,-4.73 23.09,-4.48 4.84,0.18 8.67,0.49 11.83,1.11 22.84,2.03 43.76,10.34 62.78,25.27 9.57,7.89 15.63,15.64 18.52,23.28 1.54,3.57 2.23,7.27 2.09,11.28 -0.21,5.51 -2.07,10.63 -5.44,15.69 -2.85,4.57 -13.98,15.86 -33.22,33.71 -19.4,18 -31.31,27.92 -35.74,29.77 -6.45,2.59 -11.84,3.73 -16.19,3.56 -7.01,-0.26 -13.11,-2.66 -18.46,-7.21 -5.05,-3.7 -7.41,-7.64 -7.26,-11.48 0.11,-2.84 1.04,-5.47 2.65,-8.26 3.81,-7.72 14.02,-17.03 30.5,-28.3 17.71,-12.71 26.69,-20.56 26.82,-23.74 0.14,-3.84 -3.56,-7.82 -11.26,-11.97 -7.71,-3.96 -16.64,-6.64 -26.8,-7.85l-6.52 -0.25c-7.51,-0.28 -12.74,0.86 -15.67,3.26 -3.11,2.39 -5.79,7.31 -8.08,14.75 -1.74,6.29 -2.94,15.78 -3.4,28.3 -0.34,9.02 0.05,16.23 1.02,21.78 3.52,17.37 12.76,29.92 27.52,37.67 5.4,3.04 13.86,4.87 25.71,5.64l8.85 0.33c7.01,0.27 13.55,0.01 19.44,-0.94 13.97,-2.31 25.98,-6.04 36.37,-11.17 1.54,-0.78 4.06,-1.02 7.23,-0.9 5.01,0.19 7.39,3.79 7.12,10.97 -0.11,2.83 -0.36,5.01 -0.75,6.49 -2.38,10.12 -7.57,19.12 -15.74,27.18 -6.08,5.96 -11.06,9.62 -14.61,10.66 -5.94,2.11 -13.21,4.35 -21.5,6.72 -16.77,5.72 -32.59,8.3 -47.46,7.74 -7.51,-0.28 -17.5,-1.65 -29.94,-4.13 -7.48,-1.45 -12.94,-3.17 -16.37,-5.3 -12.62,-6.66 -24.57,-18.15 -35.84,-34.13 -11.28,-15.98 -17.38,-31.76 -18.29,-47.51 -0.4,-2.86 -0.43,-6.38 -0.26,-10.72 0.14,-3.84 1.03,-9.99 2.51,-18.14 4,-21.92 11.89,-40.19 23.96,-54.62 4.4,-5.69 11.85,-12.44 22,-19.92 10.14,-7.48 16.64,-11.08 19.81,-10.97 0.5,0.03 3.38,-1.03 8.98,-3.17z"/>
 </g>
</svg>
