<?xml version="1.0" encoding="UTF-8"?>
<!DOCTYPE svg PUBLIC "-//W3C//DTD SVG 1.1//EN" "http://www.w3.org/Graphics/SVG/1.1/DTD/svg11.dtd">
<!-- Creator: CorelDRAW 2021.5 -->
<svg xmlns="http://www.w3.org/2000/svg" xml:space="preserve" width="209px" height="86px" version="1.1" style="shape-rendering:geometricPrecision; text-rendering:geometricPrecision; image-rendering:optimizeQuality; fill-rule:evenodd; clip-rule:evenodd"
viewBox="0 0 90.41 37.27"
 xmlns:xlink="http://www.w3.org/1999/xlink"
 xmlns:xodm="http://www.corel.com/coreldraw/odm/2003">
 <defs>
  <style type="text/css">
   <![CDATA[
    .fil1 {fill:black;fill-rule:nonzero}
    .fil0 {fill:#00E1C1;fill-rule:nonzero}
   ]]>
  </style>
 </defs>
 <g id="Layer_x0020_1">
  <metadata id="CorelCorpID_0Corel-Layer"/>
  <path class="fil0" d="M4.71 11.94c-0.68,0.42 -1.24,0.98 -1.77,1.57 -1.19,1.22 -2.08,2.63 -2.56,4.27 -0.87,2.98 -0.2,5.7 1.49,8.2 2.27,3.34 5.55,5.37 9.21,6.88 0.1,0.04 0.22,0.11 0.3,0 0.09,-0.13 -0.03,-0.21 -0.1,-0.29 -0.27,-0.35 -0.5,-0.72 -0.65,-1.13 -0.34,-0.91 -0.06,-1.7 0.79,-2.18 0.41,-0.24 0.84,-0.42 1.3,-0.52 1.31,-0.28 2.62,-0.57 3.93,-0.84 3.38,-0.71 5.68,-2.72 6.99,-5.88 0.42,-0.99 0.66,-2.03 0.65,-3.11 -0.01,-0.59 -0.06,-0.61 -0.55,-0.33 -0.27,0.15 -0.54,0.3 -0.82,0.43 -1.08,0.5 -2.21,0.8 -3.41,0.74 -0.12,-0.01 -0.48,0.15 -0.31,-0.25 0.09,-0.05 0.18,-0.08 0.25,-0.15 2.95,-2.68 4.64,-5.91 4.23,-10 -0.13,-1.2 -0.45,-2.37 -1.09,-3.42l-0.01 0c-0.23,-0.7 -0.67,-1.28 -1.1,-1.86 -1.15,-1.53 -2.56,-2.79 -4.18,-3.8 -0.13,-0.14 -0.31,-0.33 -0.45,-0.25 -0.16,0.1 0.06,0.25 0.11,0.38 0.49,1.34 0.32,2.61 -0.36,3.84 -0.37,0.67 -0.89,1.22 -1.38,1.79l0 0c-1.12,0.98 -2.46,1.57 -3.79,2.19 -1.06,0.49 -2.14,0.93 -3.14,1.53l0 0c-0.38,0.08 -0.7,0.31 -1.03,0.5 -0.9,0.49 -1.79,0.99 -2.55,1.69l0.03 0.03 -0.03 -0.03z"/>
  <path class="fil1" d="M25.73 15.88c1.07,-0.05 1.69,-0.07 1.87,-0.07 0.46,0 0.84,0.04 1.13,0.11 1.46,0.35 2.69,1.05 3.66,2.12 0.85,0.88 1.28,1.91 1.28,3.08l0 0.7 -0.48 0.48c-0.41,0.41 -0.85,0.62 -1.32,0.62l-0.29 0c-0.56,-0.1 -0.84,-0.31 -0.84,-0.62 0,-0.11 -0.16,-0.38 -0.49,-0.8 -0.33,-0.43 -0.62,-0.76 -0.86,-1 -0.61,-0.59 -1.35,-0.88 -2.2,-0.88 -0.86,0 -1.87,0.29 -3.04,0.88 -1.34,0.66 -2.61,1.51 -3.79,2.54 -1.18,1.04 -1.85,1.89 -1.99,2.55 -0.03,0.09 -0.04,0.23 -0.04,0.4 0,0.47 0.38,1.34 1.14,2.64 0.49,0.85 1.33,1.71 2.52,2.6 0.74,0.56 1.59,1.1 2.56,1.63 0.98,0.52 1.67,0.8 2.05,0.86 0.1,0.03 0.26,0.04 0.48,0.04 0.95,0 1.67,-0.62 2.16,-1.87 0.1,-0.24 0.21,-0.63 0.35,-1.17 0.13,-0.54 0.19,-0.82 0.17,-0.84 -0.54,-0.06 -1.16,-0.09 -1.84,-0.12 -1.47,-0.09 -2.28,-0.16 -2.45,-0.22 -1.03,-0.21 -1.68,-0.45 -1.97,-0.69 -0.13,-0.13 -0.18,-0.33 -0.16,-0.62 0.05,-0.62 0.35,-1.25 0.88,-1.91 0.37,-0.46 0.88,-0.9 1.55,-1.3 0.65,-0.41 1.18,-0.61 1.57,-0.61 0.65,0 1.69,0.39 3.11,1.15 1.93,1.02 3.14,1.98 3.62,2.88 0.13,0.24 0.19,0.54 0.19,0.89l0 0.84c-0.03,1.15 -0.18,2.02 -0.43,2.61 -0.27,0.6 -0.74,1.22 -1.41,1.85 -0.51,0.47 -1.03,0.83 -1.56,1.1 -0.64,0.32 -1.51,0.61 -2.62,0.89 -1.11,0.28 -2.07,0.45 -2.84,0.5l-0.3 0c-1.71,0 -3.24,-0.34 -4.62,-1.02 -1.26,-0.61 -2.42,-1.58 -3.48,-2.91 -1.07,-1.33 -1.75,-2.77 -2.04,-4.34 -0.15,-0.8 -0.23,-1.56 -0.23,-2.28 0,-1.19 0.22,-2.41 0.67,-3.65 0.2,-0.59 0.29,-0.92 0.29,-1 0.12,-0.43 0.45,-1 0.95,-1.72 0.22,-0.26 0.55,-0.61 1,-1.06 0.44,-0.43 0.78,-0.74 1.02,-0.91 0.02,-0.03 0.52,-0.3 1.5,-0.81 1.86,-0.93 3.71,-1.45 5.57,-1.54zm16.4 11.36c-0.16,-0.13 -0.32,-0.19 -0.47,-0.19 -0.22,0 -0.63,0.16 -1.24,0.48 -1.05,0.54 -1.85,1.28 -2.39,2.2 -0.16,0.29 -0.25,0.51 -0.25,0.65 0,0.45 0.57,1.09 1.73,1.95 1.14,0.86 2.05,1.31 2.74,1.39 0.32,0.03 0.54,-0.02 0.65,-0.15 0.32,-0.32 0.48,-1.04 0.48,-2.16 0,-0.61 -0.05,-1.16 -0.15,-1.65 -0.27,-1.32 -0.63,-2.16 -1.1,-2.52zm-2.85 -3.23c0.49,-0.11 1,-0.18 1.54,-0.18 0.53,0 1.08,0.07 1.65,0.18 0.97,0.2 1.88,0.62 2.75,1.27 0.85,0.65 1.48,1.4 1.9,2.25 0.32,0.63 0.51,1.21 0.59,1.72 0.07,0.51 0.1,1.48 0.1,2.9 0,1.36 0.02,2.2 0.06,2.5 0.04,0.3 0.15,0.59 0.35,0.86 0.14,0.22 0.21,0.43 0.21,0.63 0,0.23 -0.12,0.44 -0.36,0.62 -0.24,0.17 -0.56,0.26 -0.94,0.26 -0.4,0 -0.7,-0.05 -0.91,-0.16 -0.2,-0.09 -0.46,-0.31 -0.79,-0.65l-0.55 -0.58 -0.62 0.51c-0.56,0.44 -1.03,0.73 -1.39,0.88 -0.36,0.14 -0.88,0.22 -1.54,0.22l-0.66 0c-0.85,-0.03 -1.46,-0.12 -1.83,-0.26 -1.15,-0.42 -2.16,-1.11 -3.04,-2.09 -0.29,-0.34 -0.48,-0.58 -0.56,-0.74 -0.09,-0.14 -0.22,-0.47 -0.4,-0.98 -0.32,-0.93 -0.47,-1.81 -0.47,-2.64 0,-1.07 0.26,-2.12 0.78,-3.15 0.48,-1 0.93,-1.64 1.35,-1.91 1.15,-0.77 2.07,-1.26 2.78,-1.46zm11.9 -8.27c0.15,-0.08 0.39,-0.12 0.73,-0.12 0.27,0 0.47,0.05 0.6,0.15 0.11,0.1 0.19,0.31 0.25,0.63 0.14,0.67 0.21,3.68 0.21,9l0 1.91c0,2.91 0.03,4.63 0.1,5.18 0.06,0.55 0.28,1.15 0.64,1.82 0.29,0.56 0.44,0.95 0.44,1.17 0,0.37 -0.11,0.66 -0.33,0.88 -0.21,0.24 -0.5,0.36 -0.85,0.36 -0.24,0 -0.65,-0.16 -1.23,-0.48 -0.59,-0.31 -1.03,-0.61 -1.33,-0.91 -0.56,-0.53 -1,-1.29 -1.32,-2.27 -0.26,-0.88 -0.44,-1.59 -0.51,-2.13 -0.07,-0.54 -0.11,-1.53 -0.11,-3 0,-1.71 0.01,-3.2 0.04,-4.5l0.07 -5.02 0.41 -0.59c0.7,-1.07 1.43,-1.76 2.19,-2.08zm11.21 10.83c-0.22,-0.07 -0.5,-0.07 -0.84,0 -0.81,0.25 -1.62,0.68 -2.42,1.29 -0.8,0.61 -1.34,1.21 -1.61,1.8 -0.12,0.29 -0.18,0.53 -0.18,0.72 0,0.15 0.06,0.47 0.18,0.96 0.15,0.56 0.51,1.09 1.08,1.59 0.57,0.51 1.24,0.84 2,1.01 0.32,0.07 0.76,0.11 1.36,0.11 0.38,0 0.72,-0.02 1.01,-0.07 0.69,-0.2 1.03,-0.8 1.03,-1.83 0,-0.34 -0.01,-0.61 -0.03,-0.81 -0.12,-1.21 -0.33,-2.28 -0.62,-3.19 -0.3,-0.9 -0.62,-1.43 -0.96,-1.58zm-5.05 -1.56c1.19,-0.64 2.43,-0.96 3.7,-0.96 0.37,0 0.62,0.01 0.8,0.03 1.74,0.32 2.99,0.95 3.77,1.87 0.74,0.88 1.26,1.75 1.58,2.61 0.17,0.43 0.26,0.97 0.26,1.61 0,0.56 -0.05,1.07 -0.15,1.53 -0.09,0.4 -0.14,0.78 -0.14,1.14 0,0.78 -0.77,1.81 -2.32,3.11 -0.94,0.78 -2.24,1.17 -3.88,1.17 -0.78,0 -1.39,-0.07 -1.86,-0.22 -2.62,-0.85 -4.14,-2.67 -4.58,-5.49 -0.07,-0.47 -0.11,-0.88 -0.11,-1.24 0,-0.69 0.26,-1.55 0.77,-2.6 0.63,-1.25 1.36,-2.1 2.16,-2.56zm16.56 -1.1c0.11,-0.03 0.3,-0.05 0.55,-0.05 0.56,0 1.14,0.31 1.75,0.92 0.59,0.63 1.02,1.21 1.28,1.72 0.15,0.3 0.23,0.61 0.23,0.96 0,0.41 -0.13,0.73 -0.38,0.95 -0.11,0.1 -0.43,0.15 -0.94,0.15 -1.01,0 -1.85,-0.09 -2.53,-0.26 -0.49,-0.13 -0.85,-0.19 -1.06,-0.19l-0.08 0c-0.24,0.07 -0.36,0.87 -0.36,2.39 0,1.21 -0.04,2.12 -0.11,2.71 -0.24,1.88 -0.45,2.99 -0.63,3.33 -0.27,0.49 -0.48,0.73 -0.65,0.73 -0.18,0 -0.46,-0.2 -0.85,-0.58 -0.31,-0.27 -0.54,-0.56 -0.7,-0.89 -0.05,-0.09 -0.27,-0.46 -0.65,-1.1 -0.54,-0.88 -0.84,-1.68 -0.92,-2.41 -0.05,-0.41 -0.11,-0.77 -0.18,-1.1 -0.07,-0.36 -0.12,-0.9 -0.12,-1.6 0,-0.93 0.06,-1.54 0.16,-1.84 0.07,-0.22 0.1,-0.47 0.1,-0.73 0,-0.22 0.15,-0.51 0.44,-0.85 0.49,-0.58 0.96,-0.97 1.43,-1.16 1.1,-0.49 2.5,-0.86 4.22,-1.1zm8.49 0.43c0.54,-0.22 1.02,-0.33 1.42,-0.33 0.3,0 0.54,0.01 0.74,0.04 1.42,0.07 2.74,0.54 3.96,1.42 0.61,0.47 1,0.94 1.2,1.41 0.1,0.21 0.16,0.44 0.16,0.69 0,0.34 -0.11,0.67 -0.31,0.99 -0.16,0.29 -0.83,1.01 -1.98,2.17 -1.16,1.16 -1.88,1.8 -2.15,1.93 -0.39,0.17 -0.72,0.26 -0.99,0.26 -0.44,0 -0.82,-0.14 -1.17,-0.41 -0.32,-0.22 -0.47,-0.45 -0.47,-0.69 0,-0.18 0.05,-0.35 0.14,-0.52 0.22,-0.49 0.83,-1.09 1.83,-1.83 1.07,-0.83 1.61,-1.34 1.61,-1.54 0,-0.23 -0.24,-0.47 -0.73,-0.71 -0.49,-0.23 -1.05,-0.38 -1.68,-0.43l-0.41 0c-0.46,0 -0.78,0.09 -0.96,0.24 -0.19,0.16 -0.34,0.47 -0.47,0.94 -0.09,0.39 -0.14,0.98 -0.14,1.76 0,0.56 0.04,1.01 0.11,1.35 0.26,1.07 0.86,1.83 1.8,2.27 0.34,0.18 0.87,0.27 1.61,0.29l0.55 0c0.43,0 0.84,-0.03 1.2,-0.1 0.86,-0.18 1.6,-0.44 2.23,-0.78 0.1,-0.05 0.25,-0.07 0.45,-0.07 0.31,0 0.47,0.22 0.47,0.66 0,0.18 -0.01,0.31 -0.04,0.41 -0.12,0.63 -0.42,1.2 -0.91,1.72 -0.36,0.39 -0.66,0.62 -0.88,0.7 -0.36,0.14 -0.81,0.3 -1.32,0.46 -1.03,0.4 -2,0.6 -2.93,0.6 -0.46,0 -1.09,-0.07 -1.87,-0.19 -0.46,-0.07 -0.81,-0.17 -1.02,-0.29 -0.8,-0.39 -1.57,-1.07 -2.31,-2.04 -0.74,-0.96 -1.15,-1.93 -1.24,-2.9 -0.04,-0.18 -0.05,-0.4 -0.05,-0.67 0,-0.24 0.05,-0.62 0.12,-1.13 0.2,-1.37 0.64,-2.52 1.36,-3.45 0.26,-0.36 0.7,-0.8 1.32,-1.28 0.61,-0.49 1,-0.73 1.2,-0.73 0.03,0 0.21,-0.07 0.55,-0.22z"/>
 </g>
</svg>
