<?xml version="1.0" encoding="UTF-8"?>
<!DOCTYPE svg PUBLIC "-//W3C//DTD SVG 1.1//EN" "http://www.w3.org/Graphics/SVG/1.1/DTD/svg11.dtd">
<!-- Creator: CorelDRAW 2021.5 -->
<svg xmlns="http://www.w3.org/2000/svg" xml:space="preserve" width="146px" height="78px" version="1.1" style="shape-rendering:geometricPrecision; text-rendering:geometricPrecision; image-rendering:optimizeQuality; fill-rule:evenodd; clip-rule:evenodd"
viewBox="0 0 35.04 18.69"
 xmlns:xlink="http://www.w3.org/1999/xlink"
 xmlns:xodm="http://www.corel.com/coreldraw/odm/2003">
 <defs>
  <style type="text/css">
   <![CDATA[
    .fil1 {fill:black;fill-rule:nonzero}
    .fil0 {fill:#E30613;fill-rule:nonzero}
   ]]>
  </style>
 </defs>
 <g id="Layer_x0020_1">
  <metadata id="CorelCorpID_0Corel-Layer"/>
  <path class="fil0" d="M2.61 6.62c-0.38,0.23 -0.69,0.54 -0.98,0.87 -0.66,0.68 -1.16,1.46 -1.42,2.37 -0.48,1.65 -0.11,3.16 0.83,4.54 1.26,1.86 3.08,2.98 5.1,3.82 0.06,0.02 0.12,0.06 0.17,0 0.05,-0.07 -0.02,-0.12 -0.06,-0.16 -0.15,-0.19 -0.27,-0.4 -0.36,-0.63 -0.19,-0.5 -0.03,-0.94 0.44,-1.21 0.23,-0.13 0.47,-0.23 0.72,-0.28 0.73,-0.16 1.45,-0.32 2.18,-0.47 1.88,-0.4 3.15,-1.51 3.88,-3.26 0.23,-0.55 0.36,-1.13 0.36,-1.73 -0.01,-0.32 -0.03,-0.33 -0.31,-0.18 -0.15,0.09 -0.3,0.17 -0.45,0.24 -0.6,0.28 -1.23,0.44 -1.9,0.41 -0.06,0 -0.26,0.09 -0.16,-0.14 0.04,-0.03 0.1,-0.04 0.13,-0.08 1.64,-1.49 2.58,-3.28 2.35,-5.55 -0.07,-0.66 -0.25,-1.31 -0.61,-1.89l0 0c-0.13,-0.39 -0.37,-0.71 -0.61,-1.03 -0.64,-0.85 -1.42,-1.55 -2.32,-2.11 -0.07,-0.08 -0.17,-0.19 -0.25,-0.14 -0.09,0.05 0.04,0.14 0.07,0.21 0.27,0.74 0.17,1.45 -0.21,2.13 -0.2,0.37 -0.49,0.68 -0.76,0.99l0 0c-0.62,0.55 -1.37,0.88 -2.1,1.22 -0.59,0.27 -1.19,0.51 -1.75,0.85l0 0c-0.21,0.04 -0.38,0.17 -0.57,0.27 -0.49,0.27 -0.99,0.55 -1.41,0.94l0.02 0.02 -0.02 -0.02z"/>
  <path class="fil1" d="M15.67 6.84c0.59,-0.03 0.94,-0.04 1.04,-0.04 0.26,0 0.46,0.02 0.62,0.06 0.82,0.19 1.5,0.58 2.04,1.18 0.47,0.48 0.7,1.05 0.7,1.7l0 0.39 -0.26 0.27c-0.23,0.23 -0.47,0.34 -0.73,0.34l-0.16 0c-0.31,-0.06 -0.47,-0.17 -0.47,-0.34 0,-0.06 -0.09,-0.21 -0.27,-0.45 -0.18,-0.23 -0.34,-0.42 -0.48,-0.55 -0.34,-0.33 -0.75,-0.49 -1.22,-0.49 -0.48,0 -1.03,0.16 -1.68,0.49 -0.75,0.36 -1.45,0.83 -2.1,1.41 -0.66,0.58 -1.03,1.05 -1.11,1.41 -0.02,0.05 -0.02,0.13 -0.02,0.22 0,0.26 0.21,0.75 0.63,1.47 0.27,0.47 0.74,0.95 1.4,1.44 0.41,0.31 0.88,0.61 1.42,0.9 0.54,0.29 0.92,0.45 1.13,0.48 0.06,0.01 0.15,0.02 0.27,0.02 0.53,0 0.93,-0.35 1.2,-1.04 0.05,-0.13 0.12,-0.35 0.19,-0.65 0.08,-0.3 0.11,-0.45 0.09,-0.46 -0.3,-0.03 -0.63,-0.05 -1.01,-0.07 -0.82,-0.05 -1.27,-0.09 -1.36,-0.12 -0.57,-0.12 -0.94,-0.25 -1.1,-0.38 -0.07,-0.07 -0.09,-0.19 -0.08,-0.35 0.03,-0.34 0.19,-0.69 0.49,-1.05 0.2,-0.26 0.49,-0.5 0.85,-0.73 0.37,-0.22 0.66,-0.33 0.87,-0.33 0.37,0 0.94,0.21 1.73,0.63 1.07,0.57 1.74,1.1 2.01,1.6 0.07,0.13 0.1,0.3 0.1,0.49l0 0.47c-0.02,0.64 -0.1,1.12 -0.24,1.45 -0.15,0.33 -0.41,0.67 -0.78,1.02 -0.28,0.26 -0.57,0.46 -0.87,0.61 -0.35,0.18 -0.83,0.34 -1.45,0.5 -0.61,0.15 -1.14,0.25 -1.57,0.27l-0.16 0c-0.95,0 -1.81,-0.19 -2.57,-0.56 -0.7,-0.34 -1.34,-0.88 -1.93,-1.62 -0.59,-0.73 -0.97,-1.53 -1.13,-2.4 -0.08,-0.45 -0.12,-0.87 -0.12,-1.26 0,-0.67 0.12,-1.34 0.36,-2.03 0.11,-0.33 0.16,-0.51 0.16,-0.55 0.07,-0.24 0.25,-0.56 0.53,-0.96 0.13,-0.14 0.31,-0.34 0.56,-0.58 0.24,-0.25 0.43,-0.41 0.56,-0.51 0.01,-0.02 0.29,-0.17 0.84,-0.45 1.03,-0.51 2.05,-0.8 3.08,-0.85zm8.31 4.45c0.06,-0.02 0.16,-0.03 0.3,-0.03 0.31,0 0.64,0.17 0.98,0.51 0.32,0.35 0.56,0.67 0.7,0.96 0.09,0.16 0.13,0.34 0.13,0.53 0,0.23 -0.07,0.4 -0.21,0.53 -0.06,0.05 -0.24,0.08 -0.52,0.08 -0.56,0 -1.03,-0.05 -1.41,-0.15 -0.27,-0.07 -0.46,-0.1 -0.58,-0.1l-0.04 0c-0.14,0.04 -0.2,0.48 -0.2,1.32 0,0.68 -0.03,1.18 -0.07,1.5 -0.13,1.05 -0.24,1.66 -0.34,1.85 -0.15,0.27 -0.27,0.41 -0.37,0.41 -0.09,0 -0.25,-0.11 -0.47,-0.33 -0.17,-0.15 -0.3,-0.31 -0.38,-0.49 -0.03,-0.05 -0.15,-0.26 -0.37,-0.61 -0.29,-0.49 -0.46,-0.93 -0.5,-1.33 -0.03,-0.23 -0.07,-0.43 -0.11,-0.61 -0.04,-0.2 -0.06,-0.5 -0.06,-0.89 0,-0.52 0.03,-0.86 0.09,-1.02 0.04,-0.12 0.05,-0.26 0.05,-0.41 0,-0.12 0.09,-0.28 0.25,-0.47 0.27,-0.32 0.53,-0.53 0.79,-0.64 0.61,-0.27 1.39,-0.48 2.34,-0.61zm3.55 0.08c0.13,-0.05 0.29,-0.08 0.47,-0.07 0.3,0.04 0.45,0.18 0.45,0.41 0,0.15 0.01,0.27 0.05,0.37 0.11,0.32 0.16,0.88 0.16,1.67 0,0.31 -0.02,0.94 -0.06,1.91 -0.05,0.97 -0.09,1.49 -0.11,1.57 0,0.03 -0.03,0.2 -0.08,0.53 -0.06,0.49 -0.19,0.78 -0.4,0.88 -0.08,0.05 -0.17,0.04 -0.28,-0.03 -0.34,-0.19 -0.71,-0.81 -1.13,-1.88 -0.17,-0.41 -0.27,-0.72 -0.31,-0.93 -0.04,-0.21 -0.07,-0.62 -0.08,-1.23 0,-0.11 0,-0.26 -0.01,-0.46 0,-0.2 -0.01,-0.35 -0.01,-0.45 0,-0.1 0.01,-0.23 0.01,-0.38 0.01,-0.14 0.01,-0.21 0.01,-0.23l0.02 -0.38 0.28 -0.39c0.37,-0.5 0.71,-0.8 1.02,-0.91zm0.04 -4.59c0.05,-0.02 0.15,-0.02 0.28,-0.02 0.2,0 0.35,0.03 0.45,0.08 0.15,0.1 0.23,0.37 0.24,0.81l0 0.22c0,0.19 -0.03,0.39 -0.09,0.59 -0.09,0.27 -0.13,0.42 -0.13,0.45 0,0.04 -0.04,0.12 -0.12,0.22 -0.08,0.11 -0.21,0.17 -0.4,0.17 -0.19,0 -0.36,-0.05 -0.49,-0.15 -0.34,-0.21 -0.65,-0.53 -0.92,-0.95 -0.16,-0.23 -0.24,-0.39 -0.24,-0.49 0,-0.05 0.02,-0.11 0.06,-0.18 0.08,-0.12 0.28,-0.27 0.59,-0.44 0.31,-0.17 0.57,-0.27 0.77,-0.31zm2.6 -0.02c0.08,-0.04 0.22,-0.07 0.41,-0.07 0.15,0 0.26,0.03 0.32,0.08 0.07,0.06 0.11,0.18 0.14,0.36 0.08,0.37 0.12,2.03 0.12,4.99l0 1.06c0,1.61 0.02,2.56 0.06,2.87 0.03,0.3 0.15,0.64 0.35,1 0.16,0.32 0.24,0.53 0.24,0.66 0,0.2 -0.05,0.36 -0.17,0.48 -0.13,0.14 -0.29,0.2 -0.48,0.2 -0.13,0 -0.36,-0.09 -0.68,-0.26 -0.33,-0.18 -0.57,-0.34 -0.74,-0.51 -0.31,-0.29 -0.55,-0.71 -0.73,-1.26 -0.14,-0.49 -0.24,-0.88 -0.28,-1.18 -0.04,-0.3 -0.06,-0.85 -0.06,-1.66 0,-0.95 0,-1.78 0.02,-2.5l0.04 -2.78 0.22 -0.33c0.39,-0.59 0.8,-0.97 1.22,-1.15zm3.23 0c0.08,-0.04 0.22,-0.07 0.41,-0.07 0.15,0 0.26,0.03 0.33,0.08 0.06,0.06 0.1,0.18 0.13,0.36 0.08,0.37 0.12,2.03 0.12,4.99l0 1.06c0,1.61 0.02,2.56 0.06,2.87 0.03,0.3 0.15,0.64 0.35,1 0.16,0.32 0.24,0.53 0.24,0.66 0,0.2 -0.05,0.36 -0.17,0.48 -0.13,0.14 -0.29,0.2 -0.48,0.2 -0.13,0 -0.36,-0.09 -0.68,-0.26 -0.33,-0.18 -0.57,-0.34 -0.74,-0.51 -0.31,-0.29 -0.55,-0.71 -0.73,-1.26 -0.14,-0.49 -0.24,-0.88 -0.28,-1.18 -0.04,-0.3 -0.06,-0.85 -0.06,-1.66 0,-0.95 0,-1.78 0.02,-2.5l0.04 -2.78 0.22 -0.33c0.4,-0.59 0.8,-0.97 1.22,-1.15z"/>
 </g>
</svg>
