<?xml version="1.0" encoding="UTF-8"?>
<!DOCTYPE svg PUBLIC "-//W3C//DTD SVG 1.1//EN" "http://www.w3.org/Graphics/SVG/1.1/DTD/svg11.dtd">
<!-- Creator: CorelDRAW 2021.5 -->
<svg xmlns="http://www.w3.org/2000/svg" xml:space="preserve" width="75px" height="33px" version="1.1" style="shape-rendering:geometricPrecision; text-rendering:geometricPrecision; image-rendering:optimizeQuality; fill-rule:evenodd; clip-rule:evenodd"
viewBox="0 0 5.5 2.45"
 xmlns:xlink="http://www.w3.org/1999/xlink"
 xmlns:xodm="http://www.corel.com/coreldraw/odm/2003">
 <defs>
  <style type="text/css">
   <![CDATA[
    .fil2 {fill:#E20613;fill-rule:nonzero}
    .fil4 {fill:#FBC115;fill-rule:nonzero}
    .fil1 {fill:#FBC416;fill-rule:nonzero}
    .fil3 {fill:#FBC516;fill-rule:nonzero}
    .fil0 {fill:#FBC518;fill-rule:nonzero}
   ]]>
  </style>
 </defs>
 <g id="Layer_x0020_1">
  <metadata id="CorelCorpID_0Corel-Layer"/>
  <path class="fil0" d="M3.89 1.65l0.04 0c-0.01,0.02 -0.01,0.03 -0.01,0.05 0,0.01 -0.01,0.02 -0.01,0.04 -0.01,0.06 -0.02,0.12 -0.03,0.17 0,0.01 0,0.01 0,0.02 0,0 0.01,0 0.01,-0.01 0.02,0 0.03,-0.01 0.05,-0.01 0.04,-0.01 0.07,0.02 0.08,0.05 0.01,0.03 0.01,0.05 0,0.08 0,0.02 -0.01,0.03 -0.01,0.06l0.06 -0.01c0.01,-0.07 0.03,-0.14 0.04,-0.21l0.09 -0.01c-0.01,0.07 -0.02,0.13 -0.03,0.2l0.08 -0.01c-0.01,-0.03 0,-0.06 0.01,-0.08 0.02,-0.07 0.06,-0.12 0.13,-0.15 0.02,-0.01 0.04,-0.01 0.07,0 0.03,0.01 0.05,0.04 0.05,0.07 0,0.02 0,0.03 0,0.04l-0.08 0.02c-0.01,-0.02 -0.01,-0.03 -0.01,-0.04 -0.01,0 -0.02,0 -0.02,0.01 -0.03,0.01 -0.05,0.04 -0.06,0.07 0,0.02 -0.01,0.03 -0.01,0.05 0.04,-0.01 0.08,-0.01 0.11,-0.02 0.04,0 0.08,-0.01 0.12,-0.01 -0.01,0.03 -0.01,0.06 -0.02,0.09 0,0 -0.01,0 -0.01,0 -0.06,0.01 -0.12,0.02 -0.18,0.03 -0.03,0 -0.06,0 -0.08,-0.03 -0.01,0 -0.01,-0.02 -0.02,-0.03 -0.01,0.03 -0.01,0.05 -0.01,0.07 -0.04,0.01 -0.06,0.01 -0.1,0.01 -0.02,0.01 -0.04,-0.01 -0.06,-0.03 0,0 0,-0.01 0,-0.01 -0.01,0.02 -0.01,0.04 -0.01,0.06 -0.03,0 -0.05,0.01 -0.08,0.01 -0.04,0 -0.07,-0.04 -0.07,-0.08 0,-0.02 0.01,-0.04 0.01,-0.06 0,-0.01 0.01,-0.03 0.01,-0.05 -0.02,0.01 -0.03,0.02 -0.04,0.03 -0.03,0.04 -0.05,0.08 -0.06,0.14 0,0.01 -0.01,0.03 -0.01,0.04l-0.09 0.01c0,-0.01 0.08,-0.5 0.1,-0.56l0.05 -0.01z"/>
  <path class="fil1" d="M2.64 1.09c-0.04,0 -0.09,0.01 -0.13,0.02 -0.06,0 -0.1,-0.01 -0.15,-0.04 -0.13,-0.09 -0.27,-0.19 -0.4,-0.28 -0.08,-0.06 -0.16,-0.12 -0.23,-0.17 -0.02,-0.01 -0.03,-0.03 -0.04,-0.05 -0.01,-0.03 -0.01,-0.05 0,-0.07 0.03,-0.07 0.06,-0.14 0.09,-0.21 0.04,-0.08 0.08,-0.16 0.11,-0.25 0.01,-0.01 0.01,-0.02 0.02,-0.02 0.01,-0.02 0.03,-0.03 0.05,-0.01 0.01,0 0.02,0.01 0.02,0.02 0.17,0.19 0.34,0.39 0.51,0.58 0.11,0.13 0.21,0.26 0.32,0.38 0.01,0.01 0.01,0.01 0.02,0.02 0.01,0.02 0,0.04 -0.02,0.05 0,0 -0.01,0 -0.02,0 -0.05,0.01 -0.1,0.02 -0.15,0.03z"/>
  <path class="fil1" d="M1.87 1.21c-0.13,0.02 -0.27,0.04 -0.41,0.06 -0.05,0.01 -0.11,-0.02 -0.13,-0.08 -0.01,-0.01 -0.01,-0.02 -0.01,-0.04 -0.02,-0.09 -0.05,-0.19 -0.07,-0.29 -0.02,-0.08 -0.04,-0.17 -0.06,-0.26 -0.01,-0.05 -0.03,-0.1 -0.04,-0.15 0,-0.01 0,-0.02 0,-0.03 0,-0.02 0.02,-0.04 0.04,-0.03 0.01,0 0.02,0.01 0.03,0.01 0.12,0.08 0.24,0.15 0.37,0.23 0.17,0.11 0.34,0.21 0.51,0.32 0.07,0.04 0.13,0.08 0.2,0.12 0.01,0.01 0.02,0.02 0.03,0.03 0.01,0.01 0.01,0.03 -0.01,0.04 -0.01,0 -0.02,0 -0.03,0.01 -0.1,0.01 -0.19,0.02 -0.28,0.04 -0.04,0 -0.09,0.01 -0.14,0.02z"/>
  <path class="fil2" d="M2.79 0.14c0.01,0.05 0.01,0.11 0.02,0.16 0,0.07 0.01,0.14 0.01,0.21 0.01,0.07 0.01,0.14 0.02,0.21 0,0.04 0,0.08 0,0.11 0,0.02 0,0.03 0,0.04 0,0.02 -0.01,0.03 -0.03,0.01 -0.01,0 -0.02,-0.01 -0.03,-0.03 -0.08,-0.1 -0.15,-0.21 -0.23,-0.32 -0.01,-0.01 -0.02,-0.02 -0.03,-0.04 -0.04,-0.05 -0.03,-0.12 0.01,-0.17 0.06,-0.07 0.12,-0.14 0.18,-0.21 0.01,-0.01 0.02,-0.02 0.04,-0.03 0.01,0 0.03,0 0.03,0.02 0.01,0.01 0.01,0.02 0.02,0.04 0,0 0,0 -0.01,0z"/>
  <path class="fil1" d="M3.37 1.93c0.01,-0.02 0.02,-0.03 0.03,-0.05 0.04,-0.06 0.09,-0.11 0.14,-0.15 0.03,-0.02 0.06,-0.03 0.09,-0.04 0.03,-0.01 0.06,0 0.09,0.01 0.02,0.02 0.03,0.04 0.04,0.06 0,0.05 -0.01,0.08 -0.03,0.12 -0.02,0.04 -0.04,0.07 -0.06,0.11 -0.03,0.04 -0.07,0.07 -0.1,0.11 0,0 -0.01,0.01 -0.01,0.01 -0.02,-0.02 -0.04,-0.04 -0.06,-0.06 0.02,-0.02 0.04,-0.05 0.06,-0.07 0.02,-0.03 0.04,-0.05 0.06,-0.08 0,0 0,-0.01 0,-0.01l0 0c0,0 0.01,0 0.01,0 0.02,-0.04 0.04,-0.07 0.04,-0.11 0,-0.01 -0.01,-0.01 -0.02,-0.01 -0.02,0.01 -0.03,0.01 -0.04,0.02 -0.04,0.03 -0.07,0.06 -0.1,0.09 -0.01,0.02 -0.02,0.03 -0.04,0.05 -0.03,0.05 -0.06,0.11 -0.06,0.18 0,0.01 0,0.03 0.01,0.04 0,0.02 0.02,0.03 0.04,0.03 0.06,-0.01 0.12,-0.02 0.17,-0.03 0.02,0 0.05,0 0.07,-0.01 -0.01,0.03 -0.01,0.06 -0.02,0.09 0,0 0,0 -0.01,0 -0.06,0.01 -0.13,0.02 -0.2,0.03 -0.05,0.01 -0.09,0 -0.12,-0.05 -0.02,-0.02 -0.03,-0.05 -0.03,-0.08 0,-0.06 0.01,-0.12 0.04,-0.17 0,-0.01 0.01,-0.02 0.01,-0.03z"/>
  <path class="fil3" d="M4.65 1.54l0.09 -0.01c-0.02,0.11 -0.04,0.22 -0.06,0.33 0,0 0.01,0 0.01,0 0.01,-0.01 0.03,-0.03 0.05,-0.05 0.01,-0.01 0.03,-0.03 0.05,-0.05 0.02,0.02 0.04,0.04 0.06,0.06 -0.04,0.04 -0.08,0.08 -0.11,0.12 0,0.01 0.01,0.03 0.02,0.04 0,0.01 0.01,0 0.02,0 0.01,0 0.03,0 0.04,0l0.02 -0.01c-0.01,0.04 -0.01,0.07 -0.02,0.1 -0.02,0 -0.05,0.01 -0.08,0 -0.02,-0.01 -0.04,-0.02 -0.05,-0.04 -0.01,-0.01 -0.01,-0.02 -0.02,-0.03 0,0 0,-0.01 -0.01,-0.01 0,0.03 -0.01,0.07 -0.02,0.1l-0.09 0.02c0.03,-0.19 0.07,-0.38 0.1,-0.57z"/>
  <path class="fil3" d="M4.95 1.91c0.03,-0.03 0.06,-0.05 0.07,-0.09 -0.04,0.01 -0.06,0.05 -0.07,0.09zm0.09 0.04l0.12 -0.02c-0.01,0.03 -0.01,0.06 -0.02,0.09l-0.01 0c-0.06,0.01 -0.12,0.02 -0.17,0.03 -0.01,0 -0.02,0 -0.03,0 -0.04,0 -0.08,-0.04 -0.08,-0.08 0,-0.09 0.03,-0.16 0.1,-0.21 0.04,-0.03 0.08,-0.03 0.12,-0.01 0.03,0.01 0.05,0.04 0.05,0.07 -0.01,0.03 -0.02,0.06 -0.04,0.08 -0.01,0.02 -0.02,0.03 -0.04,0.05z"/>
  <path class="fil3" d="M5.35 1.79c0,0.01 -0.01,0.01 -0.01,0.02 -0.04,0.04 -0.07,0.09 -0.08,0.15 0,0.01 0,0.03 -0.01,0.04l-0.09 0.02c0.02,-0.1 0.04,-0.2 0.05,-0.3l0.09 -0.01c0,0 0,0.01 0,0.01 0.02,-0.01 0.03,-0.01 0.04,-0.02 0.04,-0.01 0.09,0.01 0.1,0.05 0.01,0.03 0.01,0.05 0,0.07 0,0.02 0,0.03 0,0.05 0,0 0,0.01 0,0.02l0.06 -0.01c0,0.03 -0.01,0.06 -0.01,0.09 -0.03,0 -0.05,0.01 -0.07,0.01 -0.05,0 -0.08,-0.04 -0.08,-0.08 0.01,-0.03 0.01,-0.05 0.02,-0.08 0,-0.01 0,-0.02 0,-0.02 0,0 0,-0.01 -0.01,-0.01z"/>
  <path class="fil2" d="M0.56 1.19c0.01,0 0.02,-0.01 0.03,-0.02 0.05,-0.04 0.11,-0.06 0.17,-0.07 0.02,-0.01 0.04,-0.01 0.06,-0.01 0.01,0 0.01,0 0.02,0 0.01,-0.01 0.03,-0.01 0.05,0 0.05,0.02 0.1,0.04 0.15,0.07 0.08,0.06 0.14,0.14 0.15,0.25 0.02,0.1 0.04,0.21 0.05,0.31 0.01,0.03 0.01,0.06 0.01,0.09 0,0.02 0.01,0.05 0.02,0.07 0,0.02 0,0.04 0,0.06 0.01,0.06 0.02,0.12 0.03,0.19 0.01,0.02 0.01,0.05 0.01,0.07 0.01,0.06 0.03,0.11 0.05,0.16 0.01,0.01 0.01,0.02 0.01,0.03 0.01,0.03 0,0.05 -0.03,0.06 -0.02,0 -0.04,0 -0.06,0 -0.02,-0.01 -0.05,-0.02 -0.08,-0.03 0,0 -0.01,0 -0.01,0 -0.07,-0.05 -0.11,-0.1 -0.15,-0.18 -0.02,-0.05 -0.03,-0.11 -0.04,-0.17 0,-0.05 -0.01,-0.1 -0.01,-0.15 0,-0.06 0,-0.11 0,-0.17 0,-0.06 0,-0.12 -0.01,-0.18 0,-0.05 -0.02,-0.09 -0.04,-0.12 -0.03,-0.05 -0.07,-0.09 -0.12,-0.11 0,0 -0.01,-0.01 -0.01,-0.01 -0.03,-0.01 -0.05,0 -0.07,0.02 -0.03,0.04 -0.04,0.09 -0.04,0.14 0.02,0.07 0.03,0.14 0.04,0.21 0.02,0.11 0.04,0.22 0.05,0.33 0.01,0.06 0.01,0.11 0.02,0.16 0,0.02 0,0.04 0,0.06 0,0.01 -0.01,0.02 -0.01,0.03 -0.01,0.03 -0.03,0.03 -0.05,0.02 -0.01,0 -0.01,-0.01 -0.02,-0.02 -0.07,-0.06 -0.12,-0.14 -0.16,-0.22 -0.01,-0.02 -0.03,-0.05 -0.04,-0.07 -0.01,-0.04 -0.01,-0.08 -0.01,-0.12 0,-0.06 0,-0.12 0,-0.18 -0.01,-0.08 -0.02,-0.15 -0.06,-0.22 -0.01,-0.02 -0.02,-0.04 -0.04,-0.06 -0.03,-0.02 -0.05,-0.02 -0.07,0 -0.06,0.05 -0.1,0.1 -0.12,0.17 -0.01,0.04 -0.01,0.07 0,0.11 0.02,0.05 0.04,0.09 0.06,0.13 0.03,0.05 0.04,0.1 0.06,0.16 0.01,0.03 0.02,0.07 0.02,0.11 0,0.05 0,0.1 0,0.15 0,0.04 0,0.07 -0.01,0.1 0,0.01 -0.01,0.02 -0.02,0.03 0,0.01 -0.02,0.01 -0.03,0.01 -0.02,-0.02 -0.05,-0.03 -0.07,-0.05 -0.01,-0.02 -0.02,-0.03 -0.03,-0.04 -0.02,-0.02 -0.03,-0.04 -0.04,-0.07 0,-0.01 -0.01,-0.01 -0.01,-0.02 -0.04,-0.04 -0.06,-0.09 -0.08,-0.14 -0.01,-0.05 -0.02,-0.11 -0.03,-0.16 0,-0.01 0,-0.02 -0.01,-0.03 0,-0.02 -0.01,-0.05 0,-0.07 0,-0.01 0,-0.01 -0.01,-0.02 -0.01,-0.03 -0.01,-0.06 -0.01,-0.09 0,-0.04 -0.01,-0.07 -0.02,-0.11 0,-0.01 0,-0.03 0,-0.04 0,-0.04 0.01,-0.08 0.02,-0.11 0.04,-0.11 0.1,-0.19 0.21,-0.24 0.04,-0.01 0.08,-0.02 0.13,-0.03 0.06,0 0.12,0.01 0.18,0.03 0,0 0.01,0 0.02,0z"/>
  <path class="fil2" d="M2.7 1.7c0.01,0.06 0.02,0.11 0.03,0.16 0.01,0.05 0.01,0.09 0,0.13 0,0.01 0,0.02 -0.01,0.03 0,0.01 -0.01,0.02 -0.02,0.01 -0.01,-0.01 -0.02,-0.01 -0.03,-0.02 -0.04,-0.04 -0.07,-0.08 -0.1,-0.12 -0.02,-0.03 -0.04,-0.07 -0.04,-0.11 0,-0.03 0,-0.06 0,-0.09 0,-0.05 0,-0.1 -0.02,-0.15 0,0 0,-0.01 -0.01,-0.01 0,-0.03 -0.02,-0.04 -0.03,-0.06 -0.02,-0.01 -0.03,-0.01 -0.05,0 -0.01,0.01 -0.02,0.02 -0.03,0.03 -0.02,0.02 -0.04,0.04 -0.05,0.06 -0.02,0.03 -0.02,0.06 -0.01,0.09 0.02,0.03 0.03,0.07 0.05,0.1 0.03,0.05 0.04,0.1 0.03,0.15 0,0.04 0,0.08 0,0.11 0,0.02 0,0.04 -0.01,0.06 0,0.01 -0.01,0.01 -0.02,0.01 -0.02,0 -0.04,-0.01 -0.05,-0.02 -0.05,-0.05 -0.09,-0.1 -0.11,-0.16 -0.01,-0.02 -0.02,-0.05 -0.02,-0.07 -0.01,-0.08 -0.03,-0.17 -0.03,-0.25 -0.01,-0.08 0.01,-0.15 0.08,-0.2 0.02,-0.01 0.04,-0.03 0.07,-0.04 0.02,-0.01 0.05,-0.02 0.07,-0.02 0.03,-0.01 0.06,-0.01 0.08,0 0.03,0 0.05,0 0.07,0.01 0.01,0 0.02,0 0.03,-0.01 0,0 0,0 0.01,0 0.05,-0.03 0.1,-0.05 0.16,-0.06 0.03,0 0.06,0 0.09,0.01 0.02,0.01 0.03,0.02 0.05,0.03 0.03,0 0.05,0.02 0.07,0.04 0.01,0.02 0.02,0.04 0.04,0.06 0,0 0.01,0.01 0.01,0.02 0.01,0.03 0.01,0.05 0.01,0.08 0,0.01 0,0.03 0.01,0.05 0.01,0.03 0.01,0.06 0.01,0.09 0,0.01 0,0.03 0,0.05 0.01,0.06 0.03,0.13 0.04,0.19 0,0.03 0.01,0.05 0.01,0.08 0.01,0.01 0.01,0.02 0.01,0.03 0.01,0.02 0.02,0.05 0.03,0.07 0.01,0.03 -0.01,0.06 -0.04,0.05 -0.02,0 -0.05,0 -0.08,-0.02 -0.03,-0.01 -0.06,-0.03 -0.08,-0.06 -0.04,-0.05 -0.06,-0.11 -0.06,-0.17 0,-0.02 0,-0.04 0,-0.06 0,-0.02 0,-0.03 0,-0.05 0.01,-0.05 0.01,-0.1 0.01,-0.16 -0.01,-0.08 -0.05,-0.14 -0.12,-0.17 -0.03,-0.01 -0.04,0 -0.06,0.02 -0.02,0.02 -0.02,0.05 -0.02,0.08 0.01,0.06 0.02,0.12 0.03,0.18 0,0 0,0 0,0z"/>
  <path class="fil2" d="M1.88 1.82c-0.01,-0.05 -0.03,-0.1 -0.04,-0.14 -0.02,-0.03 -0.04,-0.06 -0.06,-0.08 -0.02,-0.02 -0.03,-0.02 -0.05,-0.01 0,0 -0.01,0 -0.01,0.01 -0.08,0.04 -0.14,0.1 -0.17,0.19 -0.01,0.01 0,0.03 0.01,0.04 0.01,0.02 0.03,0.04 0.06,0.05 0.05,0.03 0.11,0.06 0.16,0.07 0.02,0.01 0.04,0.01 0.06,0.01 0.02,0 0.03,-0.01 0.03,-0.03 0.01,-0.04 0.01,-0.07 0.01,-0.11zm0.11 0.22c-0.01,0.02 -0.03,0.03 -0.04,0.05 -0.02,0.03 -0.06,0.05 -0.1,0.07 -0.06,0.01 -0.11,0.02 -0.17,0.01 -0.06,0 -0.11,-0.02 -0.15,-0.05 -0.03,-0.02 -0.06,-0.04 -0.08,-0.06 -0.02,-0.02 -0.03,-0.03 -0.03,-0.05 -0.01,-0.02 -0.03,-0.04 -0.04,-0.07 -0.03,-0.08 -0.04,-0.16 -0.01,-0.25 0.01,-0.04 0.02,-0.08 0.04,-0.11 0.01,-0.02 0.02,-0.03 0.04,-0.05 0.02,-0.01 0.04,-0.03 0.06,-0.05 0.03,-0.03 0.07,-0.05 0.11,-0.06 0.11,-0.03 0.21,-0.01 0.31,0.04 0.08,0.04 0.14,0.11 0.17,0.2 0.01,0.02 0.01,0.04 0.01,0.06 0.01,0.04 0.01,0.07 0.02,0.11 0,0.03 0.01,0.06 0.01,0.09 0,0.02 0.01,0.04 0.02,0.06 0.01,0.02 0.01,0.03 0.02,0.04 0.02,0.02 0.02,0.05 0,0.07 -0.04,0.02 -0.1,0.02 -0.14,-0.01 -0.01,-0.01 -0.03,-0.02 -0.05,-0.04z"/>
  <path class="fil2" d="M3.33 1.36c-0.02,0.01 -0.04,0.01 -0.05,0.02 -0.02,0 -0.03,0.01 -0.03,0.02 0,0.03 0,0.05 0.01,0.07 0.01,0.05 0.03,0.1 0.05,0.14 0.02,0.04 0.04,0.08 0.06,0.11 0.01,0.02 0.02,0.03 0.04,0.03 0.01,0.01 0.02,0.01 0.04,0.01 0.01,-0.01 0.03,-0.02 0.04,-0.04 0.02,-0.03 0.04,-0.06 0.06,-0.1 0.03,-0.04 0.04,-0.09 0.03,-0.14 0,-0.03 -0.01,-0.05 -0.03,-0.06 -0.05,-0.03 -0.1,-0.05 -0.16,-0.06 -0.02,0 -0.04,0 -0.06,0zm0.04 0.57c-0.07,-0.01 -0.14,-0.05 -0.2,-0.1 -0.05,-0.05 -0.09,-0.11 -0.1,-0.18 -0.01,-0.07 -0.02,-0.14 -0.03,-0.21 -0.02,-0.09 -0.03,-0.18 -0.05,-0.27 -0.01,-0.05 0,-0.09 0.02,-0.13 0.02,-0.03 0.05,-0.07 0.09,-0.09 0,-0.01 0,-0.01 0.01,-0.01 0.01,0 0.03,-0.01 0.04,-0.01 0.02,-0.01 0.03,0 0.04,0.01 0.01,0.01 0.02,0.03 0.02,0.05 0.01,0.05 0.02,0.1 0.03,0.16 0,0.02 0,0.04 0.01,0.06 0.01,0 0.01,0 0.02,0 0.03,-0.02 0.06,-0.03 0.09,-0.03 0.04,-0.01 0.08,-0.01 0.12,0 0.01,0 0.01,0 0.02,0.01 0.04,0 0.08,0.01 0.11,0.03 0.07,0.04 0.12,0.09 0.16,0.15 0.03,0.05 0.05,0.11 0.05,0.17 0,0.03 0,0.06 -0.01,0.09 0,0.05 -0.02,0.09 -0.05,0.13 -0.01,-0.02 -0.02,-0.04 -0.04,-0.06 -0.03,-0.01 -0.06,-0.02 -0.09,-0.01 -0.03,0.01 -0.06,0.02 -0.09,0.04 -0.05,0.04 -0.1,0.09 -0.14,0.15 -0.01,0.02 -0.02,0.03 -0.03,0.05z"/>
  <path class="fil2" d="M4.17 1.8c0.04,0 0.06,-0.04 0.05,-0.07 0,-0.03 -0.03,-0.06 -0.06,-0.05 -0.04,0 -0.06,0.03 -0.05,0.07 0,0.03 0.03,0.05 0.06,0.05zm0.12 -0.17c0.02,0 0.03,0 0.05,-0.01 0.03,-0.01 0.04,-0.02 0.05,-0.04 0.01,-0.03 0.01,-0.06 0,-0.08 -0.01,-0.04 -0.02,-0.09 -0.03,-0.13 -0.01,-0.04 -0.03,-0.08 -0.05,-0.12 -0.01,-0.02 -0.03,-0.03 -0.04,-0.05 -0.01,-0.01 -0.03,-0.01 -0.05,0 -0.01,0 -0.03,0.01 -0.05,0.02 -0.04,0.02 -0.08,0.06 -0.11,0.1 -0.02,0.02 -0.04,0.04 -0.05,0.07 -0.02,0.03 -0.02,0.06 -0.01,0.09 0.01,0.03 0.03,0.07 0.05,0.09 0.07,0.06 0.15,0.07 0.24,0.06zm-0.4 0.02c-0.01,0 -0.01,-0.01 -0.01,-0.02 -0.04,-0.05 -0.05,-0.11 -0.06,-0.18 0,-0.02 0,-0.05 0.01,-0.07 0.01,-0.04 0.02,-0.08 0.04,-0.12 0.02,-0.04 0.04,-0.08 0.08,-0.11 0.04,-0.03 0.08,-0.06 0.13,-0.07 0.08,-0.03 0.16,-0.03 0.24,-0.01 0.07,0.02 0.12,0.06 0.16,0.11 0.03,0.04 0.06,0.07 0.07,0.11 0.02,0.04 0.03,0.09 0.03,0.13 0,0.03 0,0.05 0,0.08 0,0 0,0.01 0,0.01 0,0.01 0,0.03 0,0.04 -0.01,0.02 -0.02,0.04 -0.03,0.06 -0.01,0.01 -0.02,0.03 -0.03,0.04 -0.01,0.02 -0.03,0.04 -0.04,0.05 -0.03,0.04 -0.06,0.07 -0.1,0.08 -0.04,0.02 -0.07,0.03 -0.1,0.03 -0.05,0.01 -0.09,0.02 -0.13,0.01 -0.02,-0.01 -0.05,-0.01 -0.06,-0.02 -0.03,-0.01 -0.06,-0.02 -0.08,-0.03 -0.03,-0.01 -0.05,-0.03 -0.07,-0.06 -0.01,0 -0.01,-0.01 -0.02,-0.01 0,-0.02 0,-0.03 0.01,-0.05l-0.04 0z"/>
  <path class="fil2" d="M5 0.93c0.02,0 0.04,0 0.05,0 0.02,0 0.04,0 0.06,0 0.03,0 0.06,0.01 0.08,0.03 0.01,0.01 0.02,0.02 0.03,0.03 0.02,0.03 0.03,0.06 0.02,0.1 0,0.04 -0.03,0.05 -0.07,0.04 -0.05,-0.02 -0.1,-0.04 -0.16,-0.04 0,0 -0.01,0 -0.02,0 -0.02,0 -0.03,0.02 -0.02,0.04 0.03,0.04 0.06,0.08 0.09,0.11 0.02,0.01 0.04,0.03 0.06,0.04 0.07,0.03 0.12,0.08 0.16,0.14 0.01,0.01 0.02,0.03 0.03,0.04 0.01,0.02 0.02,0.04 0.02,0.06 -0.01,0.03 -0.02,0.06 -0.05,0.08 -0.02,0.03 -0.06,0.05 -0.09,0.06 -0.03,0.01 -0.06,0.02 -0.09,0.03 -0.01,0 -0.02,0 -0.03,0 -0.03,0 -0.07,0 -0.11,0 -0.01,0 -0.02,0 -0.03,-0.01 -0.04,-0.01 -0.08,-0.02 -0.11,-0.05 -0.02,-0.02 -0.03,-0.03 -0.04,-0.06 0,0 0,-0.01 0,-0.01 -0.01,-0.02 0,-0.04 0.01,-0.06 0.01,-0.02 0.03,-0.03 0.05,-0.02 0.02,0 0.03,0.01 0.05,0.02 0.02,0.01 0.04,0.02 0.07,0.02 0.04,0 0.07,0 0.11,-0.01 0,0 0.01,0 0.01,0 0.02,-0.01 0.03,-0.02 0.01,-0.04 -0.03,-0.02 -0.06,-0.05 -0.09,-0.07 -0.02,-0.02 -0.05,-0.04 -0.07,-0.06 -0.03,-0.02 -0.06,-0.05 -0.08,-0.07 -0.03,-0.03 -0.04,-0.07 -0.06,-0.11 -0.02,-0.07 0,-0.12 0.05,-0.17 0.01,-0.01 0.02,-0.02 0.04,-0.03 0.04,-0.01 0.08,-0.02 0.12,-0.03z"/>
  <path class="fil2" d="M4.53 0.9c-0.01,-0.04 -0.02,-0.08 -0.02,-0.12 0,-0.03 0,-0.06 0,-0.08 -0.01,-0.01 -0.01,-0.02 -0.01,-0.03 0,-0.03 0.02,-0.05 0.05,-0.05 0.02,0.01 0.04,0.01 0.05,0.02 0.04,0.02 0.07,0.05 0.09,0.09 0.01,0.01 0.02,0.03 0.04,0.04 0,0.01 0,0.02 0,0.03 0,0.04 0,0.08 -0.01,0.12 0,0.03 -0.01,0.06 -0.02,0.09 0,0 0,0.01 -0.01,0.01 0,0.03 -0.01,0.05 -0.02,0.07 -0.01,0.01 -0.01,0.02 -0.02,0.02 -0.01,0.02 -0.02,0.02 -0.03,0.01 -0.01,-0.01 -0.01,-0.01 -0.02,-0.02 -0.01,-0.02 -0.02,-0.03 -0.03,-0.05 -0.01,-0.03 -0.02,-0.06 -0.03,-0.09 0,-0.02 -0.01,-0.04 -0.02,-0.06 0,0 0.01,0 0.01,0z"/>
  <path class="fil2" d="M3.47 1.93c0.02,-0.02 0.03,-0.03 0.04,-0.05 0.03,-0.03 0.06,-0.06 0.1,-0.09 0.01,-0.01 0.02,-0.01 0.04,-0.02 0.01,0 0.02,0 0.02,0.01 0,0.04 -0.02,0.07 -0.04,0.11 0,0 -0.01,0 -0.01,0l0 0c0,0 0,0 0,0 -0.03,0.01 -0.06,0.02 -0.09,0.03 -0.01,0.01 -0.02,0.01 -0.04,0.01 0,0 -0.01,0 -0.02,0z"/>
  <path class="fil4" d="M4.17 1.8c-0.03,0 -0.06,-0.02 -0.06,-0.05 -0.01,-0.04 0.01,-0.07 0.05,-0.07 0.03,-0.01 0.06,0.02 0.06,0.05 0.01,0.03 -0.01,0.07 -0.05,0.07z"/>
 </g>
</svg>
