<?xml version="1.0" encoding="UTF-8"?>
<!DOCTYPE svg PUBLIC "-//W3C//DTD SVG 1.1//EN" "http://www.w3.org/Graphics/SVG/1.1/DTD/svg11.dtd">
<!-- Creator: CorelDRAW 2021.5 -->
<svg xmlns="http://www.w3.org/2000/svg" xml:space="preserve" width="110px" height="30px" version="1.1" style="shape-rendering:geometricPrecision; text-rendering:geometricPrecision; image-rendering:optimizeQuality; fill-rule:evenodd; clip-rule:evenodd"
viewBox="0 0 15.16 4.2"
 xmlns:xlink="http://www.w3.org/1999/xlink"
 xmlns:xodm="http://www.corel.com/coreldraw/odm/2003">
 <defs>
  <style type="text/css">
   <![CDATA[
    .fil1 {fill:black;fill-rule:nonzero}
    .fil0 {fill:#69FFD5;fill-rule:nonzero}
    .fil3 {fill:#E20613;fill-rule:nonzero}
    .fil2 {fill:#FBC416;fill-rule:nonzero}
   ]]>
  </style>
 </defs>
 <g id="Layer_x0020_1">
  <metadata id="CorelCorpID_0Corel-Layer"/>
  <polygon class="fil0" points="15.16,4.2 0,4.2 0,1.12 15.16,1.12 "/>
  <path class="fil1" d="M2.19 3.16l0.31 0c0.37,0 0.48,-0.27 0.48,-0.52 0,-0.33 -0.15,-0.49 -0.48,-0.49l-0.31 0 0 1.01zm0.22 -0.82l0.07 0c0.16,0 0.27,0.07 0.27,0.32 0,0.19 -0.06,0.32 -0.26,0.32l-0.08 0 0 -0.64zm0.92 0.31c0,-0.25 0.08,-0.33 0.19,-0.33 0.12,0 0.2,0.09 0.2,0.34 0,0.25 -0.07,0.33 -0.19,0.33 -0.12,0 -0.2,-0.09 -0.2,-0.34zm0.61 0c0,-0.37 -0.16,-0.51 -0.41,-0.51 -0.24,0 -0.42,0.16 -0.42,0.52 0,0.38 0.16,0.52 0.41,0.52 0.24,0 0.42,-0.16 0.42,-0.53zm0.44 0.27c0,-0.11 -0.03,-0.25 -0.05,-0.36l-0.1 -0.41 -0.24 0 0.26 1.01 0.26 0 0.11 -0.49c0.02,-0.09 0.04,-0.16 0.05,-0.27l0.01 0c0.01,0.1 0.02,0.18 0.05,0.31l0.11 0.45 0.25 0 0.26 -1.01 -0.22 0 -0.1 0.44c-0.03,0.12 -0.05,0.23 -0.05,0.32l-0.01 0c-0.01,-0.09 -0.02,-0.15 -0.05,-0.26l-0.11 -0.5 -0.26 0 -0.11 0.5c-0.02,0.09 -0.04,0.15 -0.05,0.27l-0.01 0zm1.3 -0.49c0.04,0.11 0.09,0.21 0.14,0.31l0.22 0.42 0.25 0 0 -1.01 -0.2 0 0 0.32c0,0.11 0,0.25 0.01,0.39l-0.01 0c-0.04,-0.1 -0.09,-0.21 -0.14,-0.31l-0.21 -0.4 -0.26 0 0 1.01 0.21 0 0 -0.38c0,-0.17 0,-0.25 -0.01,-0.35l0 0zm0.85 -0.28l0 1.01 0.59 0 0 -0.18 -0.37 0 0 -0.83 -0.22 0zm0.9 0.5c0,-0.25 0.08,-0.33 0.19,-0.33 0.12,0 0.2,0.09 0.2,0.34 0,0.25 -0.07,0.33 -0.19,0.33 -0.12,0 -0.2,-0.09 -0.2,-0.34zm0.61 0c0,-0.37 -0.16,-0.51 -0.41,-0.51 -0.24,0 -0.42,0.16 -0.42,0.52 0,0.38 0.16,0.52 0.41,0.52 0.24,0 0.42,-0.16 0.42,-0.53zm0.44 -0.05c0.03,-0.13 0.06,-0.21 0.07,-0.29l0.01 0c0.02,0.09 0.04,0.16 0.07,0.3l0.04 0.14 -0.23 0 0.04 -0.15zm-0.08 -0.45l-0.3 1.01 0.22 0 0.07 -0.23 0.33 0 0.07 0.23 0.23 0 -0.31 -1.01 -0.31 0zm0.75 1.01l0.32 0c0.37,0 0.47,-0.27 0.47,-0.52 0,-0.33 -0.15,-0.49 -0.47,-0.49l-0.32 0 0 1.01zm0.22 -0.82l0.08 0c0.16,0 0.27,0.07 0.27,0.32 0,0.19 -0.06,0.32 -0.27,0.32l-0.08 0 0 -0.64zm1.44 0.26c0.03,-0.13 0.06,-0.21 0.07,-0.29l0.01 0c0.02,0.09 0.04,0.16 0.08,0.3l0.03 0.14 -0.23 0 0.04 -0.15zm-0.07 -0.45l-0.31 1.01 0.22 0 0.07 -0.23 0.33 0 0.07 0.23 0.23 0 -0.31 -1.01 -0.3 0zm1.09 0l-0.35 0 0 1.01 0.22 0 0 -0.36 0.09 0c0.29,0 0.39,-0.16 0.39,-0.35 0,-0.22 -0.15,-0.3 -0.35,-0.3zm-0.04 0.19c0.11,0 0.16,0.04 0.16,0.14 0,0.08 -0.03,0.14 -0.17,0.14l-0.08 0 0 -0.28 0.09 0zm0.9 -0.19l-0.35 0 0 1.01 0.22 0 0 -0.36 0.09 0c0.29,0 0.39,-0.16 0.39,-0.35 0,-0.22 -0.15,-0.3 -0.35,-0.3zm-0.04 0.19c0.11,0 0.16,0.04 0.16,0.14 0,0.08 -0.03,0.14 -0.17,0.14l-0.08 0 0 -0.28 0.09 0z"/>
  <path class="fil2" d="M2.76 1.59c-0.07,0.01 -0.13,0.02 -0.2,0.03 -0.08,0.01 -0.15,-0.01 -0.21,-0.06 -0.2,-0.13 -0.39,-0.27 -0.59,-0.41 -0.11,-0.08 -0.23,-0.17 -0.34,-0.25 -0.03,-0.02 -0.05,-0.04 -0.06,-0.07 -0.01,-0.04 0,-0.07 0.01,-0.11 0.05,-0.09 0.09,-0.19 0.13,-0.29 0.06,-0.12 0.11,-0.25 0.17,-0.37 0,-0.01 0.01,-0.02 0.01,-0.03 0.03,-0.03 0.06,-0.04 0.09,-0.02 0.01,0.01 0.02,0.02 0.02,0.03 0.25,0.28 0.5,0.57 0.74,0.86 0.16,0.18 0.32,0.36 0.48,0.55 0,0.01 0.01,0.02 0.02,0.03 0.01,0.03 0,0.05 -0.02,0.06 -0.01,0.01 -0.03,0.01 -0.04,0.01 -0.07,0.02 -0.14,0.03 -0.21,0.04z"/>
  <path class="fil2" d="M1.63 1.76c-0.2,0.03 -0.4,0.06 -0.6,0.09 -0.07,0.01 -0.16,-0.03 -0.19,-0.11 -0.01,-0.02 -0.01,-0.04 -0.02,-0.06 -0.03,-0.14 -0.06,-0.28 -0.1,-0.42 -0.03,-0.12 -0.06,-0.25 -0.09,-0.38 -0.01,-0.07 -0.03,-0.15 -0.05,-0.22 0,-0.01 0,-0.03 0,-0.04 0,-0.04 0.02,-0.06 0.06,-0.05 0.01,0 0.03,0.01 0.04,0.02 0.18,0.11 0.36,0.22 0.53,0.33 0.26,0.16 0.51,0.31 0.76,0.47 0.1,0.06 0.19,0.12 0.29,0.18 0.01,0.01 0.03,0.02 0.04,0.03 0.02,0.02 0.01,0.05 -0.01,0.06 -0.02,0.01 -0.04,0.01 -0.05,0.01 -0.14,0.02 -0.27,0.04 -0.4,0.06 -0.07,0.01 -0.14,0.02 -0.21,0.03z"/>
  <path class="fil3" d="M2.98 0.2c0.01,0.08 0.01,0.16 0.02,0.24 0,0.1 0.01,0.2 0.02,0.3 0.01,0.11 0.01,0.21 0.02,0.32 0,0.05 0.01,0.1 0.01,0.16 0,0.02 0,0.04 0,0.05 -0.01,0.03 -0.02,0.04 -0.05,0.02 -0.01,-0.01 -0.02,-0.03 -0.04,-0.04 -0.11,-0.16 -0.23,-0.32 -0.34,-0.47 -0.01,-0.02 -0.03,-0.04 -0.04,-0.06 -0.06,-0.08 -0.05,-0.18 0.01,-0.25 0.09,-0.11 0.18,-0.21 0.27,-0.31 0.01,-0.02 0.03,-0.03 0.05,-0.04 0.02,-0.01 0.04,0 0.05,0.02 0.01,0.02 0.02,0.04 0.02,0.06 0,0 0,0 0,0z"/>
 </g>
</svg>
