<?xml version="1.0" encoding="UTF-8"?>
<!DOCTYPE svg PUBLIC "-//W3C//DTD SVG 1.1//EN" "http://www.w3.org/Graphics/SVG/1.1/DTD/svg11.dtd">
<!-- Creator: CorelDRAW 2021.5 -->
<svg xmlns="http://www.w3.org/2000/svg" xml:space="preserve" width="92px" height="15px" version="1.1" style="shape-rendering:geometricPrecision; text-rendering:geometricPrecision; image-rendering:optimizeQuality; fill-rule:evenodd; clip-rule:evenodd"
viewBox="0 0 10.56 1.67"
 xmlns:xlink="http://www.w3.org/1999/xlink"
 xmlns:xodm="http://www.corel.com/coreldraw/odm/2003">
 <defs>
  <style type="text/css">
   <![CDATA[
    .fil0 {fill:#00E1C1;fill-rule:nonzero}
   ]]>
  </style>
 </defs>
 <g id="Layer_x0020_1">
  <metadata id="CorelCorpID_0Corel-Layer"/>
  <path class="fil0" d="M1.78 0.83c-0.1,0.19 -0.25,0.34 -0.41,0.48 -0.12,0.12 -0.26,0.23 -0.39,0.35 -0.02,0.01 -0.03,0.02 -0.05,0 -0.24,-0.2 -0.48,-0.38 -0.68,-0.62 -0.11,-0.12 -0.2,-0.25 -0.24,-0.41 -0.05,-0.24 0.07,-0.48 0.28,-0.57 0.22,-0.1 0.47,-0.04 0.62,0.16 0.02,0.03 0.03,0.03 0.05,0 0.13,-0.18 0.3,-0.25 0.51,-0.21 0.21,0.04 0.34,0.18 0.39,0.38 0.01,0.04 0.01,0.07 0.02,0.11 0,0.12 -0.04,0.23 -0.1,0.33z"/>
  <path class="fil0" d="M3.95 0.83c-0.11,0.19 -0.25,0.34 -0.41,0.48 -0.12,0.12 -0.26,0.23 -0.39,0.35 -0.02,0.01 -0.03,0.02 -0.05,0 -0.24,-0.2 -0.48,-0.38 -0.68,-0.62 -0.11,-0.12 -0.2,-0.25 -0.24,-0.41 -0.05,-0.24 0.07,-0.48 0.28,-0.57 0.22,-0.1 0.47,-0.04 0.62,0.16 0.02,0.03 0.03,0.03 0.05,0 0.13,-0.18 0.3,-0.25 0.51,-0.21 0.21,0.04 0.34,0.18 0.39,0.38 0.01,0.04 0.01,0.07 0.02,0.11 0,0.12 -0.04,0.23 -0.1,0.33z"/>
  <path class="fil0" d="M6.12 0.83c-0.11,0.19 -0.25,0.34 -0.41,0.48 -0.13,0.12 -0.26,0.23 -0.39,0.35 -0.02,0.01 -0.03,0.02 -0.05,0 -0.24,-0.2 -0.48,-0.38 -0.68,-0.62 -0.11,-0.12 -0.2,-0.25 -0.24,-0.41 -0.05,-0.24 0.07,-0.48 0.28,-0.57 0.22,-0.1 0.47,-0.04 0.62,0.16 0.02,0.03 0.03,0.03 0.05,0 0.13,-0.18 0.3,-0.25 0.51,-0.21 0.21,0.04 0.34,0.18 0.39,0.38 0.01,0.04 0.01,0.07 0.02,0.11 0,0.12 -0.04,0.23 -0.1,0.33z"/>
  <path class="fil0" d="M8.29 0.83c-0.11,0.19 -0.25,0.34 -0.41,0.48 -0.13,0.12 -0.26,0.23 -0.39,0.35 -0.02,0.01 -0.03,0.02 -0.05,0 -0.24,-0.2 -0.48,-0.38 -0.69,-0.62 -0.1,-0.12 -0.19,-0.25 -0.23,-0.41 -0.05,-0.24 0.07,-0.48 0.28,-0.57 0.22,-0.1 0.47,-0.04 0.62,0.16 0.02,0.03 0.03,0.03 0.05,0 0.13,-0.18 0.3,-0.25 0.51,-0.21 0.21,0.04 0.34,0.18 0.39,0.38 0.01,0.04 0.01,0.07 0.02,0.11 0,0.12 -0.04,0.23 -0.1,0.33z"/>
  <path class="fil0" d="M10.46 0.83c-0.11,0.19 -0.25,0.34 -0.41,0.48 -0.13,0.12 -0.26,0.23 -0.39,0.35 -0.02,0.01 -0.03,0.02 -0.05,0 -0.24,-0.2 -0.48,-0.38 -0.69,-0.62 -0.1,-0.12 -0.2,-0.25 -0.23,-0.41 -0.05,-0.24 0.07,-0.48 0.28,-0.57 0.22,-0.1 0.47,-0.04 0.62,0.16 0.02,0.03 0.03,0.03 0.05,0 0.13,-0.18 0.3,-0.25 0.51,-0.21 0.21,0.04 0.34,0.18 0.39,0.38 0.01,0.04 0.01,0.07 0.02,0.11 0,0.12 -0.04,0.23 -0.1,0.33z"/>
 </g>
</svg>
