<?xml version="1.0" encoding="UTF-8"?>
<!DOCTYPE svg PUBLIC "-//W3C//DTD SVG 1.1//EN" "http://www.w3.org/Graphics/SVG/1.1/DTD/svg11.dtd">
<!-- Creator: CorelDRAW 2021.5 -->
<svg xmlns="http://www.w3.org/2000/svg" xml:space="preserve" width="913px" height="120px" version="1.1" style="shape-rendering:geometricPrecision; text-rendering:geometricPrecision; image-rendering:optimizeQuality; fill-rule:evenodd; clip-rule:evenodd"
viewBox="0 0 908.8 119.9"
 xmlns:xlink="http://www.w3.org/1999/xlink"
 xmlns:xodm="http://www.corel.com/coreldraw/odm/2003">
 <defs>
  <style type="text/css">
   <![CDATA[
    .fil0 {fill:#00ADEF;fill-rule:nonzero}
    .fil1 {fill:#1D71B8;fill-rule:nonzero}
   ]]>
  </style>
 </defs>
 <g id="Layer_x0020_1">
  <metadata id="CorelCorpID_0Corel-Layer"/>
  <polygon class="fil0" points="908.8,117.13 0,117.13 0,0 908.8,25.9 "/>
  <path class="fil1" d="M274.51 47.96c-0.69,1.91 -1.38,3.84 -2.2,6.1 -3.16,-0.27 -6.71,-0.58 -10.3,-0.89 -1.57,2.44 -1.3,5.36 -1.55,8.02 -0.54,5.49 -1.02,10.99 -1.46,16.49l85.5 -15.71c-4.29,-0.47 -8.58,-0.93 -12.87,-1.38 -11.51,-1.2 -23.02,-2.3 -34.53,-3.49 -7.16,-0.75 -14.31,-1.59 -21.47,-2.41 -0.55,-0.06 -1.09,-0.29 -2,-0.55 0.26,-1.3 0.53,-2.43 0.69,-3.59 0.12,-0.85 0.15,-1.72 0.19,-2.59z"/>
  <path class="fil1" d="M419.3 14.71l0.27 3.09c0.06,0.72 -0.03,1.45 0.04,2.16 0.17,1.75 1.83,3.93 3.43,4.46 1.56,0.52 2.15,-0.78 2.99,-1.73 2.23,-2.54 4.49,-5.07 6.75,-7.59l-13.48 -0.39z"/>
  <path class="fil1" d="M131.72 93.88c0.52,2.54 1.47,3.17 3.72,2.21 1.38,-0.6 2.63,-1.53 3.94,-2.32 5.4,-3.25 10.93,-6.29 16.17,-9.8 4.42,-2.96 9.25,-5.4 12.8,-9.6 1.05,-1.24 1.85,-2.79 2.48,-4.34 0.72,-1.77 -2.4,-9.08 -4.2,-9.49 -1.63,-0.38 -3.41,-0.07 -5.08,0.21 -0.9,0.15 -1.67,0.91 -2.53,1.31 -1.09,0.52 -2.21,0.96 -3.64,1.58 -0.4,-1.59 -0.79,-2.75 -0.97,-3.93 -1.02,-6.79 -10.84,-12.18 -15.29,-9.83 -3.23,1.7 -5.09,4.55 -5.77,8.04 -0.97,4.95 -1.55,10.03 -1.86,15.12 -0.35,5.79 -0.25,11.65 -0.27,17.48 0,1.11 0.28,2.25 0.5,3.36z"/>
  <path class="fil1" d="M44.71 105.42c1.01,-2.95 3.46,-4.21 6.42,-3.28 1.97,0.61 4,1.3 5.76,2.41 4.2,2.63 8.38,5.28 12.54,7.98l57.09 -10.5c-2.14,-1.51 -4.24,-3.07 -6.37,-4.59 -5.2,-3.72 -10.31,-7.61 -15.55,-11.27 -5.98,-4.19 -12.03,-8.26 -18.1,-12.29 -2.77,-1.83 -5.65,-3.43 -8.85,-5.36 0.83,-0.95 1.39,-1.72 2.07,-2.34 5.05,-4.61 10.15,-9.18 15.2,-13.8 6.69,-6.13 13.33,-12.3 20.02,-18.43 4.77,-4.36 9.59,-8.66 14.35,-13.02 3.63,-3.33 7.23,-6.68 10.79,-10.08 1.13,-1.09 2.37,-1.53 3.92,-1.31 5.02,0.73 10.04,1.48 15.06,2.1 6.97,0.86 13.93,1.62 20.9,2.42 6.77,0.78 13.54,1.54 20.31,2.33 7.36,0.84 14.71,1.71 22.06,2.56 6.96,0.8 13.92,1.62 20.89,2.39 8.32,0.93 16.64,1.8 24.97,2.73 3.34,0.37 6.68,0.8 9.92,1.2 0.12,0.64 0.21,0.86 0.18,1.04 -0.61,3.37 -1.19,6.75 -1.88,10.09 -0.61,2.97 -1.41,5.89 -2.01,8.86 -0.14,0.65 0.08,1.4 0.2,2.13 0.95,-3.39 1.97,-6.76 2.84,-10.18 0.77,-3.02 1.32,-6.13 2.05,-9.17 0.62,-2.59 0.77,-2.64 3.43,-2.42 0.38,0.03 0.77,0.04 1.16,0.09 7.26,0.78 14.52,1.59 21.77,2.34 5.04,0.53 10.07,0.93 15.11,1.46 9.86,1.04 19.72,2.15 29.58,3.2 7.25,0.77 14.51,1.55 21.76,2.18 3.67,0.32 7.35,0.42 11.02,0.44 1.96,0.01 2.71,-0.8 2.91,-2.6 0.2,-1.83 0.4,-3.66 0.43,-5.5 0.09,-4.48 0.17,-8.96 0.24,-13.44l-386.9 -11.02 0 117.13 29.33 0 14.74 -2.71c-0.64,-4.03 -0.65,-8.01 0.64,-11.77z"/>
  <path class="fil1" d="M456 15.76c-5.51,6.19 -11.08,12.31 -16.56,18.52 -3.58,4.04 -7.12,8.12 -10.66,12.19l69.14 -12.7 0 -16.82 -41.92 -1.19z"/>
  <path class="fil1" d="M188.43 45.49c-2.03,-0.27 -4.06,-0.46 -6.09,-0.56 -2.75,-0.13 -3.07,0.14 -3.17,2.91 -0.19,5.01 -0.32,10.03 -0.42,15.05 -0.18,9.11 -0.34,18.23 -0.48,27.34 -0.02,0.77 -0.02,1.53 -0.03,2.3l11.99 -2.21c0.17,-8.63 0.36,-17.26 0.54,-25.89 0.11,-5.22 0.22,-10.45 0.29,-15.67 0.03,-2.39 -0.44,-2.98 -2.63,-3.27z"/>
  <path class="fil1" d="M227.91 49.65c-2.42,-0.24 -4.83,-0.64 -7.24,-0.87 -1.55,-0.15 -2.07,0.55 -2.16,2.81 -0.14,3.48 -0.2,6.96 -0.32,10.44 -0.27,7.57 -0.59,15.13 -0.85,22.7 0,0.2 -0.01,0.41 -0.02,0.61l11.85 -2.18c0.19,-5.33 0.35,-10.66 0.53,-16 0.14,-3.99 0.28,-7.97 0.4,-11.96 0.03,-1.02 0.05,-2.06 -0.02,-3.08 -0.09,-1.41 -0.69,-2.32 -2.17,-2.47z"/>
  <path class="fil1" d="M789.82 66.23c-0.63,1.08 -1.5,1.97 -2.41,2.82 -0.75,0.7 -1.54,1.36 -2.31,2.04 -0.1,0.1 -0.18,0.14 -0.31,0.03 -1.38,-1.17 -2.83,-2.26 -4.02,-3.64 -0.63,-0.72 -1.18,-1.5 -1.38,-2.46 -0.29,-1.41 0.38,-2.79 1.66,-3.36 1.31,-0.59 2.77,-0.2 3.62,0.98 0.14,0.19 0.18,0.17 0.31,-0.01 0.75,-1.04 1.77,-1.48 3.02,-1.23 1.24,0.24 1.99,1.03 2.3,2.23 0.05,0.21 0.05,0.44 0.08,0.66 0,0.7 -0.22,1.34 -0.56,1.94z"/>
  <path class="fil1" d="M802.6 66.23c-0.62,1.08 -1.5,1.97 -2.4,2.82 -0.76,0.7 -1.55,1.36 -2.32,2.04 -0.1,0.1 -0.18,0.14 -0.31,0.03 -1.38,-1.17 -2.82,-2.26 -4.02,-3.64 -0.63,-0.72 -1.17,-1.5 -1.37,-2.46 -0.3,-1.41 0.38,-2.79 1.66,-3.36 1.3,-0.59 2.76,-0.2 3.61,0.98 0.14,0.19 0.18,0.17 0.31,-0.01 0.75,-1.04 1.77,-1.48 3.03,-1.23 1.23,0.24 1.99,1.03 2.29,2.23 0.06,0.21 0.06,0.44 0.08,0.66 0,0.7 -0.22,1.34 -0.56,1.94z"/>
  <path class="fil1" d="M815.38 66.23c-0.62,1.08 -1.49,1.97 -2.4,2.82 -0.75,0.7 -1.54,1.36 -2.31,2.04 -0.11,0.1 -0.19,0.14 -0.32,0.03 -1.38,-1.17 -2.82,-2.26 -4.01,-3.64 -0.63,-0.72 -1.18,-1.5 -1.38,-2.46 -0.3,-1.41 0.38,-2.79 1.66,-3.36 1.3,-0.59 2.76,-0.2 3.62,0.98 0.14,0.19 0.18,0.17 0.31,-0.01 0.74,-1.04 1.76,-1.48 3.02,-1.23 1.23,0.24 1.99,1.03 2.29,2.23 0.06,0.21 0.06,0.44 0.08,0.66 0,0.7 -0.21,1.34 -0.56,1.94z"/>
  <path class="fil1" d="M828.16 66.23c-0.62,1.08 -1.49,1.97 -2.4,2.82 -0.75,0.7 -1.54,1.36 -2.31,2.04 -0.11,0.1 -0.18,0.14 -0.32,0.03 -1.38,-1.17 -2.82,-2.26 -4.01,-3.64 -0.63,-0.72 -1.18,-1.5 -1.38,-2.46 -0.3,-1.41 0.38,-2.79 1.66,-3.36 1.31,-0.59 2.77,-0.2 3.62,0.98 0.14,0.19 0.18,0.17 0.31,-0.01 0.75,-1.04 1.76,-1.48 3.02,-1.23 1.24,0.24 1.99,1.03 2.3,2.23 0.05,0.21 0.05,0.44 0.08,0.66 0,0.7 -0.22,1.34 -0.57,1.94z"/>
  <path class="fil1" d="M840.95 66.23c-0.63,1.08 -1.5,1.97 -2.4,2.82 -0.76,0.7 -1.55,1.36 -2.32,2.04 -0.1,0.1 -0.18,0.14 -0.31,0.03 -1.38,-1.17 -2.83,-2.26 -4.02,-3.64 -0.63,-0.72 -1.17,-1.5 -1.38,-2.46 -0.29,-1.41 0.39,-2.79 1.66,-3.36 1.31,-0.59 2.77,-0.2 3.62,0.98 0.14,0.19 0.18,0.17 0.31,-0.01 0.75,-1.04 1.77,-1.48 3.03,-1.23 1.23,0.24 1.99,1.03 2.29,2.23 0.06,0.21 0.06,0.44 0.08,0.66 0,0.7 -0.22,1.34 -0.56,1.94z"/>
 </g>
</svg>
