<?xml version="1.0" encoding="UTF-8"?>
<!DOCTYPE svg PUBLIC "-//W3C//DTD SVG 1.1//EN" "http://www.w3.org/Graphics/SVG/1.1/DTD/svg11.dtd">
<!-- Creator: CorelDRAW 2021.5 -->
<svg xmlns="http://www.w3.org/2000/svg" xml:space="preserve" width="913px" height="118px" version="1.1" style="shape-rendering:geometricPrecision; text-rendering:geometricPrecision; image-rendering:optimizeQuality; fill-rule:evenodd; clip-rule:evenodd"
viewBox="0 0 908.8 117.13"
 xmlns:xlink="http://www.w3.org/1999/xlink"
 xmlns:xodm="http://www.corel.com/coreldraw/odm/2003">
 <defs>
  <style type="text/css">
   <![CDATA[
    .fil1 {fill:#00E1C1;fill-rule:nonzero}
    .fil0 {fill:#0364A6;fill-rule:nonzero}
    .fil2 {fill:#ED8373;fill-rule:nonzero}
   ]]>
  </style>
 </defs>
 <g id="Layer_x0020_1">
  <metadata id="CorelCorpID_0Corel-Layer"/>
  <polygon class="fil0" points="908.8,117.13 0,117.13 0,0 908.8,25.9 "/>
  <path class="fil1" d="M789.82 66.23c-0.63,1.08 -1.5,1.97 -2.41,2.82 -0.75,0.7 -1.54,1.36 -2.31,2.04 -0.1,0.1 -0.18,0.14 -0.31,0.03 -1.38,-1.17 -2.83,-2.26 -4.02,-3.64 -0.63,-0.72 -1.17,-1.5 -1.38,-2.46 -0.29,-1.41 0.38,-2.79 1.66,-3.36 1.31,-0.59 2.77,-0.2 3.62,0.98 0.14,0.19 0.18,0.17 0.31,-0.01 0.75,-1.04 1.77,-1.48 3.02,-1.23 1.24,0.24 1.99,1.03 2.3,2.23 0.05,0.21 0.06,0.44 0.08,0.66 0,0.7 -0.22,1.34 -0.56,1.94z"/>
  <path class="fil1" d="M802.6 66.23c-0.62,1.08 -1.5,1.97 -2.4,2.82 -0.76,0.7 -1.55,1.36 -2.32,2.04 -0.1,0.1 -0.18,0.14 -0.31,0.03 -1.38,-1.17 -2.82,-2.26 -4.02,-3.64 -0.63,-0.72 -1.17,-1.5 -1.38,-2.46 -0.29,-1.41 0.39,-2.79 1.67,-3.36 1.3,-0.59 2.76,-0.2 3.61,0.98 0.14,0.19 0.18,0.17 0.31,-0.01 0.75,-1.04 1.77,-1.48 3.03,-1.23 1.23,0.24 1.99,1.03 2.29,2.23 0.06,0.21 0.06,0.44 0.08,0.66 0,0.7 -0.22,1.34 -0.56,1.94z"/>
  <path class="fil1" d="M815.38 66.23c-0.62,1.08 -1.49,1.97 -2.4,2.82 -0.75,0.7 -1.54,1.36 -2.31,2.04 -0.11,0.1 -0.19,0.14 -0.32,0.03 -1.38,-1.17 -2.82,-2.26 -4.01,-3.64 -0.63,-0.72 -1.18,-1.5 -1.38,-2.46 -0.3,-1.41 0.38,-2.79 1.66,-3.36 1.3,-0.59 2.76,-0.2 3.62,0.98 0.14,0.19 0.18,0.17 0.31,-0.01 0.74,-1.04 1.76,-1.48 3.02,-1.23 1.23,0.24 1.99,1.03 2.3,2.23 0.05,0.21 0.05,0.44 0.07,0.66 0,0.7 -0.21,1.34 -0.56,1.94z"/>
  <path class="fil1" d="M828.16 66.23c-0.62,1.08 -1.49,1.97 -2.4,2.82 -0.75,0.7 -1.54,1.36 -2.31,2.04 -0.11,0.1 -0.18,0.14 -0.32,0.03 -1.38,-1.17 -2.82,-2.26 -4.01,-3.64 -0.63,-0.72 -1.18,-1.5 -1.38,-2.46 -0.3,-1.41 0.38,-2.79 1.66,-3.36 1.3,-0.59 2.77,-0.2 3.62,0.98 0.14,0.19 0.18,0.17 0.31,-0.01 0.74,-1.04 1.76,-1.48 3.02,-1.23 1.24,0.24 1.99,1.03 2.3,2.23 0.05,0.21 0.05,0.44 0.08,0.66 0,0.7 -0.22,1.34 -0.57,1.94z"/>
  <path class="fil1" d="M840.95 66.23c-0.63,1.08 -1.5,1.97 -2.4,2.82 -0.76,0.7 -1.55,1.36 -2.32,2.04 -0.1,0.1 -0.18,0.14 -0.31,0.03 -1.38,-1.17 -2.83,-2.26 -4.02,-3.64 -0.63,-0.72 -1.17,-1.5 -1.38,-2.46 -0.29,-1.41 0.39,-2.79 1.66,-3.36 1.31,-0.59 2.77,-0.2 3.62,0.98 0.14,0.19 0.18,0.17 0.31,-0.01 0.75,-1.04 1.77,-1.48 3.03,-1.23 1.23,0.24 1.99,1.03 2.29,2.23 0.06,0.21 0.06,0.44 0.08,0.66 0,0.7 -0.22,1.34 -0.56,1.94z"/>
  <path class="fil2" d="M21.94 79.06c-7.54,-2.49 -14.77,-5.02 -21.94,-7.37l0 45.44 81.62 0c3.28,-7.58 6.57,-15.16 9.82,-22.75 8.44,-19.69 7.88,-38.5 -3.93,-56.72 -4.66,-7.2 -8.67,-14.84 -16.01,-19.93 -9.11,-6.32 -15.23,-5.68 -22.16,3.16 -2.61,3.35 -4.75,7.18 -6.49,11.07 -5.55,12.38 -10.76,24.9 -16.18,37.33 -1.42,3.26 -3.09,6.42 -4.73,9.77z"/>
  <path class="fil2" d="M0 26.06l7.86 2.53c2.23,0.71 4.76,0.46 8.42,0.76 -0.46,-4.2 -0.3,-7.74 -1.3,-10.92 -1.91,-6.07 -3.85,-12.12 -5.83,-18.17l-9.15 -0.26 0 26.06z"/>
  <path class="fil2" d="M159.48 44.88c1.2,-3.16 2.22,-5.35 2.85,-7.65 0.61,-2.29 1.13,-4.78 -1.27,-6.55 -2.5,-1.83 -7.98,-2.54 -9.8,-0.91 -2.08,1.87 -4.32,3.9 -5.54,6.34 -5.53,11.12 -10.75,22.39 -16,33.64 -0.6,1.31 -0.65,2.87 -1.11,5.08 2.59,0.04 4.74,0.41 6.76,0.05 9.85,-1.78 19.67,-3.74 29.48,-5.69 1.27,-0.25 2.51,-0.78 3.7,-1.31 5.14,-2.34 7.75,-6.07 7.39,-10.46 -0.39,-4.78 -4.27,-9.57 -9.05,-10.95 -2.23,-0.64 -4.56,-0.99 -7.41,-1.59z"/>
  <path class="fil2" d="M219.65 85.6c-20.65,3.99 -19.69,4.61 -22.15,-15.4 -2.66,-21.58 -5.06,-43.18 -7.51,-64.79l139.91 3.99c-4.14,4.89 -8.54,9.61 -13.24,14.12 -1.79,1.72 -3.65,3.38 -5.31,5.22 -14.35,15.77 -31.82,27.68 -49.22,39.62 -12.97,8.89 -27.74,13.74 -42.48,17.24z"/>
  <path class="fil2" d="M473.49 117.13c0.53,-0.59 1.05,-1.19 1.57,-1.78 2.45,-2.77 4.73,-5.82 6.48,-9.07 8.85,-16.4 19.04,-31.97 29.23,-47.54 5.78,-8.84 11.2,-17.84 15.54,-27.53 2.25,-5.04 4.32,-10.41 8.66,-14.21 0.73,-0.64 2.26,-0.49 3.42,-0.48 0.54,0.01 1.21,0.44 1.6,0.88 14.61,16.09 29.23,32.17 43.76,48.33 2.27,2.52 2.63,5.73 1.08,8.68 -3.17,6.04 -6.45,12.05 -10.02,17.86 -5.12,8.31 -10.29,16.59 -15.49,24.86l-85.83 0z"/>
  <path class="fil2" d="M480.12 13.68c-3.14,6.28 -6.58,12.42 -10.39,18.4 -7.69,12.04 -15.16,24.22 -22.82,36.28 -9.02,14.18 -18.82,27.65 -31.45,39.04 -3.52,3.18 -6.98,6.44 -10.4,9.73l-108.29 0c8.17,-5.81 16.31,-11.68 24.35,-17.69 3.96,-2.95 7.58,-6.39 11.12,-9.84 12.45,-12.13 24.72,-24.42 37.21,-36.5 6.31,-6.1 11.77,-12.73 15.99,-20.46 3.27,-5.98 6.63,-11.99 10.59,-17.53 0.89,-1.24 1.76,-2.49 2.62,-3.75l81.47 2.32z"/>
 </g>
</svg>
