<?xml version="1.0" encoding="UTF-8"?>
<!DOCTYPE svg PUBLIC "-//W3C//DTD SVG 1.1//EN" "http://www.w3.org/Graphics/SVG/1.1/DTD/svg11.dtd">
<!-- Creator: CorelDRAW 2021.5 -->
<svg xmlns="http://www.w3.org/2000/svg" xml:space="preserve" width="913px" height="118px" version="1.1" style="shape-rendering:geometricPrecision; text-rendering:geometricPrecision; image-rendering:optimizeQuality; fill-rule:evenodd; clip-rule:evenodd"
viewBox="0 0 908.8 117.13"
 xmlns:xlink="http://www.w3.org/1999/xlink"
 xmlns:xodm="http://www.corel.com/coreldraw/odm/2003">
 <defs>
  <style type="text/css">
   <![CDATA[
    .fil0 {fill:#13E1C2;fill-rule:nonzero}
    .fil1 {fill:#E6007E;fill-rule:nonzero}
   ]]>
  </style>
 </defs>
 <g id="Layer_x0020_1">
  <metadata id="CorelCorpID_0Corel-Layer"/>
  <polygon class="fil0" points="908.8,117.13 0,117.13 0,0 908.8,25.9 "/>
  <path class="fil1" d="M789.82 66.23c-0.63,1.08 -1.5,1.97 -2.41,2.81 -0.75,0.71 -1.54,1.37 -2.31,2.05 -0.1,0.1 -0.18,0.14 -0.31,0.03 -1.38,-1.17 -2.83,-2.26 -4.02,-3.64 -0.63,-0.72 -1.17,-1.5 -1.38,-2.46 -0.29,-1.41 0.38,-2.8 1.66,-3.36 1.31,-0.59 2.77,-0.2 3.62,0.98 0.14,0.19 0.18,0.17 0.31,-0.01 0.75,-1.04 1.77,-1.48 3.02,-1.23 1.24,0.24 1.99,1.02 2.3,2.23 0.05,0.21 0.06,0.44 0.08,0.65 0,0.71 -0.22,1.35 -0.56,1.95z"/>
  <path class="fil1" d="M802.6 66.23c-0.62,1.08 -1.5,1.97 -2.4,2.81 -0.76,0.71 -1.55,1.37 -2.32,2.05 -0.1,0.1 -0.18,0.14 -0.31,0.03 -1.38,-1.17 -2.82,-2.26 -4.02,-3.64 -0.63,-0.72 -1.17,-1.5 -1.38,-2.46 -0.29,-1.41 0.39,-2.8 1.67,-3.36 1.3,-0.59 2.76,-0.2 3.61,0.98 0.14,0.19 0.18,0.17 0.31,-0.01 0.75,-1.04 1.77,-1.48 3.03,-1.23 1.23,0.24 1.99,1.02 2.29,2.23 0.06,0.21 0.06,0.44 0.08,0.65 0,0.71 -0.22,1.35 -0.56,1.95z"/>
  <path class="fil1" d="M815.38 66.23c-0.62,1.08 -1.49,1.97 -2.4,2.81 -0.75,0.71 -1.54,1.37 -2.31,2.05 -0.11,0.1 -0.19,0.14 -0.32,0.03 -1.38,-1.17 -2.82,-2.26 -4.01,-3.64 -0.63,-0.72 -1.18,-1.5 -1.38,-2.46 -0.3,-1.41 0.38,-2.8 1.66,-3.36 1.3,-0.59 2.76,-0.2 3.62,0.98 0.14,0.19 0.18,0.17 0.31,-0.01 0.74,-1.04 1.76,-1.48 3.02,-1.23 1.23,0.24 1.99,1.02 2.3,2.23 0.05,0.21 0.05,0.44 0.07,0.65 0,0.71 -0.21,1.35 -0.56,1.95z"/>
  <path class="fil1" d="M828.16 66.23c-0.62,1.08 -1.49,1.97 -2.4,2.81 -0.75,0.71 -1.54,1.37 -2.31,2.05 -0.11,0.1 -0.18,0.14 -0.32,0.03 -1.38,-1.17 -2.82,-2.26 -4.01,-3.64 -0.63,-0.72 -1.18,-1.5 -1.38,-2.46 -0.3,-1.41 0.38,-2.8 1.66,-3.36 1.3,-0.59 2.77,-0.2 3.62,0.98 0.14,0.19 0.18,0.17 0.31,-0.01 0.74,-1.04 1.76,-1.48 3.02,-1.23 1.24,0.24 1.99,1.02 2.3,2.23 0.05,0.21 0.05,0.44 0.08,0.65 0,0.71 -0.22,1.35 -0.57,1.95z"/>
  <path class="fil1" d="M840.95 66.23c-0.63,1.08 -1.5,1.97 -2.4,2.81 -0.76,0.71 -1.55,1.37 -2.32,2.05 -0.1,0.1 -0.18,0.14 -0.31,0.03 -1.38,-1.17 -2.83,-2.26 -4.02,-3.64 -0.63,-0.72 -1.17,-1.5 -1.38,-2.46 -0.29,-1.41 0.39,-2.8 1.66,-3.36 1.31,-0.59 2.77,-0.2 3.62,0.98 0.14,0.19 0.18,0.17 0.31,-0.01 0.75,-1.04 1.77,-1.48 3.03,-1.23 1.23,0.24 1.99,1.02 2.29,2.23 0.06,0.21 0.06,0.44 0.08,0.65 0,0.71 -0.22,1.35 -0.56,1.95z"/>
  <path class="fil1" d="M168.25 117.13c0.77,-39.76 -13.47,-74.55 -37.09,-106.01 -1.96,-2.62 -3.97,-5.13 -6.03,-7.55l34.73 0.99c9.91,14.25 17.98,30.11 24.23,47.47 7.67,21.28 11.44,43.04 11.09,65.1l-26.93 0z"/>
  <path class="fil1" d="M120.7 113.62c0.95,-65.86 -45.75,-112.14 -114.09,-113.07 -2.2,-0.03 -4.41,0.04 -6.61,0.2l0 -0.75 96.72 2.76c24.65,19.4 42.91,47.75 48.17,83.14 1.54,10.4 4.54,20.74 5.16,31.23l-29.1 0c-0.06,-1.17 -0.13,-2.34 -0.25,-3.51z"/>
  <path class="fil1" d="M34.84 77.99c-10.48,1.86 -22.53,3.96 -34.84,6.17l0 -60.52c3.74,-0.2 7.41,0.06 10.37,0.06 6.9,0.35 12.81,0.68 18.73,0.96 33.65,1.58 71.2,45.39 69.66,87.41 -0.06,1.72 -0.17,3.4 -0.31,5.06l-40.46 0c6.14,-4.68 11.86,-10.16 16.65,-16.13 8.52,-10.63 6.7,-15.39 -6.37,-18.17 -10.1,-2.14 -20.46,-3.02 -33.43,-4.84z"/>
  <path class="fil1" d="M484.32 117.13c-25.81,-27.97 -58.6,-41.86 -98.6,-41.03 -9.41,0.19 -18.85,0.13 -28.24,-0.29 -12.68,-0.57 -24.69,1.99 -36.11,7.17 -19.26,8.72 -37.26,19.54 -52.33,34.15l-35.02 0c27.36,-32.94 64.08,-56 96.07,-66 1.88,-0.59 3.79,-1.4 5.72,-1.5 39.19,-1.92 78.92,-4.95 115.51,12.58 27.83,13.34 50.37,31.84 67.77,54.92l-34.77 0z"/>
  <path class="fil1" d="M299.38 117.13l155.43 0c-43.46,-30.89 -104.15,-35.45 -149.47,-4.23 -2.02,1.39 -4.01,2.8 -5.96,4.23z"/>
  <path class="fil1" d="M206.61 34.34c-0.78,6.24 1.35,12.14 4.98,17.63 0.28,0.43 0.53,0.86 0.78,1.31 1.73,3.08 4.08,5.64 7.21,7.23 3.97,2.01 8.09,3.71 12.18,5.47 0.81,0.35 1.78,0.55 2.66,0.5 7.37,-0.4 14.38,-2.18 20.94,-5.61 0.44,-0.24 0.84,-0.57 1.22,-0.9 3.93,-3.28 7.31,-7.02 9.91,-11.45 2.21,-3.75 3.28,-7.84 3.44,-12.16 0.32,-8.39 -2.62,-15.7 -7.57,-22.3 -2.1,-2.79 -4.46,-5.06 -7.08,-6.78l8.58 0.24c4.13,4.07 7.23,9.08 9.33,14.92 2.32,6.42 2.89,13.05 1.6,19.78 -0.82,4.26 -2.91,7.98 -5.17,11.6 -5.76,9.25 -14.04,14.68 -24.76,16.52 -1.63,0.27 -3.17,1.1 -4.75,1.67l-7.92 0c-4.85,-1.4 -9.42,-3.49 -13.83,-5.94 -1.41,-0.78 -2.93,-1.51 -4.07,-2.61 -7.96,-7.63 -12.89,-16.5 -13.57,-27.94 -0.74,-12.38 5.66,-22.6 13.71,-29.41l8.87 0.25c-3.18,1.77 -6.09,3.93 -8.53,6.68 -5.26,5.91 -9.08,12.48 -8.16,21.3z"/>
  <path class="fil1" d="M260.22 35.04c0.19,-13.48 -9.37,-22.95 -23.36,-23.14 -10.66,-0.14 -21.67,10.78 -21.63,21.95 0.04,11.66 8.51,22.17 19.78,22.89 14.72,0.94 26.27,-10.63 25.21,-21.7zm-16.45 -28.09l-10.08 -0.29c-3.54,0.58 -6.97,1.89 -10.06,4.02 -9.68,6.66 -15.44,15.23 -13.34,27.73 1.13,6.8 4.4,12.3 8.95,17.22 0.6,0.66 1.36,1.26 2.17,1.64 3.29,1.54 6.59,3.1 9.97,4.41 1.57,0.6 3.35,0.64 5.04,0.94 4.35,-0.31 11.76,-2.14 15.47,-4.3 7.51,-4.36 11.98,-11.02 14.07,-19.33 0.82,-3.27 -0.32,-6.44 -0.79,-9.62 -1.8,-12.11 -11.04,-20.19 -21.4,-22.42z"/>
  <path class="fil1" d="M242.64 27.75c-2.6,0.46 -5.68,1 -8.75,1.56 -2.22,0.4 -3.97,1.69 -5.08,3.54 -1.4,2.33 -2.56,4.81 -3.66,7.3 -0.57,1.28 -0.21,2.62 0.78,3.65 0.96,1.01 2.15,0.97 3.38,0.55 6.14,-2.08 12.19,-4.39 17.52,-8.18 1.46,-1.04 2.84,-2.31 3.96,-3.71 1.74,-2.17 1.37,-3.15 -1.31,-3.72 -2.06,-0.44 -4.18,-0.62 -6.84,-0.99zm-5.01 -11.11c1.41,0.07 2.62,0.14 3.84,0.19 6.88,0.33 14.57,9.3 14.26,17.9 -0.23,6.23 -3.14,10.73 -7.69,14.51 -0.45,0.38 -1.03,0.66 -1.6,0.84 -2.5,0.81 -4.98,1.76 -7.54,2.26 -1.64,0.32 -3.51,0.3 -5.09,-0.18 -6.22,-1.87 -13.18,-6.3 -13.77,-16.51 -0.49,-8.54 4.27,-15.79 12.39,-18.43 0.86,-0.28 1.77,-0.47 2.67,-0.56 0.9,-0.1 1.82,-0.02 2.53,-0.02z"/>
 </g>
</svg>
