<?xml version="1.0" encoding="UTF-8"?>
<!DOCTYPE svg PUBLIC "-//W3C//DTD SVG 1.1//EN" "http://www.w3.org/Graphics/SVG/1.1/DTD/svg11.dtd">
<!-- Creator: CorelDRAW 2021.5 -->
<svg xmlns="http://www.w3.org/2000/svg" xml:space="preserve" width="913px" height="118px" version="1.1" style="shape-rendering:geometricPrecision; text-rendering:geometricPrecision; image-rendering:optimizeQuality; fill-rule:evenodd; clip-rule:evenodd"
viewBox="0 0 908.8 117.27"
 xmlns:xlink="http://www.w3.org/1999/xlink"
 xmlns:xodm="http://www.corel.com/coreldraw/odm/2003">
 <defs>
  <style type="text/css">
   <![CDATA[
    .fil1 {fill:#BE1622;fill-rule:nonzero}
    .fil0 {fill:#E6332A;fill-rule:nonzero}
    .fil2 {fill:#F39200;fill-rule:nonzero}
   ]]>
  </style>
 </defs>
 <g id="Layer_x0020_1">
  <metadata id="CorelCorpID_0Corel-Layer"/>
  <polygon class="fil0" points="908.8,117.13 0,117.13 0,0 908.8,25.9 "/>
  <path class="fil1" d="M21.94 79.2c-7.54,-2.5 -14.77,-5.02 -21.94,-7.37l0 45.44 81.62 0c3.28,-7.59 6.57,-15.17 9.82,-22.76 8.44,-19.68 7.88,-38.49 -3.93,-56.71 -4.66,-7.21 -8.67,-14.85 -16.01,-19.94 -9.11,-6.31 -15.23,-5.68 -22.16,3.17 -2.61,3.34 -4.75,7.18 -6.49,11.07 -5.54,12.37 -10.77,24.89 -16.18,37.33 -1.42,3.26 -3.09,6.41 -4.73,9.77z"/>
  <path class="fil1" d="M0 26.2l7.87 2.52c2.22,0.71 4.75,0.46 8.41,0.76 -0.46,-4.19 -0.3,-7.74 -1.3,-10.91 -1.91,-6.07 -3.85,-12.13 -5.83,-18.17l-9.15 -0.26 0 26.06z"/>
  <path class="fil1" d="M159.48 45.01c1.2,-3.16 2.22,-5.35 2.85,-7.64 0.61,-2.3 1.13,-4.78 -1.27,-6.55 -2.5,-1.84 -7.98,-2.54 -9.8,-0.91 -2.08,1.87 -4.32,3.9 -5.54,6.34 -5.53,11.11 -10.75,22.38 -16,33.64 -0.6,1.3 -0.65,2.86 -1.11,5.08 2.59,0.04 4.74,0.41 6.76,0.05 9.85,-1.79 19.67,-3.74 29.48,-5.7 1.27,-0.25 2.51,-0.77 3.7,-1.31 5.14,-2.34 7.75,-6.06 7.39,-10.45 -0.39,-4.78 -4.27,-9.58 -9.05,-10.96 -2.23,-0.64 -4.56,-0.99 -7.41,-1.59z"/>
  <path class="fil1" d="M219.65 85.74c-20.66,3.98 -19.69,4.6 -22.15,-15.41 -2.66,-21.57 -5.06,-43.18 -7.51,-64.78l139.91 3.99c-4.14,4.89 -8.54,9.6 -13.24,14.12 -1.79,1.72 -3.65,3.38 -5.31,5.21 -14.35,15.77 -31.82,27.69 -49.22,39.62 -12.97,8.89 -27.74,13.75 -42.48,17.25z"/>
  <path class="fil1" d="M473.49 117.27c0.53,-0.6 1.05,-1.19 1.57,-1.79 2.45,-2.77 4.73,-5.81 6.48,-9.06 8.85,-16.41 19.04,-31.97 29.23,-47.54 5.78,-8.84 11.2,-17.85 15.54,-27.53 2.25,-5.05 4.32,-10.41 8.66,-14.21 0.73,-0.65 2.26,-0.5 3.42,-0.48 0.54,0 1.21,0.44 1.6,0.87 14.61,16.09 29.22,32.18 43.76,48.34 2.27,2.52 2.63,5.72 1.08,8.68 -3.17,6.04 -6.45,12.04 -10.02,17.86 -5.13,8.31 -10.3,16.59 -15.49,24.86l-85.83 0z"/>
  <path class="fil1" d="M480.12 13.82c-3.14,6.28 -6.58,12.42 -10.39,18.4 -7.69,12.04 -15.16,24.22 -22.82,36.27 -9.02,14.18 -18.82,27.66 -31.45,39.05 -3.52,3.18 -6.98,6.43 -10.4,9.73l-108.29 0c8.18,-5.82 16.31,-11.69 24.35,-17.69 3.96,-2.96 7.58,-6.4 11.12,-9.85 12.45,-12.12 24.72,-24.42 37.21,-36.49 6.31,-6.1 11.77,-12.74 15.99,-20.46 3.27,-5.99 6.63,-11.99 10.59,-17.53 0.89,-1.25 1.76,-2.5 2.62,-3.75l81.47 2.32z"/>
  <path class="fil2" d="M789.82 66.23c-0.63,1.08 -1.5,1.97 -2.41,2.81 -0.75,0.71 -1.54,1.37 -2.31,2.05 -0.1,0.1 -0.18,0.14 -0.31,0.03 -1.38,-1.17 -2.83,-2.26 -4.02,-3.64 -0.63,-0.72 -1.18,-1.5 -1.38,-2.46 -0.29,-1.41 0.38,-2.8 1.66,-3.36 1.31,-0.59 2.77,-0.2 3.62,0.98 0.14,0.19 0.18,0.17 0.31,-0.01 0.75,-1.04 1.77,-1.48 3.02,-1.23 1.24,0.24 1.99,1.02 2.3,2.23 0.05,0.21 0.05,0.44 0.08,0.66 0,0.7 -0.22,1.34 -0.56,1.94z"/>
  <path class="fil2" d="M802.6 66.23c-0.62,1.08 -1.5,1.97 -2.4,2.81 -0.76,0.71 -1.55,1.37 -2.32,2.05 -0.1,0.1 -0.18,0.14 -0.31,0.03 -1.38,-1.17 -2.82,-2.26 -4.02,-3.64 -0.63,-0.72 -1.17,-1.5 -1.37,-2.46 -0.3,-1.41 0.38,-2.8 1.66,-3.36 1.3,-0.59 2.76,-0.2 3.61,0.98 0.14,0.19 0.18,0.17 0.31,-0.01 0.75,-1.04 1.77,-1.48 3.03,-1.23 1.23,0.24 1.99,1.02 2.29,2.23 0.06,0.21 0.06,0.44 0.08,0.66 0,0.7 -0.22,1.34 -0.56,1.94z"/>
  <path class="fil2" d="M815.38 66.23c-0.62,1.08 -1.49,1.97 -2.4,2.81 -0.75,0.71 -1.54,1.37 -2.31,2.05 -0.11,0.1 -0.19,0.14 -0.32,0.03 -1.38,-1.17 -2.82,-2.26 -4.01,-3.64 -0.63,-0.72 -1.18,-1.5 -1.38,-2.46 -0.3,-1.41 0.38,-2.8 1.66,-3.36 1.3,-0.59 2.76,-0.2 3.62,0.98 0.14,0.19 0.18,0.17 0.31,-0.01 0.74,-1.04 1.76,-1.48 3.02,-1.23 1.23,0.24 1.99,1.02 2.29,2.23 0.06,0.21 0.06,0.44 0.08,0.66 0,0.7 -0.21,1.34 -0.56,1.94z"/>
  <path class="fil2" d="M828.16 66.23c-0.62,1.08 -1.49,1.97 -2.4,2.81 -0.75,0.71 -1.54,1.37 -2.31,2.05 -0.11,0.1 -0.18,0.14 -0.32,0.03 -1.38,-1.17 -2.82,-2.26 -4.01,-3.64 -0.63,-0.72 -1.18,-1.5 -1.38,-2.46 -0.3,-1.41 0.38,-2.8 1.66,-3.36 1.31,-0.59 2.77,-0.2 3.62,0.98 0.14,0.19 0.18,0.17 0.31,-0.01 0.75,-1.04 1.76,-1.48 3.02,-1.23 1.24,0.24 1.99,1.02 2.3,2.23 0.05,0.21 0.05,0.44 0.08,0.66 0,0.7 -0.22,1.34 -0.57,1.94z"/>
  <path class="fil2" d="M840.95 66.23c-0.63,1.08 -1.5,1.97 -2.4,2.81 -0.76,0.71 -1.55,1.37 -2.32,2.05 -0.1,0.1 -0.18,0.14 -0.31,0.03 -1.38,-1.17 -2.83,-2.26 -4.02,-3.64 -0.63,-0.72 -1.17,-1.5 -1.38,-2.46 -0.29,-1.41 0.39,-2.8 1.66,-3.36 1.31,-0.59 2.77,-0.2 3.62,0.98 0.14,0.19 0.18,0.17 0.31,-0.01 0.75,-1.04 1.77,-1.48 3.03,-1.23 1.23,0.24 1.99,1.02 2.29,2.23 0.06,0.21 0.06,0.44 0.08,0.66 0,0.7 -0.22,1.34 -0.56,1.94z"/>
 </g>
</svg>
