<?xml version="1.0" encoding="UTF-8"?>
<!DOCTYPE svg PUBLIC "-//W3C//DTD SVG 1.1//EN" "http://www.w3.org/Graphics/SVG/1.1/DTD/svg11.dtd">
<!-- Creator: CorelDRAW 2021.5 -->
<svg xmlns="http://www.w3.org/2000/svg" xml:space="preserve" width="137.92mm" height="279.518mm" version="1.1" style="shape-rendering:geometricPrecision; text-rendering:geometricPrecision; image-rendering:optimizeQuality; fill-rule:evenodd; clip-rule:evenodd"
viewBox="0 0 13801.07 27970.15"
 xmlns:xlink="http://www.w3.org/1999/xlink"
 xmlns:xodm="http://www.corel.com/coreldraw/odm/2003">
 <defs>
  <style type="text/css">
   <![CDATA[
    .fil2 {fill:none}
    .fil1 {fill:#ECEDEE;fill-rule:nonzero}
    .fil0 {fill:#F3F3F4;fill-rule:nonzero}
   ]]>
  </style>
   <clipPath id="id0">
    <path d="M-0 0l13801.07 0 0 27970.15 -13801.07 0 0 -27970.15z"/>
   </clipPath>
 </defs>
 <g id="Layer_x0020_1">
  <metadata id="CorelCorpID_0Corel-Layer"/>
  <g>
  </g>
  <g style="clip-path:url(#id0)">
   <g id="_1992904288048">
    <g>
     <polygon class="fil0" points="-118.67,42.29 -118.67,27993.65 13901.62,27993.65 13906.43,19688.06 13906.43,-56.54 "/>
     <path class="fil1" d="M-118.67 9789.5c97.07,-47.34 197.03,-90.96 299.1,-131.77 14.27,-5.7 30.19,-15.08 41.8,0.37 12.22,16.27 -5.3,27.59 -14.04,38.37 -36.99,45.67 -68.61,94.31 -89.64,148.73 -46.73,120.81 -7.66,225.39 108.64,289.29 55.91,30.71 115.04,54.51 178.23,67.72 179.23,37.49 358.32,75.69 537.78,112.12 399.59,81.1 688.61,289.33 875.94,613.98l8.63 -73.17c17.99,-152.11 36.16,-304.21 54.42,-456.28 0.94,-7.97 3.23,-15.78 4.77,-23.7 2.86,-14.83 25.25,-23.23 40.16,-14.58 42.86,24.84 85.08,50.72 128.4,74.76 108.47,60.13 217.18,119.88 326.28,178.9 35.93,19.45 72.61,37.39 100,66.26 -1.21,24.18 -16.1,38.44 -30.11,53.44 -78.24,83.8 -156.23,167.79 -234.41,251.64 -41.89,44.93 -83.04,90.53 -126.46,134.01 -13.9,13.92 -32.63,26.84 -51.56,31.97 -34.95,9.47 -70.05,18.7 -105.67,24.93 36.27,105.16 56.81,213.82 55.6,326.42 -0.83,77.91 -7.51,80.73 -75.43,43.37 -36.44,-20.07 -73.4,-39.59 -111.44,-56.6 -148.37,-66.29 -303.31,-105.71 -468.07,-98.07 -15.89,0.74 -65.28,-20.29 -41.28,33.31 11.33,6.23 24.33,10.68 33.74,18.95 404.23,354.87 635.52,781.78 578.44,1323.41 -16.76,159.01 -61.53,312.98 -149.03,452l-0.36 0.63c-32.6,91.78 -91.88,168.65 -151.02,244.78 -157.67,203 -350.29,369.66 -573.1,503.93 -16.93,18.12 -41.38,43.41 -60.88,32.23 -22.14,-12.69 8.02,-32.81 15.57,-49.67 66.97,-177.36 43.23,-346.02 -50.65,-508.69 -50.63,-87.71 -120.99,-160.43 -187.65,-236.06l-0.18 -0.54c-153.57,-129.44 -337.55,-207.74 -519.69,-289.41 -115.84,-51.94 -233.88,-99.53 -346.81,-157.25l0 -2969.73zm14025.09 0c-97.08,-47.34 -197.04,-90.97 -299.1,-131.77 -14.28,-5.7 -30.19,-15.08 -41.81,0.37 -12.21,16.27 5.31,27.58 14.04,38.37 36.99,45.67 68.61,94.31 89.65,148.73 46.72,120.81 7.66,225.39 -108.64,289.29 -55.91,30.71 -115.04,54.51 -178.24,67.72 -179.23,37.48 -358.32,75.68 -537.77,112.12 -399.59,81.1 -688.61,289.33 -875.95,613.98l-8.63 -73.17c-17.98,-152.11 -36.16,-304.21 -54.41,-456.28 -0.96,-7.97 -3.24,-15.78 -4.78,-23.7 -2.87,-14.82 -25.25,-23.23 -40.15,-14.58 -42.87,24.85 -85.1,50.72 -128.42,74.76 -108.45,60.13 -217.16,119.87 -326.27,178.9 -35.92,19.45 -72.6,37.39 -100,66.26 1.22,24.18 16.11,38.44 30.12,53.43 78.23,83.81 156.22,167.8 234.41,251.66 41.89,44.91 83.04,90.52 126.45,134 13.91,13.92 32.64,26.84 51.57,31.97 34.94,9.47 70.05,18.71 105.67,24.93 -36.28,105.15 -56.81,213.82 -55.61,326.42 0.84,77.91 7.52,80.73 75.44,43.38 36.44,-20.07 73.39,-39.6 111.43,-56.61 148.37,-66.29 303.31,-105.71 468.08,-98.07 15.88,0.74 65.27,-20.29 41.27,33.31 -11.32,6.23 -24.32,10.68 -33.74,18.95 -404.22,354.87 -635.51,781.78 -578.43,1323.41 16.76,159.01 61.53,312.98 149.02,452l0.36 0.63c32.61,91.78 91.89,168.65 151.02,244.78 157.68,203 350.29,369.65 573.1,503.93 16.93,18.12 41.39,43.4 60.89,32.23 22.13,-12.69 -8.03,-32.81 -15.57,-49.67 -66.97,-177.36 -43.24,-346.02 50.64,-508.69 50.63,-87.71 120.99,-160.43 187.66,-236.06l0.17 -0.54c153.57,-129.43 337.56,-207.74 519.71,-289.41 115.82,-51.94 233.87,-99.53 346.8,-157.25l0 -2969.73zm0 8428.23c-97.08,47.35 -197.04,90.98 -299.1,131.78 -14.28,5.7 -30.19,15.08 -41.81,-0.38 -12.21,-16.26 5.31,-27.58 14.04,-38.36 36.99,-45.67 68.61,-94.31 89.65,-148.72 46.72,-120.83 7.66,-225.41 -108.64,-289.3 -55.91,-30.71 -115.04,-54.5 -178.24,-67.72 -179.23,-37.48 -358.32,-75.69 -537.77,-112.13 -399.59,-81.1 -688.61,-289.32 -875.95,-613.97l-8.63 73.17c-17.98,152.12 -36.16,304.21 -54.41,456.29 -0.96,7.96 -3.24,15.77 -4.78,23.68 -2.87,14.84 -25.25,23.24 -40.15,14.58 -42.87,-24.83 -85.1,-50.71 -128.42,-74.75 -108.45,-60.13 -217.16,-119.87 -326.27,-178.91 -35.92,-19.45 -72.6,-37.38 -100,-66.25 1.22,-24.18 16.11,-38.44 30.12,-53.43 78.23,-83.81 156.22,-167.81 234.41,-251.65 41.89,-44.92 83.04,-90.53 126.45,-134.01 13.91,-13.93 32.64,-26.85 51.57,-31.96 34.94,-9.49 70.05,-18.71 105.67,-24.95 -36.28,-105.14 -56.81,-213.82 -55.61,-326.42 0.84,-77.91 7.52,-80.72 75.44,-43.36 36.44,20.07 73.39,39.6 111.43,56.6 148.37,66.29 303.31,105.71 468.08,98.07 15.88,-0.74 65.27,20.29 41.27,-33.31 -11.32,-6.23 -24.32,-10.68 -33.74,-18.96 -404.22,-354.87 -635.51,-781.77 -578.43,-1323.39 16.76,-159.02 61.53,-312.99 149.02,-452.01l0.36 -0.63c32.61,-91.78 91.89,-168.65 151.02,-244.78 157.68,-203.01 350.29,-369.65 573.1,-503.93 16.93,-18.11 41.39,-43.4 60.89,-32.23 22.13,12.69 -8.03,32.82 -15.57,49.67 -66.97,177.36 -43.24,346.03 50.64,508.68 50.63,87.73 120.99,160.44 187.66,236.07l0.17 0.53c153.57,129.45 337.56,207.76 519.71,289.42 115.82,51.94 233.87,99.53 346.8,157.25l0 2969.72zm-4337.49 -891.01c-27.39,28.87 -64.06,46.8 -100,66.25 -109.11,59.04 -217.8,118.78 -326.27,178.91 -43.34,24.04 -85.57,49.92 -128.42,74.75 -14.9,8.66 -37.27,0.26 -40.16,-14.58 -1.52,-7.91 -3.81,-15.72 -4.76,-23.68 -18.25,-152.08 -36.42,-304.17 -54.43,-456.29l-8.62 -73.19c-187.3,324.67 -476.33,532.89 -875.94,613.99 -179.48,36.44 -358.56,74.65 -537.77,112.13 -63.2,13.23 -122.34,37.01 -178.25,67.72 -116.29,63.89 -155.35,168.47 -108.63,289.3 21.03,54.41 52.65,103.05 89.66,148.72 8.72,10.78 26.24,22.09 14.02,38.36 -11.62,15.46 -27.53,6.08 -41.81,0.38 -128.07,-51.19 -252.8,-106.84 -372.73,-168.71l0 -2893.1c134.57,-76.72 279.16,-133.58 420.45,-196.94 182.14,-81.66 366.13,-159.98 519.7,-289.42l0.18 -0.53c66.66,-75.63 137.03,-148.34 187.64,-236.07 93.89,-162.66 117.63,-331.33 50.66,-508.68 -7.54,-16.85 -37.72,-36.98 -15.58,-49.67 19.5,-11.17 43.97,14.12 60.91,32.23 222.79,134.28 415.4,300.92 573.08,503.93 59.13,76.13 118.42,153 151.02,244.78l0.36 0.63c87.49,139.02 132.27,292.98 149.03,452.01 57.08,541.62 -174.22,968.52 -578.43,1323.39 -9.43,8.29 -22.42,12.73 -33.75,18.96 -24.01,53.61 25.39,32.57 41.28,33.31 164.77,7.64 319.7,-31.78 468.07,-98.07 38.04,-17 74.99,-36.52 111.45,-56.6 67.89,-37.36 74.59,-34.55 75.42,43.36 1.21,112.6 -19.34,221.29 -55.61,326.42 35.62,6.23 70.74,15.46 105.68,24.95 18.93,5.11 37.66,18.03 51.55,31.96 43.43,43.48 84.59,89.09 126.46,134.01 78.19,83.84 156.18,167.84 234.42,251.65 14.02,14.99 28.89,29.25 30.11,53.43zm868.5 2914.25c-38.36,34.22 -78.33,66.96 -119.68,97.72 -59.61,44.32 -121.05,86.51 -183.17,127.53 -107.63,71.06 -221.22,130.56 -349.47,160.15 -24.34,5.62 -48.62,12.65 -71.71,21.85 -46.9,18.68 -95.77,28.52 -145.55,36 -61.99,9.33 -123.82,19.8 -185.78,29.41 -13.82,2.16 -35.79,-12.26 -37.95,-25.06 -8.11,-47.83 -16.7,-95.62 -23.02,-143.67 -8.94,-68.08 -16.2,-136.4 -23.73,-204.65 -1.75,-15.96 -1.95,-32.11 -2.35,-48.16 -0.31,-13.32 14.28,-32.17 28.1,-36.85 11.79,-4 23.49,-8.74 35.62,-11.28 28.63,-5.96 57.29,-12.71 86.32,-15.7 75.38,-7.77 147.42,-28.32 220.05,-47.84 69.65,-18.71 132.77,-48.74 191.22,-88.63 68.29,-46.61 136.33,-93.62 203.3,-141.96 26.64,-19.23 51.04,-41.62 74.93,-64.07 83.84,-78.86 166.52,-158.87 250.64,-237.46 18.56,-17.35 36.05,-35.37 52.21,-54.37 16.19,18.99 33.68,37.01 52.23,54.37 84.13,78.58 166.82,158.59 250.65,237.46 23.88,22.45 48.28,44.84 74.91,64.07 66.98,48.34 135.02,95.35 203.32,141.96 58.46,39.89 121.57,69.92 191.21,88.63 72.64,19.52 144.68,40.08 220.06,47.84 29.02,2.99 57.69,9.74 86.3,15.7 12.16,2.54 23.86,7.27 35.64,11.28 13.83,4.68 28.4,23.54 28.08,36.85 -0.38,16.05 -0.58,32.2 -2.33,48.16 -7.51,68.25 -14.79,136.57 -23.74,204.65 -6.29,48.05 -14.91,95.84 -23.02,143.67 -2.16,12.8 -24.13,27.22 -37.95,25.06 -61.96,-9.61 -123.77,-20.08 -185.77,-29.41 -49.78,-7.48 -98.66,-17.32 -145.56,-36 -23.1,-9.21 -47.36,-16.23 -71.7,-21.85 -128.25,-29.59 -241.84,-89.09 -349.48,-160.15 -62.11,-41.03 -123.55,-83.21 -183.16,-127.53 -41.36,-30.76 -81.34,-63.5 -119.71,-97.72zm-536.32 693.45c3.12,-1.51 6.22,-3.06 9.31,-4.7 18.12,-9.56 38.72,-15.46 58.87,-20.53 36.24,-9.14 76.39,-9.9 108.87,-25.7 74.33,-36.18 151.36,-68.59 217.28,-119.64 32.6,-25.25 66.33,-49.43 101.31,-71.47 13.76,-8.68 27.32,-17.54 40.69,-26.61 13.41,9.07 26.96,17.93 40.72,26.61 34.97,22.03 68.71,46.22 101.31,71.47 65.91,51.05 142.94,83.45 217.27,119.64 32.49,15.8 72.63,16.56 108.88,25.7 20.13,5.07 40.75,10.98 58.87,20.53 3.07,1.64 6.18,3.19 9.3,4.7 -3.11,1.51 -6.22,3.07 -9.3,4.7 -18.12,9.57 -38.74,15.46 -58.87,20.54 -36.25,9.12 -76.39,9.88 -108.88,25.7 -74.33,36.16 -151.36,68.57 -217.27,119.64 -32.6,25.25 -66.33,49.41 -101.31,71.47 -13.76,8.67 -27.31,17.54 -40.72,26.61 -13.37,-9.07 -26.93,-17.94 -40.69,-26.61 -34.97,-22.05 -68.71,-46.22 -101.31,-71.47 -65.92,-51.07 -142.95,-83.47 -217.28,-119.64 -32.48,-15.82 -72.63,-16.58 -108.87,-25.7 -20.15,-5.08 -40.75,-10.98 -58.87,-20.54 -3.08,-1.63 -6.18,-3.19 -9.31,-4.7zm-524.94 -1074.66c-139.1,25.93 -132.6,29.98 -149.2,-100.21 -21.45,-168.29 -40.37,-336.87 -60.53,-505.32 -11.51,-96.26 -24.01,-192.43 -34.58,-288.8 -3.95,-35.98 -5.14,-72.44 -4.46,-108.64 0.19,-10.19 8.97,-25.11 18.08,-29.46 74.85,-35.7 150.71,-69.51 226.32,-103.74 18.89,-8.58 37.5,-18.1 57.17,-24.68 97.6,-32.68 154.46,-106.51 201.98,-188.3 34.75,-59.83 65.76,-121.76 96.8,-183.51 18.23,-36.26 37.36,-72.86 48.96,-111.3 50.26,-166.55 106.63,-332.07 110.67,-508.11 0.16,-6.76 7.19,-13.47 11.34,-20.02 5.46,-8.67 17.85,-5.55 31.63,7.87 8.83,8.59 17.94,16.97 26.35,25.97 95.2,101.98 190.31,204.05 285.42,306.1 65.1,69.85 129.82,140.03 195.32,209.52 65.52,-69.49 130.25,-139.67 195.34,-209.52 95.12,-102.05 190.22,-204.12 285.44,-306.1 8.4,-9 17.51,-17.38 26.34,-25.97 13.77,-13.42 26.16,-16.53 31.63,-7.87 4.14,6.55 11.16,13.26 11.32,20.02 4.05,176.05 60.42,341.56 110.69,508.11 11.6,38.45 30.74,75.04 48.96,111.3 31.03,61.75 62.04,123.68 96.8,183.51 47.52,81.79 104.36,155.62 201.99,188.3 19.64,6.57 38.25,16.1 57.16,24.68 75.61,34.23 151.46,68.03 226.32,103.74 9.12,4.35 17.89,19.27 18.07,29.46 0.68,36.2 -0.5,72.66 -4.46,108.64 -10.58,96.37 -23.09,192.54 -34.58,288.8 -20.15,168.45 -39.08,337.03 -60.53,505.32 -16.6,130.19 -10.08,126.13 -149.2,100.21 -99.31,-22.74 -198.81,-54.35 -286.16,-112.2 -117.2,-77.65 -234.87,-155.2 -331.49,-257.78 -11.24,-11.93 -23.77,-22.75 -35.82,-33.94 -159.61,-148.2 -268.25,-329.36 -355.58,-522.79 -20.31,-45 -36.87,-91.66 -52.23,-138.76 -15.34,47.1 -31.91,93.76 -52.21,138.76 -87.34,193.44 -195.97,374.6 -355.58,522.79 -12.06,11.19 -24.59,22.01 -35.82,33.94 -96.6,102.58 -214.29,180.13 -331.49,257.78 -87.35,57.86 -186.85,89.46 -286.16,112.2zm-549.03 -700.94c11.01,-27.98 20.44,-47.38 26.14,-67.76 5.68,-20.29 10.44,-42.34 -11.59,-57.97 -22.93,-16.28 -73.18,-22.51 -89.87,-8.09 -19.12,16.54 -39.7,34.55 -50.82,56.17 -50.74,98.49 -98.67,198.35 -146.8,298.11 -5.56,11.51 -5.93,25.37 -10.22,44.96 23.8,0.38 43.52,3.68 62.02,0.45 90.35,-15.78 180.41,-33.11 270.47,-50.43 11.65,-2.23 22.99,-6.85 33.87,-11.64 47.19,-20.71 71.11,-53.74 67.82,-92.63 -3.55,-42.33 -39.16,-84.85 -83.01,-97.05 -20.51,-5.69 -41.81,-8.78 -68.01,-14.11zm-1814.53 -524.76c-48.66,-11.37 -82.84,-22.04 -117.78,-26.82l0 233.88c4.54,1.99 9.15,3.79 13.8,5.36 174.85,59 351.41,113.34 527.8,168 20.38,6.29 43.6,4.07 77.22,6.73 -4.25,-37.16 -2.77,-68.58 -11.94,-96.73 -44.76,-137.6 -92.07,-274.42 -139.36,-411.25 -6.09,-17.68 -16.14,-34.4 -26.36,-50.4 -44.22,-69.3 -104.25,-99.84 -168.53,-86.81 -69.97,14.17 -133.7,78.32 -145.16,149.17 -5.34,33.13 -6.13,66.93 -9.7,108.86zm552.97 827.69c-103.2,-32.95 -199.74,-66.48 -297.97,-94.52 -125.5,-35.8 -249.63,-37.68 -372.78,-11.43l0 719.08c15.69,-32.98 31.38,-65.95 47.06,-98.93 16.41,-34.5 35.11,-68.62 57.52,-99.71 54.72,-75.97 114.15,-82.19 180.65,-18.34 101.07,97.07 138.18,208.49 85.74,343.93 -91.38,236.03 -179.9,473.09 -266.63,710.73 -2.65,7.26 -5.21,14.54 -7.72,21.86 2.5,7.3 5.06,14.6 7.72,21.85 86.73,237.65 175.25,474.72 266.63,710.75 52.44,135.44 15.33,246.83 -85.74,343.93 -66.49,63.85 -125.93,57.63 -180.65,-18.34 -22.4,-31.1 -41.11,-65.2 -57.52,-99.73 -15.68,-32.97 -31.37,-65.95 -47.06,-98.92l0 719.07c123.15,26.27 247.28,24.4 372.78,-11.42 98.22,-28.04 194.77,-61.57 297.97,-94.51 14.97,29.73 30.31,57.67 43.36,86.6 49.66,110.16 97.53,221.11 148.37,330.77 15.96,34.44 35.59,68.42 59.59,98.04 63.53,78.41 119.72,84.05 203.26,28.1 67.35,-45.12 104.06,-112.82 146.88,-176.68 108.28,-161.44 113.47,-328.12 36.01,-502.53 -129.12,-290.83 -262.79,-580.07 -380.85,-875.11 -71.35,-178.32 -174.15,-330.67 -309.64,-461.86 135.49,-131.21 238.3,-283.55 309.64,-461.87 118.06,-295.03 251.73,-584.26 380.85,-875.09 77.46,-174.43 72.27,-341.09 -36.01,-502.53 -42.82,-63.85 -79.52,-131.56 -146.88,-176.68 -83.54,-55.96 -139.73,-50.32 -203.26,28.09 -24,29.61 -43.63,63.61 -59.59,98.05 -50.83,109.66 -98.7,220.6 -148.37,330.77 -13.05,28.92 -28.39,56.87 -43.36,86.6zm1082.24 566.41c-76.39,-93.8 -179.94,-146 -297.45,-188.5 -115.7,169.86 -228.78,334.11 -340.04,499.51 -133.49,198.42 -266.97,396.83 -400.45,595.25 133.49,198.41 266.97,396.84 400.45,595.26 111.26,165.39 224.35,329.65 340.04,499.51 117.51,-42.51 221.06,-94.7 297.45,-188.5 -44.8,-10.3 -91.69,-15.77 -133.66,-32.67 -25.66,-10.34 -48.65,-35.12 -64.47,-58.65 -182.19,-271.17 -364.26,-542.45 -544.31,-814.95 180.05,-272.49 362.12,-543.78 544.31,-814.94 15.82,-23.55 38.82,-48.32 64.47,-58.65 41.97,-16.9 88.86,-22.38 133.66,-32.67zm-26.05 906.26c182.99,-209.18 365.97,-418.35 548.95,-627.54 45.92,-52.51 88.98,-107.36 139.22,-168.2 -73.3,-38.53 -144.32,-34.76 -212.8,-41.87 -13.54,26.14 -23.02,55.36 -41.35,77.83 -67.48,82.64 -136.93,163.89 -207.42,244.2 -151.1,172.18 -302.99,343.72 -454.5,515.58 151.51,171.86 303.4,343.4 454.5,515.59 70.49,80.31 139.93,161.54 207.42,244.2 18.33,22.47 27.81,51.69 41.35,77.82 68.47,-7.09 139.5,-3.34 212.8,-41.88 -50.24,-60.84 -93.3,-115.68 -139.22,-168.18 -182.98,-209.19 -365.96,-418.36 -548.95,-627.55zm1388.21 -4587.68c-83.62,15.46 -152.63,52.74 -227.78,96.39 20.94,8.26 32.74,12.96 44.59,17.59 150.33,58.88 142.78,69.47 188.36,-96.44 0.56,-2.05 -1.28,-4.72 -5.17,-17.54zm427.45 -133.39c-82.9,196.12 -210.83,468.1 -267.95,559.62 -264.92,-123.64 -530.54,-247.59 -796.16,-371.54l1.16 -18.48 1062.95 -353.5 1062.98 353.5 1.15 18.48c-265.61,123.95 -531.24,247.9 -796.16,371.54 -57.12,-91.52 -185.05,-363.5 -267.97,-559.62zm-293.61 -680.35l13.29 13.21 280.32 -80.14 280.33 80.14 13.3 -13.21c-11.41,-28.47 -20.31,-58.17 -34.61,-85.21 -85.74,-162.24 -172.52,-323.95 -259.02,-485.83 -86.47,161.88 -173.25,323.59 -259.01,485.83 -14.28,27.04 -23.2,56.74 -34.6,85.21zm293.61 344.04c-431.29,123.46 -862.61,246.86 -1293.97,370.14 -61.88,17.69 -124.47,33.1 -185.24,49.18 -36.44,-42.38 -27.02,-82.19 -7.28,-121.37 28.51,-56.51 58.48,-112.32 87.91,-168.4 323.51,-616.87 646.95,-1233.79 970.82,-1850.51 20.4,-38.84 44.04,-76.08 69.53,-119.82 43.82,18.64 84.3,32.8 121.83,52.25 78.81,40.86 157.62,81.72 236.42,122.59 78.83,-40.87 157.63,-81.73 236.45,-122.59 37.51,-19.45 77.99,-33.61 121.83,-52.25 25.48,43.74 49.12,80.98 69.53,119.82 323.85,616.72 647.31,1233.64 970.83,1850.51 29.41,56.08 59.38,111.89 87.88,168.4 19.74,39.18 29.18,78.99 -7.26,121.37 -60.78,-16.08 -123.37,-31.49 -185.26,-49.18 -431.34,-123.28 -862.67,-246.68 -1293.98,-370.14zm-3543.56 7289.85l0.95 0 0 -139.18c4.54,-1.98 9.15,-3.78 13.8,-5.35 174.85,-59 351.41,-113.33 527.8,-167.99 20.38,-6.31 43.6,-4.08 77.22,-6.75 -4.25,37.17 -2.77,68.58 -11.94,96.75 -24.2,74.35 -49.13,148.5 -74.4,222.53l1172.34 0 0 1263.39c122.37,96.8 224.34,216.98 306.63,359.66l8.62 -73.19c18,-152.11 36.17,-304.2 54.43,-456.27 0.95,-7.97 3.24,-15.78 4.76,-23.7 2.88,-14.82 25.26,-23.22 40.16,-14.59 42.86,24.85 85.09,50.73 128.42,74.76 108.47,60.14 217.16,119.88 326.27,178.92 35.93,19.45 72.61,37.38 100,66.25 -1.22,24.18 -16.09,38.43 -30.11,53.42 -78.24,83.81 -156.23,167.8 -234.42,251.66 -41.88,44.92 -83.03,90.54 -126.46,134.02 -13.89,13.92 -32.62,26.82 -51.55,31.96 -34.94,9.48 -70.06,18.7 -105.68,24.94 36.26,105.14 56.82,213.81 55.61,326.41 -0.83,77.91 -7.52,80.74 -75.42,43.38 -36.46,-20.07 -73.41,-39.61 -111.45,-56.6 -93.71,-41.88 -190.02,-73.02 -289.79,-88.37l0 224.74c286.98,317.06 440.25,689.18 392.63,1141.22 -16.76,158.99 -61.54,312.99 -149.03,452.01l-0.36 0.62c-32.6,91.79 -91.89,168.66 -151.02,244.79 -29.52,38.01 -60.27,74.74 -92.22,110.24l0 557.1 -1705.77 0 -1705.77 0 0 -557.1c-31.94,-35.49 -62.7,-72.23 -92.23,-110.24 -59.13,-76.14 -118.43,-153 -151.01,-244.79l-0.36 -0.62c-87.49,-139.02 -132.27,-293.01 -149.03,-452 -47.64,-452.05 105.64,-824.16 392.63,-1141.23l0 -224.74c-99.76,15.35 -196.09,46.49 -289.79,88.37 -38.05,16.99 -74.99,36.52 -111.45,56.6 -67.89,37.36 -74.59,34.53 -75.43,-43.39 -1.2,-112.59 19.34,-221.27 55.6,-326.4 -35.61,-6.23 -70.72,-15.46 -105.66,-24.94 -18.93,-5.14 -37.66,-18.04 -51.56,-31.96 -43.42,-43.48 -84.59,-89.1 -126.45,-134.02 -78.2,-83.85 -156.19,-167.85 -234.43,-251.66 -14,-14.99 -28.88,-29.24 -30.11,-53.42 27.4,-28.87 64.06,-46.8 100,-66.25 109.12,-59.04 217.81,-118.78 326.28,-178.92 43.33,-24.03 85.56,-49.91 128.41,-74.76 14.9,-8.63 37.28,-0.23 40.16,14.59 1.53,7.92 3.82,15.73 4.77,23.7 18.24,152.07 36.42,304.17 54.42,456.27l8.62 73.19c82.3,-142.67 184.27,-262.86 306.64,-359.66l0 -1263.39 1172.35 0c-25.29,-74.03 -50.21,-148.18 -74.41,-222.53 -9.18,-28.17 -7.69,-59.59 -11.94,-96.75 33.62,2.68 56.84,0.44 77.21,6.75 176.39,54.66 352.95,108.99 527.81,167.99 4.65,1.57 9.25,3.37 13.8,5.36l0 139.17 0.95 0zm3543.56 -1539.02c-38.36,-34.21 -78.33,-66.96 -119.68,-97.71 -59.61,-44.33 -121.05,-86.51 -183.17,-127.53 -107.63,-71.06 -221.22,-130.56 -349.47,-160.15 -24.34,-5.62 -48.62,-12.65 -71.71,-21.85 -46.9,-18.68 -95.77,-28.53 -145.55,-36.01 -61.99,-9.33 -123.82,-19.8 -185.78,-29.42 -13.82,-2.14 -35.79,12.28 -37.95,25.07 -8.11,47.82 -16.7,95.62 -23.02,143.67 -8.94,68.08 -16.2,136.39 -23.73,204.64 -1.75,15.96 -1.95,32.1 -2.35,48.18 -0.31,13.31 14.28,32.17 28.1,36.84 11.79,4 23.49,8.75 35.62,11.28 28.63,5.95 57.29,12.71 86.32,15.7 75.38,7.77 147.42,28.33 220.05,47.84 69.65,18.71 132.77,48.75 191.22,88.63 68.29,46.6 136.33,93.62 203.3,141.97 26.64,19.21 51.04,41.61 74.93,64.07 83.84,78.86 166.52,158.87 250.64,237.46 18.56,17.34 36.05,35.37 52.21,54.36 16.19,-18.98 33.68,-37.01 52.23,-54.36 84.13,-78.58 166.82,-158.59 250.65,-237.46 23.88,-22.46 48.28,-44.86 74.91,-64.07 66.98,-48.35 135.02,-95.37 203.32,-141.97 58.46,-39.88 121.57,-69.92 191.21,-88.63 72.64,-19.51 144.68,-40.08 220.06,-47.84 29.02,-2.99 57.69,-9.75 86.3,-15.7 12.16,-2.53 23.86,-7.27 35.64,-11.28 13.83,-4.67 28.4,-23.54 28.08,-36.84 -0.38,-16.08 -0.58,-32.22 -2.33,-48.18 -7.51,-68.25 -14.79,-136.56 -23.74,-204.64 -6.29,-48.05 -14.91,-95.85 -23.02,-143.67 -2.16,-12.79 -24.13,-27.21 -37.95,-25.07 -61.96,9.62 -123.77,20.09 -185.77,29.42 -49.78,7.48 -98.66,17.33 -145.56,36.01 -23.1,9.21 -47.36,16.23 -71.7,21.85 -128.25,29.59 -241.84,89.09 -349.48,160.15 -62.11,41.03 -123.55,83.2 -183.16,127.53 -41.36,30.75 -81.34,63.5 -119.71,97.71zm-1061.27 381.22c-139.1,-25.94 -132.6,-29.99 -149.2,100.21 -21.45,168.29 -40.37,336.86 -60.53,505.32 -11.51,96.26 -24.01,192.43 -34.58,288.78 -3.95,35.99 -5.14,72.45 -4.46,108.65 0.19,10.18 8.97,25.11 18.08,29.45 74.85,35.72 150.71,69.52 226.32,103.75 18.89,8.57 37.5,18.11 57.17,24.69 97.6,32.66 154.46,106.5 201.98,188.28 34.75,59.85 65.76,121.77 96.8,183.53 18.23,36.25 37.36,72.86 48.96,111.3 50.26,166.54 106.63,332.06 110.67,508.11 0.16,6.74 7.19,13.47 11.34,20 5.46,8.68 17.85,5.56 31.63,-7.85 8.83,-8.62 17.94,-16.98 26.35,-25.98 95.2,-101.97 190.31,-204.05 285.42,-306.1 65.1,-69.85 129.82,-140.04 195.32,-209.51 65.52,69.47 130.25,139.66 195.34,209.51 95.12,102.05 190.22,204.13 285.44,306.1 8.4,9 17.51,17.36 26.34,25.98 13.77,13.41 26.16,16.52 31.63,7.85 4.14,-6.53 11.16,-13.26 11.32,-20 4.05,-176.06 60.42,-341.57 110.69,-508.11 11.6,-38.45 30.74,-75.05 48.96,-111.3 31.03,-61.76 62.04,-123.68 96.8,-183.53 47.52,-81.78 104.36,-155.62 201.99,-188.28 19.64,-6.57 38.25,-16.12 57.16,-24.69 75.61,-34.23 151.46,-68.02 226.32,-103.75 9.12,-4.34 17.89,-19.27 18.07,-29.45 0.68,-36.2 -0.5,-72.66 -4.46,-108.65 -10.58,-96.35 -23.09,-192.52 -34.58,-288.78 -20.15,-168.46 -39.08,-337.03 -60.53,-505.32 -16.6,-130.2 -10.08,-126.14 -149.2,-100.21 -99.31,22.73 -198.81,54.34 -286.16,112.19 -117.2,77.65 -234.87,155.18 -331.49,257.79 -11.24,11.93 -23.77,22.73 -35.82,33.92 -159.61,148.2 -268.25,329.36 -355.58,522.8 -20.31,45.01 -36.87,91.66 -52.23,138.76 -15.34,-47.1 -31.91,-93.75 -52.21,-138.76 -87.34,-193.45 -195.97,-374.61 -355.58,-522.8 -12.06,-11.19 -24.59,-21.99 -35.82,-33.92 -96.6,-102.61 -214.29,-180.14 -331.49,-257.79 -87.35,-57.86 -186.85,-89.46 -286.16,-112.19zm-549.03 700.92c11.01,27.99 20.44,47.38 26.14,67.76 5.68,20.31 10.44,42.36 -11.59,57.99 -22.93,16.28 -73.18,22.51 -89.87,8.07 -19.12,-16.52 -39.7,-34.55 -50.82,-56.16 -50.74,-98.49 -98.67,-198.35 -146.8,-298.1 -5.56,-11.53 -5.93,-25.38 -10.22,-44.99 23.8,-0.35 43.52,-3.65 62.02,-0.42 90.35,15.76 180.41,33.1 270.47,50.42 11.65,2.22 22.99,6.86 33.87,11.64 47.19,20.71 71.11,53.75 67.82,92.64 -3.55,42.33 -39.16,84.84 -83.01,97.03 -20.51,5.71 -41.81,8.78 -68.01,14.11zm1182.85 2812.1c-83.62,-15.45 -152.63,-52.73 -227.78,-96.38 20.94,-8.27 32.74,-12.97 44.59,-17.61 150.33,-58.87 142.78,-69.47 188.36,96.44 0.56,2.05 -1.28,4.73 -5.17,17.55zm427.45 133.4c-82.9,-196.13 -210.83,-468.12 -267.95,-559.63 -264.92,123.64 -530.54,247.58 -796.16,371.53l1.16 18.49 1062.95 353.5 1062.98 -353.5 1.15 -18.49c-265.61,-123.95 -531.24,-247.89 -796.16,-371.53 -57.12,91.51 -185.05,363.5 -267.97,559.63zm-293.61 680.35l13.29 -13.22 280.32 80.14 280.33 -80.14 13.3 13.22c-11.41,28.46 -20.31,58.16 -34.61,85.2 -85.74,162.24 -172.52,323.96 -259.02,485.83 -86.47,-161.87 -173.25,-323.59 -259.01,-485.83 -14.28,-27.04 -23.2,-56.74 -34.6,-85.2zm293.61 -344.05c-431.29,-123.46 -862.61,-246.85 -1293.97,-370.13 -61.88,-17.7 -124.47,-33.11 -185.24,-49.2 -36.44,42.38 -27.02,82.21 -7.28,121.37 28.51,56.51 58.48,112.34 87.91,168.42 323.51,616.87 646.95,1233.78 970.82,1850.51 20.4,38.83 44.04,76.07 69.53,119.8 43.82,-18.62 84.3,-32.78 121.83,-52.23 78.81,-40.86 157.62,-81.72 236.42,-122.6 78.83,40.88 157.63,81.74 236.45,122.6 37.51,19.45 77.99,33.61 121.83,52.23 25.48,-43.73 49.12,-80.97 69.53,-119.8 323.85,-616.73 647.31,-1233.64 970.83,-1850.51 29.41,-56.08 59.38,-111.91 87.88,-168.42 19.74,-39.16 29.18,-78.99 -7.26,-121.37 -60.78,16.09 -123.37,31.5 -185.26,49.2 -431.34,123.28 -862.67,246.67 -1293.98,370.13zm3468.99 -2340.69c-97.08,-47.35 -197.04,-90.97 -299.1,-131.77 -14.28,-5.7 -30.19,-15.1 -41.81,0.36 -12.21,16.26 5.31,27.57 14.04,38.37 36.99,45.68 68.61,94.31 89.65,148.72 46.72,120.83 7.66,225.41 -108.64,289.3 -55.91,30.72 -115.04,54.5 -178.24,67.7 -179.23,37.51 -358.32,75.71 -537.77,112.12 -399.59,81.12 -688.62,289.34 -875.95,614.01l-8.63 -73.19c-17.98,-152.11 -36.16,-304.2 -54.41,-456.27 -0.96,-7.97 -3.24,-15.78 -4.78,-23.7 -2.87,-14.82 -25.25,-23.22 -40.15,-14.59 -42.87,24.85 -85.1,50.73 -128.42,74.76 -108.45,60.14 -217.16,119.88 -326.27,178.92 -35.92,19.45 -72.6,37.38 -100,66.25 1.22,24.18 16.11,38.43 30.12,53.42 78.23,83.81 156.22,167.8 234.41,251.66 41.89,44.92 83.04,90.54 126.45,134.02 13.91,13.92 32.64,26.82 51.57,31.96 34.94,9.48 70.05,18.7 105.67,24.94 -36.28,105.14 -56.81,213.81 -55.61,326.41 0.84,77.91 7.52,80.74 75.44,43.38 36.44,-20.07 73.39,-39.61 111.43,-56.6 148.37,-66.29 303.31,-105.71 468.08,-98.08 15.88,0.74 65.27,-20.28 41.27,33.3 -11.32,6.23 -24.32,10.69 -33.74,18.97 -404.22,354.87 -635.51,781.76 -578.43,1323.4 16.76,158.99 61.53,312.99 149.02,452.01l0.36 0.62c32.61,91.79 91.89,168.66 151.02,244.79 157.68,202.99 350.29,369.64 573.1,503.92 16.93,18.12 41.39,43.41 60.89,32.23 22.13,-12.7 -8.03,-32.82 -15.57,-49.67 -66.97,-177.36 -43.24,-346.04 50.64,-508.68 50.63,-87.74 120.99,-160.44 187.66,-236.06l0.17 -0.56c153.57,-129.43 337.56,-207.75 519.71,-289.4 115.82,-51.94 233.87,-99.53 346.8,-157.24l0 -2969.73zm0 -405.47c-13.5,-3.42 -28.02,-7.11 -44.14,-10.87 -3.56,41.92 -4.34,75.74 -9.69,108.87 -11.45,70.85 -75.19,135 -145.16,149.16 -64.29,13.04 -124.32,-17.51 -168.54,-86.82 -10.22,-15.99 -20.25,-32.71 -26.37,-50.4 -47.27,-136.81 -94.58,-273.64 -139.35,-411.23 -9.17,-28.18 -7.68,-59.58 -11.93,-96.75 33.61,2.67 56.83,0.44 77.21,6.75 156.3,48.42 312.72,96.58 467.96,147.99l0 243.3zm0 -720.32c-98.98,11.89 -198.62,4.96 -299.14,-23.72 -98.23,-28.04 -194.79,-61.57 -297.98,-94.51 -14.96,29.73 -30.32,57.67 -43.36,86.6 -49.66,110.16 -97.53,221.11 -148.36,330.77 -15.96,34.44 -35.59,68.42 -59.6,98.04 -63.52,78.41 -119.71,84.05 -203.25,28.1 -67.36,-45.12 -104.07,-112.82 -146.9,-176.68 -108.27,-161.44 -113.47,-328.12 -36,-502.53 129.11,-290.83 262.8,-580.07 380.86,-875.11 71.34,-178.32 174.13,-330.67 309.64,-461.86 -135.51,-131.21 -238.31,-283.55 -309.64,-461.87 -118.06,-295.03 -251.75,-584.26 -380.86,-875.09 -77.47,-174.43 -72.27,-341.09 36,-502.53 42.83,-63.85 79.53,-131.56 146.9,-176.68 83.54,-55.96 139.73,-50.32 203.25,28.09 24.01,29.61 43.64,63.61 59.6,98.05 50.82,109.66 98.69,220.6 148.36,330.77 13.04,28.92 28.4,56.87 43.36,86.6 103.19,-32.95 199.74,-66.48 297.98,-94.52 100.52,-28.68 200.16,-35.6 299.14,-23.72l0 581.18c-9.52,-16.68 -19.76,-32.95 -30.95,-48.45 -54.71,-75.97 -114.14,-82.19 -180.63,-18.34 -101.08,97.07 -138.19,208.49 -85.74,343.93 91.39,236.03 179.9,473.09 266.62,710.73 2.65,7.26 5.21,14.54 7.72,21.86 -2.5,7.3 -5.06,14.6 -7.72,21.85 -86.72,237.65 -175.23,474.72 -266.62,710.75 -52.45,135.44 -15.34,246.83 85.74,343.93 66.48,63.85 125.92,57.63 180.63,-18.34 11.19,-15.52 21.43,-31.77 30.95,-48.45l0 581.17zm0 -3902.13c-13.5,3.42 -28.02,7.11 -44.14,10.87 -3.56,-41.93 -4.34,-75.73 -9.69,-108.86 -11.45,-70.85 -75.19,-135 -145.16,-149.17 -64.29,-13.03 -124.32,17.51 -168.54,86.81 -10.22,16 -20.25,32.72 -26.37,50.4 -47.27,136.83 -94.58,273.65 -139.35,411.25 -9.17,28.16 -7.68,59.57 -11.93,96.73 33.61,-2.66 56.83,-0.44 77.21,-6.73 156.3,-48.42 312.72,-96.6 467.96,-148l0 -243.3zm-1858.67 4086.81c-11.01,27.99 -20.44,47.38 -26.15,67.76 -5.66,20.31 -10.43,42.36 11.6,57.99 22.94,16.28 73.19,22.51 89.88,8.07 19.12,-16.52 39.7,-34.55 50.82,-56.16 50.74,-98.49 98.67,-198.35 146.79,-298.1 5.56,-11.53 5.94,-25.38 10.23,-44.99 -23.82,-0.35 -43.53,-3.65 -62.02,-0.42 -90.36,15.76 -180.42,33.1 -270.49,50.42 -11.64,2.22 -22.97,6.86 -33.87,11.64 -47.17,20.71 -71.09,53.75 -67.8,92.64 3.54,42.33 39.15,84.84 83.01,97.03 20.49,5.71 41.8,8.78 68,14.11zm179.33 -869.32c76.39,93.8 179.93,146 297.44,188.5 115.7,-169.86 228.79,-334.12 340.04,-499.51 133.48,-198.42 266.99,-396.85 400.46,-595.26 -133.48,-198.42 -266.99,-396.83 -400.46,-595.25 -111.25,-165.4 -224.35,-329.65 -340.04,-499.51 -117.51,42.51 -221.05,94.7 -297.44,188.5 44.81,10.29 91.69,15.77 133.66,32.67 25.65,10.33 48.66,35.1 64.45,58.65 182.21,271.16 364.27,542.45 544.32,814.94 -180.05,272.5 -362.11,543.78 -544.32,814.95 -15.79,23.53 -38.81,48.31 -64.45,58.65 -41.97,16.9 -88.85,22.37 -133.66,32.67zm26.03 -906.27c-182.98,209.19 -365.95,418.36 -548.92,627.55 -45.93,52.5 -88.99,107.34 -139.24,168.18 73.31,38.54 144.33,34.78 212.8,41.88 13.55,-26.13 23.02,-55.35 41.36,-77.82 67.48,-82.66 136.92,-163.89 207.42,-244.2 151.1,-172.19 302.99,-343.73 454.51,-515.59 -151.52,-171.86 -303.41,-343.4 -454.51,-515.58 -70.5,-80.31 -139.93,-161.56 -207.42,-244.2 -18.34,-22.47 -27.81,-51.69 -41.36,-77.83 -68.46,7.1 -139.49,3.34 -212.8,41.87 50.25,60.84 93.31,115.69 139.24,168.2 182.97,209.19 365.94,418.36 548.92,627.54zm-1388.18 4587.68c83.61,-15.45 152.62,-52.73 227.76,-96.38 -20.92,-8.27 -32.73,-12.97 -44.59,-17.61 -150.33,-58.87 -142.78,-69.47 -188.36,96.44 -0.55,2.05 1.29,4.73 5.19,17.55zm1182.83 -6363.28c-11.01,-27.98 -20.44,-47.38 -26.15,-67.76 -5.66,-20.29 -10.43,-42.34 11.6,-57.97 22.94,-16.28 73.19,-22.51 89.88,-8.09 19.12,16.54 39.7,34.55 50.82,56.17 50.74,98.49 98.67,198.35 146.79,298.11 5.56,11.51 5.94,25.37 10.23,44.96 -23.82,0.38 -43.53,3.68 -62.02,0.45 -90.36,-15.78 -180.42,-33.11 -270.49,-50.43 -11.64,-2.23 -22.97,-6.85 -33.87,-11.64 -47.17,-20.71 -71.09,-53.74 -67.8,-92.63 3.54,-42.33 39.15,-84.85 83.01,-97.05 20.49,-5.69 41.8,-8.78 68,-14.11zm-1182.83 -2812.09c83.61,15.46 152.62,52.74 227.76,96.39 -20.92,8.26 -32.73,12.96 -44.59,17.59 -150.33,58.88 -142.78,69.47 -188.36,-96.44 -0.55,-2.05 1.29,-4.72 5.19,-17.54zm-1295.99 -5666.22c-27.39,-28.87 -64.06,-46.81 -100,-66.26 -109.11,-59.03 -217.8,-118.77 -326.27,-178.9 -43.34,-24.04 -85.57,-49.91 -128.42,-74.76 -14.9,-8.65 -37.27,-0.24 -40.16,14.58 -1.52,7.92 -3.81,15.73 -4.76,23.7 -18.25,152.07 -36.42,304.17 -54.43,456.28l-8.62 73.19c-187.3,-324.67 -476.33,-532.9 -875.94,-614 -179.48,-36.44 -358.56,-74.64 -537.77,-112.12 -63.2,-13.22 -122.34,-37.01 -178.25,-67.72 -116.29,-63.9 -155.35,-168.48 -108.63,-289.29 21.03,-54.42 52.65,-103.06 89.66,-148.73 8.72,-10.79 26.24,-22.09 14.02,-38.37 -11.62,-15.45 -27.53,-6.07 -41.81,-0.37 -128.07,51.19 -252.8,106.84 -372.73,168.71l0 2893.1c134.57,76.72 279.16,133.59 420.45,196.94 182.14,81.67 366.13,159.99 519.7,289.41l0.18 0.54c66.66,75.63 137.03,148.35 187.64,236.06 93.89,162.68 117.63,331.34 50.66,508.69 -7.54,16.86 -37.72,36.98 -15.58,49.67 19.5,11.17 43.97,-14.11 60.91,-32.23 222.79,-134.28 415.4,-300.93 573.08,-503.93 59.13,-76.13 118.42,-153 151.02,-244.78l0.36 -0.63c87.49,-139.02 132.27,-292.98 149.03,-452 57.08,-541.63 -174.22,-968.54 -578.43,-1323.41 -9.43,-8.28 -22.42,-12.72 -33.75,-18.95 -24.01,-53.61 25.39,-32.57 41.28,-33.31 164.77,-7.64 319.7,31.78 468.07,98.07 38.04,17.01 74.99,36.53 111.45,56.61 67.89,37.35 74.59,34.53 75.42,-43.38 1.21,-112.6 -19.34,-221.28 -55.61,-326.42 35.62,-6.21 70.74,-15.46 105.68,-24.93 18.93,-5.13 37.66,-18.05 51.55,-31.97 43.43,-43.48 84.59,-89.09 126.46,-134 78.19,-83.86 156.18,-167.85 234.42,-251.66 14.02,-14.99 28.89,-29.25 30.11,-53.43zm868.5 -2914.25c-38.36,-34.22 -78.33,-66.96 -119.68,-97.71 -59.61,-44.33 -121.05,-86.51 -183.17,-127.54 -107.63,-71.05 -221.22,-130.56 -349.47,-160.15 -24.34,-5.62 -48.62,-12.65 -71.71,-21.84 -46.9,-18.69 -95.77,-28.54 -145.55,-36.01 -61.99,-9.33 -123.82,-19.8 -185.78,-29.41 -13.82,-2.16 -35.79,12.27 -37.95,25.07 -8.11,47.82 -16.7,95.61 -23.02,143.66 -8.94,68.09 -16.2,136.39 -23.73,204.65 -1.75,15.95 -1.95,32.1 -2.35,48.17 -0.31,13.32 14.28,32.17 28.1,36.84 11.79,4 23.49,8.74 35.62,11.28 28.63,5.96 57.29,12.71 86.32,15.7 75.38,7.78 147.42,28.33 220.05,47.85 69.65,18.7 132.77,48.73 191.22,88.61 68.29,46.62 136.33,93.63 203.3,141.98 26.64,19.22 51.04,41.61 74.93,64.06 83.84,78.86 166.52,158.87 250.64,237.46 18.56,17.35 36.05,35.37 52.21,54.38 16.19,-19 33.68,-37.02 52.23,-54.38 84.13,-78.58 166.82,-158.59 250.65,-237.46 23.88,-22.45 48.28,-44.84 74.91,-64.06 66.98,-48.35 135.02,-95.36 203.32,-141.98 58.46,-39.88 121.57,-69.91 191.21,-88.61 72.64,-19.52 144.68,-40.08 220.06,-47.85 29.02,-2.99 57.69,-9.74 86.3,-15.7 12.16,-2.54 23.86,-7.27 35.64,-11.28 13.83,-4.67 28.4,-23.53 28.08,-36.84 -0.38,-16.07 -0.58,-32.22 -2.33,-48.17 -7.51,-68.26 -14.79,-136.56 -23.74,-204.65 -6.29,-48.05 -14.91,-95.84 -23.02,-143.66 -2.16,-12.8 -24.13,-27.23 -37.95,-25.07 -61.96,9.61 -123.77,20.08 -185.77,29.41 -49.78,7.47 -98.66,17.32 -145.56,36.01 -23.1,9.2 -47.36,16.22 -71.7,21.84 -128.25,29.59 -241.84,89.1 -349.48,160.15 -62.11,41.04 -123.55,83.21 -183.16,127.54 -41.36,30.75 -81.34,63.49 -119.71,97.71zm-536.32 -693.46c3.12,1.53 6.22,3.08 9.31,4.71 18.12,9.56 38.72,15.46 58.87,20.52 36.24,9.16 76.39,9.92 108.87,25.71 74.33,36.19 151.36,68.59 217.28,119.64 32.6,25.25 66.33,49.44 101.31,71.47 13.76,8.68 27.32,17.55 40.69,26.61 13.41,-9.06 26.96,-17.93 40.72,-26.61 34.97,-22.02 68.71,-46.22 101.31,-71.47 65.91,-51.05 142.94,-83.44 217.27,-119.64 32.49,-15.79 72.63,-16.55 108.88,-25.71 20.13,-5.06 40.75,-10.97 58.87,-20.52 3.07,-1.63 6.18,-3.18 9.3,-4.71 -3.11,-1.51 -6.22,-3.06 -9.3,-4.68 -18.12,-9.58 -38.74,-15.48 -58.87,-20.55 -36.25,-9.12 -76.39,-9.88 -108.88,-25.7 -74.33,-36.16 -151.36,-68.57 -217.27,-119.64 -32.6,-25.24 -66.33,-49.41 -101.31,-71.46 -13.76,-8.68 -27.31,-17.55 -40.72,-26.61 -13.37,9.06 -26.93,17.93 -40.69,26.61 -34.97,22.04 -68.71,46.22 -101.31,71.46 -65.92,51.07 -142.95,83.47 -217.28,119.64 -32.48,15.82 -72.63,16.58 -108.87,25.7 -20.15,5.07 -40.75,10.98 -58.87,20.55 -3.08,1.62 -6.18,3.17 -9.31,4.68zm-524.94 1074.67c-139.1,-25.93 -132.6,-29.97 -149.2,100.2 -21.45,168.3 -40.37,336.89 -60.53,505.33 -11.51,96.27 -24.01,192.43 -34.58,288.8 -3.95,35.98 -5.14,72.44 -4.46,108.64 0.19,10.18 8.97,25.11 18.08,29.46 74.85,35.7 150.71,69.51 226.32,103.75 18.89,8.57 37.5,18.08 57.17,24.67 97.6,32.68 154.46,106.51 201.98,188.3 34.75,59.83 65.76,121.75 96.8,183.52 18.23,36.25 37.36,72.85 48.96,111.29 50.26,166.55 106.63,332.07 110.67,508.12 0.16,6.75 7.19,13.47 11.34,20.02 5.46,8.65 17.85,5.54 31.63,-7.88 8.83,-8.6 17.94,-16.97 26.35,-25.97 95.2,-101.98 190.31,-204.04 285.42,-306.1 65.1,-69.85 129.82,-140.04 195.32,-209.52 65.52,69.48 130.25,139.67 195.34,209.52 95.12,102.06 190.22,204.12 285.44,306.1 8.4,9 17.51,17.37 26.34,25.97 13.77,13.42 26.16,16.52 31.63,7.88 4.14,-6.55 11.16,-13.27 11.32,-20.02 4.05,-176.06 60.42,-341.57 110.69,-508.12 11.6,-38.45 30.74,-75.04 48.96,-111.29 31.03,-61.77 62.04,-123.69 96.8,-183.52 47.52,-81.79 104.36,-155.62 201.99,-188.3 19.64,-6.58 38.25,-16.1 57.16,-24.67 75.61,-34.24 151.46,-68.04 226.32,-103.75 9.12,-4.35 17.89,-19.28 18.07,-29.46 0.68,-36.2 -0.5,-72.66 -4.46,-108.64 -10.58,-96.37 -23.09,-192.53 -34.58,-288.8 -20.15,-168.44 -39.08,-337.03 -60.53,-505.33 -16.6,-130.17 -10.08,-126.12 -149.2,-100.2 -99.31,22.75 -198.81,54.35 -286.16,112.2 -117.2,77.65 -234.87,155.2 -331.49,257.77 -11.24,11.94 -23.77,22.76 -35.82,33.94 -159.61,148.21 -268.25,329.37 -355.58,522.81 -20.31,45 -36.87,91.66 -52.23,138.75 -15.34,-47.09 -31.91,-93.75 -52.21,-138.75 -87.34,-193.45 -195.97,-374.61 -355.58,-522.81 -12.06,-11.18 -24.59,-22 -35.82,-33.94 -96.6,-102.57 -214.29,-180.12 -331.49,-257.77 -87.35,-57.86 -186.85,-89.45 -286.16,-112.2zm-549.03 700.95c11.01,27.97 20.44,47.37 26.14,67.75 5.68,20.29 10.44,42.34 -11.59,57.98 -22.93,16.27 -73.18,22.5 -89.87,8.08 -19.12,-16.54 -39.7,-34.55 -50.82,-56.17 -50.74,-98.49 -98.67,-198.35 -146.8,-298.11 -5.56,-11.51 -5.93,-25.37 -10.22,-44.97 23.8,-0.37 43.52,-3.66 62.02,-0.44 90.35,15.79 180.41,33.11 270.47,50.43 11.65,2.23 22.99,6.84 33.87,11.64 47.19,20.72 71.11,53.75 67.82,92.64 -3.55,42.32 -39.16,84.84 -83.01,97.04 -20.51,5.69 -41.81,8.78 -68.01,14.12zm-1814.53 524.75c-48.66,11.37 -82.84,22.04 -117.78,26.82l0 -233.87c4.54,-2 9.15,-3.81 13.8,-5.38 174.85,-58.99 351.41,-113.32 527.8,-167.99 20.38,-6.3 43.6,-4.07 77.22,-6.73 -4.25,37.16 -2.77,68.57 -11.94,96.73 -44.76,137.6 -92.07,274.43 -139.36,411.25 -6.09,17.68 -16.14,34.41 -26.36,50.4 -44.22,69.31 -104.25,99.84 -168.53,86.81 -69.97,-14.17 -133.7,-78.33 -145.16,-149.16 -5.34,-33.13 -6.13,-66.95 -9.7,-108.87zm552.97 -827.68c-103.2,32.95 -199.74,66.48 -297.97,94.51 -125.5,35.8 -249.63,37.69 -372.78,11.44l0 -719.08c15.69,32.98 31.38,65.95 47.06,98.92 16.41,34.5 35.11,68.62 57.52,99.71 54.72,75.97 114.15,82.19 180.65,18.35 101.07,-97.08 138.18,-208.5 85.74,-343.94 -91.38,-236.02 -179.9,-473.08 -266.63,-710.73 -2.65,-7.26 -5.21,-14.55 -7.72,-21.87 2.5,-7.3 5.06,-14.6 7.72,-21.85 86.73,-237.64 175.25,-474.72 266.63,-710.74 52.44,-135.43 15.33,-246.84 -85.74,-343.93 -66.49,-63.85 -125.93,-57.64 -180.65,18.34 -22.4,31.11 -41.11,65.21 -57.52,99.72 -15.68,32.98 -31.37,65.96 -47.06,98.92l0 -719.06c123.15,-26.28 247.28,-24.4 372.78,11.43 98.22,28.03 194.77,61.56 297.97,94.5 14.97,-29.72 30.31,-57.68 43.36,-86.6 49.66,-110.16 97.53,-221.11 148.37,-330.76 15.96,-34.44 35.59,-68.43 59.59,-98.06 63.53,-78.4 119.72,-84.04 203.26,-28.08 67.35,45.1 104.06,112.82 146.88,176.67 108.28,161.44 113.47,328.12 36.01,502.54 -129.12,290.83 -262.79,580.07 -380.85,875.09 -71.35,178.32 -174.15,330.67 -309.64,461.86 135.49,131.21 238.3,283.55 309.64,461.87 118.06,295.04 251.73,584.27 380.85,875.1 77.46,174.43 72.27,341.1 -36.01,502.53 -42.82,63.85 -79.52,131.56 -146.88,176.68 -83.54,55.96 -139.73,50.33 -203.26,-28.08 -24,-29.62 -43.63,-63.62 -59.59,-98.06 -50.83,-109.66 -98.7,-220.6 -148.37,-330.76 -13.05,-28.93 -28.39,-56.88 -43.36,-86.6zm1082.24 -566.41c-76.39,93.79 -179.94,145.99 -297.45,188.49 -115.7,-169.85 -228.78,-334.1 -340.04,-499.5 -133.49,-198.43 -266.97,-396.84 -400.45,-595.27 133.49,-198.41 266.97,-396.83 400.45,-595.25 111.26,-165.4 224.35,-329.65 340.04,-499.51 117.51,42.52 221.06,94.71 297.45,188.5 -44.8,10.29 -91.69,15.77 -133.66,32.67 -25.66,10.34 -48.65,35.11 -64.47,58.65 -182.19,271.17 -364.26,542.45 -544.31,814.94 180.05,272.51 362.12,543.8 544.31,814.95 15.82,23.55 38.82,48.32 64.47,58.66 41.97,16.88 88.86,22.37 133.66,32.67zm-26.05 -906.28c182.99,209.19 365.97,418.37 548.95,627.55 45.92,52.51 88.98,107.36 139.22,168.2 -73.3,38.53 -144.32,34.75 -212.8,41.87 -13.54,-26.14 -23.02,-55.36 -41.35,-77.82 -67.48,-82.65 -136.93,-163.89 -207.42,-244.21 -151.1,-172.18 -302.99,-343.73 -454.5,-515.59 151.51,-171.85 303.4,-343.4 454.5,-515.58 70.49,-80.31 139.93,-161.53 207.42,-244.2 18.33,-22.46 27.81,-51.69 41.35,-77.83 68.47,7.1 139.5,3.35 212.8,41.9 -50.24,60.82 -93.3,115.67 -139.22,168.17 -182.98,209.19 -365.96,418.37 -548.95,627.54zm1388.21 4587.69c-83.62,-15.45 -152.63,-52.74 -227.78,-96.39 20.94,-8.26 32.74,-12.96 44.59,-17.58 150.33,-58.89 142.78,-69.49 188.36,96.43 0.56,2.06 -1.28,4.72 -5.17,17.54zm427.45 133.38c-82.9,-196.12 -210.83,-468.09 -267.95,-559.61 -264.92,123.63 -530.54,247.58 -796.16,371.54l1.16 18.48 1062.95 353.49 1062.98 -353.49 1.15 -18.48c-265.61,-123.96 -531.24,-247.91 -796.16,-371.54 -57.12,91.52 -185.05,363.49 -267.97,559.61zm-293.61 680.36l13.29 -13.21 280.32 80.14 280.33 -80.14 13.3 13.21c-11.41,28.47 -20.31,58.17 -34.61,85.2 -85.74,162.26 -172.52,323.96 -259.02,485.84 -86.47,-161.88 -173.25,-323.58 -259.01,-485.84 -14.28,-27.03 -23.2,-56.73 -34.6,-85.2zm293.61 -344.04c-431.29,-123.46 -862.61,-246.85 -1293.97,-370.14 -61.88,-17.69 -124.47,-33.1 -185.24,-49.17 -36.44,42.36 -27.02,82.17 -7.28,121.36 28.51,56.51 58.48,112.31 87.91,168.4 323.51,616.87 646.95,1233.8 970.82,1850.51 20.4,38.84 44.04,76.09 69.53,119.82 43.82,-18.64 84.3,-32.8 121.83,-52.25 78.81,-40.86 157.62,-81.72 236.42,-122.58 78.83,40.86 157.63,81.72 236.45,122.58 37.51,19.45 77.99,33.61 121.83,52.25 25.48,-43.73 49.12,-80.98 69.53,-119.82 323.85,-616.71 647.31,-1233.64 970.83,-1850.51 29.41,-56.09 59.38,-111.89 87.88,-168.4 19.74,-39.19 29.18,-79 -7.26,-121.36 -60.78,16.07 -123.37,31.48 -185.26,49.17 -431.34,123.29 -862.67,246.68 -1293.98,370.14zm-3543.56 -7289.85l0.95 0 0 139.18c4.54,1.98 9.15,3.77 13.8,5.36 174.85,59 351.41,113.32 527.8,167.98 20.38,6.3 43.6,4.08 77.22,6.75 -4.25,-37.16 -2.77,-68.59 -11.94,-96.74 -24.2,-74.36 -49.13,-148.51 -74.4,-222.54l1172.34 0 0 -1263.4c122.37,-96.78 224.34,-216.97 306.63,-359.64l8.62 73.18c18,152.11 36.17,304.19 54.43,456.27 0.95,7.97 3.24,15.78 4.76,23.7 2.88,14.82 25.26,23.22 40.16,14.58 42.86,-24.84 85.09,-50.72 128.42,-74.75 108.47,-60.14 217.16,-119.88 326.27,-178.92 35.93,-19.45 72.61,-37.37 100,-66.26 -1.22,-24.16 -16.09,-38.42 -30.11,-53.41 -78.24,-83.8 -156.23,-167.81 -234.42,-251.66 -41.88,-44.93 -83.03,-90.54 -126.46,-134.02 -13.89,-13.92 -32.62,-26.82 -51.55,-31.96 -34.94,-9.49 -70.06,-18.7 -105.68,-24.94 36.26,-105.15 56.82,-213.81 55.61,-326.41 -0.83,-77.91 -7.52,-80.74 -75.42,-43.38 -36.46,20.07 -73.41,39.61 -111.45,56.61 -93.71,41.86 -190.02,73.02 -289.79,88.36l0 -224.75c286.98,-317.05 440.25,-689.17 392.63,-1141.21 -16.76,-158.99 -61.54,-313 -149.03,-452.01l-0.36 -0.62c-32.6,-91.79 -91.89,-168.65 -151.02,-244.79 -29.52,-38.01 -60.27,-74.74 -92.22,-110.24l0 -557.11 -1705.77 0 -1705.77 0 0 557.12c-31.94,35.49 -62.7,72.22 -92.23,110.23 -59.13,76.14 -118.43,153 -151.01,244.79l-0.36 0.63c-87.49,139 -132.27,293 -149.03,452 -47.64,452.04 105.64,824.16 392.63,1141.21l0 224.75c-99.76,-15.35 -196.09,-46.5 -289.79,-88.36 -38.05,-17 -74.99,-36.53 -111.45,-56.61 -67.89,-37.35 -74.59,-34.53 -75.43,43.38 -1.2,112.6 19.34,221.27 55.6,326.41 -35.61,6.23 -70.72,15.46 -105.66,24.94 -18.93,5.14 -37.66,18.03 -51.56,31.96 -43.42,43.48 -84.59,89.09 -126.45,134.02 -78.2,83.85 -156.19,167.85 -234.43,251.66 -14,15 -28.88,29.25 -30.11,53.41 27.4,28.89 64.06,46.81 100,66.27 109.12,59.03 217.81,118.78 326.28,178.91 43.33,24.03 85.56,49.91 128.41,74.75 14.9,8.64 37.28,0.24 40.16,-14.58 1.53,-7.91 3.82,-15.73 4.77,-23.7 18.24,-152.08 36.42,-304.16 54.42,-456.27l8.62 -73.18c82.3,142.67 184.27,262.85 306.64,359.64l0 1263.4 1172.35 0c-25.29,74.03 -50.21,148.18 -74.41,222.53 -9.18,28.17 -7.69,59.59 -11.94,96.75 33.62,-2.67 56.84,-0.45 77.21,-6.75 176.39,-54.66 352.95,-108.99 527.81,-167.98 4.65,-1.59 9.25,-3.38 13.8,-5.36l0 -139.18 0.95 0zm3543.56 1539.01c-38.36,34.22 -78.33,66.97 -119.68,97.72 -59.61,44.34 -121.05,86.51 -183.17,127.52 -107.63,71.07 -221.22,130.57 -349.47,160.17 -24.34,5.61 -48.62,12.65 -71.71,21.84 -46.9,18.69 -95.77,28.52 -145.55,36.01 -61.99,9.33 -123.82,19.8 -185.78,29.42 -13.82,2.13 -35.79,-12.28 -37.95,-25.07 -8.11,-47.82 -16.7,-95.61 -23.02,-143.67 -8.94,-68.08 -16.2,-136.38 -23.73,-204.64 -1.75,-15.97 -1.95,-32.11 -2.35,-48.18 -0.31,-13.31 14.28,-32.17 28.1,-36.84 11.79,-3.99 23.49,-8.75 35.62,-11.27 28.63,-5.95 57.29,-12.72 86.32,-15.71 75.38,-7.77 147.42,-28.33 220.05,-47.84 69.65,-18.71 132.77,-48.74 191.22,-88.63 68.29,-46.6 136.33,-93.62 203.3,-141.97 26.64,-19.22 51.04,-41.6 74.93,-64.07 83.84,-78.86 166.52,-158.87 250.64,-237.46 18.56,-17.33 36.05,-35.37 52.21,-54.36 16.19,18.98 33.68,37.02 52.23,54.36 84.13,78.58 166.82,158.59 250.65,237.46 23.88,22.47 48.28,44.85 74.91,64.07 66.98,48.35 135.02,95.37 203.32,141.97 58.46,39.89 121.57,69.92 191.21,88.63 72.64,19.51 144.68,40.08 220.06,47.84 29.02,2.99 57.69,9.76 86.3,15.71 12.16,2.52 23.86,7.27 35.64,11.27 13.83,4.67 28.4,23.54 28.08,36.84 -0.38,16.07 -0.58,32.21 -2.33,48.18 -7.51,68.26 -14.79,136.56 -23.74,204.64 -6.29,48.06 -14.91,95.85 -23.02,143.67 -2.16,12.79 -24.13,27.2 -37.95,25.07 -61.96,-9.62 -123.77,-20.09 -185.77,-29.42 -49.78,-7.49 -98.66,-17.32 -145.56,-36.01 -23.1,-9.2 -47.36,-16.23 -71.7,-21.84 -128.25,-29.6 -241.84,-89.1 -349.48,-160.17 -62.11,-41.02 -123.55,-83.18 -183.16,-127.52 -41.36,-30.75 -81.34,-63.5 -119.71,-97.72zm-1061.27 -381.21c-139.1,25.94 -132.6,29.99 -149.2,-100.21 -21.45,-168.28 -40.37,-336.87 -60.53,-505.31 -11.51,-96.27 -24.01,-192.44 -34.58,-288.79 -3.95,-35.99 -5.14,-72.45 -4.46,-108.65 0.19,-10.18 8.97,-25.11 18.08,-29.45 74.85,-35.72 150.71,-69.52 226.32,-103.75 18.89,-8.57 37.5,-18.11 57.17,-24.69 97.6,-32.66 154.46,-106.5 201.98,-188.28 34.75,-59.84 65.76,-121.78 96.8,-183.53 18.23,-36.26 37.36,-72.86 48.96,-111.3 50.26,-166.54 106.63,-332.05 110.67,-508.11 0.16,-6.75 7.19,-13.47 11.34,-20 5.46,-8.67 17.85,-5.56 31.63,7.85 8.83,8.62 17.94,16.98 26.35,25.98 95.2,101.98 190.31,204.05 285.42,306.11 65.1,69.84 129.82,140.02 195.32,209.5 65.52,-69.48 130.25,-139.66 195.34,-209.5 95.12,-102.06 190.22,-204.13 285.44,-306.11 8.4,-9 17.51,-17.36 26.34,-25.98 13.77,-13.41 26.16,-16.51 31.63,-7.85 4.14,6.53 11.16,13.25 11.32,20 4.05,176.07 60.42,341.57 110.69,508.11 11.6,38.45 30.74,75.04 48.96,111.3 31.03,61.75 62.04,123.69 96.8,183.53 47.52,81.78 104.36,155.62 201.99,188.28 19.64,6.57 38.25,16.12 57.16,24.69 75.61,34.23 151.46,68.02 226.32,103.75 9.12,4.34 17.89,19.27 18.07,29.45 0.68,36.2 -0.5,72.66 -4.46,108.65 -10.58,96.35 -23.09,192.52 -34.58,288.79 -20.15,168.44 -39.08,337.03 -60.53,505.31 -16.6,130.2 -10.08,126.14 -149.2,100.21 -99.31,-22.73 -198.81,-54.34 -286.16,-112.2 -117.2,-77.63 -234.87,-155.17 -331.49,-257.78 -11.24,-11.93 -23.77,-22.73 -35.82,-33.93 -159.61,-148.19 -268.25,-329.35 -355.58,-522.79 -20.31,-45.01 -36.87,-91.66 -52.23,-138.76 -15.34,47.1 -31.91,93.75 -52.21,138.76 -87.34,193.45 -195.97,374.61 -355.58,522.79 -12.06,11.2 -24.59,22 -35.82,33.93 -96.6,102.61 -214.29,180.15 -331.49,257.78 -87.35,57.87 -186.85,89.47 -286.16,112.2zm-549.03 -700.92c11.01,-27.99 20.44,-47.39 26.14,-67.76 5.68,-20.3 10.44,-42.36 -11.59,-57.99 -22.93,-16.28 -73.18,-22.5 -89.87,-8.07 -19.12,16.52 -39.7,34.55 -50.82,56.16 -50.74,98.48 -98.67,198.35 -146.8,298.11 -5.56,11.52 -5.93,25.37 -10.22,44.97 23.8,0.36 43.52,3.66 62.02,0.43 90.35,-15.77 180.41,-33.1 270.47,-50.41 11.65,-2.23 22.99,-6.86 33.87,-11.66 47.19,-20.7 71.11,-53.74 67.82,-92.63 -3.55,-42.32 -39.16,-84.84 -83.01,-97.03 -20.51,-5.71 -41.81,-8.79 -68.01,-14.11zm1182.85 -2812.09c-83.62,15.44 -152.63,52.73 -227.78,96.37 20.94,8.28 32.74,12.97 44.59,17.61 150.33,58.87 142.78,69.47 188.36,-96.44 0.56,-2.05 -1.28,-4.72 -5.17,-17.54zm427.45 -133.4c-82.9,196.11 -210.83,468.11 -267.95,559.62 -264.92,-123.64 -530.54,-247.59 -796.16,-371.54l1.16 -18.48 1062.95 -353.49 1062.98 353.49 1.15 18.48c-265.61,123.95 -531.24,247.9 -796.16,371.54 -57.12,-91.51 -185.05,-363.51 -267.97,-559.62zm-293.61 -680.37l13.29 13.23 280.32 -80.14 280.33 80.14 13.3 -13.23c-11.41,-28.46 -20.31,-58.14 -34.61,-85.2 -85.74,-162.23 -172.52,-323.96 -259.02,-485.82 -86.47,161.86 -173.25,323.59 -259.01,485.82 -14.28,27.06 -23.2,56.74 -34.6,85.2zm293.61 344.07c-431.29,123.45 -862.61,246.84 -1293.97,370.13 -61.88,17.69 -124.47,33.11 -185.24,49.19 -36.44,-42.38 -27.02,-82.2 -7.28,-121.36 28.51,-56.52 58.48,-112.34 87.91,-168.43 323.51,-616.86 646.95,-1233.78 970.82,-1850.5 20.4,-38.83 44.04,-76.08 69.53,-119.81 43.82,18.62 84.3,32.78 121.83,52.23 78.81,40.87 157.62,81.72 236.42,122.6 78.83,-40.88 157.63,-81.73 236.45,-122.6 37.51,-19.45 77.99,-33.61 121.83,-52.23 25.48,43.73 49.12,80.98 69.53,119.81 323.85,616.72 647.31,1233.64 970.83,1850.5 29.41,56.09 59.38,111.91 87.88,168.43 19.74,39.16 29.18,78.98 -7.26,121.36 -60.78,-16.08 -123.37,-31.5 -185.26,-49.19 -431.34,-123.29 -862.67,-246.68 -1293.98,-370.13zm3468.99 2340.68c-97.08,47.36 -197.04,90.96 -299.1,131.77 -14.28,5.7 -30.19,15.1 -41.81,-0.37 -12.21,-16.26 5.31,-27.57 14.04,-38.35 36.99,-45.68 68.61,-94.32 89.65,-148.74 46.72,-120.82 7.66,-225.4 -108.64,-289.3 -55.91,-30.72 -115.04,-54.49 -178.24,-67.69 -179.23,-37.51 -358.32,-75.72 -537.77,-112.13 -399.59,-81.11 -688.62,-289.34 -875.95,-613.99l-8.63 73.18c-17.98,152.11 -36.16,304.19 -54.41,456.27 -0.96,7.97 -3.24,15.78 -4.78,23.7 -2.87,14.82 -25.25,23.22 -40.15,14.58 -42.87,-24.84 -85.1,-50.72 -128.42,-74.75 -108.45,-60.14 -217.16,-119.88 -326.27,-178.92 -35.92,-19.45 -72.6,-37.37 -100,-66.26 1.22,-24.16 16.11,-38.42 30.12,-53.41 78.23,-83.8 156.22,-167.81 234.41,-251.66 41.89,-44.93 83.04,-90.54 126.45,-134.02 13.91,-13.92 32.64,-26.82 51.57,-31.96 34.94,-9.49 70.05,-18.7 105.67,-24.94 -36.28,-105.15 -56.81,-213.81 -55.61,-326.41 0.84,-77.91 7.52,-80.74 75.44,-43.38 36.44,20.07 73.39,39.61 111.43,56.61 148.37,66.29 303.31,105.71 468.08,98.07 15.88,-0.74 65.27,20.29 41.27,-33.3 -11.32,-6.22 -24.32,-10.7 -33.74,-18.96 -404.22,-354.87 -635.51,-781.78 -578.43,-1323.41 16.76,-158.99 61.53,-313 149.02,-452.01l0.36 -0.62c32.61,-91.79 91.89,-168.65 151.02,-244.79 157.68,-203 350.29,-369.64 573.1,-503.92 16.93,-18.12 41.39,-43.42 60.89,-32.23 22.13,12.7 -8.03,32.82 -15.57,49.67 -66.97,177.35 -43.24,346.04 50.64,508.68 50.63,87.74 120.99,160.43 187.66,236.06l0.17 0.55c153.57,129.44 337.56,207.76 519.71,289.41 115.82,51.94 233.87,99.52 346.8,157.24l0 2969.73zm0 405.47c-13.5,3.42 -28.02,7.1 -44.14,10.88 -3.56,-41.94 -4.34,-75.75 -9.69,-108.88 -11.45,-70.85 -75.19,-134.99 -145.16,-149.16 -64.29,-13.05 -124.32,17.51 -168.54,86.83 -10.22,15.97 -20.25,32.71 -26.37,50.39 -47.27,136.81 -94.58,273.65 -139.35,411.24 -9.17,28.16 -7.68,59.58 -11.93,96.74 33.61,-2.67 56.83,-0.45 77.21,-6.75 156.3,-48.42 312.72,-96.58 467.96,-147.98l0 -243.31zm0 720.32c-98.98,-11.89 -198.62,-4.96 -299.14,23.73 -98.23,28.03 -194.79,61.56 -297.98,94.5 -14.96,-29.72 -30.32,-57.68 -43.36,-86.6 -49.66,-110.16 -97.53,-221.11 -148.36,-330.76 -15.96,-34.44 -35.59,-68.43 -59.6,-98.06 -63.52,-78.4 -119.71,-84.04 -203.25,-28.08 -67.36,45.1 -104.07,112.82 -146.9,176.67 -108.27,161.44 -113.47,328.12 -36,502.54 129.11,290.83 262.8,580.07 380.86,875.09 71.34,178.32 174.13,330.67 309.64,461.86 -135.51,131.21 -238.31,283.55 -309.64,461.87 -118.06,295.04 -251.75,584.27 -380.86,875.1 -77.47,174.43 -72.27,341.1 36,502.53 42.83,63.85 79.53,131.56 146.9,176.68 83.54,55.96 139.73,50.33 203.25,-28.08 24.01,-29.62 43.64,-63.62 59.6,-98.06 50.82,-109.66 98.69,-220.6 148.36,-330.76 13.04,-28.93 28.4,-56.88 43.36,-86.6 103.19,32.95 199.74,66.48 297.98,94.51 100.52,28.68 200.16,35.6 299.14,23.73l0 -581.19c-9.52,16.68 -19.76,32.94 -30.95,48.45 -54.71,75.97 -114.14,82.19 -180.63,18.35 -101.08,-97.08 -138.19,-208.5 -85.74,-343.94 91.39,-236.02 179.9,-473.08 266.62,-710.73 2.65,-7.26 5.21,-14.55 7.72,-21.87 -2.5,-7.3 -5.06,-14.6 -7.72,-21.85 -86.72,-237.64 -175.23,-474.72 -266.62,-710.74 -52.45,-135.43 -15.34,-246.84 85.74,-343.93 66.48,-63.85 125.92,-57.64 180.63,18.34 11.19,15.51 21.43,31.77 30.95,48.45l0 -581.17zm0 3902.14c-13.5,-3.43 -28.02,-7.11 -44.14,-10.88 -3.56,41.92 -4.34,75.74 -9.69,108.87 -11.45,70.83 -75.19,134.99 -145.16,149.16 -64.29,13.03 -124.32,-17.5 -168.54,-86.81 -10.22,-15.99 -20.25,-32.72 -26.37,-50.4 -47.27,-136.82 -94.58,-273.65 -139.35,-411.25 -9.17,-28.17 -7.68,-59.57 -11.93,-96.73 33.61,2.66 56.83,0.43 77.21,6.73 156.3,48.43 312.72,96.59 467.96,148l0 243.31zm-1858.67 -4086.82c-11.01,-27.99 -20.44,-47.39 -26.15,-67.76 -5.66,-20.3 -10.43,-42.36 11.6,-57.99 22.94,-16.28 73.19,-22.5 89.88,-8.07 19.12,16.52 39.7,34.55 50.82,56.16 50.74,98.48 98.67,198.35 146.79,298.11 5.56,11.52 5.94,25.37 10.23,44.97 -23.82,0.36 -43.53,3.66 -62.02,0.43 -90.36,-15.77 -180.42,-33.1 -270.49,-50.41 -11.64,-2.23 -22.97,-6.86 -33.87,-11.66 -47.17,-20.7 -71.09,-53.74 -67.8,-92.63 3.54,-42.32 39.15,-84.84 83.01,-97.03 20.49,-5.71 41.8,-8.79 68,-14.11zm179.33 869.32c76.39,-93.79 179.93,-145.99 297.44,-188.5 115.7,169.86 228.79,334.11 340.04,499.51 133.48,198.42 266.99,396.84 400.46,595.25 -133.48,198.43 -266.99,396.84 -400.46,595.27 -111.25,165.4 -224.35,329.65 -340.04,499.5 -117.51,-42.51 -221.05,-94.7 -297.44,-188.49 44.81,-10.3 91.69,-15.79 133.66,-32.67 25.65,-10.34 48.66,-35.11 64.45,-58.66 182.21,-271.15 364.27,-542.44 544.32,-814.95 -180.05,-272.49 -362.11,-543.77 -544.32,-814.94 -15.79,-23.54 -38.81,-48.31 -64.45,-58.65 -41.97,-16.9 -88.85,-22.38 -133.66,-32.67zm26.03 906.26c-182.98,-209.17 -365.95,-418.35 -548.92,-627.54 -45.93,-52.5 -88.99,-107.35 -139.24,-168.17 73.31,-38.55 144.33,-34.79 212.8,-41.9 13.55,26.14 23.02,55.37 41.36,77.83 67.48,82.67 136.92,163.89 207.42,244.2 151.1,172.18 302.99,343.73 454.51,515.58 -151.52,171.86 -303.41,343.41 -454.51,515.59 -70.5,80.32 -139.93,161.56 -207.42,244.21 -18.34,22.46 -27.81,51.68 -41.36,77.82 -68.46,-7.11 -139.49,-3.34 -212.8,-41.87 50.25,-60.84 93.31,-115.69 139.24,-168.2 182.97,-209.18 365.94,-418.36 548.92,-627.55zm-1388.18 -4587.66c83.61,15.44 152.62,52.73 227.76,96.37 -20.92,8.28 -32.73,12.97 -44.59,17.61 -150.33,58.87 -142.78,69.47 -188.36,-96.44 -0.55,-2.05 1.29,-4.72 5.19,-17.54zm1182.83 6363.28c-11.01,27.97 -20.44,47.37 -26.15,67.75 -5.66,20.29 -10.43,42.34 11.6,57.98 22.94,16.27 73.19,22.5 89.88,8.08 19.12,-16.54 39.7,-34.55 50.82,-56.17 50.74,-98.49 98.67,-198.35 146.79,-298.11 5.56,-11.51 5.94,-25.37 10.23,-44.97 -23.82,-0.37 -43.53,-3.66 -62.02,-0.44 -90.36,15.79 -180.42,33.11 -270.49,50.43 -11.64,2.23 -22.97,6.84 -33.87,11.64 -47.17,20.72 -71.09,53.75 -67.8,92.64 3.54,42.32 39.15,84.84 83.01,97.04 20.49,5.69 41.8,8.78 68,14.12zm-1182.83 2812.08c83.61,-15.45 152.62,-52.74 227.76,-96.39 -20.92,-8.26 -32.73,-12.96 -44.59,-17.58 -150.33,-58.89 -142.78,-69.49 -188.36,96.43 -0.55,2.06 1.29,4.72 5.19,17.54zm-10983.6 6557.23c97.07,47.35 197.03,90.98 299.1,131.78 14.27,5.7 30.19,15.09 41.8,-0.38 12.22,-16.27 -5.3,-27.58 -14.04,-38.36 -36.99,-45.67 -68.61,-94.31 -89.64,-148.72 -46.73,-120.83 -7.66,-225.4 108.64,-289.3 55.91,-30.71 115.04,-54.5 178.23,-67.72 179.23,-37.48 358.32,-75.69 537.78,-112.13 399.59,-81.1 688.61,-289.32 875.94,-613.96l8.63 73.16c17.99,152.11 36.16,304.21 54.42,456.29 0.94,7.96 3.23,15.77 4.77,23.68 2.86,14.84 25.25,23.24 40.16,14.58 42.86,-24.83 85.08,-50.71 128.4,-74.75 108.47,-60.13 217.18,-119.87 326.28,-178.91 35.93,-19.45 72.61,-37.38 100,-66.25 -1.21,-24.18 -16.1,-38.44 -30.11,-53.43 -78.24,-83.81 -156.23,-167.81 -234.41,-251.65 -41.89,-44.92 -83.04,-90.53 -126.46,-134.01 -13.9,-13.93 -32.63,-26.84 -51.56,-31.97 -34.95,-9.48 -70.05,-18.7 -105.67,-24.94 36.27,-105.14 56.81,-213.82 55.6,-326.41 -0.83,-77.91 -7.51,-80.73 -75.43,-43.37 -36.44,20.07 -73.4,39.59 -111.44,56.61 -148.37,66.28 -303.31,105.7 -468.07,98.06 -15.89,-0.74 -65.28,20.29 -41.28,-33.31 11.33,-6.23 24.33,-10.68 33.74,-18.96 404.23,-354.87 635.52,-781.77 578.44,-1323.39 -16.76,-159.02 -61.53,-312.99 -149.03,-452.01l-0.36 -0.63c-32.6,-91.78 -91.88,-168.65 -151.02,-244.78 -157.67,-203.01 -350.29,-369.65 -573.1,-503.92 -16.93,-18.13 -41.38,-43.41 -60.88,-32.24 -22.14,12.69 8.02,32.81 15.57,49.67 66.97,177.36 43.23,346.03 -50.65,508.68 -50.63,87.73 -120.99,160.44 -187.65,236.07l-0.18 0.53c-153.57,129.45 -337.55,207.75 -519.69,289.42 -115.84,51.94 -233.88,99.53 -346.81,157.25l0 2969.72zm4337.48 -891.01c27.4,28.87 64.06,46.8 100,66.25 109.12,59.04 217.81,118.78 326.28,178.91 43.33,24.04 85.56,49.92 128.41,74.75 14.9,8.66 37.28,0.26 40.16,-14.58 1.53,-7.91 3.82,-15.72 4.77,-23.68 18.24,-152.08 36.42,-304.18 54.42,-456.29l8.62 -73.18c187.3,324.66 476.32,532.88 875.95,613.98 179.47,36.44 358.55,74.65 537.77,112.13 63.2,13.23 122.33,37.01 178.25,67.72 116.29,63.9 155.35,168.47 108.63,289.3 -21.03,54.41 -52.66,103.05 -89.66,148.72 -8.72,10.78 -26.25,22.08 -14.03,38.36 11.63,15.47 27.53,6.08 41.82,0.38 128.06,-51.19 252.8,-106.84 372.73,-168.7l0 -2893.11c-134.57,-76.72 -279.16,-133.58 -420.46,-196.94 -182.14,-81.67 -366.12,-159.98 -519.69,-289.42l-0.18 -0.53c-66.66,-75.63 -137.03,-148.34 -187.66,-236.07 -93.87,-162.66 -117.61,-331.33 -50.65,-508.68 7.55,-16.86 37.72,-36.98 15.59,-49.67 -19.51,-11.17 -43.97,14.11 -60.9,32.24 -222.8,134.27 -415.42,300.91 -573.1,503.92 -59.13,76.13 -118.43,153 -151.01,244.78l-0.36 0.63c-87.49,139.02 -132.27,292.98 -149.03,452.01 -57.08,541.62 174.22,968.52 578.43,1323.39 9.42,8.29 22.42,12.73 33.75,18.96 24,53.61 -25.39,32.57 -41.28,33.31 -164.77,7.64 -319.69,-31.78 -468.07,-98.06 -38.05,-17.02 -74.99,-36.53 -111.45,-56.61 -67.89,-37.36 -74.59,-34.54 -75.43,43.37 -1.2,112.59 19.34,221.28 55.6,326.41 -35.61,6.23 -70.72,15.46 -105.66,24.94 -18.93,5.13 -37.66,18.04 -51.56,31.97 -43.42,43.48 -84.59,89.09 -126.45,134.01 -78.2,83.84 -156.19,167.84 -234.43,251.65 -14,14.99 -28.88,29.25 -30.11,53.43zm-868.51 2914.25c38.37,34.22 78.35,66.96 119.7,97.71 59.61,44.33 121.05,86.52 183.17,127.54 107.62,71.06 221.22,130.56 349.46,160.15 24.35,5.62 48.62,12.65 71.71,21.84 46.9,18.7 95.78,28.53 145.57,36.01 61.98,9.34 123.81,19.8 185.76,29.41 13.83,2.16 35.8,-12.26 37.95,-25.06 8.12,-47.82 16.71,-95.62 23.03,-143.67 8.94,-68.08 16.19,-136.4 23.73,-204.65 1.76,-15.95 1.94,-32.11 2.34,-48.16 0.31,-13.33 -14.27,-32.17 -28.09,-36.85 -11.8,-4 -23.49,-8.75 -35.63,-11.28 -28.63,-5.96 -57.29,-12.71 -86.32,-15.7 -75.37,-7.77 -147.42,-28.33 -220.05,-47.84 -69.64,-18.71 -132.77,-48.74 -191.21,-88.63 -68.29,-46.61 -136.33,-93.62 -203.31,-141.96 -26.63,-19.23 -51.03,-41.62 -74.92,-64.07 -83.85,-78.86 -166.53,-158.87 -250.63,-237.46 -18.57,-17.34 -36.06,-35.37 -52.24,-54.37 -16.17,18.99 -33.66,37.02 -52.21,54.37 -84.14,78.58 -166.82,158.59 -250.65,237.46 -23.89,22.45 -48.28,44.84 -74.92,64.07 -66.97,48.34 -135.02,95.35 -203.31,141.96 -58.46,39.89 -121.58,69.92 -191.21,88.63 -72.65,19.51 -144.69,40.08 -220.06,47.84 -29.03,2.99 -57.69,9.74 -86.31,15.7 -12.15,2.53 -23.85,7.27 -35.64,11.28 -13.82,4.68 -28.4,23.53 -28.07,36.85 0.37,16.05 0.58,32.21 2.32,48.16 7.52,68.25 14.79,136.57 23.75,204.65 6.28,48.05 14.91,95.85 23.01,143.67 2.16,12.8 24.14,27.22 37.95,25.06 61.96,-9.61 123.78,-20.07 185.78,-29.41 49.77,-7.48 98.65,-17.31 145.56,-36.01 23.1,-9.2 47.36,-16.22 71.7,-21.84 128.24,-29.59 241.84,-89.09 349.47,-160.15 62.12,-41.03 123.55,-83.21 183.18,-127.54 41.34,-30.75 81.32,-63.49 119.68,-97.71zm536.34 693.45c-3.13,-1.51 -6.22,-3.06 -9.32,-4.7 -18.11,-9.56 -38.72,-15.46 -58.86,-20.53 -36.24,-9.14 -76.39,-9.9 -108.88,-25.69 -74.33,-36.19 -151.35,-68.6 -217.27,-119.65 -32.6,-25.24 -66.32,-49.43 -101.32,-71.47 -13.75,-8.68 -27.32,-17.54 -40.7,-26.61 -13.39,9.07 -26.95,17.93 -40.7,26.61 -34.97,22.03 -68.71,46.23 -101.32,71.47 -65.91,51.05 -142.93,83.45 -217.26,119.65 -32.48,15.79 -72.63,16.55 -108.88,25.69 -20.15,5.07 -40.75,10.98 -58.87,20.53 -3.07,1.64 -6.19,3.19 -9.3,4.7 3.1,1.51 6.22,3.07 9.3,4.69 18.12,9.58 38.72,15.47 58.87,20.55 36.25,9.12 76.4,9.88 108.88,25.7 74.33,36.16 151.35,68.57 217.26,119.64 32.61,25.25 66.34,49.41 101.32,71.47 13.75,8.67 27.31,17.54 40.7,26.61 13.38,-9.07 26.95,-17.94 40.7,-26.61 34.99,-22.05 68.72,-46.22 101.32,-71.47 65.92,-51.07 142.94,-83.47 217.27,-119.64 32.49,-15.82 72.64,-16.58 108.88,-25.7 20.14,-5.08 40.75,-10.98 58.86,-20.55 3.09,-1.62 6.18,-3.18 9.32,-4.69zm524.94 -1074.66c139.09,25.93 132.59,29.97 149.19,-100.21 21.45,-168.29 40.37,-336.87 60.54,-505.32 11.5,-96.27 24.01,-192.43 34.58,-288.79 3.95,-35.99 5.13,-72.44 4.46,-108.65 -0.19,-10.19 -8.96,-25.11 -18.08,-29.46 -74.86,-35.7 -150.71,-69.51 -226.32,-103.74 -18.9,-8.58 -37.51,-18.1 -57.17,-24.68 -97.61,-32.68 -154.46,-106.51 -201.98,-188.3 -34.75,-59.82 -65.76,-121.76 -96.81,-183.51 -18.22,-36.26 -37.35,-72.86 -48.96,-111.3 -50.25,-166.56 -106.63,-332.06 -110.67,-508.11 -0.17,-6.76 -7.18,-13.48 -11.32,-20.02 -5.48,-8.67 -17.88,-5.55 -31.64,7.87 -8.83,8.59 -17.94,16.98 -26.35,25.97 -95.2,101.98 -190.31,204.05 -285.43,306.1 -65.08,69.85 -129.81,140.03 -195.33,209.52 -65.52,-69.49 -130.23,-139.67 -195.33,-209.52 -95.12,-102.05 -190.21,-204.12 -285.44,-306.1 -8.39,-8.99 -17.5,-17.38 -26.34,-25.97 -13.76,-13.42 -26.16,-16.53 -31.63,-7.87 -4.13,6.54 -11.16,13.26 -11.32,20.02 -4.05,176.06 -60.42,341.55 -110.68,508.11 -11.6,38.45 -30.74,75.04 -48.96,111.3 -31.05,61.75 -62.04,123.69 -96.8,183.51 -47.52,81.79 -104.37,155.62 -202,188.3 -19.63,6.57 -38.25,16.1 -57.16,24.68 -75.59,34.23 -151.45,68.03 -226.31,103.74 -9.12,4.35 -17.9,19.27 -18.08,29.46 -0.67,36.21 0.51,72.66 4.46,108.65 10.58,96.36 23.08,192.52 34.59,288.79 20.14,168.45 39.07,337.03 60.52,505.32 16.61,130.18 10.09,126.13 149.2,100.21 99.31,-22.74 198.82,-54.35 286.16,-112.2 117.2,-77.64 234.88,-155.2 331.5,-257.78 11.24,-11.93 23.77,-22.74 35.81,-33.94 159.61,-148.2 268.25,-329.36 355.59,-522.79 20.3,-45 36.87,-91.67 52.21,-138.76 15.34,47.09 31.92,93.76 52.24,138.76 87.33,193.44 195.96,374.6 355.56,522.79 12.07,11.2 24.6,22.01 35.82,33.94 96.62,102.58 214.3,180.14 331.49,257.78 87.35,57.86 186.85,89.46 286.17,112.2zm549.01 -700.94c-11,-27.99 -20.42,-47.38 -26.13,-67.75 -5.67,-20.3 -10.44,-42.35 11.6,-57.99 22.93,-16.27 73.18,-22.49 89.87,-8.07 19.13,16.53 39.7,34.54 50.81,56.16 50.75,98.49 98.68,198.35 146.81,298.11 5.56,11.51 5.93,25.37 10.22,44.96 -23.8,0.38 -43.53,3.67 -62.02,0.45 -90.36,-15.78 -180.41,-33.11 -270.48,-50.43 -11.64,-2.23 -22.99,-6.85 -33.88,-11.64 -47.17,-20.71 -71.09,-53.75 -67.81,-92.63 3.56,-42.33 39.17,-84.85 83.02,-97.05 20.5,-5.69 41.81,-8.79 67.99,-14.11zm1814.55 -524.76c48.66,-11.36 82.84,-22.04 117.78,-26.82l0 233.88c-4.55,1.99 -9.15,3.79 -13.8,5.36 -174.85,59.01 -351.42,113.33 -527.81,168 -20.37,6.29 -43.59,4.08 -77.21,6.73 4.25,-37.15 2.76,-68.58 11.94,-96.73 44.77,-137.59 92.07,-274.43 139.34,-411.25 6.11,-17.68 16.16,-34.4 26.37,-50.4 44.22,-69.3 104.26,-99.84 168.54,-86.81 69.98,14.18 133.7,78.32 145.15,149.17 5.35,33.13 6.13,66.93 9.71,108.86zm-552.99 827.69c103.21,-32.95 199.75,-66.48 297.99,-94.52 125.5,-35.8 249.61,-37.68 372.78,-11.43l0 719.08c-15.69,-32.98 -31.38,-65.96 -47.06,-98.94 -16.42,-34.49 -35.12,-68.61 -57.53,-99.7 -54.73,-75.97 -114.16,-82.19 -180.64,-18.34 -101.09,97.08 -138.18,208.5 -85.74,343.93 91.38,236.03 179.9,473.09 266.62,710.72 2.65,7.27 5.22,14.55 7.73,21.87 -2.5,7.3 -5.07,14.6 -7.73,21.86 -86.72,237.64 -175.24,474.71 -266.62,710.74 -52.44,135.44 -15.35,246.84 85.74,343.93 66.47,63.85 125.91,57.63 180.64,-18.33 22.4,-31.12 41.11,-65.21 57.53,-99.74 15.68,-32.97 31.37,-65.95 47.06,-98.92l0 719.07c-123.17,26.27 -247.28,24.4 -372.78,-11.43 -98.23,-28.03 -194.78,-61.56 -297.99,-94.5 -14.96,29.73 -30.3,57.67 -43.34,86.61 -49.66,110.15 -97.54,221.1 -148.38,330.76 -15.95,34.43 -35.59,68.42 -59.59,98.04 -63.53,78.41 -119.7,84.05 -203.26,28.09 -67.34,-45.11 -104.07,-112.81 -146.88,-176.67 -108.28,-161.44 -113.46,-328.12 -36.02,-502.53 129.13,-290.84 262.81,-580.07 380.87,-875.11 71.34,-178.32 174.15,-330.67 309.63,-461.86 -135.48,-131.21 -238.3,-283.55 -309.63,-461.87 -118.06,-295.03 -251.74,-584.26 -380.87,-875.09 -77.44,-174.43 -72.26,-341.09 36.02,-502.53 42.81,-63.85 79.53,-131.56 146.88,-176.68 83.56,-55.96 139.73,-50.32 203.26,28.09 24,29.61 43.64,63.61 59.59,98.05 50.83,109.66 98.71,220.6 148.38,330.77 13.04,28.92 28.38,56.87 43.34,86.6zm-1082.22 566.41c76.39,-93.8 179.94,-145.99 297.44,-188.5 115.7,169.86 228.79,334.1 340.04,499.51 133.49,198.42 266.98,396.83 400.46,595.25 -133.49,198.41 -266.98,396.84 -400.46,595.26 -111.25,165.39 -224.35,329.65 -340.04,499.51 -117.5,-42.51 -221.05,-94.71 -297.44,-188.5 44.8,-10.3 91.69,-15.77 133.66,-32.67 25.65,-10.34 48.65,-35.12 64.47,-58.66 182.19,-271.16 364.26,-542.44 544.3,-814.94 -180.04,-272.49 -362.11,-543.78 -544.3,-814.94 -15.82,-23.55 -38.83,-48.32 -64.47,-58.66 -41.97,-16.89 -88.86,-22.37 -133.66,-32.66zm26.04 906.26c-182.98,-209.18 -365.96,-418.35 -548.93,-627.54 -45.93,-52.51 -88.99,-107.37 -139.24,-168.19 73.31,-38.54 144.33,-34.77 212.79,-41.88 13.56,26.14 23.03,55.37 41.37,77.83 67.48,82.65 136.93,163.89 207.41,244.2 151.11,172.18 302.99,343.72 454.51,515.58 -151.52,171.86 -303.4,343.4 -454.51,515.59 -70.48,80.32 -139.92,161.54 -207.41,244.2 -18.34,22.47 -27.81,51.69 -41.37,77.82 -68.45,-7.09 -139.48,-3.33 -212.79,-41.88 50.25,-60.84 93.31,-115.68 139.24,-168.18 182.97,-209.19 365.95,-418.37 548.93,-627.55zm-1388.21 -4587.67c83.63,15.45 152.63,52.74 227.79,96.38 -20.94,8.26 -32.75,12.96 -44.59,17.59 -150.33,58.87 -142.79,69.47 -188.36,-96.44 -0.56,-2.06 1.28,-4.72 5.16,-17.53zm-427.46 -133.4c82.92,196.12 210.84,468.1 267.96,559.62 264.92,-123.64 530.54,-247.58 796.17,-371.54l-1.16 -18.48 -1062.97 -353.5 -1062.96 353.5 -1.16 18.48c265.61,123.96 531.24,247.9 796.17,371.54 57.12,-91.52 185.04,-363.5 267.95,-559.62zm293.62 -680.35l-13.29 13.21 -280.33 -80.14 -280.32 80.14 -13.29 -13.21c11.4,-28.47 20.3,-58.17 34.6,-85.21 85.75,-162.24 172.52,-323.95 259.01,-485.82 86.49,161.87 173.27,323.58 259.02,485.82 14.29,27.04 23.21,56.74 34.6,85.21zm-293.62 344.04c431.3,123.46 862.63,246.86 1293.98,370.14 61.89,17.69 124.47,33.1 185.25,49.18 36.44,-42.37 27.01,-82.19 7.27,-121.37 -28.5,-56.51 -58.48,-112.32 -87.89,-168.4 -323.52,-616.87 -646.97,-1233.79 -970.83,-1850.51 -20.4,-38.84 -44.04,-76.09 -69.53,-119.82 -43.83,18.64 -84.31,32.8 -121.83,52.25 -78.82,40.86 -157.63,81.73 -236.44,122.59 -78.81,-40.86 -157.61,-81.73 -236.42,-122.59 -37.54,-19.45 -78.01,-33.61 -121.85,-52.25 -25.49,43.73 -49.11,80.98 -69.52,119.82 -323.86,616.72 -647.31,1233.64 -970.83,1850.51 -29.41,56.08 -59.38,111.89 -87.89,168.4 -19.74,39.18 -29.18,79 7.27,121.37 60.77,-16.08 123.37,-31.49 185.26,-49.18 431.34,-123.28 862.67,-246.68 1293.96,-370.14zm0 5750.83c38.37,-34.21 78.35,-66.96 119.7,-97.71 59.61,-44.33 121.05,-86.51 183.17,-127.53 107.62,-71.06 221.22,-130.56 349.46,-160.15 24.35,-5.62 48.62,-12.65 71.71,-21.85 46.9,-18.68 95.78,-28.53 145.57,-36.01 61.98,-9.33 123.81,-19.8 185.76,-29.41 13.83,-2.15 35.8,12.27 37.95,25.06 8.12,47.82 16.71,95.62 23.03,143.67 8.94,68.08 16.19,136.39 23.73,204.64 1.76,15.96 1.94,32.1 2.34,48.19 0.31,13.3 -14.27,32.16 -28.09,36.83 -11.8,3.99 -23.49,8.75 -35.63,11.27 -28.63,5.95 -57.29,12.72 -86.32,15.71 -75.37,7.77 -147.42,28.33 -220.05,47.84 -69.64,18.71 -132.77,48.75 -191.21,88.63 -68.29,46.6 -136.33,93.62 -203.31,141.97 -26.63,19.21 -51.03,41.61 -74.92,64.07 -83.85,78.86 -166.53,158.87 -250.63,237.46 -18.57,17.33 -36.06,35.37 -52.24,54.36 -16.17,-18.98 -33.66,-37.02 -52.21,-54.36 -84.14,-78.58 -166.82,-158.59 -250.65,-237.46 -23.89,-22.46 -48.28,-44.86 -74.92,-64.07 -66.97,-48.35 -135.02,-95.37 -203.31,-141.97 -58.46,-39.88 -121.58,-69.92 -191.21,-88.63 -72.65,-19.51 -144.69,-40.08 -220.06,-47.84 -29.03,-2.99 -57.69,-9.76 -86.31,-15.71 -12.15,-2.52 -23.85,-7.27 -35.64,-11.27 -13.82,-4.67 -28.4,-23.54 -28.07,-36.83 0.37,-16.09 0.58,-32.23 2.32,-48.19 7.52,-68.25 14.79,-136.56 23.75,-204.64 6.28,-48.05 14.91,-95.85 23.01,-143.67 2.16,-12.79 24.14,-27.21 37.95,-25.06 61.96,9.61 123.78,20.08 185.78,29.41 49.77,7.48 98.65,17.33 145.56,36.01 23.1,9.21 47.36,16.23 71.7,21.85 128.24,29.59 241.84,89.09 349.47,160.15 62.12,41.03 123.55,83.2 183.18,127.53 41.34,30.75 81.32,63.5 119.68,97.71zm1061.29 381.22c139.09,-25.94 132.59,-29.98 149.19,100.21 21.45,168.28 40.37,336.86 60.54,505.32 11.5,96.26 24.01,192.43 34.58,288.78 3.95,35.99 5.13,72.45 4.46,108.65 -0.19,10.18 -8.96,25.11 -18.08,29.46 -74.86,35.71 -150.71,69.51 -226.32,103.74 -18.9,8.57 -37.51,18.11 -57.17,24.69 -97.61,32.66 -154.46,106.5 -201.98,188.29 -34.75,59.83 -65.76,121.76 -96.81,183.52 -18.22,36.25 -37.35,72.87 -48.96,111.3 -50.25,166.55 -106.63,332.05 -110.67,508.11 -0.17,6.74 -7.18,13.47 -11.32,20 -5.48,8.66 -17.88,5.56 -31.64,-7.85 -8.83,-8.62 -17.94,-16.98 -26.35,-25.98 -95.2,-101.98 -190.31,-204.05 -285.43,-306.1 -65.08,-69.85 -129.81,-140.04 -195.33,-209.51 -65.52,69.47 -130.23,139.66 -195.33,209.51 -95.12,102.05 -190.21,204.12 -285.44,306.1 -8.39,9 -17.5,17.36 -26.34,25.98 -13.76,13.41 -26.16,16.5 -31.63,7.85 -4.13,-6.53 -11.16,-13.26 -11.32,-20 -4.05,-176.07 -60.42,-341.56 -110.68,-508.11 -11.6,-38.44 -30.74,-75.05 -48.96,-111.3 -31.05,-61.76 -62.04,-123.69 -96.8,-183.52 -47.52,-81.79 -104.37,-155.63 -202,-188.29 -19.63,-6.57 -38.25,-16.12 -57.16,-24.69 -75.59,-34.23 -151.45,-68.02 -226.31,-103.74 -9.12,-4.35 -17.9,-19.28 -18.08,-29.46 -0.67,-36.2 0.51,-72.66 4.46,-108.65 10.58,-96.35 23.08,-192.52 34.59,-288.78 20.14,-168.46 39.07,-337.04 60.52,-505.32 16.61,-130.19 10.09,-126.14 149.2,-100.21 99.31,22.73 198.82,54.34 286.16,112.19 117.2,77.64 234.88,155.18 331.5,257.79 11.24,11.93 23.77,22.73 35.81,33.92 159.61,148.19 268.25,329.36 355.59,522.8 20.3,45.01 36.87,91.67 52.21,138.77 15.34,-47.1 31.92,-93.76 52.24,-138.77 87.33,-193.45 195.96,-374.62 355.56,-522.8 12.07,-11.19 24.6,-21.99 35.82,-33.92 96.62,-102.61 214.3,-180.15 331.49,-257.79 87.35,-57.86 186.85,-89.46 286.17,-112.19zm549.01 700.92c-11,28 -20.42,47.38 -26.13,67.76 -5.67,20.31 -10.44,42.36 11.6,57.99 22.93,16.28 73.18,22.51 89.87,8.07 19.13,-16.52 39.7,-34.55 50.81,-56.16 50.75,-98.49 98.68,-198.35 146.81,-298.1 5.56,-11.53 5.93,-25.38 10.22,-44.99 -23.8,-0.35 -43.53,-3.65 -62.02,-0.42 -90.36,15.76 -180.41,33.1 -270.48,50.41 -11.64,2.23 -22.99,6.87 -33.88,11.65 -47.17,20.71 -71.09,53.75 -67.81,92.64 3.56,42.33 39.17,84.84 83.02,97.03 20.5,5.71 41.81,8.78 67.99,14.11zm-1182.84 2812.09c83.63,-15.44 152.63,-52.72 227.79,-96.37 -20.94,-8.28 -32.75,-12.97 -44.59,-17.61 -150.33,-58.86 -142.79,-69.48 -188.36,96.44 -0.56,2.05 1.28,4.72 5.16,17.54zm-427.46 133.41c82.92,-196.13 210.84,-468.12 267.96,-559.63 264.92,123.64 530.54,247.59 796.17,371.53l-1.16 18.49 -1062.97 353.5 -1062.96 -353.5 -1.16 -18.49c265.61,-123.94 531.24,-247.89 796.17,-371.53 57.12,91.51 185.04,363.5 267.95,559.63zm293.62 680.35l-13.29 -13.22 -280.33 80.14 -280.32 -80.14 -13.29 13.22c11.4,28.46 20.3,58.16 34.6,85.2 85.75,162.24 172.52,323.96 259.01,485.84 86.49,-161.88 173.27,-323.6 259.02,-485.84 14.29,-27.04 23.21,-56.74 34.6,-85.2zm-293.62 -344.05c431.3,-123.46 862.63,-246.85 1293.98,-370.13 61.89,-17.7 124.47,-33.11 185.25,-49.2 36.44,42.38 27.01,82.2 7.27,121.36 -28.5,56.52 -58.48,112.34 -87.89,168.43 -323.52,616.87 -646.97,1233.78 -970.83,1850.51 -20.4,38.83 -44.04,76.07 -69.53,119.8 -43.83,-18.62 -84.31,-32.78 -121.83,-52.23 -78.82,-40.86 -157.63,-81.72 -236.44,-122.6 -78.81,40.88 -157.61,81.74 -236.42,122.6 -37.54,19.45 -78.01,33.61 -121.85,52.23 -25.49,-43.73 -49.11,-80.97 -69.52,-119.8 -323.86,-616.73 -647.31,-1233.64 -970.83,-1850.51 -29.41,-56.09 -59.38,-111.91 -87.89,-168.43 -19.74,-39.16 -29.18,-78.98 7.27,-121.36 60.77,16.09 123.37,31.5 185.26,49.2 431.34,123.28 862.67,246.67 1293.96,370.13zm-3468.97 -2340.69c97.07,-47.35 197.03,-90.97 299.1,-131.77 14.27,-5.7 30.19,-15.1 41.8,0.36 12.22,16.27 -5.3,27.57 -14.04,38.37 -36.99,45.67 -68.61,94.31 -89.64,148.72 -46.73,120.83 -7.66,225.41 108.64,289.3 55.91,30.72 115.04,54.5 178.23,67.7 179.23,37.51 358.32,75.71 537.78,112.12 399.59,81.12 688.62,289.34 875.94,614.01l8.63 -73.19c17.99,-152.1 36.16,-304.2 54.42,-456.27 0.94,-7.97 3.23,-15.78 4.77,-23.7 2.86,-14.82 25.25,-23.22 40.16,-14.59 42.86,24.85 85.08,50.73 128.4,74.76 108.47,60.14 217.18,119.88 326.28,178.92 35.93,19.45 72.61,37.38 100,66.25 -1.21,24.18 -16.1,38.43 -30.11,53.42 -78.24,83.81 -156.23,167.81 -234.41,251.66 -41.89,44.92 -83.04,90.54 -126.46,134.02 -13.9,13.92 -32.63,26.82 -51.56,31.96 -34.95,9.48 -70.05,18.7 -105.67,24.94 36.27,105.14 56.81,213.81 55.6,326.4 -0.83,77.92 -7.51,80.75 -75.43,43.39 -36.44,-20.07 -73.4,-39.61 -111.44,-56.6 -148.37,-66.3 -303.31,-105.71 -468.07,-98.08 -15.89,0.74 -65.28,-20.28 -41.28,33.3 11.33,6.23 24.33,10.69 33.74,18.97 404.23,354.87 635.52,781.76 578.44,1323.41 -16.76,158.98 -61.53,312.98 -149.03,452l-0.36 0.62c-32.6,91.79 -91.88,168.65 -151.02,244.79 -157.67,202.99 -350.29,369.64 -573.1,503.93 -16.93,18.11 -41.38,43.4 -60.88,32.22 -22.14,-12.7 8.02,-32.81 15.57,-49.67 66.97,-177.36 43.23,-346.04 -50.65,-508.68 -50.63,-87.73 -120.99,-160.43 -187.65,-236.06l-0.18 -0.56c-153.57,-129.43 -337.55,-207.75 -519.69,-289.4 -115.84,-51.94 -233.88,-99.53 -346.81,-157.24l0 -2969.73zm0 -405.47c13.5,-3.42 28.02,-7.11 44.13,-10.87 3.56,41.92 4.35,75.74 9.7,108.87 11.44,70.85 75.18,135 145.15,149.16 64.3,13.04 124.33,-17.51 168.55,-86.83 10.22,-15.98 20.24,-32.7 26.36,-50.39 47.27,-136.81 94.59,-273.65 139.36,-411.23 9.16,-28.17 7.67,-59.59 11.92,-96.75 -33.6,2.68 -56.83,0.44 -77.2,6.75 -156.31,48.42 -312.72,96.58 -467.96,147.99l0 243.3zm0 -720.32c98.97,11.89 198.61,4.96 299.14,-23.73 98.23,-28.03 194.78,-61.56 297.98,-94.5 14.96,29.73 30.31,57.67 43.35,86.61 49.67,110.15 97.53,221.1 148.36,330.76 15.98,34.43 35.6,68.42 59.61,98.04 63.51,78.41 119.71,84.05 203.25,28.09 67.37,-45.11 104.07,-112.81 146.89,-176.67 108.28,-161.44 113.48,-328.12 36.01,-502.53 -129.12,-290.84 -262.8,-580.07 -380.86,-875.11 -71.35,-178.32 -174.13,-330.67 -309.64,-461.86 135.51,-131.21 238.3,-283.55 309.64,-461.87 118.06,-295.03 251.74,-584.26 380.86,-875.09 77.47,-174.43 72.27,-341.09 -36.01,-502.53 -42.82,-63.85 -79.51,-131.56 -146.89,-176.68 -83.54,-55.96 -139.74,-50.32 -203.25,28.09 -24.01,29.61 -43.63,63.61 -59.61,98.05 -50.82,109.66 -98.68,220.6 -148.36,330.77 -13.04,28.92 -28.39,56.87 -43.35,86.6 -103.2,-32.95 -199.74,-66.48 -297.98,-94.52 -100.53,-28.68 -200.17,-35.6 -299.14,-23.72l0 581.18c9.51,-16.68 19.76,-32.95 30.94,-48.45 54.72,-75.97 114.15,-82.19 180.63,-18.34 101.09,97.08 138.19,208.5 85.75,343.93 -91.39,236.03 -179.9,473.09 -266.63,710.72 -2.64,7.27 -5.2,14.55 -7.71,21.87 2.5,7.3 5.06,14.6 7.71,21.86 86.73,237.64 175.24,474.71 266.63,710.74 52.44,135.44 15.34,246.84 -85.75,343.93 -66.47,63.85 -125.91,57.63 -180.63,-18.33 -11.18,-15.53 -21.43,-31.78 -30.94,-48.46l0 581.17zm0 -3902.13c13.5,3.42 28.02,7.11 44.13,10.87 3.56,-41.93 4.35,-75.73 9.7,-108.86 11.44,-70.85 75.18,-134.99 145.15,-149.17 64.3,-13.03 124.33,17.51 168.55,86.81 10.22,16 20.24,32.72 26.36,50.4 47.27,136.82 94.59,273.66 139.36,411.25 9.16,28.16 7.67,59.58 11.92,96.73 -33.6,-2.65 -56.83,-0.44 -77.2,-6.73 -156.31,-48.43 -312.72,-96.6 -467.96,-148l0 -243.3zm1858.67 4086.81c11.01,28 20.43,47.38 26.14,67.76 5.67,20.31 10.43,42.36 -11.59,57.99 -22.94,16.28 -73.19,22.51 -89.89,8.07 -19.12,-16.52 -39.69,-34.55 -50.81,-56.16 -50.74,-98.49 -98.67,-198.35 -146.79,-298.1 -5.56,-11.53 -5.94,-25.38 -10.23,-44.99 23.82,-0.35 43.53,-3.65 62.02,-0.42 90.35,15.76 180.42,33.1 270.48,50.41 11.65,2.23 22.98,6.87 33.87,11.65 47.17,20.71 71.1,53.75 67.81,92.64 -3.55,42.33 -39.15,84.84 -83.01,97.03 -20.5,5.71 -41.81,8.78 -68,14.11zm-179.33 -869.32c-76.4,93.79 -179.93,146 -297.45,188.5 -115.7,-169.86 -228.78,-334.12 -340.04,-499.51 -133.48,-198.42 -266.98,-396.85 -400.45,-595.26 133.48,-198.42 266.98,-396.83 400.45,-595.25 111.26,-165.41 224.35,-329.65 340.04,-499.51 117.52,42.52 221.05,94.7 297.45,188.5 -44.82,10.29 -91.7,15.77 -133.65,32.66 -25.67,10.34 -48.67,35.11 -64.47,58.66 -182.21,271.16 -364.26,542.45 -544.32,814.94 180.06,272.5 362.11,543.78 544.32,814.94 15.8,23.54 38.81,48.32 64.47,58.66 41.95,16.9 88.83,22.37 133.65,32.67zm-26.04 -906.27c182.98,209.18 365.96,418.36 548.93,627.55 45.92,52.5 88.99,107.34 139.23,168.18 -73.29,38.55 -144.32,34.78 -212.79,41.88 -13.55,-26.13 -23.02,-55.35 -41.36,-77.82 -67.48,-82.66 -136.93,-163.88 -207.42,-244.2 -151.1,-172.19 -303,-343.73 -454.51,-515.59 151.51,-171.86 303.41,-343.4 454.51,-515.58 70.49,-80.31 139.93,-161.55 207.42,-244.2 18.34,-22.46 27.81,-51.69 41.36,-77.83 68.46,7.1 139.5,3.34 212.79,41.88 -50.24,60.82 -93.31,115.68 -139.23,168.19 -182.97,209.19 -365.95,418.36 -548.93,627.54zm1388.19 4587.67c-83.61,-15.44 -152.62,-52.72 -227.76,-96.37 20.91,-8.28 32.73,-12.97 44.59,-17.61 150.32,-58.86 142.77,-69.48 188.35,96.44 0.56,2.05 -1.28,4.72 -5.18,17.54zm-1182.83 -6363.27c11.01,-27.99 20.43,-47.38 26.14,-67.75 5.67,-20.3 10.43,-42.35 -11.59,-57.99 -22.94,-16.27 -73.19,-22.49 -89.89,-8.07 -19.12,16.53 -39.69,34.54 -50.81,56.16 -50.74,98.49 -98.67,198.35 -146.79,298.11 -5.56,11.51 -5.94,25.37 -10.23,44.96 23.82,0.38 43.53,3.67 62.02,0.45 90.35,-15.78 180.42,-33.11 270.48,-50.43 11.65,-2.23 22.98,-6.85 33.87,-11.64 47.17,-20.71 71.1,-53.75 67.81,-92.63 -3.55,-42.33 -39.15,-84.85 -83.01,-97.05 -20.5,-5.69 -41.81,-8.79 -68,-14.11zm1182.83 -2812.08c-83.61,15.45 -152.62,52.74 -227.76,96.38 20.91,8.26 32.73,12.96 44.59,17.59 150.32,58.87 142.77,69.47 188.35,-96.44 0.56,-2.06 -1.28,-4.72 -5.18,-17.53zm1295.98 -5666.23c27.4,-28.87 64.06,-46.81 100,-66.26 109.12,-59.02 217.81,-118.77 326.28,-178.9 43.33,-24.04 85.56,-49.92 128.41,-74.76 14.9,-8.65 37.28,-0.25 40.16,14.58 1.53,7.92 3.82,15.73 4.77,23.7 18.24,152.07 36.42,304.17 54.42,456.28l8.62 73.19c187.3,-324.67 476.32,-532.9 875.95,-614 179.47,-36.43 358.55,-74.63 537.77,-112.12 63.2,-13.22 122.33,-37.01 178.25,-67.72 116.29,-63.9 155.35,-168.48 108.63,-289.29 -21.03,-54.42 -52.66,-103.06 -89.66,-148.73 -8.72,-10.78 -26.25,-22.09 -14.03,-38.37 11.63,-15.45 27.53,-6.07 41.82,-0.37 128.06,51.19 252.8,106.84 372.73,168.71l0 2893.11c-134.57,76.71 -279.16,133.58 -420.46,196.93 -182.14,81.67 -366.12,159.98 -519.69,289.41l-0.18 0.54c-66.66,75.63 -137.03,148.35 -187.66,236.06 -93.87,162.68 -117.61,331.34 -50.65,508.69 7.55,16.86 37.72,36.98 15.59,49.67 -19.51,11.18 -43.97,-14.11 -60.9,-32.23 -222.8,-134.27 -415.42,-300.93 -573.1,-503.93 -59.13,-76.13 -118.43,-153 -151.01,-244.78l-0.36 -0.63c-87.49,-139.02 -132.27,-292.98 -149.03,-452 -57.08,-541.63 174.22,-968.54 578.43,-1323.41 9.42,-8.28 22.42,-12.72 33.75,-18.95 24,-53.61 -25.39,-32.57 -41.28,-33.31 -164.77,-7.64 -319.69,31.78 -468.07,98.07 -38.05,17.01 -74.99,36.52 -111.45,56.6 -67.89,37.36 -74.59,34.54 -75.43,-43.37 -1.2,-112.6 19.34,-221.27 55.6,-326.42 -35.61,-6.22 -70.72,-15.46 -105.66,-24.93 -18.93,-5.13 -37.66,-18.05 -51.56,-31.97 -43.42,-43.48 -84.59,-89.08 -126.45,-134.01 -78.2,-83.85 -156.19,-167.84 -234.43,-251.64 -14,-15 -28.88,-29.26 -30.11,-53.44zm-868.51 -2914.24c38.37,-34.23 78.35,-66.96 119.7,-97.72 59.61,-44.33 121.05,-86.52 183.17,-127.54 107.62,-71.06 221.22,-130.56 349.46,-160.15 24.35,-5.62 48.62,-12.65 71.71,-21.84 46.9,-18.69 95.78,-28.54 145.57,-36.01 61.98,-9.33 123.81,-19.8 185.76,-29.41 13.83,-2.15 35.8,12.26 37.95,25.06 8.12,47.83 16.71,95.62 23.03,143.68 8.94,68.08 16.19,136.38 23.73,204.64 1.76,15.95 1.94,32.1 2.34,48.17 0.31,13.32 -14.27,32.17 -28.09,36.85 -11.8,3.99 -23.49,8.73 -35.63,11.27 -28.63,5.96 -57.29,12.71 -86.32,15.7 -75.37,7.77 -147.42,28.33 -220.05,47.84 -69.64,18.72 -132.77,48.74 -191.21,88.62 -68.29,46.62 -136.33,93.64 -203.31,141.98 -26.63,19.21 -51.03,41.61 -74.92,64.06 -83.85,78.86 -166.53,158.87 -250.63,237.47 -18.57,17.34 -36.06,35.36 -52.24,54.36 -16.17,-18.99 -33.66,-37.01 -52.21,-54.36 -84.14,-78.59 -166.82,-158.6 -250.65,-237.47 -23.89,-22.45 -48.28,-44.85 -74.92,-64.06 -66.97,-48.34 -135.02,-95.36 -203.31,-141.98 -58.46,-39.88 -121.58,-69.9 -191.21,-88.62 -72.65,-19.51 -144.69,-40.08 -220.06,-47.84 -29.03,-2.99 -57.69,-9.74 -86.31,-15.7 -12.15,-2.54 -23.85,-7.27 -35.64,-11.27 -13.82,-4.68 -28.4,-23.54 -28.07,-36.85 0.37,-16.07 0.58,-32.22 2.32,-48.17 7.52,-68.26 14.79,-136.56 23.75,-204.64 6.28,-48.06 14.91,-95.85 23.01,-143.68 2.16,-12.8 24.14,-27.21 37.95,-25.06 61.96,9.61 123.78,20.08 185.78,29.41 49.77,7.47 98.65,17.32 145.56,36.01 23.1,9.2 47.36,16.22 71.7,21.84 128.24,29.59 241.84,89.09 349.47,160.15 62.12,41.03 123.55,83.21 183.18,127.54 41.34,30.76 81.32,63.49 119.68,97.72zm536.34 -693.46c-3.13,1.51 -6.22,3.07 -9.32,4.7 -18.11,9.56 -38.72,15.46 -58.86,20.52 -36.24,9.16 -76.39,9.92 -108.88,25.71 -74.33,36.19 -151.35,68.59 -217.27,119.64 -32.6,25.25 -66.32,49.43 -101.32,71.47 -13.75,8.68 -27.32,17.55 -40.7,26.61 -13.39,-9.06 -26.95,-17.93 -40.7,-26.61 -34.97,-22.03 -68.71,-46.22 -101.32,-71.47 -65.91,-51.05 -142.93,-83.44 -217.26,-119.64 -32.48,-15.79 -72.63,-16.55 -108.88,-25.71 -20.15,-5.06 -40.75,-10.97 -58.87,-20.52 -3.07,-1.63 -6.19,-3.19 -9.3,-4.7 3.1,-1.52 6.22,-3.07 9.3,-4.69 18.12,-9.58 38.72,-15.48 58.87,-20.54 36.25,-9.13 76.4,-9.89 108.88,-25.71 74.33,-36.16 151.35,-68.57 217.26,-119.63 32.61,-25.25 66.34,-49.42 101.32,-71.48 13.75,-8.66 27.31,-17.54 40.7,-26.6 13.38,9.06 26.95,17.94 40.7,26.6 34.99,22.05 68.72,46.23 101.32,71.48 65.92,51.06 142.94,83.46 217.27,119.63 32.49,15.82 72.64,16.58 108.88,25.71 20.14,5.06 40.75,10.97 58.86,20.54 3.09,1.62 6.18,3.17 9.32,4.69zm524.94 1074.66c139.09,-25.93 132.59,-29.97 149.19,100.2 21.45,168.3 40.37,336.89 60.54,505.33 11.5,96.27 24.01,192.43 34.58,288.8 3.95,35.98 5.13,72.44 4.46,108.64 -0.19,10.18 -8.96,25.11 -18.08,29.46 -74.86,35.7 -150.71,69.52 -226.32,103.74 -18.9,8.58 -37.51,18.09 -57.17,24.69 -97.61,32.67 -154.46,106.51 -201.98,188.29 -34.75,59.83 -65.76,121.75 -96.81,183.5 -18.22,36.27 -37.35,72.87 -48.96,111.32 -50.25,166.54 -106.63,332.06 -110.67,508.11 -0.17,6.74 -7.18,13.47 -11.32,20.02 -5.48,8.65 -17.88,5.55 -31.64,-7.88 -8.83,-8.6 -17.94,-16.97 -26.35,-25.97 -95.2,-101.98 -190.31,-204.04 -285.43,-306.1 -65.08,-69.85 -129.81,-140.04 -195.33,-209.51 -65.52,69.47 -130.23,139.66 -195.33,209.51 -95.12,102.06 -190.21,204.12 -285.44,306.1 -8.39,9 -17.5,17.37 -26.34,25.97 -13.76,13.43 -26.16,16.52 -31.63,7.88 -4.13,-6.55 -11.16,-13.28 -11.32,-20.02 -4.05,-176.06 -60.42,-341.57 -110.68,-508.11 -11.6,-38.46 -30.74,-75.05 -48.96,-111.32 -31.05,-61.75 -62.04,-123.67 -96.8,-183.5 -47.52,-81.78 -104.37,-155.62 -202,-188.29 -19.63,-6.59 -38.25,-16.11 -57.16,-24.69 -75.59,-34.22 -151.45,-68.03 -226.31,-103.74 -9.12,-4.35 -17.9,-19.28 -18.08,-29.46 -0.67,-36.2 0.51,-72.66 4.46,-108.64 10.58,-96.37 23.08,-192.53 34.59,-288.8 20.14,-168.44 39.07,-337.03 60.52,-505.33 16.61,-130.17 10.09,-126.12 149.2,-100.2 99.31,22.74 198.82,54.35 286.16,112.2 117.2,77.65 234.88,155.2 331.5,257.77 11.24,11.94 23.77,22.76 35.81,33.95 159.61,148.2 268.25,329.37 355.59,522.8 20.3,44.99 36.87,91.66 52.21,138.75 15.34,-47.09 31.92,-93.76 52.24,-138.75 87.33,-193.44 195.96,-374.61 355.56,-522.8 12.07,-11.19 24.6,-22.01 35.82,-33.95 96.62,-102.57 214.3,-180.12 331.49,-257.77 87.35,-57.86 186.85,-89.46 286.17,-112.2zm549.01 700.95c-11,27.97 -20.42,47.37 -26.13,67.75 -5.67,20.29 -10.44,42.34 11.6,57.98 22.93,16.27 73.18,22.5 89.87,8.08 19.13,-16.54 39.7,-34.55 50.81,-56.17 50.75,-98.49 98.68,-198.35 146.81,-298.11 5.56,-11.51 5.93,-25.37 10.22,-44.97 -23.8,-0.37 -43.53,-3.66 -62.02,-0.44 -90.36,15.78 -180.41,33.11 -270.48,50.43 -11.64,2.23 -22.99,6.84 -33.88,11.63 -47.17,20.73 -71.09,53.76 -67.81,92.65 3.56,42.32 39.17,84.83 83.02,97.04 20.5,5.69 41.81,8.78 67.99,14.12zm1814.55 524.75c48.66,11.37 82.84,22.04 117.78,26.82l0 -233.87c-4.55,-1.99 -9.15,-3.81 -13.8,-5.38 -174.85,-58.99 -351.42,-113.32 -527.81,-167.99 -20.37,-6.3 -43.59,-4.07 -77.21,-6.73 4.25,37.16 2.76,68.57 11.94,96.73 44.77,137.6 92.07,274.43 139.34,411.25 6.11,17.68 16.16,34.41 26.37,50.4 44.22,69.29 104.26,99.84 168.54,86.82 69.98,-14.18 133.7,-78.34 145.15,-149.18 5.35,-33.13 6.13,-66.93 9.71,-108.86zm-552.99 -827.69c103.21,32.95 199.75,66.48 297.99,94.52 125.5,35.8 249.61,37.68 372.78,11.43l0 -719.08c-15.69,32.98 -31.38,65.96 -47.06,98.93 -16.42,34.5 -35.12,68.62 -57.53,99.71 -54.73,75.97 -114.16,82.19 -180.64,18.35 -101.09,-97.09 -138.18,-208.5 -85.74,-343.94 91.38,-236.03 179.9,-473.09 266.62,-710.73 2.65,-7.26 5.22,-14.54 7.73,-21.86 -2.5,-7.31 -5.07,-14.61 -7.73,-21.86 -86.72,-237.64 -175.24,-474.72 -266.62,-710.74 -52.44,-135.43 -15.35,-246.84 85.74,-343.93 66.47,-63.85 125.91,-57.64 180.64,18.34 22.4,31.11 41.11,65.21 57.53,99.72 15.68,32.98 31.37,65.96 47.06,98.92l0 -719.06c-123.17,-26.28 -247.28,-24.4 -372.78,11.43 -98.23,28.03 -194.78,61.56 -297.99,94.5 -14.96,-29.72 -30.3,-57.68 -43.34,-86.6 -49.66,-110.16 -97.54,-221.11 -148.38,-330.76 -15.95,-34.44 -35.59,-68.43 -59.59,-98.06 -63.53,-78.4 -119.7,-84.04 -203.26,-28.08 -67.34,45.1 -104.07,112.81 -146.88,176.67 -108.28,161.44 -113.46,328.12 -36.02,502.53 129.13,290.84 262.81,580.07 380.87,875.1 71.34,178.32 174.15,330.68 309.63,461.87 -135.48,131.2 -238.3,283.54 -309.63,461.86 -118.06,295.04 -251.74,584.27 -380.87,875.1 -77.44,174.44 -72.26,341.1 36.02,502.53 42.81,63.85 79.53,131.56 146.88,176.68 83.56,55.97 139.73,50.32 203.26,-28.08 24,-29.62 43.64,-63.62 59.59,-98.06 50.83,-109.66 98.71,-220.6 148.38,-330.76 13.04,-28.93 28.38,-56.88 43.34,-86.61zm-1082.22 -566.41c76.39,93.8 179.94,146 297.44,188.5 115.7,-169.85 228.79,-334.1 340.04,-499.5 133.49,-198.42 266.98,-396.84 400.46,-595.26 -133.49,-198.42 -266.98,-396.84 -400.46,-595.26 -111.25,-165.4 -224.35,-329.65 -340.04,-499.51 -117.5,42.52 -221.05,94.71 -297.44,188.5 44.8,10.3 91.69,15.77 133.66,32.67 25.65,10.34 48.65,35.11 64.47,58.65 182.19,271.17 364.26,542.45 544.3,814.95 -180.04,272.5 -362.11,543.79 -544.3,814.94 -15.82,23.56 -38.83,48.32 -64.47,58.66 -41.97,16.88 -88.86,22.37 -133.66,32.66zm26.04 -906.26c-182.98,209.18 -365.96,418.36 -548.93,627.55 -45.93,52.5 -88.99,107.35 -139.24,168.19 73.31,38.53 144.33,34.75 212.79,41.87 13.56,-26.14 23.03,-55.36 41.37,-77.82 67.48,-82.65 136.93,-163.89 207.41,-244.21 151.11,-172.18 302.99,-343.73 454.51,-515.58 -151.52,-171.85 -303.4,-343.41 -454.51,-515.59 -70.48,-80.31 -139.92,-161.53 -207.41,-244.2 -18.34,-22.46 -27.81,-51.69 -41.37,-77.83 -68.45,7.1 -139.48,3.35 -212.79,41.9 50.25,60.82 93.31,115.67 139.24,168.17 182.97,209.19 365.95,418.37 548.93,627.55zm-1388.21 4587.68c83.63,-15.46 152.63,-52.74 227.79,-96.39 -20.94,-8.26 -32.75,-12.96 -44.59,-17.59 -150.33,-58.88 -142.79,-69.48 -188.36,96.44 -0.56,2.06 1.28,4.72 5.16,17.54zm-427.46 133.38c82.92,-196.12 210.84,-468.09 267.96,-559.61 264.92,123.63 530.54,247.58 796.17,371.53l-1.16 18.49 -1062.97 353.49 -1062.96 -353.49 -1.16 -18.49c265.61,-123.95 531.24,-247.9 796.17,-371.53 57.12,91.52 185.04,363.49 267.95,559.61zm293.62 680.36l-13.29 -13.21 -280.33 80.14 -280.32 -80.14 -13.29 13.21c11.4,28.47 20.3,58.17 34.6,85.2 85.75,162.26 172.52,323.96 259.01,485.84 86.49,-161.88 173.27,-323.58 259.02,-485.84 14.29,-27.03 23.21,-56.73 34.6,-85.2zm-293.62 -344.04c431.3,-123.46 862.63,-246.86 1293.98,-370.14 61.89,-17.69 124.47,-33.1 185.25,-49.18 36.44,42.37 27.01,82.18 7.27,121.37 -28.5,56.52 -58.48,112.31 -87.89,168.4 -323.52,616.87 -646.97,1233.8 -970.83,1850.51 -20.4,38.84 -44.04,76.09 -69.53,119.82 -43.83,-18.64 -84.31,-32.8 -121.83,-52.25 -78.82,-40.86 -157.63,-81.72 -236.44,-122.58 -78.81,40.86 -157.61,81.72 -236.42,122.58 -37.54,19.45 -78.01,33.61 -121.85,52.25 -25.49,-43.73 -49.11,-80.98 -69.52,-119.82 -323.86,-616.71 -647.31,-1233.64 -970.83,-1850.51 -29.41,-56.09 -59.38,-111.88 -87.89,-168.4 -19.74,-39.19 -29.18,-79 7.27,-121.37 60.77,16.08 123.37,31.49 185.26,49.18 431.34,123.28 862.67,246.68 1293.96,370.14zm0 -5750.84c38.37,34.23 78.35,66.97 119.7,97.72 59.61,44.34 121.05,86.51 183.17,127.52 107.62,71.07 221.22,130.57 349.46,160.17 24.35,5.61 48.62,12.64 71.71,21.84 46.9,18.69 95.78,28.52 145.57,36.01 61.98,9.33 123.81,19.81 185.76,29.42 13.83,2.13 35.8,-12.28 37.95,-25.07 8.12,-47.82 16.71,-95.61 23.03,-143.67 8.94,-68.08 16.19,-136.39 23.73,-204.64 1.76,-15.97 1.94,-32.1 2.34,-48.18 0.31,-13.31 -14.27,-32.17 -28.09,-36.84 -11.8,-3.99 -23.49,-8.75 -35.63,-11.27 -28.63,-5.95 -57.29,-12.73 -86.32,-15.71 -75.37,-7.77 -147.42,-28.33 -220.05,-47.84 -69.64,-18.71 -132.77,-48.74 -191.21,-88.64 -68.29,-46.59 -136.33,-93.61 -203.31,-141.96 -26.63,-19.22 -51.03,-41.6 -74.92,-64.06 -83.85,-78.87 -166.53,-158.88 -250.63,-237.46 -18.57,-17.34 -36.06,-35.38 -52.24,-54.37 -16.17,18.98 -33.66,37.02 -52.21,54.37 -84.14,78.57 -166.82,158.58 -250.65,237.46 -23.89,22.46 -48.28,44.84 -74.92,64.06 -66.97,48.35 -135.02,95.37 -203.31,141.96 -58.46,39.9 -121.58,69.93 -191.21,88.64 -72.65,19.51 -144.69,40.08 -220.06,47.84 -29.03,2.98 -57.69,9.76 -86.31,15.71 -12.15,2.52 -23.85,7.27 -35.64,11.27 -13.82,4.67 -28.4,23.54 -28.07,36.84 0.37,16.08 0.58,32.21 2.32,48.18 7.52,68.25 14.79,136.56 23.75,204.64 6.28,48.06 14.91,95.85 23.01,143.67 2.16,12.79 24.14,27.2 37.95,25.07 61.96,-9.61 123.78,-20.09 185.78,-29.42 49.77,-7.49 98.65,-17.32 145.56,-36.01 23.1,-9.21 47.36,-16.23 71.7,-21.84 128.24,-29.6 241.84,-89.1 349.47,-160.17 62.12,-41.02 123.55,-83.18 183.18,-127.52 41.34,-30.75 81.32,-63.49 119.68,-97.72zm1061.29 -381.21c139.09,25.94 132.59,29.99 149.19,-100.21 21.45,-168.28 40.37,-336.87 60.54,-505.31 11.5,-96.27 24.01,-192.44 34.58,-288.79 3.95,-35.98 5.13,-72.45 4.46,-108.65 -0.19,-10.18 -8.96,-25.1 -18.08,-29.45 -74.86,-35.72 -150.71,-69.52 -226.32,-103.75 -18.9,-8.57 -37.51,-18.11 -57.17,-24.69 -97.61,-32.65 -154.46,-106.5 -201.98,-188.28 -34.75,-59.84 -65.76,-121.78 -96.81,-183.53 -18.22,-36.26 -37.35,-72.86 -48.96,-111.3 -50.25,-166.54 -106.63,-332.05 -110.67,-508.11 -0.17,-6.75 -7.18,-13.47 -11.32,-20 -5.48,-8.67 -17.88,-5.56 -31.64,7.85 -8.83,8.61 -17.94,16.98 -26.35,25.98 -95.2,101.98 -190.31,204.05 -285.43,306.11 -65.08,69.84 -129.81,140.02 -195.33,209.5 -65.52,-69.48 -130.23,-139.66 -195.33,-209.5 -95.12,-102.06 -190.21,-204.13 -285.44,-306.11 -8.39,-9 -17.5,-17.37 -26.34,-25.98 -13.76,-13.41 -26.16,-16.51 -31.63,-7.85 -4.13,6.53 -11.16,13.25 -11.32,20 -4.05,176.07 -60.42,341.57 -110.68,508.11 -11.6,38.45 -30.74,75.04 -48.96,111.3 -31.05,61.75 -62.04,123.69 -96.8,183.53 -47.52,81.78 -104.37,155.63 -202,188.28 -19.63,6.57 -38.25,16.12 -57.16,24.69 -75.59,34.23 -151.45,68.02 -226.31,103.75 -9.12,4.35 -17.9,19.27 -18.08,29.45 -0.67,36.2 0.51,72.67 4.46,108.65 10.58,96.35 23.08,192.52 34.59,288.79 20.14,168.44 39.07,337.03 60.52,505.31 16.61,130.2 10.09,126.14 149.2,100.21 99.31,-22.73 198.82,-54.34 286.16,-112.19 117.2,-77.64 234.88,-155.18 331.5,-257.78 11.24,-11.93 23.77,-22.74 35.81,-33.94 159.61,-148.19 268.25,-329.35 355.59,-522.79 20.3,-45.01 36.87,-91.66 52.21,-138.76 15.34,47.1 31.92,93.75 52.24,138.76 87.33,193.45 195.96,374.61 355.56,522.79 12.07,11.2 24.6,22.01 35.82,33.94 96.62,102.6 214.3,180.14 331.49,257.78 87.35,57.86 186.85,89.46 286.17,112.19zm549.01 -700.92c-11,-27.99 -20.42,-47.39 -26.13,-67.76 -5.67,-20.31 -10.44,-42.35 11.6,-57.99 22.93,-16.28 73.18,-22.5 89.87,-8.07 19.13,16.53 39.7,34.55 50.81,56.16 50.75,98.48 98.68,198.36 146.81,298.11 5.56,11.52 5.93,25.37 10.22,44.98 -23.8,0.36 -43.53,3.65 -62.02,0.42 -90.36,-15.77 -180.41,-33.1 -270.48,-50.41 -11.64,-2.23 -22.99,-6.87 -33.88,-11.66 -47.17,-20.7 -71.09,-53.74 -67.81,-92.63 3.56,-42.33 39.17,-84.84 83.02,-97.03 20.5,-5.7 41.81,-8.79 67.99,-14.11zm-1182.84 -2812.09c83.63,15.44 152.63,52.73 227.79,96.37 -20.94,8.28 -32.75,12.97 -44.59,17.61 -150.33,58.87 -142.79,69.47 -188.36,-96.43 -0.56,-2.06 1.28,-4.73 5.16,-17.55zm-427.46 -133.4c82.92,196.11 210.84,468.12 267.96,559.62 264.92,-123.64 530.54,-247.59 796.17,-371.54l-1.16 -18.47 -1062.97 -353.51 -1062.96 353.51 -1.16 18.47c265.61,123.95 531.24,247.9 796.17,371.54 57.12,-91.5 185.04,-363.51 267.95,-559.62zm293.62 -680.37l-13.29 13.23 -280.33 -80.14 -280.32 80.14 -13.29 -13.23c11.4,-28.46 20.3,-58.14 34.6,-85.2 85.75,-162.23 172.52,-323.96 259.01,-485.82 86.49,161.86 173.27,323.59 259.02,485.82 14.29,27.06 23.21,56.74 34.6,85.2zm-293.62 344.07c431.3,123.45 862.63,246.84 1293.98,370.12 61.89,17.71 124.47,33.12 185.25,49.2 36.44,-42.39 27.01,-82.2 7.27,-121.36 -28.5,-56.52 -58.48,-112.34 -87.89,-168.43 -323.52,-616.86 -646.97,-1233.78 -970.83,-1850.51 -20.4,-38.82 -44.04,-76.07 -69.53,-119.8 -43.83,18.62 -84.31,32.78 -121.83,52.24 -78.82,40.86 -157.63,81.71 -236.44,122.59 -78.81,-40.88 -157.61,-81.73 -236.42,-122.59 -37.54,-19.46 -78.01,-33.62 -121.85,-52.24 -25.49,43.73 -49.11,80.98 -69.52,119.8 -323.86,616.73 -647.31,1233.65 -970.83,1850.51 -29.41,56.09 -59.38,111.91 -87.89,168.43 -19.74,39.16 -29.18,78.97 7.27,121.36 60.77,-16.08 123.37,-31.49 185.26,-49.2 431.34,-123.28 862.67,-246.67 1293.96,-370.12zm-3468.97 2340.69c97.07,47.35 197.03,90.95 299.1,131.76 14.27,5.7 30.19,15.1 41.8,-0.36 12.22,-16.27 -5.3,-27.58 -14.04,-38.37 -36.99,-45.67 -68.61,-94.31 -89.64,-148.73 -46.73,-120.82 -7.66,-225.4 108.64,-289.3 55.91,-30.72 115.04,-54.49 178.23,-67.69 179.23,-37.51 358.32,-75.72 537.78,-112.13 399.59,-81.12 688.62,-289.34 875.94,-613.99l8.63 73.18c17.99,152.11 36.16,304.19 54.42,456.27 0.94,7.97 3.23,15.79 4.77,23.7 2.86,14.82 25.25,23.22 40.16,14.58 42.86,-24.84 85.08,-50.72 128.4,-74.75 108.47,-60.13 217.18,-119.88 326.28,-178.91 35.93,-19.46 72.61,-37.38 100,-66.27 -1.21,-24.16 -16.1,-38.41 -30.11,-53.41 -78.24,-83.81 -156.23,-167.81 -234.41,-251.66 -41.89,-44.93 -83.04,-90.54 -126.46,-134.02 -13.9,-13.93 -32.63,-26.82 -51.56,-31.96 -34.95,-9.48 -70.05,-18.7 -105.67,-24.94 36.27,-105.15 56.81,-213.81 55.6,-326.41 -0.83,-77.91 -7.51,-80.73 -75.43,-43.38 -36.44,20.07 -73.4,39.61 -111.44,56.61 -148.37,66.29 -303.31,105.7 -468.07,98.07 -15.89,-0.74 -65.28,20.29 -41.28,-33.29 11.33,-6.23 24.33,-10.71 33.74,-18.98 404.23,-354.86 635.52,-781.77 578.44,-1323.4 -16.76,-158.99 -61.53,-313 -149.03,-452l-0.36 -0.63c-32.6,-91.79 -91.88,-168.65 -151.02,-244.79 -157.67,-203 -350.29,-369.64 -573.1,-503.92 -16.93,-18.12 -41.38,-43.42 -60.88,-32.23 -22.14,12.7 8.02,32.82 15.57,49.67 66.97,177.35 43.23,346.04 -50.65,508.68 -50.63,87.74 -120.99,160.43 -187.65,236.07l-0.18 0.55c-153.57,129.43 -337.55,207.75 -519.69,289.4 -115.84,51.94 -233.88,99.52 -346.81,157.24l0 2969.74zm0 405.46c13.5,3.42 28.02,7.1 44.13,10.88 3.56,-41.94 4.35,-75.75 9.7,-108.88 11.44,-70.85 75.18,-134.99 145.15,-149.16 64.3,-13.05 124.33,17.51 168.55,86.83 10.22,15.97 20.24,32.71 26.36,50.39 47.27,136.81 94.59,273.65 139.36,411.23 9.16,28.17 7.67,59.59 11.92,96.75 -33.6,-2.67 -56.83,-0.45 -77.2,-6.75 -156.31,-48.42 -312.72,-96.58 -467.96,-147.98l0 -243.31zm0 720.32c98.97,-11.89 198.61,-4.96 299.14,23.73 98.23,28.03 194.78,61.56 297.98,94.5 14.96,-29.72 30.31,-57.68 43.35,-86.6 49.67,-110.16 97.53,-221.11 148.36,-330.76 15.98,-34.44 35.6,-68.43 59.61,-98.06 63.51,-78.4 119.71,-84.04 203.25,-28.08 67.37,45.1 104.07,112.81 146.89,176.67 108.28,161.44 113.48,328.12 36.01,502.53 -129.12,290.84 -262.8,580.07 -380.86,875.1 -71.35,178.32 -174.13,330.68 -309.64,461.87 135.51,131.2 238.3,283.54 309.64,461.86 118.06,295.04 251.74,584.27 380.86,875.1 77.47,174.44 72.27,341.1 -36.01,502.53 -42.82,63.85 -79.51,131.56 -146.89,176.68 -83.54,55.97 -139.74,50.32 -203.25,-28.08 -24.01,-29.62 -43.63,-63.62 -59.61,-98.06 -50.82,-109.66 -98.68,-220.6 -148.36,-330.76 -13.04,-28.93 -28.39,-56.88 -43.35,-86.61 -103.2,32.95 -199.74,66.48 -297.98,94.52 -100.53,28.68 -200.17,35.6 -299.14,23.72l0 -581.18c9.51,16.68 19.76,32.94 30.94,48.45 54.72,75.97 114.15,82.19 180.63,18.35 101.09,-97.09 138.19,-208.5 85.75,-343.94 -91.39,-236.03 -179.9,-473.09 -266.63,-710.73 -2.64,-7.26 -5.2,-14.54 -7.71,-21.86 2.5,-7.31 5.06,-14.61 7.71,-21.86 86.73,-237.64 175.24,-474.72 266.63,-710.74 52.44,-135.43 15.34,-246.84 -85.75,-343.93 -66.47,-63.85 -125.91,-57.64 -180.63,18.34 -11.18,15.51 -21.43,31.76 -30.94,48.45l0 -581.17zm0 3902.13c13.5,-3.42 28.02,-7.1 44.13,-10.87 3.56,41.93 4.35,75.73 9.7,108.86 11.44,70.84 75.18,135 145.15,149.18 64.3,13.02 124.33,-17.53 168.55,-86.82 10.22,-15.99 20.24,-32.72 26.36,-50.4 47.27,-136.82 94.59,-273.65 139.36,-411.25 9.16,-28.17 7.67,-59.57 11.92,-96.73 -33.6,2.66 -56.83,0.43 -77.2,6.73 -156.31,48.43 -312.72,96.59 -467.96,148l0 243.3zm1858.67 -4086.81c11.01,-27.99 20.43,-47.39 26.14,-67.76 5.67,-20.31 10.43,-42.35 -11.59,-57.99 -22.94,-16.28 -73.19,-22.5 -89.89,-8.07 -19.12,16.53 -39.69,34.55 -50.81,56.16 -50.74,98.48 -98.67,198.36 -146.79,298.11 -5.56,11.52 -5.94,25.37 -10.23,44.98 23.82,0.36 43.53,3.65 62.02,0.42 90.35,-15.77 180.42,-33.1 270.48,-50.41 11.65,-2.23 22.98,-6.87 33.87,-11.66 47.17,-20.7 71.1,-53.74 67.81,-92.63 -3.55,-42.33 -39.15,-84.84 -83.01,-97.03 -20.5,-5.7 -41.81,-8.79 -68,-14.11zm-179.33 869.32c-76.4,-93.79 -179.93,-145.99 -297.45,-188.5 -115.7,169.86 -228.78,334.11 -340.04,499.51 -133.48,198.42 -266.98,396.84 -400.45,595.26 133.48,198.42 266.98,396.84 400.45,595.26 111.26,165.4 224.35,329.65 340.04,499.5 117.52,-42.51 221.05,-94.7 297.45,-188.5 -44.82,-10.29 -91.7,-15.78 -133.65,-32.66 -25.67,-10.34 -48.67,-35.1 -64.47,-58.66 -182.21,-271.15 -364.26,-542.44 -544.32,-814.94 180.06,-272.5 362.11,-543.78 544.32,-814.95 15.8,-23.54 38.81,-48.31 64.47,-58.65 41.95,-16.9 88.83,-22.37 133.65,-32.67zm-26.04 906.27c182.98,-209.18 365.96,-418.36 548.93,-627.55 45.92,-52.5 88.99,-107.35 139.23,-168.17 -73.29,-38.55 -144.32,-34.79 -212.79,-41.9 -13.55,26.14 -23.02,55.37 -41.36,77.83 -67.48,82.67 -136.93,163.89 -207.42,244.2 -151.1,172.18 -303,343.74 -454.51,515.59 151.51,171.85 303.41,343.4 454.51,515.58 70.49,80.32 139.93,161.56 207.42,244.21 18.34,22.46 27.81,51.68 41.36,77.82 68.46,-7.11 139.5,-3.34 212.79,-41.87 -50.24,-60.84 -93.31,-115.69 -139.23,-168.19 -182.97,-209.19 -365.95,-418.37 -548.93,-627.55zm1388.19 -4587.67c-83.61,15.44 -152.62,52.73 -227.76,96.37 20.91,8.28 32.73,12.97 44.59,17.61 150.32,58.87 142.77,69.47 188.35,-96.43 0.56,-2.06 -1.28,-4.73 -5.18,-17.55zm-1182.83 6363.28c11.01,27.97 20.43,47.37 26.14,67.75 5.67,20.29 10.43,42.34 -11.59,57.98 -22.94,16.27 -73.19,22.5 -89.89,8.08 -19.12,-16.54 -39.69,-34.55 -50.81,-56.17 -50.74,-98.49 -98.67,-198.35 -146.79,-298.11 -5.56,-11.51 -5.94,-25.37 -10.23,-44.97 23.82,-0.37 43.53,-3.66 62.02,-0.44 90.35,15.78 180.42,33.11 270.48,50.43 11.65,2.23 22.98,6.84 33.87,11.63 47.17,20.73 71.1,53.76 67.81,92.65 -3.55,42.32 -39.15,84.83 -83.01,97.04 -20.5,5.69 -41.81,8.78 -68,14.12zm1182.83 2812.08c-83.61,-15.46 -152.62,-52.74 -227.76,-96.39 20.91,-8.26 32.73,-12.96 44.59,-17.59 150.32,-58.88 142.77,-69.48 188.35,96.44 0.56,2.06 -1.28,4.72 -5.18,17.54z"/>
    </g>
   </g>
  </g>
  <polygon class="fil2" points="-0,0 13801.07,0 13801.07,27970.15 -0,27970.15 "/>
 </g>
</svg>
