<?xml version="1.0" encoding="UTF-8"?>
<!DOCTYPE svg PUBLIC "-//W3C//DTD SVG 1.1//EN" "http://www.w3.org/Graphics/SVG/1.1/DTD/svg11.dtd">
<!-- Creator: CorelDRAW 2021.5 -->
<svg xmlns="http://www.w3.org/2000/svg" xml:space="preserve" width="62px" height="10px" version="1.1" style="shape-rendering:geometricPrecision; text-rendering:geometricPrecision; image-rendering:optimizeQuality; fill-rule:evenodd; clip-rule:evenodd"
viewBox="0 0 5.17 0.82"
 xmlns:xlink="http://www.w3.org/1999/xlink"
 xmlns:xodm="http://www.corel.com/coreldraw/odm/2003">
 <defs>
  <style type="text/css">
   <![CDATA[
    .fil0 {fill:#662483;fill-rule:nonzero}
   ]]>
  </style>
 </defs>
 <g id="Layer_x0020_1">
  <metadata id="CorelCorpID_0Corel-Layer"/>
  <path class="fil0" d="M0.87 0.41c-0.05,0.09 -0.12,0.16 -0.2,0.23 -0.06,0.06 -0.13,0.11 -0.19,0.17 -0.01,0.01 -0.02,0.01 -0.03,0 -0.11,-0.09 -0.23,-0.18 -0.33,-0.3 -0.05,-0.06 -0.1,-0.12 -0.11,-0.2 -0.03,-0.12 0.03,-0.24 0.13,-0.28 0.11,-0.05 0.23,-0.02 0.3,0.08 0.02,0.01 0.02,0.01 0.03,0 0.06,-0.09 0.15,-0.12 0.25,-0.1 0.1,0.02 0.17,0.08 0.19,0.18 0.01,0.02 0.01,0.04 0.01,0.06 0,0.05 -0.02,0.11 -0.05,0.16z"/>
  <path class="fil0" d="M1.93 0.41c-0.05,0.09 -0.12,0.16 -0.2,0.23 -0.06,0.06 -0.12,0.11 -0.19,0.17 -0.01,0.01 -0.01,0.01 -0.02,0 -0.12,-0.09 -0.24,-0.18 -0.34,-0.3 -0.05,-0.06 -0.1,-0.12 -0.11,-0.2 -0.03,-0.12 0.03,-0.24 0.14,-0.28 0.1,-0.05 0.23,-0.02 0.3,0.08 0.01,0.01 0.01,0.01 0.02,0 0.06,-0.09 0.15,-0.12 0.25,-0.1 0.11,0.02 0.17,0.08 0.19,0.18 0.01,0.02 0.01,0.04 0.01,0.06 0,0.05 -0.02,0.11 -0.05,0.16z"/>
  <path class="fil0" d="M3 0.41c-0.06,0.09 -0.13,0.16 -0.2,0.23 -0.07,0.06 -0.13,0.11 -0.2,0.17 0,0.01 -0.01,0.01 -0.02,0 -0.12,-0.09 -0.24,-0.18 -0.34,-0.3 -0.05,-0.06 -0.09,-0.12 -0.11,-0.2 -0.02,-0.12 0.03,-0.24 0.14,-0.28 0.11,-0.05 0.23,-0.02 0.3,0.08 0.01,0.01 0.01,0.01 0.02,0 0.07,-0.09 0.15,-0.12 0.26,-0.1 0.1,0.02 0.16,0.08 0.19,0.18 0,0.02 0,0.04 0,0.06 0,0.05 -0.02,0.11 -0.04,0.16z"/>
  <path class="fil0" d="M4.06 0.41c-0.05,0.09 -0.13,0.16 -0.2,0.23 -0.06,0.06 -0.13,0.11 -0.19,0.17 -0.01,0.01 -0.02,0.01 -0.03,0 -0.11,-0.09 -0.23,-0.18 -0.33,-0.3 -0.06,-0.06 -0.1,-0.12 -0.12,-0.2 -0.02,-0.12 0.03,-0.24 0.14,-0.28 0.11,-0.05 0.23,-0.02 0.3,0.08 0.01,0.01 0.02,0.01 0.03,0 0.06,-0.09 0.14,-0.12 0.25,-0.1 0.1,0.02 0.16,0.08 0.19,0.18 0,0.02 0,0.04 0.01,0.06 0,0.05 -0.02,0.11 -0.05,0.16z"/>
  <path class="fil0" d="M5.12 0.41c-0.05,0.09 -0.12,0.16 -0.2,0.23 -0.06,0.06 -0.13,0.11 -0.19,0.17 -0.01,0.01 -0.02,0.01 -0.03,0 -0.11,-0.09 -0.23,-0.18 -0.33,-0.3 -0.05,-0.06 -0.1,-0.12 -0.12,-0.2 -0.02,-0.12 0.04,-0.24 0.14,-0.28 0.11,-0.05 0.23,-0.02 0.3,0.08 0.01,0.01 0.02,0.01 0.03,0 0.06,-0.09 0.15,-0.12 0.25,-0.1 0.1,0.02 0.17,0.08 0.19,0.18 0.01,0.02 0.01,0.04 0.01,0.06 0,0.05 -0.02,0.11 -0.05,0.16z"/>
 </g>
</svg>
