<?xml version="1.0" encoding="UTF-8"?>
<!DOCTYPE svg PUBLIC "-//W3C//DTD SVG 1.1//EN" "http://www.w3.org/Graphics/SVG/1.1/DTD/svg11.dtd">
<!-- Creator: CorelDRAW 2021.5 -->
<svg xmlns="http://www.w3.org/2000/svg" xml:space="preserve" width="92px" height="18px" version="1.1" style="shape-rendering:geometricPrecision; text-rendering:geometricPrecision; image-rendering:optimizeQuality; fill-rule:evenodd; clip-rule:evenodd"
viewBox="0 0 10.12 1.94"
 xmlns:xlink="http://www.w3.org/1999/xlink"
 xmlns:xodm="http://www.corel.com/coreldraw/odm/2003">
 <defs>
  <style type="text/css">
   <![CDATA[
    .fil0 {fill:#99E683;fill-rule:nonzero}
   ]]>
  </style>
 </defs>
 <g id="Layer_x0020_1">
  <metadata id="CorelCorpID_0Corel-Layer"/>
  <path class="fil0" d="M0 1.29c0.4,-0.41 0.8,-0.82 1.26,-1.29 0.45,0.48 0.86,0.93 1.28,1.37l-0.07 0.17 -2.43 -0.06c-0.01,-0.07 -0.03,-0.13 -0.04,-0.19z"/>
  <path class="fil0" d="M3.73 1.54c0.41,-0.4 0.81,-0.81 1.26,-1.28 0.45,0.48 0.87,0.93 1.28,1.37l-0.06 0.17 -2.44 -0.07c-0.01,-0.06 -0.02,-0.12 -0.04,-0.19z"/>
  <path class="fil0" d="M7.58 1.69c0.4,-0.41 0.81,-0.81 1.26,-1.28 0.45,0.48 0.87,0.92 1.28,1.37 -0.02,0.06 -0.04,0.11 -0.06,0.16 -0.81,-0.02 -1.63,-0.04 -2.44,-0.06 -0.01,-0.06 -0.02,-0.12 -0.04,-0.19z"/>
 </g>
</svg>
