<?xml version="1.0" encoding="UTF-8"?>
<!DOCTYPE svg PUBLIC "-//W3C//DTD SVG 1.1//EN" "http://www.w3.org/Graphics/SVG/1.1/DTD/svg11.dtd">
<!-- Creator: CorelDRAW 2021.5 -->
<svg xmlns="http://www.w3.org/2000/svg" xml:space="preserve" width="270px" height="54px" version="1.1" style="shape-rendering:geometricPrecision; text-rendering:geometricPrecision; image-rendering:optimizeQuality; fill-rule:evenodd; clip-rule:evenodd"
viewBox="0 0 231.27 46.63"
 xmlns:xlink="http://www.w3.org/1999/xlink"
 xmlns:xodm="http://www.corel.com/coreldraw/odm/2003">
 <defs>
  <style type="text/css">
   <![CDATA[
    .fil3 {fill:#1D1515;fill-rule:nonzero}
    .fil0 {fill:#69FFD5;fill-rule:nonzero}
    .fil1 {fill:#E22083;fill-rule:nonzero}
    .fil2 {fill:#FFE900;fill-rule:nonzero}
   ]]>
  </style>
 </defs>
 <g id="Layer_x0020_1">
  <metadata id="CorelCorpID_0Corel-Layer"/>
  <path class="fil0" d="M41.98 17.01c-1.46,4.7 -4.05,8.83 -6.79,12.85 -2.28,3.33 -4.74,6.54 -7.1,9.82 -0.32,0.45 -0.58,0.68 -1.18,0.36 -6.27,-3.31 -12.72,-6.3 -18.44,-10.56 -3.02,-2.26 -5.76,-4.77 -7.36,-8.31 -2.33,-5.15 -0.91,-11.04 3.49,-14.3 4.49,-3.34 10.4,-3.08 14.66,0.7 0.7,0.62 0.83,0.53 1.18,-0.28 1.97,-4.61 5.48,-7.18 10.5,-7.29 4.92,-0.1 8.48,2.26 10.68,6.64 0.38,0.77 0.58,1.63 0.86,2.44 0.6,2.7 0.3,5.34 -0.5,7.93z"/>
  <path class="fil1" d="M12.16 26.93l1.93 -6.68 17.48 0 2.17 6.68 -21.58 0zm29.08 0.21c0,-1.17 -0.94,-2.11 -2.11,-2.11l-2.57 0 -1.32 -4.06c-0.84,-2.61 -3.28,-4.37 -6.02,-4.37l-12.68 0c-2.82,0 -5.3,1.86 -6.08,4.57l-1.12 3.86 -2.32 0c-1.17,0 -2.12,0.94 -2.12,2.11 0,1.15 1.25,2.08 2.38,2.12l-0.6 3.58 0 4.62 0 4.55 0 1.7c0,1.61 1.31,2.92 2.92,2.92 1.61,0 2.92,-1.31 2.92,-2.92l0 -1.7 20.64 0 0 1.7c0,1.61 1.3,2.92 2.92,2.92l0.51 0c1.62,0 2.93,-1.31 2.93,-2.92l0 -1.7 0 -4.55 0 -4.62 -0.86 -3.58 0.47 0c1.17,0 2.11,-0.95 2.11,-2.12z"/>
  <path class="fil2" d="M36.55 34.05c0,1.13 -0.91,2.04 -2.03,2.04 -1.12,0 -2.03,-0.91 -2.03,-2.04 0,-1.12 0.91,-2.03 2.03,-2.03 1.12,0 2.03,0.91 2.03,2.03z"/>
  <path class="fil2" d="M13.86 34.05c0,1.13 -0.91,2.04 -2.03,2.04 -1.12,0 -2.03,-0.91 -2.03,-2.04 0,-1.12 0.91,-2.03 2.03,-2.03 1.12,0 2.03,0.91 2.03,2.03z"/>
  <path class="fil3" d="M60.11 15.34c-0.44,-0.15 -0.75,-0.22 -0.92,-0.22 -0.35,0 -0.7,0.35 -1.06,1.06 -0.47,0.82 -0.8,1.88 -1.01,3.17 -0.14,0.78 -0.22,1.61 -0.22,2.45 0,0.59 0.03,1.04 0.09,1.33 0.09,0.56 0.17,0.91 0.29,1.05 0.1,0.15 0.33,0.23 0.72,0.27l0.21 0c0.3,0 0.81,-0.15 1.55,-0.44 1.5,-0.58 2.57,-1.21 3.21,-1.84 0.82,-0.83 1.23,-1.55 1.23,-2.16 0,-0.54 -0.35,-1.27 -1.04,-2.21 -0.98,-1.26 -1.99,-2.07 -3.05,-2.46zm-3.26 17.65c0,0.56 -0.16,1.24 -0.5,2.08 -0.33,0.84 -0.71,1.26 -1.12,1.26 -0.59,0 -1.53,-1.26 -2.82,-3.78 -0.74,-1.5 -1.17,-2.75 -1.32,-3.75 -0.04,-0.26 -0.05,-2.08 -0.05,-5.45 0.04,-2.67 0.07,-4.35 0.14,-5.04 0.06,-0.69 0.23,-1.4 0.52,-2.13 0.41,-1.04 0.97,-1.9 1.67,-2.6 0.76,-0.76 1.7,-1.44 2.81,-2.03 1.1,-0.59 2.1,-0.94 3.01,-1.05 0.06,0 0.16,-0.01 0.31,-0.03 0.14,-0.01 0.24,-0.02 0.3,-0.02 1.76,0 3.38,0.38 4.85,1.12 1.46,0.75 2.61,1.69 3.43,2.8 0.39,0.56 0.8,1.36 1.24,2.39 0.44,1.05 0.65,1.94 0.65,2.67 0,0.97 -0.19,2.11 -0.58,3.44 -0.13,0.5 -0.46,1.16 -0.96,1.97 -0.5,0.82 -0.93,1.39 -1.32,1.72 -1.02,0.91 -1.78,1.5 -2.28,1.76 -1.76,0.82 -3.1,1.23 -4.01,1.23l-0.31 0c-0.56,-0.02 -1.06,-0.13 -1.5,-0.35 -0.67,-0.32 -1.06,-0.52 -1.15,-0.61 -0.28,-0.18 -0.46,-0.27 -0.52,-0.27 -0.04,0 -0.12,0.76 -0.26,2.27 -0.15,1.51 -0.23,2.31 -0.23,2.4zm16.34 -12.63c0.29,-0.11 0.62,-0.16 1.01,-0.14 0.65,0.09 0.97,0.39 0.97,0.89 0,0.32 0.04,0.58 0.13,0.78 0.24,0.71 0.35,1.91 0.35,3.62 0,0.68 -0.05,2.06 -0.15,4.16 -0.1,2.09 -0.18,3.23 -0.24,3.4 0,0.07 -0.06,0.44 -0.17,1.15 -0.13,1.06 -0.42,1.69 -0.85,1.9 -0.18,0.11 -0.38,0.1 -0.61,-0.05 -0.74,-0.41 -1.55,-1.77 -2.46,-4.09 -0.36,-0.89 -0.58,-1.55 -0.66,-2.01 -0.09,-0.45 -0.15,-1.34 -0.18,-2.66 0,-0.24 -0.01,-0.58 -0.02,-1.01 -0.02,-0.44 -0.03,-0.76 -0.03,-0.96 0,-0.24 0.01,-0.51 0.03,-0.83 0.01,-0.31 0.02,-0.47 0.02,-0.5l0.04 -0.83 0.61 -0.84c0.8,-1.08 1.54,-1.75 2.21,-1.98zm0.09 -9.95c0.11,-0.03 0.32,-0.05 0.61,-0.05 0.44,0 0.76,0.07 0.97,0.18 0.33,0.21 0.5,0.8 0.53,1.76l0 0.48c0,0.41 -0.08,0.84 -0.22,1.28 -0.18,0.58 -0.27,0.91 -0.27,0.97 0,0.09 -0.09,0.25 -0.26,0.49 -0.18,0.23 -0.46,0.35 -0.88,0.35 -0.41,0 -0.77,-0.1 -1.06,-0.32 -0.73,-0.46 -1.39,-1.14 -1.98,-2.05 -0.35,-0.5 -0.53,-0.85 -0.53,-1.07 0,-0.11 0.06,-0.25 0.14,-0.39 0.18,-0.27 0.6,-0.59 1.28,-0.95 0.67,-0.37 1.23,-0.59 1.67,-0.68zm5.81 11.31c1.35,-0.89 2.61,-1.32 3.79,-1.32l0.13 0c1.14,0 1.99,0.12 2.55,0.36 0.24,0.08 0.47,0.26 0.72,0.52 0.25,0.26 0.39,0.5 0.43,0.7 0,0.06 0.06,0.24 0.2,0.55 0.13,0.31 0.2,0.56 0.2,0.73 0,0.18 -0.05,0.34 -0.14,0.48 -0.09,0.15 -0.35,0.2 -0.79,0.14 -0.24,-0.03 -0.77,-0.04 -1.58,-0.04 -1.13,0 -2.19,0.31 -3.17,0.92 -0.39,0.24 -0.85,0.63 -1.41,1.19 -0.56,0.56 -0.9,0.97 -1.01,1.23 -0.09,0.2 -0.14,0.44 -0.14,0.7 0,0.41 0.11,0.84 0.35,1.28 0.76,1.49 1.96,2.63 3.57,3.39 0.76,0.39 1.42,0.57 1.98,0.57 0.53,0 1.04,-0.15 1.54,-0.43 0.28,-0.19 0.53,-0.28 0.75,-0.28 0.34,0 0.52,0.19 0.52,0.58 0,0.23 -0.1,0.59 -0.3,1.06 -0.67,1.41 -1.95,2.11 -3.83,2.11 -0.85,0 -1.78,-0.17 -2.82,-0.48 -2.26,-0.8 -3.79,-2.51 -4.58,-5.12 -0.21,-0.63 -0.31,-1.39 -0.31,-2.28 0,-1.06 0.16,-2.02 0.48,-2.91 0.27,-0.64 0.68,-1.33 1.24,-2.04 0.56,-0.71 1.1,-1.25 1.63,-1.61zm11.61 -7.35c0.26,-0.09 0.51,-0.13 0.75,-0.13 0.61,0 1.01,0.19 1.2,0.56 0.09,0.22 0.14,1.81 0.17,4.81l0.04 4.49c0.17,0.03 0.4,0.04 0.66,0.04 0.68,0 1.26,-0.48 1.76,-1.41 0.59,-1.14 1.46,-2.01 2.6,-2.6 0.47,-0.23 0.86,-0.35 1.14,-0.35 0.74,0 1.17,0.81 1.28,2.42l0 0.4c0,1.35 -0.36,2.59 -1.1,3.7 -0.26,0.41 -0.31,0.66 -0.13,0.75 0.14,0.06 0.38,0.35 0.7,0.86 0.33,0.51 0.58,1 0.75,1.43 0.21,0.5 0.34,1.37 0.4,2.64 0.06,1.4 0.13,2.38 0.21,2.9 0.22,1.35 0.32,2.16 0.32,2.42 0,0.15 -0.03,0.29 -0.09,0.4 -0.11,0.21 -0.38,0.31 -0.79,0.31 -0.12,0 -0.38,-0.03 -0.8,-0.1 -1,-0.23 -1.87,-0.89 -2.62,-1.98 -0.75,-1.09 -1.22,-2.41 -1.43,-3.99 -0.11,-0.83 -0.49,-1.55 -1.1,-2.16 -0.59,-0.59 -1.09,-0.89 -1.5,-0.89 -0.26,0 -0.43,0.21 -0.53,0.64 -0.12,0.44 -0.23,1.43 -0.34,3.02 -0.15,1.91 -0.29,2.93 -0.4,3.08 -0.04,0.06 -0.16,0.2 -0.4,0.44l-0.44 -0.21c-0.23,-0.12 -0.42,-0.29 -0.58,-0.52 -0.16,-0.21 -0.48,-0.71 -0.91,-1.47 -0.61,-1.08 -1.1,-2.17 -1.45,-3.25 -0.24,-0.77 -0.36,-2.97 -0.36,-6.61 0,-0.3 0.01,-0.76 0.02,-1.39 0.01,-0.63 0.03,-1.11 0.03,-1.48 0.02,-2.4 0.11,-3.76 0.26,-4.09 0.24,-0.5 0.65,-1.05 1.26,-1.63 0.6,-0.59 1.07,-0.94 1.42,-1.05zm26.91 6.47c1.17,-0.47 2.2,-0.71 3.08,-0.71 0.5,0 0.94,0.07 1.32,0.18 0.59,0.11 1.36,0.5 2.34,1.15 0.43,0.26 0.91,0.91 1.41,1.93l0.43 0.89 0 3.78c0,4.84 0.12,7.72 0.35,8.63 0.18,0.68 0.27,1.2 0.27,1.59 0,0.56 -0.23,0.83 -0.66,0.83 -0.29,0 -0.67,-0.09 -1.1,-0.26 -0.65,-0.24 -1.16,-0.55 -1.54,-0.94 -1.03,-1.02 -1.54,-2.25 -1.54,-3.69 0,-0.61 0.02,-1.17 0.08,-1.67 0.06,-0.5 0.16,-1.09 0.31,-1.76 0.15,-0.67 0.25,-1.24 0.32,-1.67 0.13,-1.11 0.21,-1.74 0.21,-1.85 0,-0.26 -0.01,-0.47 -0.04,-0.62 -0.17,-1.31 -0.76,-2.3 -1.76,-2.95 -0.26,-0.17 -0.51,-0.26 -0.75,-0.26 -0.21,0 -0.42,0.1 -0.66,0.31 -0.41,0.41 -0.62,0.8 -0.62,1.19 0,0.08 0.01,0.32 0.02,0.73 0.01,0.42 0.04,1.03 0.05,1.84 0.01,0.81 0.01,1.54 0.01,2.22 0,0.54 0.02,1.13 0.03,1.81 0.01,0.67 0.02,1.1 0.02,1.27 0,0.97 -0.05,1.65 -0.13,2.03 -0.2,0.94 -0.46,1.4 -0.79,1.4 -0.15,0 -0.3,-0.06 -0.44,-0.17 -0.15,-0.12 -0.48,-0.6 -0.99,-1.45 -0.52,-0.85 -0.9,-1.53 -1.16,-2.07 -0.22,-0.39 -0.32,-0.86 -0.32,-1.45 0,-0.5 0.07,-1.22 0.18,-2.16 0.11,-0.73 0.17,-1.41 0.17,-2.02 0,-0.41 -0.03,-0.88 -0.12,-1.41 -0.24,-1.32 -0.68,-1.98 -1.29,-1.98 -0.46,0 -1.09,0.42 -1.88,1.27 -0.61,0.71 -0.92,1.29 -0.92,1.72 0,0.41 0.17,1.11 0.52,2.11 0.41,1.26 0.61,2.15 0.61,2.65 0,0.26 -0.01,0.47 -0.04,0.61 0,0.11 -0.01,0.25 -0.03,0.4 -0.04,0.15 -0.07,0.26 -0.08,0.35 -0.01,0.08 -0.02,0.15 -0.02,0.17 -0.07,0.15 -0.17,0.64 -0.33,1.47 -0.16,0.84 -0.26,1.33 -0.28,1.44l-0.14 0.57 -0.44 -0.09c-0.26,0 -0.51,-0.08 -0.75,-0.26 -0.28,-0.21 -0.67,-0.77 -1.16,-1.68 -0.48,-0.91 -0.82,-1.67 -1,-2.28 -0.11,-0.47 -0.17,-1.23 -0.17,-2.29l0 -1.85c0.02,-2.29 0.11,-3.63 0.26,-4 0.41,-1.19 1.07,-2.04 1.98,-2.56 0.24,-0.11 0.49,-0.26 0.75,-0.44 0.59,-0.41 1.46,-0.62 2.64,-0.62 0.93,0 1.88,0.22 2.82,0.66l0.45 0.18 0.52 -0.22zm22.85 -0.48c0.46,-0.11 0.91,-0.18 1.32,-0.18 0.5,0 0.94,0.17 1.33,0.49 0.17,0.14 0.26,0.39 0.26,0.74 0,0.36 -0.15,0.69 -0.44,1.02 -0.26,0.29 -0.47,0.67 -0.61,1.16 -0.15,0.49 -0.62,2.3 -1.42,5.44 -0.57,2.13 -1.2,4.08 -1.94,5.81 -0.23,0.49 -0.53,1.24 -0.92,2.24 -0.76,2.03 -1.6,3.45 -2.51,4.28 -0.35,0.35 -0.77,0.6 -1.27,0.75 -0.44,0.11 -0.91,0.17 -1.41,0.17 -1.44,0 -2.71,-0.55 -3.79,-1.63 -1.03,-1.03 -1.64,-2.2 -1.85,-3.52 -0.09,-0.54 -0.13,-0.89 -0.13,-1.06 0,-0.24 0.1,-0.45 0.32,-0.66 0.2,-0.2 0.41,-0.3 0.64,-0.3 0.15,0 0.52,0.12 1.1,0.38 0.48,0.24 0.95,0.7 1.41,1.38 0.5,0.67 0.85,1.12 1.06,1.33 0.21,0.23 0.4,0.34 0.58,0.34 0.06,0 0.17,-0.03 0.35,-0.09 0.35,-0.11 0.58,-0.5 0.7,-1.15 0.06,-0.35 0.09,-0.61 0.09,-0.78 0,-0.57 -0.22,-1.28 -0.66,-2.16 -0.23,-0.48 -0.73,-1.66 -1.49,-3.56 -0.76,-1.88 -1.26,-3.06 -1.5,-3.49 -0.61,-1.26 -0.92,-2.26 -0.92,-3 0,-0.52 0.06,-0.93 0.2,-1.23 0.12,-0.29 0.41,-0.64 0.84,-1.05 0.09,-0.09 0.27,-0.25 0.52,-0.49 0.24,-0.23 0.43,-0.4 0.57,-0.51 0.14,-0.1 0.32,-0.21 0.57,-0.32 0.25,-0.12 0.49,-0.18 0.73,-0.18 0.73,0 1.23,0.26 1.49,0.79 0.18,0.32 0.35,1.65 0.52,3.98 0.16,2.33 0.38,3.8 0.67,4.39 0.29,0.68 0.66,1.01 1.1,1.01 0.47,0 0.91,-0.33 1.32,-1.01 0.54,-1.03 0.8,-2.71 0.8,-5.01l0 -1.15c0,-1.04 0.02,-1.62 0.09,-1.76 0.02,-0.21 0.12,-0.41 0.3,-0.63 0.17,-0.2 0.32,-0.3 0.45,-0.3 0.11,0 0.26,-0.05 0.43,-0.13 0.29,-0.15 0.66,-0.27 1.1,-0.35zm25.97 -5.56c-0.17,-0.08 -0.4,-0.12 -0.66,-0.12 -0.32,0 -0.82,0.09 -1.5,0.26 -0.88,0.24 -1.84,0.66 -2.9,1.28 -1.68,1.03 -2.96,1.98 -3.85,2.84 -0.9,0.86 -1.53,1.8 -1.92,2.8 -0.11,0.26 -0.17,0.64 -0.17,1.14 0,1.11 0.26,2.17 0.78,3.17 0.65,1.29 1.86,2.41 3.62,3.36 1.76,0.96 3.53,1.43 5.32,1.43 1.36,0 2.38,-0.15 3.08,-0.43 1.06,-0.44 1.58,-1.86 1.58,-4.27 0,-0.94 -0.15,-2.3 -0.43,-4.08 -0.29,-1.77 -0.6,-3.14 -0.93,-4.12 -0.61,-1.84 -1.28,-2.93 -2.02,-3.26zm-6.56 -4.09c0.26,0 0.71,-0.05 1.35,-0.15 0.62,-0.1 1.01,-0.16 1.16,-0.2 0.41,-0.06 0.98,-0.08 1.72,-0.08 0.7,0 1.17,0.02 1.41,0.08 1.28,0.26 2.27,0.63 2.94,1.06 0.12,0.09 0.44,0.27 0.98,0.53 0.2,0.11 0.57,0.36 1.13,0.75 0.39,0.28 0.96,0.82 1.72,1.59 0.77,0.79 1.23,1.3 1.36,1.54 0.62,0.96 1.11,2.03 1.5,3.21l0.49 1.4 0.05 2.51 0 1.06c0,0.97 -0.08,1.7 -0.23,2.2 -0.15,0.5 -0.51,1.35 -1.09,2.56 -0.54,1.02 -0.97,1.77 -1.3,2.26 -0.34,0.48 -0.94,1.13 -1.79,1.92 -2.17,2.08 -4.74,3.12 -7.71,3.12 -0.67,0 -1.5,-0.08 -2.46,-0.21 -2.05,-0.33 -3.88,-1.08 -5.46,-2.25 -1.2,-0.86 -2.15,-1.76 -2.86,-2.72 -0.71,-0.95 -1.32,-2.16 -1.85,-3.62 -0.47,-1.29 -0.71,-2.66 -0.71,-4.09 0,-1.44 0.1,-2.5 0.29,-3.16 0.19,-0.66 0.59,-1.58 1.17,-2.79 0.03,-0.09 0.05,-0.14 0.09,-0.18 0.03,-0.02 0.05,-0.07 0.09,-0.15 0.04,-0.07 0.06,-0.14 0.08,-0.2 0.33,-0.61 0.93,-1.38 1.81,-2.29 0.89,-0.91 1.74,-1.64 2.55,-2.2 0.54,-0.39 1.22,-0.7 2.07,-0.96 0.61,-0.19 0.99,-0.34 1.1,-0.45 0.06,-0.06 0.19,-0.09 0.4,-0.09zm23.55 9.47c0.13,-0.03 0.36,-0.05 0.66,-0.05 0.67,0 1.37,0.37 2.11,1.1 0.71,0.76 1.22,1.46 1.53,2.07 0.19,0.36 0.28,0.74 0.28,1.15 0,0.5 -0.15,0.89 -0.45,1.15 -0.14,0.11 -0.53,0.17 -1.14,0.17 -1.21,0 -2.22,-0.1 -3.04,-0.31 -0.59,-0.15 -1.01,-0.22 -1.28,-0.22l-0.08 0c-0.29,0.08 -0.44,1.05 -0.44,2.87 0,1.46 -0.05,2.54 -0.14,3.25 -0.28,2.26 -0.53,3.6 -0.74,4.01 -0.33,0.58 -0.59,0.87 -0.79,0.87 -0.21,0 -0.55,-0.23 -1.02,-0.7 -0.38,-0.32 -0.65,-0.67 -0.84,-1.06 -0.06,-0.11 -0.32,-0.56 -0.79,-1.32 -0.65,-1.06 -1.01,-2.02 -1.1,-2.89 -0.06,-0.5 -0.13,-0.94 -0.22,-1.33 -0.09,-0.43 -0.14,-1.08 -0.14,-1.93 0,-1.11 0.07,-1.85 0.19,-2.21 0.09,-0.26 0.13,-0.56 0.13,-0.87 0,-0.27 0.17,-0.61 0.52,-1.03 0.59,-0.7 1.16,-1.16 1.72,-1.39 1.32,-0.59 3.01,-1.04 5.07,-1.33zm15.31 4.13c-0.21,-0.11 -0.55,-0.17 -1.01,-0.17 -0.94,0 -1.86,0.21 -2.77,0.62 -0.47,0.24 -0.89,0.46 -1.24,0.7 -0.64,0.44 -0.97,0.92 -0.97,1.46 0,0.29 0.06,0.66 0.18,1.1 0.3,1.17 1.01,2.29 2.12,3.38 0.67,0.65 1.16,0.97 1.44,0.97 0.57,0 1.15,-0.77 1.79,-2.33 0.63,-1.56 0.95,-2.94 0.95,-4.18 0,-0.24 -0.03,-0.5 -0.09,-0.8 -0.09,-0.41 -0.23,-0.66 -0.4,-0.75zm0.05 -8.97c0.24,-0.39 0.64,-0.57 1.22,-0.57 0.57,0 1.19,0.31 1.9,0.92 0.71,0.61 1.17,1.17 1.41,1.67 0.06,0.09 0.15,0.45 0.26,1.06 0.11,0.59 0.18,2.56 0.18,5.94 0,3.29 -0.09,5.27 -0.27,5.94 -0.15,0.61 -0.41,1.29 -0.78,2.02 -0.39,0.74 -0.73,1.26 -1.02,1.55 -1.35,1.26 -2.92,2.01 -4.71,2.25 -0.59,0.06 -0.91,0.08 -0.97,0.08 -0.31,0 -0.79,-0.06 -1.4,-0.17 -1,-0.15 -1.76,-0.36 -2.28,-0.62 -0.54,-0.27 -1.15,-0.73 -1.86,-1.41 -0.85,-0.85 -1.44,-1.76 -1.76,-2.72 -0.33,-0.91 -0.49,-2.12 -0.49,-3.62 0,-0.59 0.05,-1.04 0.14,-1.36 0.31,-1.06 0.96,-2.06 1.93,-3 0.74,-0.73 1.24,-1.18 1.5,-1.36 0.26,-0.17 0.9,-0.45 1.93,-0.83l1.54 -0.53 1.2 0c0.26,0 0.58,0 0.98,0.01 0.4,0.02 0.61,0.03 0.64,0.03l0.44 0 0 -4.89 0.27 -0.39zm10.52 5.37c0.65,-0.27 1.23,-0.4 1.71,-0.4 0.36,0 0.65,0.01 0.89,0.05 1.71,0.08 3.29,0.65 4.75,1.71 0.74,0.56 1.21,1.12 1.45,1.68 0.12,0.26 0.19,0.54 0.19,0.84 0,0.41 -0.13,0.8 -0.37,1.18 -0.2,0.35 -0.99,1.23 -2.38,2.61 -1.4,1.4 -2.26,2.17 -2.58,2.32 -0.48,0.21 -0.88,0.31 -1.2,0.31 -0.52,0 -0.99,-0.16 -1.4,-0.48 -0.38,-0.26 -0.57,-0.55 -0.57,-0.84 0,-0.21 0.06,-0.41 0.17,-0.62 0.27,-0.59 1,-1.31 2.2,-2.2 1.29,-1 1.93,-1.61 1.93,-1.85 0,-0.28 -0.28,-0.57 -0.87,-0.86 -0.59,-0.27 -1.26,-0.45 -2.02,-0.51l-0.49 0c-0.56,0 -0.95,0.1 -1.16,0.29 -0.22,0.19 -0.41,0.56 -0.56,1.12 -0.11,0.48 -0.17,1.19 -0.17,2.12 0,0.68 0.05,1.21 0.13,1.62 0.31,1.29 1.04,2.2 2.16,2.74 0.41,0.21 1.05,0.32 1.94,0.35l0.66 0c0.52,0 1.01,-0.04 1.44,-0.13 1.04,-0.21 1.93,-0.52 2.69,-0.93 0.11,-0.07 0.3,-0.09 0.53,-0.09 0.38,0 0.56,0.26 0.56,0.8 0,0.21 -0.01,0.37 -0.03,0.48 -0.15,0.77 -0.51,1.45 -1.1,2.08 -0.44,0.46 -0.8,0.74 -1.06,0.83 -0.44,0.18 -0.97,0.36 -1.59,0.56 -1.23,0.48 -2.4,0.71 -3.51,0.71 -0.57,0 -1.31,-0.07 -2.25,-0.22 -0.56,-0.09 -0.97,-0.2 -1.24,-0.35 -0.96,-0.46 -1.88,-1.28 -2.77,-2.44 -0.88,-1.17 -1.38,-2.33 -1.49,-3.5 -0.04,-0.21 -0.05,-0.47 -0.05,-0.8 0,-0.28 0.05,-0.75 0.13,-1.36 0.24,-1.64 0.78,-3.03 1.64,-4.14 0.31,-0.44 0.85,-0.96 1.58,-1.55 0.74,-0.58 1.21,-0.87 1.45,-0.87 0.04,0 0.25,-0.09 0.66,-0.26zm17.39 -0.53c0.13,-0.03 0.36,-0.05 0.66,-0.05 0.67,0 1.37,0.37 2.11,1.1 0.71,0.76 1.22,1.46 1.53,2.07 0.19,0.36 0.28,0.74 0.28,1.15 0,0.5 -0.15,0.89 -0.45,1.15 -0.14,0.11 -0.53,0.17 -1.14,0.17 -1.21,0 -2.22,-0.1 -3.04,-0.31 -0.59,-0.15 -1.01,-0.22 -1.28,-0.22l-0.08 0c-0.29,0.08 -0.44,1.05 -0.44,2.87 0,1.46 -0.05,2.54 -0.14,3.25 -0.28,2.26 -0.53,3.6 -0.75,4.01 -0.32,0.58 -0.58,0.87 -0.78,0.87 -0.21,0 -0.55,-0.23 -1.03,-0.7 -0.37,-0.32 -0.64,-0.67 -0.83,-1.06 -0.06,-0.11 -0.33,-0.56 -0.79,-1.32 -0.65,-1.06 -1.01,-2.02 -1.1,-2.89 -0.06,-0.5 -0.13,-0.94 -0.22,-1.33 -0.09,-0.43 -0.14,-1.08 -0.14,-1.93 0,-1.11 0.07,-1.85 0.19,-2.21 0.09,-0.26 0.13,-0.56 0.13,-0.87 0,-0.27 0.17,-0.61 0.52,-1.03 0.59,-0.7 1.16,-1.16 1.72,-1.39 1.32,-0.59 3.01,-1.04 5.07,-1.33z"/>
 </g>
</svg>
