<?xml version="1.0" encoding="UTF-8"?>
<!DOCTYPE svg PUBLIC "-//W3C//DTD SVG 1.1//EN" "http://www.w3.org/Graphics/SVG/1.1/DTD/svg11.dtd">
<!-- Creator: CorelDRAW 2021.5 -->
<svg xmlns="http://www.w3.org/2000/svg" xml:space="preserve" width="414px" height="376px" version="1.1" style="shape-rendering:geometricPrecision; text-rendering:geometricPrecision; image-rendering:optimizeQuality; fill-rule:evenodd; clip-rule:evenodd"
viewBox="0 0 433.94 394.19"
 xmlns:xlink="http://www.w3.org/1999/xlink"
 xmlns:xodm="http://www.corel.com/coreldraw/odm/2003">
 <defs>
  <style type="text/css">
   <![CDATA[
    .fil3 {fill:black;fill-rule:nonzero}
    .fil2 {fill:#00E1C1;fill-rule:nonzero}
    .fil6 {fill:#73003F;fill-rule:nonzero}
    .fil4 {fill:#E5007E;fill-rule:nonzero}
    .fil5 {fill:#EA3397;fill-rule:nonzero}
    .fil7 {fill:#EF66B1;fill-rule:nonzero}
    .fil0 {fill:#FFEC00;fill-rule:nonzero}
    .fil1 {fill:white;fill-rule:nonzero}
   ]]>
  </style>
 </defs>
 <g id="Layer_x0020_1">
  <metadata id="CorelCorpID_0Corel-Layer"/>
  <path class="fil0" d="M394.64 198.52c-0.31,-0.56 -0.63,-1.11 -0.93,-1.68 -2.08,-3.84 -5.31,-6.25 -9.27,-7.75 -0.53,-0.2 -1.11,-0.31 -1.62,-0.57 -4.08,-2.08 -8.52,-3.11 -12.76,-4.72 -3.23,-1.23 -6.51,-2.34 -9.68,-3.68 -5.34,-2.25 -9.93,-5.59 -13.59,-10.19 -2.48,-3.11 -4.27,-6.63 -5.73,-10.34 -0.07,-0.18 -0.13,-0.37 -0.17,-0.56 -0.76,-3.36 -1.55,-6.72 -2.26,-10.09 -0.17,-0.82 -0.11,-1.69 -0.09,-2.54 0.04,-1.96 0.04,-3.92 0.22,-5.87 0.33,-3.58 1.65,-6.85 3.5,-9.86 2.22,-3.59 5.11,-6.53 8.77,-8.62 1.73,-0.99 3.47,-1.95 5.41,-3.03 -0.05,0.45 -0.02,0.69 -0.1,0.88 -0.17,0.42 -0.39,0.82 -0.6,1.23 -1.45,2.82 -1.47,5.75 -0.69,8.75 0.58,2.23 1.59,4.25 2.83,6.16 1.89,2.89 4.11,5.48 6.58,7.86 3.35,3.24 7.04,6.01 10.89,8.6 2.44,1.65 4.9,3.29 7.25,5.08 2.94,2.24 5.42,4.94 7.29,8.19 1.4,2.42 2.58,4.95 3.54,7.58 0.65,1.78 1.13,3.59 1.32,5.49 0.21,2.14 0.53,4.26 0.77,6.4 0.32,2.87 0.01,5.74 -0.11,8.6 -0.07,1.55 -0.27,3.09 -0.42,4.63 -0.11,0.02 -0.23,0.04 -0.35,0.05z"/>
  <path class="fil0" d="M383.05 133.53c0.04,-0.2 0.07,-0.39 0.1,-0.59 0.22,-1.33 0.91,-2.37 1.91,-3.21 0.14,-0.12 0.29,-0.21 0.42,-0.33 0.97,-1.03 2.16,-1.79 3.24,-2.69 0.81,-0.69 1.66,-1.35 2.45,-2.07 1.32,-1.2 2.32,-2.64 2.92,-4.36 0.4,-1.17 0.56,-2.38 0.61,-3.61 0,-0.06 0,-0.12 -0.01,-0.18 -0.12,-1.06 -0.24,-2.12 -0.38,-3.18 -0.03,-0.25 -0.14,-0.5 -0.23,-0.75 -0.21,-0.56 -0.41,-1.14 -0.67,-1.69 -0.46,-1.01 -1.18,-1.83 -2.03,-2.51 -1.01,-0.83 -2.16,-1.39 -3.44,-1.62 -0.61,-0.11 -1.21,-0.21 -1.89,-0.33 0.06,0.13 0.08,0.2 0.12,0.25 0.09,0.1 0.2,0.2 0.3,0.29 0.71,0.68 1.02,1.53 1.1,2.48 0.06,0.72 -0.03,1.41 -0.2,2.09 -0.25,1.04 -0.63,2.02 -1.11,2.97 -0.64,1.29 -1.44,2.48 -2.29,3.63 -0.55,0.73 -1.1,1.46 -1.6,2.22 -0.63,0.96 -1.08,2 -1.29,3.14 -0.16,0.85 -0.24,1.71 -0.26,2.58 0,0.58 0.04,1.16 0.18,1.73 0.16,0.65 0.28,1.3 0.43,1.95 0.2,0.87 0.59,1.68 0.92,2.5 0.18,0.44 0.39,0.87 0.59,1.31 0.04,-0.01 0.08,-0.02 0.11,-0.02z"/>
  <path class="fil0" d="M372.7 127.11c-0.37,-0.9 -0.74,-1.8 -1.1,-2.71 -2.4,-6.18 -6.8,-10.43 -12.48,-13.45 -0.77,-0.41 -1.62,-0.68 -2.34,-1.17 -5.74,-3.9 -12.24,-6.32 -18.33,-9.55 -4.63,-2.46 -9.35,-4.76 -13.89,-7.39 -7.6,-4.41 -13.9,-10.31 -18.53,-17.95 -3.14,-5.17 -5.17,-10.81 -6.66,-16.67 -0.07,-0.29 -0.13,-0.58 -0.16,-0.88 -0.5,-5.21 -1.04,-10.42 -1.47,-15.64 -0.1,-1.26 0.15,-2.57 0.34,-3.84 0.44,-2.95 0.81,-5.91 1.46,-8.81 1.18,-5.32 3.79,-10.01 7.16,-14.19 4.02,-4.99 8.94,-8.87 14.86,-11.32 2.78,-1.15 5.59,-2.27 8.72,-3.54 -0.15,0.68 -0.15,1.04 -0.31,1.32 -0.34,0.6 -0.75,1.16 -1.14,1.73 -2.73,3.97 -3.31,8.39 -2.71,13.06 0.44,3.47 1.58,6.71 3.09,9.82 2.29,4.72 5.15,9.05 8.41,13.11 4.43,5.52 9.48,10.4 14.77,15.03 3.38,2.95 6.77,5.89 9.97,9.04 4,3.93 7.23,8.48 9.43,13.74 1.63,3.91 2.93,7.95 3.88,12.09 0.65,2.8 1.02,5.63 0.94,8.53 -0.08,3.26 -0.01,6.53 -0.06,9.79 -0.06,4.38 -1.08,8.65 -1.81,12.94 -0.4,2.32 -1,4.6 -1.5,6.9 -0.18,0 -0.37,0.01 -0.54,0.01z"/>
  <path class="fil0" d="M373.94 141.87c1.37,-0.6 2.48,0.2 3.76,1.02 0.19,-0.59 0.39,-1.08 0.51,-1.59 0.33,-1.36 1.13,-2.31 2.4,-2.85 1.5,-0.64 2.9,0.01 3.38,1.56 0.17,0.57 0.31,1.17 0.33,1.77 0.1,2.66 0.14,5.32 0.2,7.99 0.01,0.17 -0.02,0.34 -0.04,0.51 -0.15,1.34 -0.49,1.53 -1.63,0.88 -0.64,-0.36 -1.28,-0.72 -1.91,-1.09 -1.74,-1.02 -3.52,-1.99 -5.22,-3.09 -0.85,-0.55 -1.57,-1.31 -2.29,-2.04 -0.19,-0.19 -0.24,-0.64 -0.17,-0.93 0.16,-0.7 0.43,-1.38 0.68,-2.14z"/>
  <path class="fil1" d="M25.09 240.68c-0.75,-0.05 -1.54,0.1 -2.36,0.47 -1.96,0.98 -3.9,2.5 -5.81,4.56 -1.92,2.06 -3.31,4.13 -4.16,6.21 -0.45,1.16 -0.6,2.05 -0.44,2.66 0.27,1.06 1.9,2.27 4.91,3.62 5.4,2.53 9.95,3.62 13.63,3.26 0.08,-0.02 0.2,-0.03 0.33,-0.02 0.15,0 0.26,-0.01 0.35,-0.03 1.55,-0.39 2.24,-2.02 2.07,-4.89 -0.08,-1.44 -0.3,-2.88 -0.67,-4.33 -0.74,-2.97 -1.88,-5.58 -3.41,-7.83 -1.53,-2.24 -3.01,-3.47 -4.44,-3.68zm-16.15 -5.05c1.14,-1.67 4.22,-3.13 9.23,-4.39 2.25,-0.56 4.31,-0.96 6.18,-1.18 3.21,-0.4 6.23,-0.07 9.07,1 1,0.31 2.76,1.19 5.28,2.62 2.51,1.43 4.02,2.41 4.52,2.93 0.73,0.71 1.25,1.67 1.55,2.89 0.24,0.92 0.36,1.98 0.39,3.19 0.17,5.78 0.83,10.96 1.97,15.53 0.37,1.45 0.81,4.52 1.35,9.2 0.53,4.69 0.8,8.12 0.8,10.31 0.1,1.51 0.05,2.78 -0.15,3.8 -0.96,3.89 -2.44,7.03 -4.45,9.44 -2.02,2.41 -5.23,4.17 -9.63,5.27 -2.94,0.74 -6.28,0.61 -10.02,-0.4 -4.19,-1.29 -7.93,-3.96 -11.24,-7.98 -1.06,-1.28 -1.68,-2.3 -1.87,-3.06 -0.15,-0.61 -0.01,-1.33 0.42,-2.17 0.47,-0.68 1.18,-1.15 2.13,-1.38 0.6,-0.16 1.37,-0.23 2.29,-0.21 1.03,0.06 1.89,0.23 2.6,0.49 0.71,0.27 2.39,1.09 5.03,2.45 3.8,1.96 5.92,2.92 6.37,2.89 0.09,-0.02 0.2,-0.03 0.34,-0.02 0.14,0 0.26,0 0.34,-0.03 1.3,-0.32 2.6,-1.34 3.92,-3.05 1.32,-1.7 2.05,-3.34 2.21,-4.92 0.11,-1 -0.09,-2.53 -0.6,-4.59 -0.37,-1.45 -0.76,-2.48 -1.2,-3.1l-4.76 1.32 -1.56 0.39c-2.85,0.71 -5.12,1.08 -6.82,1.1 -1.69,0.02 -3.82,-0.29 -6.37,-0.95 -3.25,-0.88 -5.93,-2.03 -8.03,-3.45 -2.1,-1.41 -3.91,-3.51 -5.44,-6.28 -0.99,-1.78 -1.72,-3.58 -2.18,-5.41 -1.05,-4.19 -0.74,-8.44 0.93,-12.75 0.74,-1.8 1.38,-3.11 1.91,-3.93 0.52,-0.83 1.43,-1.8 2.71,-2.93l2.78 -2.64z"/>
  <path class="fil1" d="M74.01 225.43c-0.83,-0.09 -1.84,0.09 -3.02,0.55 -2.76,1.29 -5.4,3.17 -7.95,5.62 -2.55,2.46 -4.13,4.7 -4.76,6.73 -0.28,1.01 -0.35,1.82 -0.24,2.44 0.08,0.46 0.48,1.43 1.2,2.89 0.85,1.68 2.44,3.13 4.79,4.35 2.35,1.21 4.93,1.84 7.74,1.89 1.18,0.03 2.83,-0.15 4.93,-0.53 1.41,-0.25 2.62,-0.55 3.64,-0.9 2.35,-1.06 3.23,-3.21 2.64,-6.46 -0.2,-1.08 -0.39,-1.92 -0.59,-2.53 -1.14,-3.78 -2.49,-7.01 -4.06,-9.68 -1.56,-2.67 -3.01,-4.13 -4.32,-4.37zm-19.05 -1.71c3.93,-2.78 8.18,-4.59 12.74,-5.41 1.32,-0.24 2.29,-0.37 2.92,-0.41 6.4,-0.11 11.27,1.04 14.61,3.47 3.13,2.31 5.51,4.71 7.14,7.21 0.87,1.28 1.48,2.93 1.84,4.94 0.32,1.78 0.44,3.43 0.36,4.96 -0.13,1.3 -0.09,2.53 0.12,3.69 0.45,2.48 -1.72,6.26 -6.51,11.35 -2.97,3.09 -7.4,5.17 -13.27,6.23 -2.81,0.5 -5.08,0.68 -6.83,0.51 -9.87,-1.01 -16.4,-5.81 -19.58,-14.42 -0.53,-1.42 -0.9,-2.71 -1.11,-3.87 -0.39,-2.16 0.04,-5.07 1.28,-8.73 1.56,-4.35 3.67,-7.53 6.29,-9.52z"/>
  <path class="fil1" d="M123.4 218.58c-0.82,-0.14 -1.84,-0.03 -3.05,0.34 -2.83,1.11 -5.6,2.81 -8.31,5.09 -2.7,2.28 -4.43,4.41 -5.2,6.39 -0.33,0.99 -0.47,1.79 -0.4,2.42 0.06,0.46 0.39,1.46 1.01,2.97 0.73,1.73 2.23,3.28 4.49,4.65 2.26,1.37 4.79,2.17 7.6,2.41 1.18,0.1 2.83,0.03 4.95,-0.21 1.42,-0.15 2.65,-0.37 3.69,-0.65 2.41,-0.9 3.44,-2.99 3.07,-6.27 -0.13,-1.09 -0.27,-1.94 -0.42,-2.56 -0.89,-3.85 -2.02,-7.16 -3.41,-9.93 -1.39,-2.77 -2.72,-4.32 -4.02,-4.65zm-18.89 -2.97c4.11,-2.52 8.47,-4.04 13.07,-4.56 1.33,-0.14 2.31,-0.21 2.94,-0.21 6.4,0.31 11.18,1.79 14.35,4.44 2.97,2.51 5.19,5.07 6.64,7.67 0.78,1.34 1.28,3.02 1.51,5.05 0.2,1.79 0.21,3.45 0.02,4.98 -0.21,1.29 -0.26,2.51 -0.12,3.68 0.28,2.5 -2.14,6.13 -7.25,10.9 -3.17,2.88 -7.73,4.66 -13.66,5.32 -2.83,0.32 -5.12,0.34 -6.85,0.06 -9.78,-1.66 -15.98,-6.9 -18.57,-15.7 -0.44,-1.45 -0.72,-2.76 -0.85,-3.93 -0.24,-2.19 0.37,-5.06 1.86,-8.63 1.85,-4.24 4.16,-7.26 6.91,-9.07z"/>
  <path class="fil1" d="M176.28 219.74c-0.64,-0.29 -1.67,-0.4 -3.09,-0.33 -2.85,0.13 -5.63,0.8 -8.34,2.03 -1.39,0.69 -2.61,1.38 -3.65,2.05 -1.9,1.27 -2.82,2.61 -2.76,4.02 0.04,0.79 0.26,1.76 0.67,2.92 1.03,3.1 3.31,6.02 6.82,8.77 2.13,1.63 3.64,2.43 4.53,2.38 1.69,-0.07 3.39,-2.23 5.12,-6.48 1.72,-4.25 2.51,-8.02 2.35,-11.31 -0.02,-0.63 -0.15,-1.33 -0.36,-2.11 -0.32,-1.09 -0.74,-1.73 -1.29,-1.94zm-0.97 -24.02c0.67,-1.05 1.89,-1.62 3.67,-1.7 1.69,-0.08 3.64,0.66 5.85,2.21 2.21,1.55 3.71,2.97 4.48,4.28 0.19,0.22 0.5,1.15 0.93,2.78 0.43,1.56 0.85,6.84 1.26,15.87 0.4,8.79 0.38,14.09 -0.07,15.92 -0.37,1.67 -1.09,3.51 -2.15,5.53 -1.07,2.01 -2.03,3.43 -2.89,4.25 -3.94,3.57 -8.61,5.79 -14.01,6.66 -1.77,0.24 -2.74,0.36 -2.92,0.37 -0.98,0.05 -2.41,-0.04 -4.3,-0.27 -3.04,-0.26 -5.38,-0.7 -7.01,-1.33 -1.64,-0.63 -3.57,-1.8 -5.78,-3.51 -2.69,-2.16 -4.58,-4.51 -5.68,-7.05 -1.09,-2.39 -1.73,-5.59 -1.91,-9.59 -0.07,-1.56 0.01,-2.79 0.23,-3.66 0.85,-2.87 2.69,-5.63 5.51,-8.28 2.14,-2.06 3.59,-3.34 4.37,-3.85 0.78,-0.51 2.71,-1.34 5.77,-2.51l4.61 -1.62 3.61 -0.17c0.8,-0.04 1.8,-0.06 3,-0.08 1.21,-0.01 1.85,-0.02 1.94,-0.03l1.34 -0.06 -0.6 -13.06 0.75 -1.1z"/>
  <path class="fil1" d="M214.59 190.22c0.49,-0.2 1.3,-0.29 2.44,-0.27 0.88,0.02 1.53,0.18 1.93,0.47 0.4,0.29 0.67,0.91 0.81,1.84 0.45,2.01 0.5,10.8 0.18,26.36l-0.12 5.57c-0.18,8.5 -0.18,13.55 -0.02,15.16 0.17,1.61 0.84,3.39 2.02,5.35 0.94,1.66 1.4,2.81 1.38,3.45 -0.02,1.08 -0.4,1.94 -1.14,2.61 -0.75,0.66 -1.69,0.98 -2.82,0.95 -0.81,-0.01 -2.18,-0.5 -4.1,-1.47 -1.93,-0.97 -3.36,-1.9 -4.32,-2.77 -1.83,-1.61 -3.24,-3.86 -4.23,-6.74 -0.84,-2.59 -1.36,-4.67 -1.57,-6.24 -0.21,-1.58 -0.27,-4.51 -0.18,-8.79 0.1,-5 0.23,-9.39 0.4,-13.18l0.55 -14.66 1.37 -1.69c2.41,-3.09 4.89,-5.07 7.42,-5.95z"/>
  <path class="fil1" d="M249.96 220.84c-0.68,-0.25 -1.56,-0.3 -2.65,-0.17 -2.58,0.53 -5.2,1.56 -7.84,3.1 -2.64,1.54 -4.43,3.1 -5.38,4.68 -0.43,0.79 -0.67,1.45 -0.7,2 -0.03,0.4 0.11,1.3 0.42,2.68 0.36,1.59 1.4,3.13 3.13,4.63 1.72,1.5 3.76,2.56 6.12,3.18 0.99,0.27 2.4,0.46 4.25,0.57 1.23,0.07 2.31,0.07 3.24,-0.01 2.19,-0.41 3.37,-2.04 3.55,-4.89 0.05,-0.95 0.06,-1.7 0.02,-2.24 -0.18,-3.42 -0.66,-6.41 -1.42,-8.98 -0.77,-2.56 -1.68,-4.08 -2.74,-4.55zm-15.66 -5.35c3.88,-1.53 7.82,-2.18 11.82,-1.93 1.15,0.07 2,0.15 2.53,0.25 5.41,1.22 9.27,3.19 11.58,5.92 2.15,2.58 3.66,5.09 4.52,7.52 0.46,1.26 0.64,2.77 0.53,4.53 -0.09,1.56 -0.33,2.98 -0.72,4.24 -0.37,1.07 -0.59,2.11 -0.65,3.13 -0.14,2.17 -2.74,4.91 -7.8,8.21 -3.13,1.98 -7.28,2.82 -12.44,2.5 -2.46,-0.15 -4.41,-0.47 -5.85,-0.96 -8.09,-2.88 -12.58,-8.26 -13.49,-16.15 -0.16,-1.3 -0.2,-2.46 -0.14,-3.48 0.12,-1.89 1.07,-4.25 2.87,-7.07 2.21,-3.34 4.62,-5.58 7.24,-6.71z"/>
  <path class="fil1" d="M295.19 222.45c-0.74,-0.32 -1.74,-0.44 -2.99,-0.36 -2.96,0.41 -5.98,1.41 -9.07,2.97 -3.1,1.56 -5.24,3.2 -6.41,4.92 -0.55,0.87 -0.86,1.61 -0.93,2.22 -0.06,0.46 0.04,1.48 0.28,3.06 0.31,1.82 1.39,3.64 3.24,5.46 1.84,1.81 4.08,3.15 6.71,4.01 1.1,0.37 2.69,0.68 4.77,0.93 1.39,0.17 2.61,0.25 3.67,0.22 2.5,-0.32 3.95,-2.08 4.34,-5.3 0.13,-1.07 0.19,-1.91 0.18,-2.54 0.03,-3.87 -0.3,-7.29 -1,-10.24 -0.7,-2.96 -1.63,-4.74 -2.79,-5.35zm-17.35 -7.11c4.49,-1.48 8.99,-1.94 13.5,-1.39 1.3,0.16 2.25,0.31 2.85,0.46 6.04,1.75 10.27,4.24 12.69,7.48 2.28,3.07 3.81,6.01 4.61,8.83 0.44,1.45 0.54,3.17 0.3,5.16 -0.22,1.76 -0.58,3.34 -1.11,4.75 -0.49,1.18 -0.81,2.35 -0.95,3.49 -0.3,2.45 -3.43,5.37 -9.39,8.76 -3.68,2.04 -8.42,2.7 -14.24,1.99 -2.77,-0.33 -4.96,-0.83 -6.55,-1.49 -8.96,-3.81 -13.68,-10.2 -14.17,-19.19 -0.09,-1.48 -0.06,-2.8 0.08,-3.95 0.26,-2.13 1.5,-4.74 3.72,-7.81 2.73,-3.63 5.62,-5.99 8.66,-7.09z"/>
  <path class="fil1" d="M328.13 210.36c0.76,-0.08 1.45,-0.06 2.09,0.05 1.68,0.3 2.68,0.95 2.99,1.95 0.15,0.54 -0.38,4.39 -1.58,11.58l-1.81 10.78c0.46,0.15 1.06,0.3 1.77,0.42 1.84,0.33 3.63,-0.5 5.39,-2.51 2.09,-2.46 4.81,-4.11 8.18,-4.96 1.37,-0.33 2.46,-0.43 3.26,-0.28 1.99,0.35 2.8,2.49 2.42,6.42l-0.17 0.95c-0.58,3.23 -2.1,6 -4.57,8.32 -0.9,0.85 -1.12,1.43 -0.69,1.72 0.38,0.22 0.89,1.02 1.55,2.41 0.66,1.38 1.13,2.65 1.42,3.79 0.35,1.29 0.33,3.47 -0.06,6.52 -0.44,3.4 -0.66,5.76 -0.65,7.06 -0.02,3.34 -0.09,5.32 -0.2,5.95 -0.06,0.35 -0.2,0.66 -0.41,0.91 -0.41,0.43 -1.17,0.55 -2.28,0.35 -0.32,-0.06 -1.03,-0.26 -2.12,-0.6 -2.61,-1.05 -4.7,-3.05 -6.26,-6.02 -1.57,-2.96 -2.29,-6.39 -2.17,-10.29 0.03,-2.02 -0.66,-3.93 -2.07,-5.7 -1.34,-1.69 -2.57,-2.64 -3.68,-2.84 -0.72,-0.13 -1.31,0.29 -1.78,1.26 -0.46,0.97 -1.19,3.32 -2.19,7.06 -1.22,4.5 -2.02,6.9 -2.4,7.19 -0.1,0.13 -0.52,0.41 -1.26,0.86l-1.11 -0.74c-0.58,-0.39 -1.05,-0.9 -1.39,-1.5 -0.34,-0.61 -0.95,-1.93 -1.82,-3.97 -1.21,-2.9 -2.06,-5.74 -2.55,-8.52 -0.31,-1.94 0.32,-7.27 1.88,-15.98 0.12,-0.7 0.34,-1.81 0.66,-3.31 0.31,-1.51 0.54,-2.68 0.69,-3.52 1.11,-5.76 1.93,-8.98 2.47,-9.68 0.86,-1.08 2.23,-2.18 4.12,-3.29 1.88,-1.12 3.33,-1.73 4.33,-1.84z"/>
  <path class="fil1" d="M369.53 208.55c0.33,0 0.9,0.09 1.69,0.26 1.18,0.26 2.02,0.58 2.52,0.98 0.76,0.68 0.94,2.18 0.52,4.5l-0.25 1.15c-0.21,0.98 -0.63,1.95 -1.26,2.91 -0.77,1.29 -1.18,2.01 -1.21,2.15 -0.04,0.21 -0.36,0.54 -0.96,1 -0.6,0.45 -1.45,0.56 -2.56,0.32 -1.1,-0.24 -2,-0.69 -2.68,-1.35 -1.75,-1.55 -3.17,-3.57 -4.28,-6.08 -0.7,-1.39 -0.99,-2.34 -0.89,-2.82 0.06,-0.28 0.25,-0.57 0.57,-0.87 0.6,-0.52 1.91,-1.02 3.93,-1.5 2.01,-0.48 3.63,-0.7 4.86,-0.65zm-5.36 23.61c0.85,-0.11 1.78,-0.01 2.8,0.28 1.69,0.58 2.41,1.47 2.16,2.66 -0.17,0.77 -0.19,1.42 -0.06,1.96 0.28,1.81 -0.03,4.74 -0.91,8.79 -0.35,1.61 -1.2,4.88 -2.55,9.81 -1.36,4.92 -2.17,7.58 -2.41,7.97 -0.04,0.14 -0.39,1.01 -1.07,2.62 -0.86,2.44 -1.94,3.78 -3.23,4.01 -0.54,0.18 -1.09,0.02 -1.64,-0.46 -1.77,-1.41 -3.28,-5.14 -4.55,-11.18 -0.49,-2.3 -0.74,-4.02 -0.74,-5.15 -0.01,-1.13 0.29,-3.28 0.89,-6.44 0.12,-0.56 0.28,-1.36 0.47,-2.42 0.18,-1.06 0.33,-1.83 0.43,-2.32 0.13,-0.55 0.28,-1.2 0.48,-1.92 0.2,-0.73 0.31,-1.12 0.32,-1.19l0.55 -1.96 2.1 -1.63c2.69,-2.12 5.01,-3.27 6.96,-3.43z"/>
  <path class="fil1" d="M389.03 265.32c0.29,-1.1 0.95,-2.7 1.98,-4.8 1.04,-2.09 1.71,-3.73 2.01,-4.9 0.45,-1.73 0.54,-3.07 0.28,-4.02 -0.63,-2.45 -2.28,-4.02 -4.95,-4.7 -1.33,-0.34 -2.72,-0.29 -4.17,0.15 -1.45,0.44 -2.68,1.15 -3.69,2.15 -0.53,0.46 -1.03,1.4 -1.48,2.83l-0.26 1.04c-0.21,0.83 -0.32,2.53 -0.31,5.12 0.13,2.09 0.06,3.66 -0.2,4.7 -0.25,0.97 -0.87,2.1 -1.87,3.39 -0.65,0.87 -1.35,2.01 -2.13,3.43 -0.02,0.07 -0.16,0.37 -0.42,0.9 -0.26,0.52 -0.46,0.86 -0.57,1.01 -0.13,0.15 -0.32,0.4 -0.57,0.74 -0.26,0.34 -0.52,0.55 -0.79,0.62 -0.27,0.08 -0.56,0.08 -0.88,0 -0.63,-0.16 -1.31,-0.68 -2.04,-1.57 -0.73,-0.89 -1.25,-1.89 -1.55,-3 -0.44,-1.22 -0.67,-2.23 -0.67,-3.04 0,-0.81 0.18,-3.57 0.55,-8.27 0.31,-4.12 0.57,-6.63 0.8,-7.53 0.27,-1.04 0.9,-2.35 1.89,-3.94 1.04,-1.8 2.14,-3.14 3.29,-4.03 2.87,-2.06 5.88,-3.36 9.02,-3.88 2,-0.3 3.31,-0.44 3.94,-0.43 0.62,0.02 1.99,0.29 4.11,0.83l0.48 0.13c4.13,1.13 7.58,3.19 10.33,6.18 2.16,2.32 3.48,5.17 3.96,8.53 0.27,2.21 -0.49,6.99 -2.3,14.35 -1.42,5.9 -1.98,9.22 -1.67,9.96 0.19,0.57 0.21,1.13 0.07,1.68 -0.22,0.9 -0.89,1.54 -1.99,1.92 -0.56,0.22 -1.24,0.24 -2.02,0.04 -1.73,-0.45 -3.57,-2.06 -5.53,-4.85 -1.6,-2.25 -2.58,-4.08 -2.92,-5.5 -0.35,-1.42 -0.26,-3.16 0.27,-5.24z"/>
  <path class="fil1" d="M420.96 221.56c0.72,-0.16 1.44,-0.13 2.13,0.08 1.09,0.32 2.3,1.06 3.65,2.21 2.99,2.46 5.24,5.82 6.75,10.08 0.39,1.23 0.52,2.06 0.4,2.47 -0.14,0.48 -0.53,1.18 -1.14,2.11 -1.24,1.87 -2,2.98 -2.27,3.35 -0.62,0.64 -1.57,1.54 -2.85,2.72 -1.29,1.18 -2.12,1.86 -2.52,2.04 -0.39,0.19 -0.79,0.51 -1.18,0.99 -0.48,0.46 -1.6,1.11 -3.38,1.95 -1.77,0.85 -2.91,1.24 -3.39,1.17 -0.43,0.02 -0.84,-0.18 -1.22,-0.59 -0.38,-0.42 -0.88,-1.44 -1.49,-3.08 -0.61,-1.64 -0.86,-2.77 -0.75,-3.41 0.02,-0.07 0.04,-0.36 0.07,-0.88 0.03,-0.51 0.05,-1.08 0.07,-1.71 0.02,-0.62 0.06,-1.19 0.13,-1.69 0.11,-2.06 0.4,-3.87 0.87,-5.45l0.68 -2.25c0.67,-2.26 1.62,-4.55 2.82,-6.87 0.9,-1.6 1.42,-2.5 1.58,-2.72 0.15,-0.21 0.5,-0.39 1.04,-0.52z"/>
  <path class="fil1" d="M60.71 135.38c0.34,-0.16 1,-0.37 1.98,-0.61 4.01,-0.98 8,-1.12 11.95,-0.43 1.38,0.25 2.29,0.47 2.71,0.65 0.42,0.19 1.06,0.68 1.92,1.47 0.38,0.41 0.81,0.78 1.27,1.13 0.46,0.34 0.75,0.58 0.88,0.72 0.13,0.13 0.3,0.43 0.5,0.87 0.2,0.46 0.47,1.14 0.79,2.06 0.55,1.87 0.68,3 0.4,3.4 -0.2,0.3 -0.62,0.53 -1.24,0.68 -0.36,0.09 -0.98,0.16 -1.87,0.21 -0.88,0.05 -1.51,0.12 -1.86,0.2 -1.11,0.11 -2.16,0.28 -3.13,0.52 -0.27,0.07 -0.69,0.19 -1.26,0.37 -0.57,0.19 -1.04,0.32 -1.39,0.41 -8.64,2.53 -15.56,7.68 -20.74,15.45 -1.1,1.69 -2.08,3.49 -2.93,5.41 -0.86,1.91 -1.28,3.25 -1.29,4l0.14 0.59c0.45,1.81 1.5,3.59 3.16,5.35 4.05,4.59 9.98,7.97 17.8,10.14 6.1,1.75 11.15,2.14 15.17,1.16 3.2,-0.79 5.92,-2.46 8.13,-5 0.97,-1.07 1.72,-1.67 2.25,-1.8 1.34,-0.33 2.16,0.14 2.47,1.4 0.15,0.63 0.05,2.01 -0.33,4.14 -0.38,2.13 -0.8,3.59 -1.27,4.37 -2.84,5.37 -7.92,8.94 -15.23,10.73 -2.23,0.55 -4.32,0.9 -6.27,1.04 -3.33,0.31 -7.36,0.05 -12.1,-0.78 -5.34,-0.95 -9.83,-2.58 -13.47,-4.89 -3.63,-2.32 -6.93,-5.66 -9.89,-10.01 -2.81,-4.15 -4.58,-7.71 -5.32,-10.7 -0.38,-1.57 -0.58,-2.77 -0.59,-3.6 -0.45,-6.06 0.62,-11.91 3.21,-17.54 1.18,-2.54 2.81,-5.14 4.89,-7.82 2.09,-2.68 4.23,-4.91 6.44,-6.7 1.8,-1.53 5.09,-3.17 9.86,-4.92 0.42,-0.18 0.96,-0.4 1.61,-0.64 0.65,-0.24 1.21,-0.47 1.68,-0.66 0.47,-0.2 0.79,-0.32 0.97,-0.37z"/>
  <path class="fil1" d="M121.1 159.48c-0.77,-0.09 -1.7,0.07 -2.8,0.48 -2.55,1.19 -5.01,2.91 -7.38,5.16 -2.36,2.25 -3.84,4.32 -4.43,6.19 -0.26,0.93 -0.33,1.68 -0.24,2.25 0.08,0.43 0.44,1.32 1.1,2.68 0.77,1.56 2.24,2.91 4.4,4.04 2.16,1.13 4.55,1.73 7.15,1.79 1.09,0.03 2.61,-0.12 4.56,-0.46 1.29,-0.23 2.42,-0.5 3.36,-0.81 2.17,-0.97 3,-2.95 2.48,-5.96 -0.18,-1 -0.36,-1.78 -0.54,-2.33 -1.03,-3.51 -2.26,-6.5 -3.69,-8.98 -1.44,-2.47 -2.76,-3.82 -3.97,-4.05zm-17.6 -1.69c3.65,-2.55 7.59,-4.19 11.81,-4.93 1.21,-0.21 2.11,-0.33 2.69,-0.36 5.92,-0.07 10.42,1.02 13.49,3.28 2.88,2.15 5.06,4.39 6.56,6.71 0.79,1.18 1.35,2.71 1.67,4.57 0.29,1.64 0.39,3.17 0.3,4.59 -0.12,1.2 -0.09,2.33 0.1,3.41 0.4,2.28 -1.63,5.77 -6.08,10.45 -2.76,2.84 -6.86,4.73 -12.3,5.68 -2.59,0.45 -4.7,0.6 -6.31,0.44 -9.12,-0.99 -15.12,-5.46 -18.02,-13.43 -0.48,-1.32 -0.81,-2.51 -1,-3.58 -0.35,-2.01 0.06,-4.7 1.22,-8.07 1.48,-4.01 3.43,-6.93 5.87,-8.76z"/>
  <path class="fil1" d="M171.54 144.88c-0.95,-0.16 -2.11,-0.03 -3.5,0.4 -3.26,1.27 -6.43,3.21 -9.54,5.83 -3.1,2.62 -5.09,5.06 -5.96,7.34 -0.39,1.13 -0.54,2.06 -0.46,2.77 0.06,0.54 0.44,1.68 1.15,3.41 0.84,1.99 2.56,3.77 5.16,5.34 2.59,1.57 5.5,2.49 8.72,2.76 1.35,0.12 3.25,0.04 5.69,-0.23 1.62,-0.19 3.04,-0.43 4.23,-0.75 2.77,-1.04 3.94,-3.44 3.52,-7.2 -0.14,-1.25 -0.31,-2.23 -0.49,-2.94 -1.01,-4.42 -2.31,-8.22 -3.91,-11.4 -1.59,-3.17 -3.13,-4.95 -4.61,-5.33zm-21.69 -3.41c4.72,-2.89 9.72,-4.63 15.01,-5.23 1.52,-0.17 2.64,-0.25 3.37,-0.24 7.34,0.35 12.83,2.05 16.47,5.09 3.41,2.88 5.95,5.81 7.63,8.8 0.89,1.53 1.46,3.46 1.73,5.79 0.23,2.06 0.24,3.97 0.02,5.71 -0.24,1.48 -0.29,2.89 -0.14,4.24 0.33,2.86 -2.45,7.03 -8.31,12.5 -3.65,3.31 -8.87,5.35 -15.68,6.12 -3.25,0.36 -5.87,0.39 -7.86,0.07 -11.23,-1.91 -18.34,-7.92 -21.32,-18.01 -0.5,-1.67 -0.82,-3.18 -0.97,-4.52 -0.29,-2.51 0.42,-5.81 2.12,-9.9 2.13,-4.87 4.78,-8.34 7.93,-10.42z"/>
  <path class="fil1" d="M203.15 121.72c0.8,-0.29 1.56,-0.45 2.29,-0.49 1.89,-0.11 3.14,0.34 3.74,1.34 0.3,0.55 0.73,4.87 1.29,12.99l0.83 12.17c0.54,0.05 1.22,0.05 2.03,0 2.08,-0.12 3.81,-1.49 5.2,-4.13 1.63,-3.21 4.16,-5.7 7.59,-7.5 1.41,-0.72 2.57,-1.1 3.47,-1.16 2.26,-0.12 3.69,1.99 4.3,6.35l0.07 1.07c0.2,3.67 -0.74,7.08 -2.82,10.23 -0.75,1.16 -0.85,1.84 -0.29,2.05 0.46,0.14 1.22,0.87 2.3,2.2 1.07,1.34 1.91,2.59 2.52,3.75 0.71,1.32 1.26,3.69 1.63,7.1 0.4,3.81 0.78,6.42 1.13,7.84 0.84,3.63 1.28,5.8 1.32,6.51 0.02,0.4 -0.05,0.77 -0.21,1.1 -0.33,0.57 -1.13,0.9 -2.39,0.97 -0.36,0.02 -1.18,-0.01 -2.45,-0.1 -3.11,-0.46 -5.9,-2.1 -8.37,-4.91 -2.47,-2.82 -4.14,-6.36 -5.02,-10.62 -0.49,-2.21 -1.73,-4.09 -3.72,-5.66 -1.9,-1.49 -3.48,-2.2 -4.74,-2.12 -0.81,0.04 -1.35,0.65 -1.6,1.83 -0.25,1.17 -0.43,3.91 -0.54,8.23 -0.16,5.2 -0.41,8.01 -0.75,8.43 -0.08,0.16 -0.46,0.59 -1.15,1.26l-1.39 -0.52c-0.74,-0.27 -1.37,-0.7 -1.9,-1.26 -0.53,-0.57 -1.54,-1.85 -3.01,-3.85 -2.06,-2.83 -3.72,-5.69 -4.97,-8.58 -0.84,-2.03 -1.54,-7.98 -2.11,-17.85 -0.04,-0.79 -0.09,-2.05 -0.14,-3.76 -0.06,-1.72 -0.11,-3.05 -0.16,-4.01 -0.29,-6.53 -0.23,-10.25 0.18,-11.15 0.64,-1.39 1.84,-2.94 3.61,-4.64 1.75,-1.69 3.17,-2.73 4.23,-3.11z"/>
  <path class="fil1" d="M247.42 99.86c0.41,-0.1 1.13,-0.16 2.17,-0.18 1.55,-0.03 2.69,0.14 3.42,0.48 1.14,0.62 1.8,2.43 1.96,5.43l0.03 1.5c0.02,1.28 -0.21,2.6 -0.7,3.98 -0.58,1.83 -0.88,2.84 -0.87,3.02 0,0.27 -0.3,0.78 -0.9,1.52 -0.61,0.74 -1.63,1.12 -3.08,1.15 -1.45,0.03 -2.69,-0.27 -3.74,-0.89 -2.61,-1.4 -4.97,-3.5 -7.09,-6.28 -1.27,-1.52 -1.91,-2.6 -1.92,-3.24 0,-0.37 0.14,-0.78 0.44,-1.24 0.61,-0.83 2.08,-1.84 4.44,-3.02 2.35,-1.18 4.3,-1.93 5.84,-2.23zm0.28 30.86c1.02,-0.38 2.21,-0.54 3.56,-0.47 2.27,0.23 3.42,1.12 3.45,2.66 0.02,1.01 0.19,1.82 0.51,2.45 0.87,2.17 1.36,5.9 1.46,11.18 0.04,2.09 -0.06,6.39 -0.3,12.91 -0.24,6.51 -0.46,10.05 -0.65,10.6 0,0.18 -0.18,1.37 -0.55,3.56 -0.35,3.28 -1.3,5.26 -2.84,5.93 -0.61,0.37 -1.33,0.34 -2.17,-0.1 -2.6,-1.22 -5.58,-5.4 -8.91,-12.53 -1.29,-2.71 -2.1,-4.76 -2.44,-6.17 -0.34,-1.41 -0.6,-4.16 -0.78,-8.25 -0.01,-0.73 -0.06,-1.78 -0.14,-3.14 -0.07,-1.36 -0.12,-2.37 -0.13,-3 -0.01,-0.73 -0.01,-1.57 0.03,-2.53 0.03,-0.96 0.05,-1.48 0.05,-1.57l0.1 -2.6 2.12 -2.63c2.73,-3.42 5.27,-5.52 7.63,-6.3z"/>
  <path class="fil1" d="M288.43 164.67c0.03,-1.46 0.39,-3.64 1.07,-6.54 0.69,-2.89 1.05,-5.12 1.09,-6.67 0.05,-2.27 -0.23,-3.96 -0.82,-5.07 -1.48,-2.85 -3.98,-4.32 -7.49,-4.4 -1.76,-0.04 -3.48,0.42 -5.15,1.38 -1.67,0.97 -2.99,2.21 -3.96,3.74 -0.53,0.72 -0.87,2.03 -1.02,3.94l-0.03 1.36c-0.02,1.09 0.34,3.24 1.1,6.45 0.77,2.57 1.14,4.53 1.1,5.9 -0.02,1.27 -0.47,2.85 -1.34,4.75 -0.55,1.26 -1.1,2.89 -1.66,4.88 0,0.09 -0.09,0.5 -0.26,1.22 -0.18,0.73 -0.32,1.2 -0.42,1.43 -0.11,0.22 -0.28,0.58 -0.49,1.08 -0.22,0.49 -0.49,0.83 -0.8,1 -0.31,0.18 -0.68,0.26 -1.09,0.25 -0.83,-0.02 -1.82,-0.47 -2.99,-1.36 -1.17,-0.89 -2.1,-1.98 -2.79,-3.28 -0.9,-1.38 -1.47,-2.58 -1.71,-3.59 -0.23,-1 -0.8,-4.48 -1.7,-10.42 -0.81,-5.21 -1.2,-8.4 -1.17,-9.59 0.03,-1.36 0.43,-3.17 1.21,-5.43 0.77,-2.53 1.75,-4.52 2.92,-5.95 2.97,-3.39 6.33,-5.87 10.08,-7.42 2.4,-0.94 3.99,-1.5 4.77,-1.67 0.78,-0.16 2.56,-0.21 5.35,-0.15l0.62 0.02c5.46,0.21 10.34,1.78 14.61,4.7 3.36,2.26 5.82,5.41 7.38,9.45 0.97,2.67 1.4,8.82 1.29,18.47 -0.08,7.74 0.19,12.03 0.79,12.86 0.4,0.65 0.59,1.34 0.57,2.06 -0.02,1.19 -0.66,2.17 -1.92,2.97 -0.63,0.44 -1.46,0.65 -2.49,0.62 -2.28,-0.05 -5.03,-1.52 -8.27,-4.42 -2.64,-2.33 -4.38,-4.33 -5.21,-5.99 -0.85,-1.66 -1.24,-3.85 -1.17,-6.58z"/>
  <path class="fil1" d="M338.84 152.98c-0.68,-0.34 -1.48,-0.5 -2.39,-0.48 -2.22,0.15 -4.63,0.82 -7.23,2 -2.6,1.18 -4.71,2.58 -6.32,4.19 -0.88,0.92 -1.36,1.69 -1.45,2.32 -0.17,1.11 0.89,2.88 3.18,5.32 4.08,4.48 7.92,7.27 11.5,8.37 0.09,0.02 0.2,0.06 0.33,0.11 0.13,0.07 0.24,0.1 0.33,0.11 1.61,0.24 2.89,-1.01 3.85,-3.77 0.48,-1.38 0.84,-2.82 1.06,-4.32 0.46,-3.07 0.42,-5.96 -0.14,-8.66 -0.55,-2.71 -1.46,-4.44 -2.72,-5.19zm-13.16 -11.05c1.72,-1.11 5.18,-1.27 10.37,-0.5 2.32,0.35 4.41,0.79 6.25,1.31 3.16,0.87 5.86,2.37 8.11,4.48 0.81,0.68 2.12,2.19 3.92,4.52 1.8,2.32 2.83,3.83 3.09,4.51 0.41,0.95 0.52,2.06 0.33,3.32 -0.15,0.94 -0.44,1.99 -0.88,3.13 -2.11,5.49 -3.52,10.6 -4.22,15.33 -0.23,1.5 -1.01,4.55 -2.34,9.14 -1.33,4.6 -2.42,7.92 -3.28,9.97 -0.49,1.46 -1.03,2.63 -1.62,3.51 -2.41,3.26 -5.03,5.63 -7.86,7.1 -2.82,1.47 -6.52,1.87 -11.08,1.18 -3.04,-0.45 -6.12,-1.88 -9.24,-4.29 -3.41,-2.85 -5.88,-6.81 -7.41,-11.87 -0.49,-1.61 -0.67,-2.8 -0.55,-3.59 0.09,-0.63 0.5,-1.26 1.24,-1.87 0.7,-0.46 1.55,-0.62 2.54,-0.47 0.62,0.1 1.36,0.33 2.22,0.7 0.94,0.46 1.69,0.96 2.25,1.48 0.56,0.53 1.81,1.95 3.75,4.26 2.8,3.32 4.41,5.05 4.85,5.2 0.08,0.01 0.2,0.05 0.32,0.11 0.13,0.06 0.24,0.09 0.33,0.11 1.34,0.2 2.96,-0.24 4.86,-1.33 1.9,-1.08 3.24,-2.33 3.99,-3.75 0.5,-0.9 0.92,-2.41 1.24,-4.54 0.22,-1.49 0.25,-2.62 0.09,-3.37l-4.98 -0.62 -1.61 -0.25c-2.95,-0.44 -5.23,-0.98 -6.82,-1.62 -1.6,-0.65 -3.47,-1.77 -5.6,-3.38 -2.7,-2.1 -4.77,-4.23 -6.18,-6.37 -1.42,-2.15 -2.29,-4.82 -2.64,-8.02 -0.24,-2.05 -0.22,-4.02 0.07,-5.92 0.65,-4.33 2.6,-8.19 5.85,-11.57 1.4,-1.41 2.5,-2.39 3.32,-2.95 0.82,-0.56 2.04,-1.13 3.69,-1.69l3.63 -1.39z"/>
  <path class="fil1" d="M105.07 115.54c-0.66,-0.9 -1.11,-1.93 -1.37,-3.09 -0.4,-1.81 -0.23,-3.47 0.51,-4.99 0.74,-1.52 1.96,-2.47 3.67,-2.85 0.44,-0.09 1.01,0.12 1.73,0.65 -0.27,1.28 -0.5,2.23 -0.67,2.88l0.48 2.2c0.07,0.3 0.38,1.44 0.93,3.4 0.55,1.96 0.92,3.38 1.12,4.27 0.15,0.69 0.22,1.2 0.2,1.53l-0.1 1.72c-0.07,1.15 -0.49,2.23 -1.28,3.26 -1.48,1.78 -3.27,2.9 -5.37,3.37 -1.4,0.31 -2.88,0.27 -4.43,-0.11l-0.8 -0.19 -0.64 0.51c-0.97,0.78 -2.34,1.36 -4.08,1.75l-0.46 0.1c-4.28,0.79 -7.09,-0.33 -8.45,-3.34 -0.73,-1.66 -1.46,-4.13 -2.19,-7.4 -0.43,-1.97 -0.64,-3.34 -0.63,-4.11 -0.01,-1.08 0.19,-2.04 0.6,-2.86 0.48,-0.95 0.96,-1.48 1.44,-1.59 0.48,-0.11 1.13,0.12 1.93,0.66 0.81,0.55 1.43,1.16 1.86,1.84 0.34,0.53 0.57,1.04 0.68,1.54 0.17,0.77 0.17,2.02 0.01,3.76 -0.17,1.53 -0.2,2.53 -0.1,2.99l0.12 0.52c0.27,1.03 0.67,1.79 1.19,2.26 0.51,0.47 1.36,0.86 2.53,1.17 0.67,0.17 1.12,0.23 1.34,0.18 0.31,-0.07 0.56,-0.28 0.76,-0.65 0.61,-0.94 0.73,-2.25 0.37,-3.9 -0.18,-0.81 -0.54,-1.92 -1.08,-3.34 -0.47,-1.27 -0.72,-1.98 -0.75,-2.14 -0.17,-0.77 0.18,-2.26 1.07,-4.48 0.72,-1.9 1.35,-2.91 1.87,-3.02 0.31,-0.07 0.67,0.23 1.1,0.91 0.49,0.78 0.95,2.11 1.37,4 0.32,1.46 0.58,2.74 0.78,3.83 0.24,1.32 0.54,2.75 0.88,4.29 0.2,0.92 0.34,1.44 0.41,1.55 0.15,0.29 0.48,0.56 0.97,0.81 0.49,0.26 0.87,0.35 1.13,0.3 0.53,-0.12 1.09,-0.53 1.69,-1.23 0.6,-0.7 0.97,-1.38 1.09,-2.06 0.15,-0.8 0.16,-1.47 0.04,-2.01 -0.17,-0.77 -0.66,-1.73 -1.47,-2.89z"/>
  <path class="fil1" d="M114.16 87.7c0.32,-0.15 0.71,-0.26 1.21,-0.35 1.14,-0.19 1.93,0.2 2.38,1.16 0.18,0.42 0.54,1.94 1.1,4.57l0.74 3.95 2.54 -0.42c4.25,-0.71 7.88,-0.13 10.89,1.75 1.06,0.61 2.09,1.6 3.1,2.97 0.72,0.92 1.22,1.94 1.53,3.08 0.3,1.14 0.83,3.67 1.6,7.59 1.02,5.47 1.86,8.84 2.52,10.12 0.25,0.45 0.4,0.87 0.47,1.25 0.12,0.73 -0.08,1.23 -0.59,1.51 -0.11,0.07 -0.34,0.13 -0.73,0.2 -0.98,0.16 -1.88,0.14 -2.7,-0.07 -0.7,-0.13 -1.66,-0.54 -2.9,-1.23 -1.23,-0.68 -2.09,-1.25 -2.56,-1.72 -1.01,-1.02 -1.72,-2.04 -2.15,-3.05 -0.42,-1.02 -0.92,-3.11 -1.51,-6.28 -0.76,-3.88 -1.32,-6.33 -1.69,-7.36 -0.36,-1.02 -1,-1.76 -1.92,-2.2l-0.85 0.44c-1.25,0.6 -2.22,1.48 -2.93,2.64l-0.37 0.8 0.64 4.86c0.86,6.14 1.25,9.81 1.17,11.01 -0.12,1.01 -0.53,1.57 -1.24,1.69 -0.54,0.09 -1.31,-0.13 -2.29,-0.66 -0.82,-0.5 -1.93,-1.62 -3.34,-3.33 -1.41,-1.72 -2.55,-3.37 -3.43,-4.96 -0.39,-0.67 -1.47,-6.11 -3.22,-16.3l-0.82 -4.9 0.41 -1.11c0.34,-0.95 0.7,-1.65 1.07,-2.11 0.42,-0.51 1.08,-1.19 1.98,-2.03 0.89,-0.85 1.53,-1.35 1.89,-1.51z"/>
  <path class="fil1" d="M155.25 99.48c-0.36,-0.17 -0.7,-0.24 -0.99,-0.21 -0.44,0.05 -1.24,0.43 -2.4,1.13 -2,1.19 -3.44,2.67 -4.33,4.44 -0.29,0.56 -0.41,0.97 -0.38,1.23 0.09,0.77 1.37,1.79 3.85,3.03 2.48,1.25 4.41,1.86 5.8,1.83 0.64,-0.03 1.07,-0.17 1.29,-0.41 0.57,-0.64 0.75,-1.95 0.51,-3.94 -0.12,-1.08 -0.33,-2.04 -0.62,-2.88 -0.81,-2.27 -1.72,-3.68 -2.73,-4.22zm-6.39 -5.04c0.95,-0.33 1.97,-0.55 3.05,-0.68 1.08,-0.12 2.19,-0.14 3.34,-0.06 2.01,0.12 3.93,0.66 5.78,1.6 1.84,0.95 3.27,2.13 4.28,3.55 0.77,1.05 1.28,2.02 1.53,2.91 0.25,0.89 0.52,2.59 0.81,5.09 0.28,2.42 0.49,3.9 0.62,4.43 0.14,0.53 0.43,1.01 0.88,1.44 0.34,0.36 0.52,0.71 0.57,1.05 0.05,0.44 -0.16,0.83 -0.61,1.19 -0.46,0.36 -1.08,0.58 -1.86,0.67 -0.79,0.09 -1.4,0.08 -1.83,-0.05 -0.44,-0.12 -1.01,-0.45 -1.72,-0.98l-1.22 -0.91 -1.14 1.05c-1.04,0.91 -1.91,1.53 -2.62,1.88 -0.71,0.34 -1.72,0.59 -3.04,0.74l-1.33 0.16c-1.72,0.15 -2.96,0.14 -3.72,-0.03 -2.39,-0.47 -4.57,-1.47 -6.53,-2.99 -0.66,-0.54 -1.09,-0.93 -1.29,-1.17 -0.2,-0.24 -0.53,-0.79 -0.97,-1.66 -0.83,-1.57 -1.33,-3.09 -1.5,-4.56 -0.22,-1.9 0.08,-3.81 0.9,-5.75 0.77,-1.88 1.55,-3.11 2.33,-3.68 2.15,-1.65 3.91,-2.73 5.29,-3.24z"/>
  <path class="fil1" d="M174.44 90.12c0.58,-0.17 1.22,-0.12 1.93,0.14 0.41,0.15 0.69,0.43 0.84,0.86 0.15,0.42 0.33,1.46 0.53,3.1l0.35 2.99c1.56,-0.28 3.03,-0.46 4.41,-0.55 0.64,-0.04 1.36,-0.04 2.15,-0.01 0.35,0.02 1.09,0.08 2.24,0.18 1.14,0.1 2.16,0.19 3.06,0.26 0.89,0.07 1.41,0.15 1.57,0.22 0.1,0.08 0.25,0.12 0.45,0.1 0.2,-0.01 0.42,0.09 0.68,0.29 0.32,0.24 0.48,0.47 0.5,0.68 0.03,0.48 -0.6,1.13 -1.88,1.96 -1.76,1.11 -3.68,2.05 -5.75,2.79 -0.97,0.37 -1.79,0.57 -2.48,0.62 -0.94,0.06 -2.16,-0.43 -3.66,-1.46l-1.32 -0.96 -0.3 1.13c-0.23,0.97 -0.3,2.2 -0.21,3.67 0.11,1.69 0.39,3.28 0.83,4.75 0.44,1.48 0.94,2.33 1.5,2.55 0.2,0.08 0.4,0.11 0.6,0.1 0.84,-0.06 1.9,-0.54 3.17,-1.45 1.28,-0.91 2.49,-2.06 3.63,-3.44 1.34,-1.57 2.15,-2.36 2.45,-2.38 0.04,-0.01 0.3,-0.18 0.78,-0.51 0.47,-0.29 0.98,-0.46 1.53,-0.49 0.93,-0.06 1.56,0.2 1.9,0.79 0.11,0.25 0.18,0.49 0.19,0.71 0.07,1.04 -0.28,2.83 -1.06,5.36 -0.35,1.46 -1.31,2.96 -2.89,4.5 -0.84,0.8 -1.5,1.3 -1.98,1.51 -0.73,0.26 -1.43,0.57 -2.09,0.92 -1.59,0.75 -3.02,1.17 -4.3,1.25 -2.31,0.15 -4.44,-0.31 -6.39,-1.38 -1.95,-1.07 -3.45,-2.4 -4.49,-3.99 -0.61,-0.96 -1,-2.07 -1.18,-3.32 -0.08,-0.39 -0.17,-0.95 -0.29,-1.68 -0.12,-0.74 -0.23,-1.4 -0.32,-2.01 -0.09,-0.6 -0.15,-1.17 -0.18,-1.69 -0.03,-0.43 -0.02,-1.04 0.02,-1.83 0.03,-0.44 -0.01,-1.37 -0.1,-2.8l-0.08 -1.24c-0.01,-0.22 -0.05,-0.5 -0.09,-0.84 -0.05,-0.35 -0.08,-0.59 -0.09,-0.72 -0.11,-1.73 0.05,-3.12 0.47,-4.15 0.4,-0.81 1.17,-1.71 2.31,-2.7 1.15,-0.99 2.16,-1.6 3.04,-1.83z"/>
  <path class="fil1" d="M195.05 78.5c0.39,-0.23 0.8,-0.35 1.25,-0.36 0.69,-0.02 1.53,0.17 2.53,0.57 2.2,0.85 4.15,2.36 5.84,4.53 0.47,0.63 0.7,1.08 0.71,1.34 0.01,0.31 -0.08,0.79 -0.25,1.45 -0.36,1.31 -0.58,2.1 -0.67,2.37 -0.23,0.48 -0.61,1.19 -1.12,2.12 -0.52,0.93 -0.87,1.49 -1.06,1.66 -0.2,0.19 -0.36,0.45 -0.5,0.8 -0.19,0.36 -0.71,0.95 -1.57,1.78 -0.87,0.83 -1.44,1.27 -1.74,1.33 -0.24,0.09 -0.52,0.05 -0.82,-0.11 -0.3,-0.16 -0.78,-0.66 -1.45,-1.49 -0.67,-0.83 -1.03,-1.44 -1.09,-1.83 0,-0.04 -0.04,-0.21 -0.13,-0.51 -0.08,-0.31 -0.18,-0.64 -0.29,-1.01 -0.11,-0.36 -0.19,-0.7 -0.25,-1 -0.33,-1.21 -0.51,-2.31 -0.55,-3.32l-0.04 -1.43c-0.04,-1.43 0.06,-2.94 0.31,-4.51 0.21,-1.1 0.34,-1.72 0.39,-1.88 0.04,-0.15 0.21,-0.32 0.5,-0.5z"/>
  <path class="fil1" d="M210.63 94.23c1.13,-1.18 3.27,-1.77 6.43,-1.77 1.24,0 2.32,0.09 3.26,0.26 1.13,0.22 1.87,0.4 2.22,0.55 0.34,0.16 0.74,0.43 1.19,0.82 1.03,1 1.55,2.13 1.55,3.39 0,0.65 -0.2,1.17 -0.59,1.57 -0.34,0.3 -0.72,0.45 -1.11,0.45 -0.39,0 -0.91,-0.17 -1.55,-0.52 -0.99,-0.52 -2.37,-1 -4.15,-1.43 -1.09,-0.26 -1.78,-0.32 -2.07,-0.19 -0.25,0.13 -0.37,0.3 -0.37,0.52 0,0.3 0.19,0.78 0.59,1.43 0.84,1.4 1.98,2.65 3.41,3.78 2.17,1.66 3.6,2.98 4.3,3.98 1.38,1.83 2.07,3.15 2.07,3.98 0,1.52 -0.96,2.7 -2.88,3.52 -1.98,0.88 -3.95,1.31 -5.92,1.31 -0.55,0 -1.51,-0.08 -2.89,-0.25 -2.62,-0.39 -4.59,-1.15 -5.92,-2.28 -0.99,-0.83 -1.48,-1.76 -1.49,-2.81 0,-1.52 0.54,-2.28 1.63,-2.28 0.59,0 1.43,0.3 2.52,0.91 1.23,0.74 2.81,1.13 4.74,1.17 1.28,0.04 2.02,-0.02 2.22,-0.2 0.24,-0.22 0.29,-0.43 0.14,-0.65 -0.1,-0.22 -1.03,-1.11 -2.81,-2.67 -2.82,-2.61 -4.54,-4.52 -5.19,-5.74 -0.64,-1.17 -0.96,-2.3 -0.96,-3.39 0,-1.22 0.54,-2.37 1.63,-3.46z"/>
  <path class="fil1" d="M143.52 283.78c-7.83,-0.02 -15.7,1.22 -23.45,-0.88 -0.36,-2.88 0.26,-4.76 3.77,-4.95 8.63,-0.45 17.25,-1.15 25.88,-1.75 2.73,2.32 11.98,-0.05 11.28,-0.82 24.04,-1.18 48.08,-2.38 72.12,-3.52 9.71,-0.46 19.45,-0.53 29.13,-1.3 3.74,-0.3 6.12,0.35 6.24,4.2 0.13,4.08 -3.32,2.2 -5.14,2.29 -33.29,1.63 -66.51,4.57 -99.87,4.69 -6.66,0.03 -13.31,1.33 -19.96,2.04z"/>
  <path class="fil1" d="M250.61 58.23c7.75,1.05 15.71,0.87 23.12,3.97 -0.02,2.91 -0.89,4.69 -4.39,4.41 -8.61,-0.7 -17.25,-1.14 -25.88,-1.69 -2.41,-2.67 -11.89,-1.53 -11.3,-0.68 -23.98,-2.01 -47.97,-4 -71.95,-6.06 -9.68,-0.82 -19.34,-2.04 -29.04,-2.56 -3.75,-0.2 -6.02,-1.16 -5.63,-4.99 0.41,-4.07 3.58,-1.74 5.4,-1.59 33.21,2.79 66.52,4.28 99.61,8.56 6.6,0.86 13.37,0.45 20.06,0.63z"/>
  <polygon class="fil2" points="318.29,385.49 94.74,394.19 92.83,345.09 316.38,336.39 "/>
  <path class="fil3" d="M137.83 364.97c0,-4.4 1.34,-5.76 3.24,-5.76 2.15,0 3.49,1.56 3.49,5.99 0,4.37 -1.24,5.81 -3.27,5.81 -2.14,0 -3.46,-1.56 -3.46,-6.04zm10.72 0.05c0,-6.6 -2.86,-9.02 -7.26,-9.02 -4.29,0 -7.43,2.78 -7.43,9.22 0,6.63 2.78,9 7.21,9 4.32,0 7.48,-2.75 7.48,-9.2zm3.21 -8.77l0 17.72 3.81 0 0 -6.6 0.26 0c0.81,0 1.29,0.2 1.62,0.84l2.93 5.76 4.6 0 -2.71 -4.88c-0.83,-1.49 -1.41,-2.15 -2.35,-2.6l0 -0.1c2.08,-0.41 3.74,-1.85 3.74,-4.93 0,-3.72 -2.22,-5.21 -6.14,-5.21l-5.76 0zm3.81 3.19l1.52 0c1.69,0 2.66,0.73 2.66,2.35 0,1.64 -0.66,2.52 -2.71,2.52l-1.47 0 0 -4.87zm11.69 14.53l5.56 0c6.52,0 8.31,-4.73 8.31,-9.25 0,-5.66 -2.6,-8.47 -8.36,-8.47l-5.51 0 0 17.72zm3.84 -14.53l1.39 0c2.8,0 4.67,1.36 4.67,5.63 0,3.41 -1.03,5.71 -4.64,5.71l-1.42 0 0 -11.34zm24.03 14.53l0 -3.19 -6.95 0 0 -4.22 5.71 0 0 -3.18 -5.71 0 0 -3.94 6.65 0 0 -3.19 -10.49 0 0 17.72 10.79 0zm3.44 -17.72l0 17.72 3.82 0 0 -6.6 0.25 0c0.81,0 1.29,0.2 1.62,0.84l2.93 5.76 4.6 0 -2.7 -4.88c-0.84,-1.49 -1.42,-2.15 -2.35,-2.6l0 -0.1c2.07,-0.41 3.73,-1.85 3.73,-4.93 0,-3.72 -2.22,-5.21 -6.14,-5.21l-5.76 0zm3.82 3.19l1.51 0c1.7,0 2.66,0.73 2.66,2.35 0,1.64 -0.66,2.52 -2.71,2.52l-1.46 0 0 -4.87zm22.35 1.64c0.73,1.94 1.46,3.69 2.35,5.41l3.89 7.48 4.53 0 0 -17.72 -3.67 0 0 5.61c0,1.87 0,4.32 0.2,6.8l-0.1 0c-0.66,-1.77 -1.62,-3.74 -2.5,-5.43l-3.62 -6.98 -4.62 0 0 17.72 3.69 0 0 -6.7c0,-3.06 -0.08,-4.42 -0.25,-6.19l0.1 0zm17.99 3.89c0,-4.4 1.34,-5.76 3.24,-5.76 2.15,0 3.49,1.56 3.49,5.99 0,4.37 -1.24,5.81 -3.27,5.81 -2.14,0 -3.46,-1.56 -3.46,-6.04zm10.72 0.05c0,-6.6 -2.86,-9.02 -7.26,-9.02 -4.29,0 -7.43,2.78 -7.43,9.22 0,6.63 2.78,9 7.21,9 4.32,0 7.48,-2.75 7.48,-9.2zm7.79 4.63c-0.08,-1.9 -0.56,-4.27 -1.04,-6.25l-1.74 -7.15 -4.17 0 4.5 17.72 4.57 0 2.05 -8.67c0.38,-1.57 0.61,-2.88 0.86,-4.7l0.1 0c0.2,1.72 0.45,3.11 1.01,5.51l1.8 7.86 4.55 0 4.52 -17.72 -3.84 0 -1.77 7.58c-0.53,2.23 -0.86,4.2 -0.99,5.77l-0.1 0c-0.2,-1.65 -0.43,-2.76 -0.88,-4.7l-2 -8.65 -4.58 0 -1.89 8.67c-0.35,1.67 -0.63,2.68 -0.86,4.73l-0.1 0z"/>
  <path class="fil4" d="M112.18 333.82c-0.69,0.47 -1.23,1.09 -1.75,1.74 -1.18,1.34 -2.02,2.87 -2.43,4.61 -0.72,3.16 0.13,5.96 2.04,8.47 2.57,3.36 6.12,5.28 10.02,6.64 0.11,0.04 0.24,0.11 0.32,-0.02 0.09,-0.13 -0.05,-0.22 -0.12,-0.3 -0.31,-0.34 -0.57,-0.71 -0.75,-1.13 -0.41,-0.94 -0.16,-1.78 0.69,-2.33 0.42,-0.27 0.86,-0.48 1.33,-0.61 1.35,-0.38 2.7,-0.76 4.05,-1.12 3.49,-0.94 5.77,-3.17 6.96,-6.55 0.37,-1.06 0.56,-2.15 0.49,-3.28 -0.04,-0.62 -0.09,-0.64 -0.6,-0.31 -0.26,0.17 -0.54,0.34 -0.82,0.49 -1.07,0.58 -2.2,0.95 -3.43,0.98 -0.03,0 -0.53,0.03 -0.53,0.03 0,0 0.29,-0.37 0.35,-0.44 2.93,-2.98 4.5,-6.44 3.82,-10.69 -0.19,-1.25 -0.6,-2.45 -1.33,-3.51l-0.01 0c-0.29,-0.71 -0.77,-1.29 -1.26,-1.87 -1.29,-1.53 -2.83,-2.77 -4.59,-3.73 -0.14,-0.14 -0.34,-0.33 -0.48,-0.23 -0.16,0.11 0.08,0.26 0.14,0.39 0.59,1.37 0.49,2.71 -0.16,4.03 -0.35,0.72 -0.85,1.32 -1.32,1.95l-0.01 0c-1.11,1.09 -2.48,1.79 -3.83,2.51 -1.07,0.57 -2.18,1.1 -3.19,1.78l0 0c-0.39,0.11 -0.71,0.37 -1.04,0.58 -0.91,0.57 -1.81,1.14 -2.56,1.92l0.03 0.02 -0.03 -0.02z"/>
  <path class="fil5" d="M116.22 325.69c-0.04,0.03 -0.08,0.07 -0.11,0.11 -0.07,0.09 -0.13,0.19 -0.15,0.3 -0.05,0.2 0.01,0.38 0.13,0.54 0.16,0.21 0.39,0.33 0.63,0.42 0.01,0 0.02,0.01 0.03,0 0,-0.01 -0.01,-0.01 -0.01,-0.02 -0.02,-0.02 -0.04,-0.05 -0.05,-0.07 -0.03,-0.06 -0.01,-0.12 0.04,-0.15 0.03,-0.02 0.06,-0.03 0.09,-0.04 0.08,-0.02 0.17,-0.05 0.26,-0.07 0.22,-0.06 0.36,-0.2 0.44,-0.42 0.02,-0.07 0.04,-0.14 0.03,-0.21 0,-0.04 0,-0.04 -0.04,-0.02 -0.01,0.01 -0.03,0.02 -0.05,0.03 -0.07,0.04 -0.14,0.06 -0.22,0.07 0,0 -0.03,0 -0.03,0 0,0 0.02,-0.02 0.02,-0.03 0.19,-0.19 0.29,-0.41 0.24,-0.68 -0.01,-0.08 -0.03,-0.16 -0.08,-0.22l0 0c-0.02,-0.05 -0.05,-0.09 -0.08,-0.12 -0.08,-0.1 -0.18,-0.18 -0.29,-0.24 -0.01,-0.01 -0.03,-0.02 -0.04,-0.01 0,0 0.01,0.01 0.01,0.02 0.04,0.09 0.03,0.17 -0.01,0.26 -0.02,0.04 -0.05,0.08 -0.08,0.12 -0.07,0.07 -0.16,0.11 -0.24,0.16 -0.07,0.04 -0.14,0.07 -0.21,0.11l0 0c-0.02,0.01 -0.04,0.03 -0.06,0.04 -0.06,0.04 -0.12,0.07 -0.17,0.12l0 0 0 0z"/>
  <path class="fil5" d="M134.1 332.96c-0.02,0.01 -0.03,0.03 -0.04,0.04 -0.03,0.03 -0.04,0.06 -0.05,0.09 -0.02,0.07 0,0.13 0.04,0.18 0.05,0.07 0.13,0.11 0.21,0.14 0,0 0,0 0.01,0 0,-0.01 -0.01,-0.01 -0.01,-0.01 0,-0.01 -0.01,-0.01 -0.01,-0.02 -0.01,-0.02 -0.01,-0.04 0.01,-0.05 0.01,-0.01 0.02,-0.01 0.03,-0.01 0.03,-0.01 0.05,-0.02 0.08,-0.03 0.07,-0.02 0.12,-0.06 0.15,-0.13 0,-0.02 0.01,-0.05 0.01,-0.07 0,-0.01 0,-0.01 -0.01,-0.01 -0.01,0.01 -0.02,0.01 -0.02,0.01 -0.02,0.02 -0.05,0.02 -0.07,0.02 0,0 -0.01,0 -0.01,0 0,0 0,0 0,0 0.06,-0.07 0.1,-0.14 0.08,-0.23 0,-0.02 -0.01,-0.05 -0.03,-0.07 0,-0.01 -0.01,-0.03 -0.02,-0.04 -0.03,-0.03 -0.06,-0.06 -0.1,-0.07 0,-0.01 0,-0.01 -0.01,-0.01 0,0 0,0.01 0.01,0.01 0.01,0.03 0.01,0.05 -0.01,0.08 0,0.02 -0.01,0.03 -0.02,0.04 -0.03,0.03 -0.06,0.04 -0.08,0.05 -0.03,0.02 -0.05,0.03 -0.07,0.04l0 0c-0.01,0 -0.01,0.01 -0.02,0.01 -0.02,0.01 -0.04,0.03 -0.05,0.04l0 0 0 0z"/>
  <path class="fil5" d="M110.41 350.95c-0.02,0.01 -0.04,0.03 -0.05,0.05 -0.04,0.04 -0.07,0.09 -0.08,0.15 -0.02,0.1 0,0.19 0.06,0.27 0.09,0.11 0.2,0.17 0.33,0.22 0,0 0,0 0.01,0 0,-0.01 0,-0.01 -0.01,-0.01 -0.01,-0.02 -0.02,-0.03 -0.02,-0.04 -0.01,-0.03 -0.01,-0.06 0.02,-0.08 0.02,0 0.03,-0.01 0.04,-0.02 0.05,-0.01 0.09,-0.02 0.14,-0.03 0.11,-0.03 0.18,-0.1 0.22,-0.21 0.01,-0.04 0.02,-0.07 0.01,-0.11 0,-0.02 0,-0.02 -0.01,-0.01 -0.01,0.01 -0.02,0.01 -0.03,0.02 -0.04,0.02 -0.07,0.03 -0.11,0.03 0,0 -0.02,0 -0.02,0 0,0 0.01,-0.01 0.01,-0.01 0.1,-0.1 0.15,-0.21 0.13,-0.35 -0.01,-0.04 -0.02,-0.08 -0.05,-0.11 -0.01,-0.02 -0.02,-0.04 -0.04,-0.06 -0.04,-0.05 -0.09,-0.09 -0.14,-0.12 -0.01,-0.01 -0.02,-0.01 -0.02,-0.01 -0.01,0 0,0.01 0,0.01 0.02,0.05 0.02,0.09 0,0.13 -0.01,0.03 -0.03,0.05 -0.04,0.07 -0.04,0.03 -0.08,0.05 -0.13,0.08 -0.03,0.02 -0.07,0.03 -0.1,0.06 -0.01,0 -0.02,0.01 -0.03,0.01 -0.03,0.02 -0.06,0.04 -0.09,0.07l0 0 0 0z"/>
  <path class="fil5" d="M123.08 354.33c-0.04,0.03 -0.07,0.07 -0.1,0.11 -0.07,0.07 -0.12,0.17 -0.14,0.27 -0.05,0.19 0,0.35 0.12,0.5 0.15,0.2 0.36,0.31 0.59,0.39 0.01,0.01 0.02,0.01 0.02,0 0.01,-0.01 0,-0.01 -0.01,-0.02 -0.02,-0.02 -0.03,-0.04 -0.04,-0.06 -0.02,-0.06 -0.01,-0.11 0.04,-0.14 0.02,-0.02 0.05,-0.03 0.08,-0.04 0.08,-0.02 0.16,-0.04 0.24,-0.06 0.21,-0.06 0.34,-0.19 0.41,-0.39 0.02,-0.06 0.03,-0.13 0.03,-0.19 0,-0.04 -0.01,-0.04 -0.04,-0.02 -0.01,0.01 -0.03,0.02 -0.04,0.03 -0.07,0.03 -0.13,0.05 -0.21,0.05 0,0 -0.03,0.01 -0.03,0.01 0,0 0.02,-0.03 0.02,-0.03 0.17,-0.18 0.27,-0.38 0.23,-0.63 -0.01,-0.08 -0.04,-0.15 -0.08,-0.21l0 0c-0.02,-0.05 -0.05,-0.08 -0.08,-0.11 -0.07,-0.09 -0.16,-0.17 -0.27,-0.22 -0.01,-0.01 -0.02,-0.02 -0.03,-0.02 -0.01,0.01 0.01,0.02 0.01,0.03 0.04,0.08 0.03,0.16 -0.01,0.24 -0.02,0.04 -0.05,0.07 -0.08,0.11 -0.06,0.06 -0.14,0.11 -0.22,0.15 -0.07,0.03 -0.13,0.06 -0.19,0.11l0 -0.01c-0.02,0.01 -0.04,0.03 -0.06,0.04 -0.06,0.03 -0.11,0.07 -0.16,0.11l0.01 0 -0.01 0z"/>
  <path class="fil5" d="M113.17 346.47c3,-1.7 4.92,-1.4 12.14,-1.97 2.69,-0.21 5.51,-0.92 7.35,-1.65 -0.04,0.13 -0.08,0.25 -0.12,0.37 -1.19,3.39 -3.47,5.61 -6.96,6.55 -1.35,0.36 -2.7,0.74 -4.05,1.12 -0.47,0.13 -0.91,0.34 -1.33,0.61 -0.85,0.55 -1.1,1.39 -0.69,2.33 0.18,0.42 0.44,0.79 0.75,1.13 0.07,0.08 0.21,0.17 0.12,0.3 -0.08,0.13 -0.21,0.06 -0.32,0.02 -3.24,-1.13 -6.23,-2.65 -8.63,-5.05 -0.05,-1.44 0.25,-2.92 1.74,-3.76z"/>
  <path class="fil6" d="M108.39 338.9c2.93,0.33 7.76,2.98 11.03,6.76 1.61,1.86 2.17,3.21 3.36,4.88l-1.25 0.35c-0.47,0.13 -0.91,0.34 -1.33,0.61 -0.85,0.55 -1.1,1.39 -0.69,2.33 0.18,0.42 0.44,0.79 0.75,1.13 0.07,0.08 0.21,0.17 0.12,0.3 -0.08,0.13 -0.21,0.06 -0.32,0.02 -3.9,-1.36 -7.45,-3.28 -10.02,-6.64 -1.91,-2.51 -2.76,-5.31 -2.04,-8.47 0.1,-0.44 0.23,-0.86 0.39,-1.27z"/>
  <path class="fil7" d="M124.63 323.56c1.12,0.62 2.19,0.63 3.92,1.62 0.82,0.47 1.51,1 2.08,1.52 -0.05,-0.07 -0.1,-0.14 -0.14,-0.21l-0.01 0c-0.29,-0.71 -0.77,-1.29 -1.26,-1.87 -1.29,-1.53 -2.83,-2.77 -4.59,-3.73 -0.11,-0.11 -0.26,-0.26 -0.39,-0.26 -0.03,0 -0.06,0.01 -0.09,0.03 -0.16,0.11 0.08,0.26 0.14,0.39 0.37,0.84 0.46,1.68 0.34,2.51z"/>
  <path class="fil7" d="M128.23 323.55c-1.01,1.02 -2.06,2.13 -4.55,3.21 -0.26,0.11 -0.61,0.26 -1.04,0.42 -1.08,1.01 -2.38,1.67 -3.67,2.36 -0.34,0.18 -0.69,0.36 -1.03,0.54 3.01,1.4 8.32,3.01 14.03,2.33 0.03,-0.77 -0.01,-1.58 -0.14,-2.42 -0.2,-1.24 -0.61,-2.44 -1.34,-3.5l-0.01 0c-0.29,-0.71 -0.77,-1.29 -1.26,-1.87 -0.31,-0.38 -0.65,-0.73 -0.99,-1.07z"/>
 </g>
</svg>
