<?xml version="1.0" encoding="UTF-8"?>
<!DOCTYPE svg PUBLIC "-//W3C//DTD SVG 1.1//EN" "http://www.w3.org/Graphics/SVG/1.1/DTD/svg11.dtd">
<!-- Creator: CorelDRAW 2021.5 -->
<svg xmlns="http://www.w3.org/2000/svg" xml:space="preserve" width="405px" height="115px" version="1.1" style="shape-rendering:geometricPrecision; text-rendering:geometricPrecision; image-rendering:optimizeQuality; fill-rule:evenodd; clip-rule:evenodd"
viewBox="0 0 405.22 115.01"
 xmlns:xlink="http://www.w3.org/1999/xlink"
 xmlns:xodm="http://www.corel.com/coreldraw/odm/2003">
 <defs>
  <style type="text/css">
   <![CDATA[
    .fil1 {fill:black;fill-rule:nonzero}
    .fil3 {fill:#E20613;fill-rule:nonzero}
    .fil2 {fill:#FBC416;fill-rule:nonzero}
    .fil0 {fill:white;fill-rule:nonzero}
   ]]>
  </style>
 </defs>
 <g id="Layer_x0020_1">
  <metadata id="CorelCorpID_0Corel-Layer"/>
  <path class="fil0" d="M0 20.82c0.14,6.65 2.91,11.18 9.75,11.04 3.86,-0.08 6.08,-1.58 7.02,-2.75l-2.74 -3.38c-0.66,0.8 -1.88,1.91 -3.95,1.95 -3.33,0.07 -4.99,-2.67 -5.08,-7.28 -0.1,-5 1.37,-7.29 4.37,-7.35 2.36,-0.05 3.44,1.07 4.18,1.95l3.11 -3.59c-0.62,-0.67 -2.63,-2.57 -7.02,-2.48 -6.53,0.14 -9.78,4.85 -9.64,11.89zm30.68 -7.92c-0.42,-0.08 -1.03,-0.14 -1.53,-0.13 -2.36,0.05 -3.89,1.36 -4.59,3.13l-0.12 0 -1.05 -2.62 -3.75 0.07 0.36 17.99 4.78 -0.1 -0.25 -12.19c1.03,-0.88 2.68,-1.49 4.17,-1.52 0.64,-0.02 1.43,0 2.07,0.12l-0.09 -4.75zm10.65 13.35c-0.53,0.74 -1.56,1.31 -2.75,1.33 -1.23,0.03 -1.95,-0.69 -1.97,-1.71 -0.03,-1.56 1.51,-2.32 4.67,-2.16l0.05 2.54zm-2.89 -13.6c-3.98,0.08 -5.72,2.5 -6.39,3.5l3.45 2.45c0.43,-1.06 1.33,-2.07 3.05,-2.1 1.47,-0.04 2.59,0.55 2.63,2.56l0.03 1.4c-5.67,-0.18 -9.35,1.81 -9.27,5.95 0.06,2.58 1.92,4.93 5.42,4.86 2.57,-0.05 3.89,-1.2 4.54,-2.1l0.13 -0.01c0.56,1.11 1.56,1.92 3.29,1.88 0.79,-0.01 1.62,-0.15 2.37,-0.65l-0.07 -3.31 -0.51 0.01c-0.85,0.02 -1.25,-0.43 -1.27,-1.45l-0.15 -7.19c-0.09,-4.36 -2.66,-5.89 -7.25,-5.8zm15.07 0.01l-5.19 0.11 6.48 17.86 5.38 -0.11 5.3 -18.11 -4.81 0.1 -2.15 8.64c-0.59,2.37 -0.82,3.56 -0.98,4.9l-0.12 0c-0.29,-1.39 -0.57,-2.51 -1.29,-4.85l-2.62 -8.54zm15.05 17.69l4.81 -0.1 -0.37 -17.99 -4.81 0.1 0.37 17.99zm-0.88 -22.67c0.03,1.5 1.26,2.69 2.8,2.66 1.61,-0.04 2.8,-1.27 2.77,-2.77 -0.03,-1.65 -1.27,-2.84 -2.89,-2.8 -1.53,0.03 -2.72,1.26 -2.68,2.91zm25.33 9.72c-0.08,-4.05 -2.13,-5.96 -5.64,-5.88 -1.87,0.03 -3.73,0.9 -4.79,2.23l-0.12 0.01 -0.99 -1.67 -3.76 0.07 0.37 17.99 4.81 -0.1 -0.25 -12.23c0.51,-1.31 1.64,-2.16 3.04,-2.19 1.63,-0.03 2.5,1.03 2.54,2.88l0.24 11.43 4.81 -0.1 -0.26 -12.44zm18.9 -5.08c-1.6,-0.67 -3.56,-1.01 -6.7,-0.94 -5.89,0.12 -8.68,4.28 -8.57,9.35 0.13,6.46 3.51,8.24 7.24,8.16 1.62,-0.03 2.86,-0.47 3.51,-1.09l0.13 0 0.02 0.92c0.05,2.55 -0.98,3.49 -3.47,3.54 -1.88,0.04 -3.65,-0.78 -4.56,-2.01l-2.63 3.6c1.04,1.19 2.85,2.39 7.27,2.29 4.81,-0.09 8.2,-2.58 8.1,-7.48l-0.34 -16.34zm-4.68 3.12l0.17 8.57c-0.59,0.62 -1.44,0.95 -2.49,0.97 -2.13,0.04 -3.43,-0.85 -3.5,-4.54 -0.07,-3.44 1.33,-5.22 3.85,-5.27 0.75,-0.02 1.3,0.06 1.97,0.27zm27.1 8.91c-0.53,0.74 -1.56,1.31 -2.75,1.33 -1.23,0.03 -1.95,-0.69 -1.97,-1.71 -0.03,-1.56 1.51,-2.32 4.67,-2.16l0.05 2.54zm-2.89 -13.6c-3.98,0.08 -5.72,2.5 -6.39,3.5l3.45 2.45c0.43,-1.06 1.33,-2.07 3.05,-2.11 1.47,-0.03 2.59,0.56 2.63,2.57l0.03 1.4c-5.67,-0.18 -9.35,1.81 -9.27,5.95 0.05,2.58 1.92,4.93 5.42,4.86 2.57,-0.05 3.89,-1.2 4.54,-2.1l0.13 -0.01c0.56,1.11 1.56,1.92 3.29,1.89 0.79,-0.02 1.62,-0.16 2.37,-0.66l-0.07 -3.31 -0.51 0.01c-0.85,0.02 -1.25,-0.43 -1.27,-1.45l-0.15 -7.19c-0.09,-4.36 -2.66,-5.89 -7.25,-5.8zm27.12 17.92c3,-0.06 4.38,-0.76 4.98,-1.22l-1.31 -3.57c-0.69,0.55 -1.67,0.83 -2.44,0.84 -1.18,0.03 -1.89,-0.6 -1.91,-1.83l-0.18 -8.7 4.48 -0.09 -0.07 -3.66 -4.49 0.09 -0.09 -4.52 -3.06 0.06 -1.56 4.27 -2.31 1 0.06 2.99 2.29 -0.05 0.17 8.57c0.09,4.37 2.36,5.88 5.44,5.82zm15.66 -5.13c-0.52,0.74 -1.56,1.3 -2.74,1.33 -1.24,0.02 -1.96,-0.69 -1.98,-1.72 -0.03,-1.56 1.52,-2.32 4.67,-2.16l0.05 2.55zm-2.89 -13.6c-3.97,0.08 -5.71,2.5 -6.39,3.49l3.46 2.45c0.43,-1.05 1.33,-2.06 3.04,-2.1 1.47,-0.03 2.59,0.55 2.63,2.56l0.03 1.4c-5.67,-0.17 -9.35,1.82 -9.26,5.95 0.05,2.58 1.91,4.94 5.41,4.87 2.58,-0.06 3.9,-1.2 4.55,-2.11l0.12 0c0.57,1.11 1.57,1.92 3.29,1.88 0.79,-0.02 1.62,-0.16 2.37,-0.65l-0.07 -3.31 -0.5 0.01c-0.86,0.01 -1.26,-0.43 -1.28,-1.45l-0.14 -7.19c-0.09,-4.36 -2.67,-5.9 -7.26,-5.8zm19.92 12.9c0.02,0.83 -0.54,1.53 -2.04,1.56 -2.17,0.05 -3.94,-1.22 -4.76,-2.12l-2.79 3.36c1.01,1.04 3.43,2.64 7.38,2.56 5.22,-0.11 7.03,-3.36 6.98,-5.75 -0.12,-6.01 -8.57,-4.89 -8.63,-7.59 -0.02,-0.83 0.68,-1.42 1.76,-1.44 1.65,-0.03 2.91,0.9 3.57,1.61l3.02 -3.08c-1.2,-1.34 -3.29,-2.45 -6.54,-2.38 -4.17,0.09 -6.64,2.77 -6.58,5.71 0.13,5.98 8.58,4.95 8.63,7.56zm14.08 4.87c3,-0.06 4.38,-0.75 4.98,-1.22l-1.31 -3.56c-0.69,0.54 -1.67,0.82 -2.44,0.84 -1.18,0.02 -1.89,-0.6 -1.91,-1.84l-0.18 -8.7 4.48 -0.09 -0.07 -3.66 -4.49 0.1 -0.09 -4.52 -3.06 0.06 -1.56 4.26 -2.31 1.01 0.06 2.99 2.29 -0.05 0.18 8.56c0.09,4.37 2.35,5.89 5.43,5.82zm19.34 -5.62c-0.65,0.72 -1.97,1.67 -3.91,1.71 -3.05,0.06 -4.36,-1.48 -4.48,-4.31l10.73 -0.22c0.16,-1.4 0.18,-2.3 0.16,-3.22 -0.09,-4.39 -2.79,-7.23 -7.38,-7.14 -5.19,0.11 -8.36,3.65 -8.25,9.47 0.13,6.21 3.09,9.33 8.76,9.22 3.44,-0.07 5.17,-0.97 6.55,-2.14l-2.18 -3.37zm-4.93 -9.55c1.94,-0.04 2.86,1.06 2.9,3.16l0.01 0.47 -6.34 0.13c0.02,-2.09 1.26,-3.72 3.43,-3.76zm24.34 5.11c-0.07,-3.66 0.84,-5.46 3.04,-5.51 2.48,-0.05 3.45,1.91 3.53,5.63 0.07,3.66 -0.66,5.47 -3.11,5.51 -2.42,0.05 -3.38,-1.9 -3.46,-5.63zm3.38 9.39c5.95,-0.12 8.22,-4.02 8.11,-9.56 -0.11,-5.57 -2.13,-9.22 -8.34,-9.09 -5.95,0.12 -8.2,4.01 -8.08,9.55 0.11,5.58 2.13,9.23 8.31,9.1zm21.58 -25.37c-0.77,-0.19 -1.64,-0.3 -2.93,-0.27 -4.46,0.09 -6.39,2.78 -6.32,5.77l0.02 1.27 -2.73 0.06 0.07 3.31 2.63 -0.05 0.3 14.67 4.81 -0.1 -0.3 -14.67 4.02 -0.08 -0.07 -3.31 -3.92 0.08 -0.02 -1.15c-0.03,-1.25 0.44,-1.89 1.77,-1.91 0.61,-0.02 1.34,0.09 2.08,0.27l0.59 -3.89zm11.82 2.01l0.46 22.32 4.8 -0.1 -0.17 -8.31 0.33 -0.01c1.01,-0.02 1.62,0.22 2.06,1.02l3.84 7.18 5.79 -0.12 -3.54 -6.08c-1.08,-1.85 -1.83,-2.67 -3.03,-3.21l0 -0.13c2.61,-0.57 4.67,-2.42 4.59,-6.3 -0.1,-4.69 -2.93,-6.51 -7.87,-6.41l-7.26 0.15zm4.89 3.92l1.91 -0.04c2.13,-0.04 3.37,0.85 3.41,2.89 0.04,2.07 -0.77,3.2 -3.35,3.25l-1.85 0.04 -0.12 -6.14zm18.4 8.82c-0.07,-3.66 0.85,-5.46 3.04,-5.5 2.48,-0.05 3.45,1.9 3.53,5.62 0.07,3.67 -0.66,5.47 -3.11,5.52 -2.42,0.05 -3.38,-1.91 -3.46,-5.64zm3.38 9.39c5.95,-0.12 8.23,-4.02 8.11,-9.56 -0.11,-5.57 -2.13,-9.22 -8.34,-9.09 -5.94,0.12 -8.19,4.01 -8.08,9.55 0.12,5.58 2.13,9.23 8.31,9.1zm10.27 5.68c0.46,0.22 1.67,0.51 2.94,0.48 4.2,-0.08 5.93,-2.85 6.89,-6.02l5.66 -19.01 -4.97 0.1 -1.56 6.15c-0.62,2.43 -0.99,4.67 -1.21,6.3l-0.13 0c-0.25,-1.52 -1.01,-4.21 -1.72,-6.24l-2.13 -6.07 -5.37 0.11 7.11 17.79c-0.12,1.82 -1.12,2.82 -2.84,2.85 -0.8,0.02 -1.47,-0.16 -1.96,-0.4l-0.71 3.96zm26.24 -11.42c-0.53,0.74 -1.57,1.3 -2.75,1.33 -1.23,0.02 -1.95,-0.69 -1.97,-1.71 -0.04,-1.57 1.51,-2.33 4.66,-2.17l0.06 2.55zm-2.89 -13.6c-3.98,0.08 -5.72,2.5 -6.39,3.49l3.45 2.45c0.43,-1.05 1.33,-2.06 3.04,-2.1 1.48,-0.03 2.6,0.55 2.64,2.57l0.03 1.39c-5.68,-0.17 -9.36,1.82 -9.27,5.95 0.05,2.58 1.92,4.94 5.42,4.87 2.57,-0.06 3.89,-1.2 4.54,-2.11l0.13 0c0.56,1.11 1.56,1.92 3.28,1.88 0.8,-0.01 1.63,-0.16 2.37,-0.65l-0.06 -3.31 -0.51 0.01c-0.86,0.01 -1.25,-0.43 -1.27,-1.45l-0.15 -7.19c-0.09,-4.36 -2.67,-5.9 -7.25,-5.8zm11.76 -6.08l0.4 19.71c0.06,2.99 1.85,4.68 4.77,4.62 1.06,-0.02 1.72,-0.26 2.28,-0.5l-0.07 -3.78c-0.15,0.03 -0.32,0.07 -0.67,0.08 -0.88,0.02 -1.5,-0.42 -1.53,-1.76l-0.37 -18.46 -4.81 0.09zm16.44 23.97c3,-0.06 4.38,-0.75 4.98,-1.22l-1.31 -3.56c-0.69,0.54 -1.67,0.82 -2.44,0.84 -1.18,0.02 -1.89,-0.6 -1.91,-1.84l-0.18 -8.7 4.48 -0.09 -0.07 -3.66 -4.49 0.1 -0.09 -4.53 -3.06 0.07 -1.56 4.26 -2.31 1.01 0.06 2.99 2.29 -0.05 0.18 8.56c0.09,4.37 2.35,5.89 5.43,5.82zm6.59 5.94c0.46,0.22 1.67,0.51 2.94,0.49 4.2,-0.09 5.93,-2.86 6.89,-6.03l5.66 -19 -4.97 0.1 -1.56 6.14c-0.62,2.43 -0.99,4.67 -1.21,6.3l-0.13 0c-0.25,-1.52 -1.01,-4.21 -1.72,-6.24l-2.13 -6.07 -5.38 0.11 7.12 17.79c-0.12,1.82 -1.12,2.82 -2.84,2.86 -0.8,0.01 -1.47,-0.16 -1.96,-0.41l-0.71 3.96zm22.18 -26.22c1.36,-0.02 2.25,0.82 2.27,2.06 0.06,2.96 -5.09,3.64 -5.02,6.96 0.03,1.4 0.97,2.21 2.18,2.6l4.36 -3.86c2.69,-2.37 3.36,-3.98 3.31,-6.49 -0.07,-3.44 -2.53,-5.43 -6.64,-5.35 -4.18,0.09 -6.34,1.72 -7.3,2.82l3.18 3.44c0.59,-0.77 1.75,-2.14 3.66,-2.18zm-2.01 16.96c0.04,1.65 1.23,2.81 2.92,2.78 1.75,-0.04 2.93,-1.31 2.9,-2.89 -0.04,-1.82 -1.21,-2.98 -2.98,-2.94 -1.6,0.03 -2.87,1.3 -2.84,3.05z"/>
  <polygon class="fil0" points="338.47,114.38 66.43,114.38 66.43,77.63 338.47,77.63 "/>
  <path class="fil1" d="M154.63 98.9c-1.44,0 -2.49,-0.92 -2.99,-1.43l-1.49 2.15c0.41,0.46 1.84,1.48 4.14,1.48 3.04,0 4.52,-1.74 4.52,-3.53 0,-3.8 -5.49,-3.51 -5.49,-5.43 0,-0.6 0.48,-1.08 1.33,-1.08 1.26,0 1.94,0.76 2.23,1.11l1.62 -1.92c-0.39,-0.51 -1.63,-1.43 -3.63,-1.43 -2.47,0 -4.21,1.55 -4.21,3.52 0,3.77 5.51,3.51 5.51,5.4 0,0.64 -0.5,1.16 -1.54,1.16zm9.18 2.12c1.61,0 2.35,-0.36 2.68,-0.6l-0.66 -1.92c-0.38,0.28 -0.91,0.42 -1.32,0.42 -0.63,0 -1,-0.34 -1,-1l0 -4.66 2.4 0 0 -1.96 -2.4 0 0 -2.41 -1.64 0 -0.88 2.26 -1.25 0.51 0 1.6 1.23 0 0 4.58c0,2.34 1.19,3.18 2.84,3.18zm8.43 -2.58c-0.28,0.39 -0.85,0.68 -1.48,0.68 -0.66,0 -1.04,-0.39 -1.04,-0.93 0,-0.84 0.84,-1.23 2.52,-1.11l0 1.36zm-1.39 -7.3c-2.13,0 -3.09,1.27 -3.46,1.8l1.82 1.34c0.24,-0.56 0.74,-1.09 1.65,-1.09 0.79,0 1.38,0.33 1.38,1.4l0 0.75c-3.03,-0.15 -5.02,0.87 -5.02,3.08 0,1.38 0.97,2.67 2.85,2.67 1.37,0 2.09,-0.6 2.45,-1.08l0.07 0c0.29,0.6 0.81,1.04 1.74,1.04 0.42,0 0.87,-0.07 1.27,-0.32l0 -1.78 -0.27 0c-0.46,0 -0.67,-0.24 -0.67,-0.78l0 -3.85c0,-2.33 -1.36,-3.18 -3.81,-3.18zm12.27 0.04c-0.22,-0.04 -0.55,-0.08 -0.82,-0.08 -1.26,0 -2.1,0.68 -2.49,1.62l-0.06 0 -0.53 -1.42 -2.01 0 0 9.63 2.55 0 0 -6.52c0.56,-0.46 1.45,-0.77 2.25,-0.77 0.34,0 0.76,0.02 1.11,0.08l0 -2.54zm4.7 9.84c1.6,0 2.35,-0.36 2.67,-0.6l-0.66 -1.92c-0.38,0.28 -0.9,0.42 -1.31,0.42 -0.63,0 -1.01,-0.34 -1.01,-1l0 -4.66 2.4 0 0 -1.96 -2.4 0 0 -2.41 -1.63 0 -0.89 2.26 -1.24 0.51 0 1.6 1.22 0 0 4.58c0,2.34 1.2,3.18 2.85,3.18zm8.36 3.25c0.25,0.12 0.89,0.29 1.57,0.29 2.25,0 3.2,-1.47 3.75,-3.15l3.24 -10.11 -2.66 0 -0.9 3.27c-0.36,1.3 -0.58,2.49 -0.72,3.36l-0.07 0c-0.12,-0.81 -0.49,-2.26 -0.85,-3.36l-1.07 -3.27 -2.88 0 3.61 9.6c-0.08,0.97 -0.63,1.49 -1.55,1.49 -0.43,0 -0.79,-0.1 -1.04,-0.23l-0.43 2.11zm12.03 -8.21c0,-1.96 0.52,-2.91 1.69,-2.91 1.33,0 1.83,1.05 1.83,3.04 0,1.96 -0.41,2.92 -1.73,2.92 -1.29,0 -1.79,-1.06 -1.79,-3.05zm1.71 5.06c3.18,0 4.44,-2.06 4.44,-5.03 0,-2.98 -1.04,-4.95 -4.36,-4.95 -3.18,0 -4.43,2.05 -4.43,5.02 0,2.98 1.04,4.96 4.35,4.96zm6.35 -3.36c0,2.29 0.99,3.36 3.05,3.36 1.21,0 1.98,-0.39 2.54,-1.07l0.07 0 0.35 0.88 2.19 0 0 -9.63 -2.58 0 0 6.67c-0.13,0.3 -0.54,1.15 -1.67,1.15 -0.87,0 -1.37,-0.54 -1.37,-1.6l0 -6.22 -2.58 0 0 6.46zm16.56 -6.58c-0.22,-0.04 -0.54,-0.08 -0.81,-0.08 -1.26,0 -2.1,0.68 -2.49,1.62l-0.07 0 -0.53 -1.42 -2.01 0 0 9.63 2.56 0 0 -6.52c0.56,-0.46 1.45,-0.77 2.25,-0.77 0.33,0 0.76,0.02 1.1,0.08l0 -2.54zm8.57 3.68c0,-2.96 0.91,-3.88 2.19,-3.88 1.44,0 2.35,1.05 2.35,4.04 0,2.95 -0.84,3.92 -2.21,3.92 -1.44,0 -2.33,-1.06 -2.33,-4.08zm7.23 0.04c0,-4.45 -1.93,-6.08 -4.9,-6.08 -2.89,0 -5,1.87 -5,6.21 0,4.47 1.87,6.07 4.86,6.07 2.91,0 5.04,-1.86 5.04,-6.2zm7.99 -3.72c-0.23,-0.04 -0.55,-0.08 -0.82,-0.08 -1.26,0 -2.1,0.68 -2.49,1.62l-0.06 0 -0.54 -1.42 -2.01 0 0 9.63 2.56 0 0 -6.52c0.56,-0.46 1.45,-0.77 2.25,-0.77 0.34,0 0.76,0.02 1.11,0.08l0 -2.54zm6.64 0.28c-0.31,-0.09 -0.68,-0.21 -1.59,-0.21 -2.02,0 -4.2,1.31 -4.2,5.37 0,3.14 1.48,4.47 3.51,4.47 1.29,0 2.08,-0.67 2.35,-0.94l0.07 0 0.4 0.78 2.02 0 0 -12.91 -2.56 0 0 3.44zm-1.51 7.6c-0.99,0 -1.68,-0.79 -1.68,-2.66 0,-2.61 0.92,-3.07 1.98,-3.07 0.48,0 1.04,0.15 1.28,0.34l0 4.57c-0.36,0.49 -0.87,0.82 -1.58,0.82zm12.99 -0.84c-0.35,0.38 -1.07,0.87 -2.11,0.87 -1.63,0 -2.32,-0.84 -2.35,-2.35l5.74 0c0.1,-0.75 0.12,-1.23 0.12,-1.72 0,-2.35 -1.41,-3.9 -3.86,-3.9 -2.78,0 -4.52,1.86 -4.52,4.97 0,3.32 1.55,5.03 4.58,5.03 1.84,0 2.78,-0.46 3.53,-1.07l-1.13 -1.83zm-2.53 -5.16c1.04,0 1.51,0.6 1.51,1.72l0 0.25 -3.39 0c0.04,-1.12 0.72,-1.97 1.88,-1.97zm11.84 -1.88c-0.23,-0.04 -0.55,-0.08 -0.82,-0.08 -1.26,0 -2.1,0.68 -2.49,1.62l-0.07 0 -0.53 -1.42 -2.01 0 0 9.63 2.56 0 0 -6.52c0.56,-0.46 1.45,-0.77 2.25,-0.77 0.34,0 0.76,0.02 1.11,0.08l0 -2.54z"/>
  <path class="fil2" d="M132.98 105.96c-1.47,0.33 -2.93,0.68 -4.4,1 -1.7,0.37 -3.32,0.13 -4.81,-0.76 -4.59,-2.75 -9.16,-5.51 -13.74,-8.26 -2.68,-1.62 -5.36,-3.23 -8.05,-4.84 -0.61,-0.36 -1.07,-0.84 -1.35,-1.51 -0.34,-0.79 -0.32,-1.57 -0.04,-2.37 0.8,-2.26 1.59,-4.51 2.38,-6.77 1,-2.83 1.99,-5.67 2.99,-8.5 0.1,-0.27 0.2,-0.55 0.35,-0.79 0.43,-0.68 1.15,-0.85 1.84,-0.43 0.23,0.14 0.43,0.33 0.62,0.52 5.99,5.94 11.98,11.88 17.97,17.81 3.82,3.79 7.64,7.57 11.45,11.36 0.22,0.22 0.43,0.45 0.59,0.7 0.35,0.58 0.19,1.16 -0.39,1.49 -0.23,0.13 -0.49,0.22 -0.75,0.28 -1.56,0.36 -3.11,0.71 -4.66,1.07z"/>
  <path class="fil2" d="M108.25 111.88c-4.42,1.01 -8.84,2 -13.25,3.03 -1.62,0.39 -3.63,-0.35 -4.47,-2.15 -0.18,-0.4 -0.3,-0.82 -0.44,-1.24 -0.98,-3.06 -1.95,-6.12 -2.93,-9.18 -0.89,-2.78 -1.79,-5.56 -2.68,-8.34 -0.52,-1.59 -1.04,-3.19 -1.55,-4.79 -0.1,-0.33 -0.18,-0.68 -0.19,-1.02 -0.02,-0.81 0.47,-1.23 1.26,-1.09 0.35,0.07 0.7,0.2 1.02,0.36 4.14,2.13 8.28,4.27 12.42,6.41 5.88,3.03 11.75,6.06 17.63,9.09 2.24,1.16 4.48,2.31 6.71,3.48 0.35,0.18 0.69,0.42 0.96,0.71 0.44,0.45 0.37,0.94 -0.19,1.27 -0.32,0.2 -0.69,0.34 -1.06,0.42 -2.93,0.69 -5.87,1.35 -8.81,2.02 -1.48,0.34 -2.96,0.68 -4.43,1.02z"/>
  <path class="fil3" d="M135.43 74.73c0.27,1.79 0.55,3.59 0.82,5.39 0.33,2.23 0.67,4.45 1,6.68 0.34,2.29 0.69,4.59 1.03,6.89 0.18,1.19 0.38,2.37 0.54,3.56 0.06,0.42 0.09,0.86 0.04,1.29 -0.08,0.59 -0.47,0.77 -0.97,0.44 -0.36,-0.25 -0.69,-0.57 -0.98,-0.9 -2.83,-3.28 -5.65,-6.57 -8.47,-9.85 -0.35,-0.4 -0.7,-0.79 -1.03,-1.19 -1.34,-1.61 -1.44,-4.01 -0.19,-5.7 1.82,-2.45 3.67,-4.89 5.52,-7.32 0.26,-0.33 0.6,-0.62 0.96,-0.85 0.46,-0.29 0.98,-0.17 1.27,0.3 0.22,0.38 0.35,0.82 0.51,1.23 -0.01,0.01 -0.03,0.02 -0.05,0.03z"/>
 </g>
</svg>
