<?xml version="1.0" encoding="UTF-8"?>
<!DOCTYPE svg PUBLIC "-//W3C//DTD SVG 1.1//EN" "http://www.w3.org/Graphics/SVG/1.1/DTD/svg11.dtd">
<!-- Creator: CorelDRAW 2021.5 -->
<svg xmlns="http://www.w3.org/2000/svg" xml:space="preserve" width="158px" height="100px" version="1.1" style="shape-rendering:geometricPrecision; text-rendering:geometricPrecision; image-rendering:optimizeQuality; fill-rule:evenodd; clip-rule:evenodd"
viewBox="0 0 41.18 26.09"
 xmlns:xlink="http://www.w3.org/1999/xlink"
 xmlns:xodm="http://www.corel.com/coreldraw/odm/2003">
 <defs>
  <style type="text/css">
   <![CDATA[
    .fil1 {fill:black;fill-rule:nonzero}
    .fil0 {fill:#29235C;fill-rule:nonzero}
   ]]>
  </style>
 </defs>
 <g id="Layer_x0020_1">
  <metadata id="CorelCorpID_0Corel-Layer"/>
  <path class="fil0" d="M2.36 5.37c-0.33,0.19 -0.6,0.44 -0.86,0.71 -0.58,0.55 -1.02,1.19 -1.27,1.95 -0.46,1.38 -0.2,2.66 0.55,3.86 1,1.61 2.5,2.61 4.19,3.38 0.05,0.03 0.1,0.06 0.14,0.01 0.04,-0.06 -0.01,-0.1 -0.04,-0.14 -0.12,-0.16 -0.22,-0.34 -0.29,-0.54 -0.14,-0.43 0.01,-0.79 0.41,-1.01 0.2,-0.1 0.4,-0.17 0.62,-0.21 0.62,-0.11 1.23,-0.22 1.85,-0.33 1.6,-0.27 2.71,-1.17 3.38,-2.63 0.21,-0.45 0.34,-0.93 0.36,-1.44 0,-0.28 -0.02,-0.29 -0.26,-0.17 -0.12,0.07 -0.25,0.14 -0.39,0.19 -0.51,0.22 -1.05,0.34 -1.61,0.29 -0.05,-0.01 -0.22,0.06 -0.13,-0.13 0.03,-0.02 0.08,-0.03 0.11,-0.06 1.43,-1.2 2.28,-2.68 2.16,-4.61 -0.04,-0.56 -0.17,-1.11 -0.45,-1.62l0 0c-0.1,-0.33 -0.3,-0.61 -0.49,-0.88 -0.51,-0.74 -1.15,-1.36 -1.89,-1.86 -0.06,-0.07 -0.14,-0.16 -0.2,-0.12 -0.08,0.04 0.02,0.12 0.04,0.18 0.21,0.63 0.1,1.23 -0.24,1.79 -0.18,0.3 -0.43,0.55 -0.67,0.81l0 0c-0.54,0.44 -1.18,0.69 -1.82,0.96 -0.5,0.21 -1.01,0.4 -1.49,0.66l0 0c-0.18,0.03 -0.33,0.14 -0.49,0.22 -0.43,0.21 -0.86,0.43 -1.22,0.74l0.01 0.02 -0.01 -0.02z"/>
  <path class="fil1" d="M17.54 7.64c0.23,0 0.44,0.08 0.61,0.24 0.17,0.15 0.25,0.33 0.25,0.53 0,0.12 -0.05,0.43 -0.16,0.91 -0.07,0.34 -0.14,0.77 -0.22,1.3 -0.05,0.72 -0.09,1.88 -0.11,3.47 -0.03,1.69 -0.05,2.68 -0.09,2.96 -0.03,0.29 -0.15,0.71 -0.37,1.26 -0.25,0.61 -0.56,1.18 -0.93,1.72 -0.37,0.53 -0.67,0.83 -0.9,0.9 -0.12,0.03 -0.31,0.11 -0.57,0.24 -0.46,0.22 -1.12,0.33 -1.97,0.33 -0.25,0 -0.63,-0.04 -1.14,-0.13 -0.5,-0.09 -0.84,-0.17 -1,-0.24 -0.16,-0.07 -0.4,-0.22 -0.72,-0.43 -0.32,-0.22 -0.52,-0.37 -0.6,-0.47 -0.33,-0.34 -0.59,-0.77 -0.77,-1.29 -0.17,-0.48 -0.29,-0.88 -0.36,-1.19l-0.22 -0.82 -0.04 -1.43c-0.02,-0.59 -0.06,-1.24 -0.13,-1.96 -0.07,-0.72 -0.1,-1.33 -0.1,-1.81l0 -0.42 0.05 -1.06 0.33 -0.31c0.2,-0.19 0.55,-0.43 1.02,-0.72 0.47,-0.29 0.75,-0.43 0.85,-0.43 0.22,0 0.41,0.12 0.55,0.36 0.05,0.05 0.1,0.22 0.16,0.5 0.06,0.3 0.09,0.9 0.09,1.81 0,0.34 -0.01,0.9 -0.02,1.69 -0.02,0.79 -0.03,1.36 -0.03,1.73 0,0.96 0.04,1.64 0.09,2.04 0.12,0.76 0.35,1.25 0.66,1.47 0.26,0.2 0.62,0.29 1.11,0.29 0.5,0 0.93,-0.11 1.28,-0.33 0.18,-0.12 0.31,-0.25 0.39,-0.4 0.08,-0.15 0.16,-0.42 0.25,-0.81l0.13 -0.69 -0.02 -1.54c0,-0.28 0,-0.78 -0.01,-1.49 0,-0.7 -0.01,-1.18 -0.01,-1.43l0 -1.39 0.18 -0.48c0.23,-0.62 0.51,-1.11 0.83,-1.46 0.45,-0.47 0.86,-0.79 1.24,-0.95 0.09,-0.04 0.23,-0.07 0.42,-0.07zm5.63 7.91c-0.12,-0.05 -0.25,-0.06 -0.4,-0.03 -0.35,0.09 -0.72,0.28 -1.11,0.56 -0.39,0.29 -0.7,0.6 -0.92,0.94 -0.12,0.2 -0.17,0.35 -0.17,0.47 0,0.2 0.21,0.5 0.63,0.88 0.77,0.7 1.46,1.11 2.06,1.21 0.02,0 0.03,0.01 0.06,0.01 0.02,0.01 0.04,0.02 0.05,0.02 0.27,0 0.44,-0.27 0.53,-0.8 0.04,-0.26 0.06,-0.54 0.06,-0.82 0,-0.57 -0.07,-1.09 -0.23,-1.57 -0.15,-0.48 -0.34,-0.77 -0.56,-0.87zm-2.39 -1.66c0.25,-0.25 0.81,-0.38 1.66,-0.38 0.38,0 0.73,0.03 1.04,0.07 0.53,0.08 1,0.28 1.41,0.6 0.15,0.1 0.4,0.34 0.74,0.72 0.35,0.37 0.55,0.61 0.61,0.73 0.09,0.17 0.13,0.37 0.13,0.6 0,0.18 -0.02,0.38 -0.07,0.6 -0.2,1.06 -0.3,2.03 -0.3,2.91 0,0.28 -0.05,0.86 -0.16,1.73 -0.11,0.88 -0.2,1.52 -0.29,1.91 -0.04,0.28 -0.1,0.51 -0.17,0.69 -0.31,0.65 -0.67,1.16 -1.09,1.51 -0.42,0.34 -1.01,0.51 -1.76,0.51 -0.5,0 -1.03,-0.17 -1.59,-0.52 -0.62,-0.43 -1.11,-1.08 -1.48,-1.97 -0.11,-0.28 -0.18,-0.49 -0.18,-0.64 0,-0.12 0.05,-0.24 0.16,-0.38 0.11,-0.1 0.24,-0.15 0.4,-0.15 0.1,0 0.23,0.02 0.38,0.07 0.15,0.05 0.28,0.12 0.39,0.2 0.11,0.08 0.34,0.31 0.71,0.68 0.53,0.53 0.83,0.8 0.9,0.82 0.02,0 0.04,0.01 0.06,0.01 0.02,0.01 0.04,0.01 0.05,0.01 0.22,0 0.47,-0.13 0.75,-0.38 0.28,-0.25 0.46,-0.51 0.55,-0.79 0.06,-0.18 0.09,-0.47 0.09,-0.86 0,-0.28 -0.02,-0.49 -0.06,-0.62l-0.82 0.03 -0.27 0c-0.48,0 -0.86,-0.04 -1.13,-0.12 -0.27,-0.07 -0.61,-0.23 -0.99,-0.46 -0.48,-0.31 -0.86,-0.64 -1.14,-0.99 -0.28,-0.36 -0.49,-0.82 -0.62,-1.39 -0.09,-0.37 -0.13,-0.73 -0.13,-1.09 0,-0.8 0.22,-1.56 0.66,-2.27 0.19,-0.29 0.34,-0.5 0.46,-0.63 0.12,-0.12 0.3,-0.26 0.55,-0.41l0.55 -0.35zm10.31 1.57c-0.1,-0.08 -0.19,-0.11 -0.29,-0.11 -0.13,0 -0.37,0.09 -0.74,0.28 -0.63,0.33 -1.11,0.77 -1.44,1.33 -0.1,0.18 -0.15,0.31 -0.15,0.39 0,0.27 0.34,0.66 1.04,1.17 0.69,0.52 1.24,0.8 1.65,0.84 0.19,0.02 0.33,-0.01 0.39,-0.08 0.2,-0.2 0.29,-0.63 0.29,-1.31 0,-0.37 -0.03,-0.7 -0.09,-0.99 -0.16,-0.8 -0.38,-1.3 -0.66,-1.52zm-1.72 -1.95c0.29,-0.07 0.61,-0.1 0.93,-0.1 0.32,0 0.65,0.03 0.99,0.1 0.59,0.12 1.14,0.38 1.66,0.77 0.51,0.39 0.89,0.84 1.14,1.35 0.2,0.39 0.32,0.74 0.36,1.04 0.04,0.31 0.06,0.89 0.06,1.75 0,0.82 0.02,1.32 0.04,1.51 0.02,0.18 0.09,0.35 0.21,0.52 0.09,0.13 0.13,0.25 0.13,0.37 0,0.14 -0.08,0.27 -0.22,0.38 -0.14,0.1 -0.34,0.15 -0.57,0.15 -0.24,0 -0.42,-0.03 -0.54,-0.09 -0.13,-0.06 -0.29,-0.19 -0.48,-0.4l-0.33 -0.35 -0.38 0.31c-0.33,0.27 -0.62,0.44 -0.83,0.53 -0.22,0.09 -0.54,0.13 -0.93,0.13l-0.4 0c-0.51,-0.02 -0.88,-0.07 -1.1,-0.15 -0.7,-0.25 -1.3,-0.67 -1.84,-1.26 -0.17,-0.21 -0.28,-0.35 -0.33,-0.44 -0.06,-0.09 -0.13,-0.29 -0.24,-0.6 -0.2,-0.56 -0.29,-1.09 -0.29,-1.59 0,-0.64 0.16,-1.27 0.47,-1.89 0.29,-0.61 0.56,-0.99 0.81,-1.16 0.7,-0.46 1.26,-0.76 1.68,-0.88zm7.17 -4.98c0.1,-0.05 0.24,-0.07 0.45,-0.07 0.16,0 0.28,0.03 0.35,0.08 0.07,0.07 0.12,0.19 0.15,0.39 0.09,0.4 0.13,2.21 0.13,5.42l0 1.15c0,1.75 0.02,2.79 0.06,3.12 0.04,0.34 0.17,0.7 0.39,1.1 0.17,0.34 0.26,0.57 0.26,0.71 0,0.22 -0.06,0.39 -0.19,0.53 -0.13,0.14 -0.31,0.21 -0.52,0.21 -0.14,0 -0.39,-0.09 -0.74,-0.29 -0.36,-0.18 -0.62,-0.37 -0.8,-0.55 -0.34,-0.32 -0.6,-0.77 -0.8,-1.36 -0.15,-0.53 -0.26,-0.96 -0.3,-1.28 -0.05,-0.33 -0.07,-0.93 -0.07,-1.81 0,-1.03 0.01,-1.94 0.02,-2.72l0.05 -3.02 0.24 -0.36c0.43,-0.64 0.87,-1.06 1.32,-1.25zm3.41 5.01c0.14,-0.06 0.31,-0.08 0.5,-0.07 0.33,0.04 0.49,0.19 0.49,0.44 0,0.17 0.02,0.3 0.06,0.4 0.12,0.35 0.18,0.95 0.18,1.81 0,0.34 -0.03,1.03 -0.08,2.09 -0.05,1.05 -0.08,1.62 -0.11,1.7 0,0.03 -0.04,0.22 -0.09,0.58 -0.06,0.53 -0.21,0.84 -0.43,0.95 -0.08,0.06 -0.18,0.05 -0.3,-0.03 -0.37,-0.2 -0.78,-0.88 -1.24,-2.05 -0.18,-0.44 -0.28,-0.77 -0.33,-1 -0.04,-0.23 -0.07,-0.67 -0.09,-1.34 0,-0.12 0,-0.29 -0.01,-0.5 0,-0.22 -0.01,-0.39 -0.01,-0.49 0,-0.11 0.01,-0.25 0.01,-0.41 0.01,-0.16 0.01,-0.24 0.01,-0.25l0.02 -0.42 0.31 -0.42c0.4,-0.54 0.77,-0.87 1.11,-0.99zm0.04 -4.99c0.06,-0.02 0.16,-0.02 0.31,-0.02 0.22,0 0.38,0.03 0.49,0.08 0.16,0.11 0.25,0.4 0.26,0.89l0 0.24c0,0.21 -0.04,0.42 -0.11,0.64 -0.09,0.29 -0.14,0.45 -0.14,0.49 0,0.04 -0.04,0.12 -0.13,0.24 -0.08,0.12 -0.23,0.18 -0.44,0.18 -0.2,0 -0.38,-0.05 -0.53,-0.16 -0.37,-0.23 -0.7,-0.58 -0.99,-1.03 -0.18,-0.25 -0.26,-0.43 -0.26,-0.54 0,-0.05 0.02,-0.12 0.06,-0.2 0.09,-0.13 0.3,-0.29 0.64,-0.47 0.34,-0.18 0.62,-0.3 0.84,-0.34z"/>
 </g>
</svg>
