<?xml version="1.0" encoding="UTF-8"?>
<!DOCTYPE svg PUBLIC "-//W3C//DTD SVG 1.1//EN" "http://www.w3.org/Graphics/SVG/1.1/DTD/svg11.dtd">
<!-- Creator: CorelDRAW 2021.5 -->
<svg xmlns="http://www.w3.org/2000/svg" xml:space="preserve" width="218px" height="77px" version="1.1" style="shape-rendering:geometricPrecision; text-rendering:geometricPrecision; image-rendering:optimizeQuality; fill-rule:evenodd; clip-rule:evenodd"
viewBox="0 0 106.61 37.6"
 xmlns:xlink="http://www.w3.org/1999/xlink"
 xmlns:xodm="http://www.corel.com/coreldraw/odm/2003">
 <defs>
  <style type="text/css">
   <![CDATA[
    .fil1 {fill:black;fill-rule:nonzero}
    .fil0 {fill:#66EDDA;fill-rule:nonzero}
   ]]>
  </style>
 </defs>
 <g id="Layer_x0020_1">
  <metadata id="CorelCorpID_0Corel-Layer"/>
  <path class="fil0" d="M5.32 13.5c-0.77,0.47 -1.4,1.1 -1.99,1.77 -1.35,1.38 -2.36,2.97 -2.9,4.83 -0.98,3.36 -0.23,6.44 1.68,9.26 2.57,3.79 6.28,6.07 10.41,7.78 0.12,0.05 0.25,0.13 0.35,0 0.1,-0.14 -0.05,-0.24 -0.12,-0.33 -0.3,-0.39 -0.57,-0.8 -0.74,-1.27 -0.38,-1.03 -0.06,-1.92 0.9,-2.47 0.46,-0.26 0.95,-0.47 1.47,-0.58 1.48,-0.32 2.96,-0.65 4.44,-0.96 3.82,-0.8 6.42,-3.06 7.9,-6.64 0.47,-1.12 0.75,-2.29 0.74,-3.52 -0.01,-0.66 -0.07,-0.69 -0.63,-0.37 -0.3,0.17 -0.6,0.34 -0.92,0.49 -1.22,0.56 -2.5,0.9 -3.86,0.83 -0.13,0 -0.54,0.18 -0.34,-0.28 0.09,-0.05 0.2,-0.09 0.28,-0.16 3.33,-3.04 5.24,-6.68 4.77,-11.31 -0.14,-1.36 -0.51,-2.68 -1.23,-3.87l0 0c-0.27,-0.79 -0.76,-1.44 -1.25,-2.09 -1.3,-1.74 -2.89,-3.16 -4.73,-4.31 -0.14,-0.16 -0.34,-0.37 -0.5,-0.28 -0.19,0.11 0.06,0.28 0.13,0.43 0.55,1.51 0.35,2.96 -0.42,4.35 -0.42,0.75 -1,1.37 -1.55,2.01l0 0.01c-1.27,1.1 -2.79,1.77 -4.29,2.47 -1.2,0.56 -2.42,1.05 -3.56,1.73l0.01 0c-0.43,0.1 -0.79,0.35 -1.17,0.56 -1.01,0.56 -2.02,1.12 -2.87,1.92l0.03 0.03 -0.04 -0.03z"/>
  <path class="fil1" d="M30.24 17.85c-0.35,-0.08 -0.73,-0.13 -1.12,-0.13 -1.16,0 -1.84,0.26 -2.06,0.79 -0.11,0.3 -0.22,0.79 -0.33,1.49 -0.14,0.77 -0.21,1.38 -0.21,1.81 0,0.65 0.09,1.54 0.29,2.7 0.44,2.9 1.2,5.23 2.28,7 0.22,0.36 0.41,0.6 0.57,0.7 0.17,0.11 0.4,0.17 0.71,0.17 0.55,0 1.1,-0.18 1.64,-0.54 0.53,-0.37 1.35,-1.09 2.45,-2.2 1.45,-1.49 2.43,-3.06 2.98,-4.72 0.2,-0.57 0.3,-1.11 0.3,-1.61 0,-0.74 -0.3,-1.41 -0.87,-1.99 -0.78,-0.77 -1.78,-1.49 -3.04,-2.16 -1.26,-0.65 -2.45,-1.09 -3.59,-1.31zm-6.78 -2.98c0.83,-0.72 1.52,-1.2 2.07,-1.43 0.55,-0.24 1.31,-0.36 2.27,-0.36 0.06,0 0.16,0.02 0.31,0.03 0.16,0.01 0.36,0.03 0.6,0.06 0.25,0.03 0.48,0.04 0.71,0.04 2.75,0.17 5,0.67 6.7,1.53 1.46,0.77 2.32,1.32 2.57,1.65 0.03,0.06 0.13,0.17 0.29,0.33 0.17,0.18 0.27,0.3 0.33,0.38 0.25,0.28 0.62,0.85 1.1,1.73 0.48,0.88 0.78,1.51 0.88,1.87 0.17,0.5 0.32,0.94 0.46,1.33 0.2,0.5 0.35,1.83 0.46,3.97l0 0.5c0,0.33 -0.07,0.75 -0.21,1.28 -0.19,0.64 -0.28,1.02 -0.28,1.12 0,0.11 -0.18,0.51 -0.52,1.2 -0.35,0.69 -0.63,1.21 -0.86,1.57 -1.07,1.74 -2.27,3.04 -3.6,3.9 -0.6,0.41 -1.4,0.75 -2.37,1.01 -0.99,0.27 -1.88,0.4 -2.68,0.4 -0.71,0 -1.19,-0.05 -1.44,-0.13 -0.25,-0.09 -0.67,-0.35 -1.24,-0.79 -0.47,-0.36 -0.75,-0.54 -0.84,-0.54 -0.06,0 -0.21,0.22 -0.45,0.67 -0.41,0.76 -0.81,1.15 -1.2,1.15 -0.25,0 -0.65,-0.31 -1.2,-0.9 -0.5,-0.55 -0.85,-1.06 -1.08,-1.51 -0.22,-0.43 -0.56,-1.27 -1.03,-2.51l-0.67 -1.86 -0.08 -1.29c-0.02,-0.3 -0.06,-0.74 -0.12,-1.34 -0.06,-0.6 -0.08,-1.09 -0.08,-1.48 0,-0.39 0.01,-0.7 0.03,-0.95 0,-0.06 0.02,-0.21 0.03,-0.46 0.01,-0.24 0.02,-0.44 0.02,-0.61 0,-1.79 -0.07,-3.43 -0.21,-4.89 0,-0.66 0.01,-1.25 0.04,-1.77 0.05,-0.92 0.15,-1.52 0.28,-1.79 0.11,-0.27 0.45,-0.64 1.01,-1.11zm24.04 7.94c0.61,-0.24 1.15,-0.37 1.61,-0.37 0.34,0 0.61,0.01 0.83,0.04 1.61,0.09 3.1,0.61 4.47,1.61 0.7,0.53 1.14,1.06 1.37,1.59 0.11,0.24 0.17,0.5 0.17,0.78 0,0.39 -0.12,0.75 -0.34,1.12 -0.19,0.33 -0.94,1.15 -2.24,2.45 -1.31,1.31 -2.12,2.04 -2.43,2.18 -0.44,0.2 -0.82,0.3 -1.13,0.3 -0.49,0 -0.92,-0.16 -1.31,-0.46 -0.36,-0.25 -0.54,-0.52 -0.54,-0.79 0,-0.2 0.06,-0.39 0.16,-0.59 0.25,-0.55 0.94,-1.23 2.07,-2.06 1.21,-0.94 1.82,-1.51 1.82,-1.74 0,-0.27 -0.27,-0.54 -0.82,-0.81 -0.55,-0.26 -1.19,-0.42 -1.9,-0.48l-0.46 0c-0.53,0 -0.89,0.1 -1.09,0.27 -0.21,0.18 -0.39,0.53 -0.53,1.06 -0.11,0.44 -0.16,1.11 -0.16,1.99 0,0.64 0.04,1.14 0.12,1.53 0.3,1.21 0.98,2.06 2.03,2.57 0.39,0.2 0.99,0.3 1.82,0.33l0.63 0c0.49,0 0.95,-0.04 1.36,-0.12 0.97,-0.2 1.8,-0.49 2.52,-0.88 0.11,-0.06 0.28,-0.08 0.5,-0.08 0.36,0 0.53,0.24 0.53,0.75 0,0.2 -0.01,0.35 -0.03,0.46 -0.14,0.71 -0.48,1.36 -1.04,1.94 -0.41,0.44 -0.75,0.71 -0.99,0.79 -0.41,0.16 -0.92,0.34 -1.49,0.53 -1.16,0.44 -2.27,0.67 -3.31,0.67 -0.53,0 -1.23,-0.07 -2.11,-0.21 -0.53,-0.09 -0.92,-0.19 -1.17,-0.33 -0.9,-0.44 -1.77,-1.21 -2.6,-2.3 -0.83,-1.09 -1.3,-2.19 -1.41,-3.29 -0.04,-0.2 -0.05,-0.44 -0.05,-0.75 0,-0.27 0.05,-0.7 0.13,-1.28 0.23,-1.55 0.73,-2.85 1.54,-3.89 0.29,-0.42 0.8,-0.91 1.49,-1.46 0.69,-0.55 1.14,-0.82 1.36,-0.82 0.04,0 0.24,-0.08 0.62,-0.25zm11.46 0.54c0.64,-0.74 1.84,-1.11 3.6,-1.11 0.69,0 1.3,0.06 1.83,0.16 0.64,0.13 1.05,0.25 1.25,0.34 0.18,0.11 0.41,0.28 0.65,0.53 0.58,0.63 0.87,1.35 0.87,2.15 0,0.41 -0.1,0.75 -0.33,0.99 -0.2,0.2 -0.4,0.3 -0.62,0.3 -0.22,0 -0.5,-0.12 -0.87,-0.34 -0.55,-0.33 -1.32,-0.64 -2.32,-0.91 -0.6,-0.16 -0.99,-0.21 -1.16,-0.12 -0.13,0.08 -0.2,0.19 -0.2,0.34 0,0.18 0.1,0.49 0.33,0.9 0.47,0.88 1.1,1.69 1.9,2.4 1.22,1.05 2.02,1.89 2.4,2.53 0.78,1.16 1.16,1.99 1.16,2.52 0,0.97 -0.54,1.71 -1.61,2.24 -1.11,0.55 -2.21,0.82 -3.31,0.82 -0.31,0 -0.85,-0.06 -1.62,-0.16 -1.47,-0.25 -2.57,-0.73 -3.31,-1.44 -0.55,-0.53 -0.82,-1.12 -0.82,-1.79 0,-0.97 0.3,-1.45 0.9,-1.45 0.33,0 0.8,0.2 1.41,0.58 0.69,0.47 1.57,0.72 2.65,0.74 0.72,0.04 1.14,-0.01 1.24,-0.11 0.13,-0.15 0.17,-0.29 0.09,-0.43 -0.06,-0.13 -0.58,-0.69 -1.58,-1.69 -1.57,-1.65 -2.53,-2.87 -2.89,-3.65 -0.37,-0.74 -0.54,-1.45 -0.54,-2.14 0,-0.78 0.3,-1.51 0.9,-2.2zm10.84 0c0.65,-0.74 1.85,-1.11 3.61,-1.11 0.69,0 1.3,0.06 1.83,0.16 0.63,0.13 1.04,0.25 1.24,0.34 0.19,0.11 0.41,0.28 0.66,0.53 0.57,0.63 0.87,1.35 0.87,2.15 0,0.41 -0.11,0.75 -0.33,0.99 -0.2,0.2 -0.4,0.3 -0.62,0.3 -0.23,0 -0.51,-0.12 -0.87,-0.34 -0.55,-0.33 -1.33,-0.64 -2.33,-0.91 -0.59,-0.16 -0.98,-0.21 -1.16,-0.12 -0.13,0.08 -0.2,0.19 -0.2,0.34 0,0.18 0.11,0.49 0.33,0.9 0.47,0.88 1.11,1.69 1.9,2.4 1.22,1.05 2.02,1.89 2.41,2.53 0.77,1.16 1.16,1.99 1.16,2.52 0,0.97 -0.54,1.71 -1.62,2.24 -1.1,0.55 -2.21,0.82 -3.31,0.82 -0.3,0 -0.84,-0.06 -1.62,-0.16 -1.46,-0.25 -2.57,-0.73 -3.31,-1.44 -0.55,-0.53 -0.82,-1.12 -0.82,-1.79 0,-0.97 0.31,-1.45 0.91,-1.45 0.32,0 0.79,0.2 1.4,0.58 0.7,0.47 1.58,0.72 2.66,0.74 0.71,0.04 1.13,-0.01 1.24,-0.11 0.13,-0.15 0.16,-0.29 0.08,-0.43 -0.06,-0.13 -0.57,-0.69 -1.57,-1.69 -1.57,-1.65 -2.54,-2.87 -2.9,-3.65 -0.36,-0.74 -0.54,-1.45 -0.54,-2.14 0,-0.78 0.31,-1.51 0.9,-2.2zm13.71 -0.54c0.61,-0.24 1.15,-0.37 1.61,-0.37 0.34,0 0.61,0.01 0.83,0.04 1.61,0.09 3.1,0.61 4.47,1.61 0.7,0.53 1.14,1.06 1.37,1.59 0.11,0.24 0.17,0.5 0.17,0.78 0,0.39 -0.12,0.75 -0.34,1.12 -0.19,0.33 -0.94,1.15 -2.24,2.45 -1.31,1.31 -2.12,2.04 -2.43,2.18 -0.44,0.2 -0.82,0.3 -1.12,0.3 -0.5,0 -0.93,-0.16 -1.32,-0.46 -0.36,-0.25 -0.54,-0.52 -0.54,-0.79 0,-0.2 0.06,-0.39 0.17,-0.59 0.24,-0.55 0.93,-1.23 2.06,-2.06 1.21,-0.94 1.82,-1.51 1.82,-1.74 0,-0.27 -0.27,-0.54 -0.82,-0.81 -0.55,-0.26 -1.19,-0.42 -1.9,-0.48l-0.46 0c-0.53,0 -0.89,0.1 -1.09,0.27 -0.21,0.18 -0.39,0.53 -0.53,1.06 -0.11,0.44 -0.16,1.11 -0.16,1.99 0,0.64 0.04,1.14 0.12,1.53 0.3,1.21 0.98,2.06 2.03,2.57 0.39,0.2 0.99,0.3 1.82,0.33l0.63 0c0.49,0 0.95,-0.04 1.36,-0.12 0.97,-0.2 1.8,-0.49 2.52,-0.88 0.11,-0.06 0.28,-0.08 0.5,-0.08 0.36,0 0.53,0.24 0.53,0.75 0,0.2 -0.01,0.35 -0.03,0.46 -0.14,0.71 -0.48,1.36 -1.04,1.94 -0.41,0.44 -0.75,0.71 -0.99,0.79 -0.41,0.16 -0.92,0.34 -1.49,0.53 -1.16,0.44 -2.27,0.67 -3.31,0.67 -0.53,0 -1.23,-0.07 -2.11,-0.21 -0.53,-0.09 -0.92,-0.19 -1.17,-0.33 -0.9,-0.44 -1.77,-1.21 -2.6,-2.3 -0.83,-1.09 -1.3,-2.19 -1.41,-3.29 -0.04,-0.2 -0.05,-0.44 -0.05,-0.75 0,-0.27 0.05,-0.7 0.13,-1.28 0.23,-1.55 0.73,-2.85 1.54,-3.89 0.29,-0.42 0.8,-0.91 1.49,-1.46 0.69,-0.55 1.14,-0.82 1.36,-0.82 0.04,0 0.24,-0.08 0.62,-0.25zm12.7 -4.63c0.34,-0.08 0.69,-0.04 1.08,0.16 0.23,0.11 0.37,0.31 0.44,0.58 0.07,0.28 0.13,0.95 0.18,1.99l0.09 1.9c0.88,-0.1 1.71,-0.16 2.48,-0.16 0.37,0 0.77,0.02 1.2,0.08 0.2,0.04 0.61,0.11 1.24,0.21 0.64,0.11 1.2,0.2 1.71,0.28 0.49,0.09 0.78,0.16 0.86,0.21 0.06,0.06 0.15,0.09 0.25,0.09 0.11,0 0.24,0.07 0.36,0.21 0.18,0.16 0.26,0.31 0.26,0.46 0,0.29 -0.37,0.68 -1.12,1.15 -1.02,0.63 -2.13,1.14 -3.31,1.53 -0.55,0.2 -1.02,0.3 -1.41,0.3 -0.53,0 -1.19,-0.37 -1.98,-1.08l-0.71 -0.67 -0.21 0.7c-0.16,0.61 -0.25,1.39 -0.25,2.33 0,1.06 0.1,2.08 0.3,3.03 0.19,0.95 0.43,1.52 0.74,1.68 0.1,0.06 0.22,0.08 0.34,0.08 0.45,0 1.07,-0.25 1.82,-0.78 0.74,-0.53 1.45,-1.2 2.14,-2.03 0.8,-0.94 1.28,-1.41 1.46,-1.41 0.02,0 0.17,-0.09 0.44,-0.28 0.29,-0.18 0.58,-0.26 0.88,-0.26 0.53,0 0.87,0.2 1.04,0.59 0.06,0.16 0.08,0.31 0.08,0.45 0,0.66 -0.26,1.78 -0.79,3.35 -0.24,0.91 -0.84,1.83 -1.78,2.73 -0.49,0.47 -0.88,0.77 -1.16,0.87 -0.41,0.14 -0.81,0.31 -1.2,0.51 -0.9,0.41 -1.72,0.62 -2.44,0.62 -1.3,0 -2.48,-0.39 -3.52,-1.15 -1.04,-0.77 -1.83,-1.67 -2.36,-2.71 -0.3,-0.64 -0.48,-1.35 -0.54,-2.15 -0.02,-0.25 -0.06,-0.61 -0.09,-1.08 -0.05,-0.47 -0.08,-0.89 -0.11,-1.28 -0.03,-0.39 -0.04,-0.74 -0.04,-1.08 0,-0.27 0.02,-0.66 0.08,-1.16 0.02,-0.27 0.03,-0.87 0.03,-1.77l0 -0.79c0,-0.14 0,-0.32 -0.01,-0.54 -0.01,-0.22 -0.02,-0.37 -0.02,-0.46 0,-1.1 0.14,-1.97 0.41,-2.6 0.24,-0.51 0.71,-1.05 1.39,-1.62 0.67,-0.58 1.26,-0.93 1.75,-1.03z"/>
 </g>
</svg>
