<?xml version="1.0" encoding="UTF-8"?>
<!DOCTYPE svg PUBLIC "-//W3C//DTD SVG 1.1//EN" "http://www.w3.org/Graphics/SVG/1.1/DTD/svg11.dtd">
<!-- Creator: CorelDRAW 2021.5 -->
<svg xmlns="http://www.w3.org/2000/svg" xml:space="preserve" width="335px" height="108px" version="1.1" style="shape-rendering:geometricPrecision; text-rendering:geometricPrecision; image-rendering:optimizeQuality; fill-rule:evenodd; clip-rule:evenodd"
viewBox="0 0 508.04 163.43"
 xmlns:xlink="http://www.w3.org/1999/xlink"
 xmlns:xodm="http://www.corel.com/coreldraw/odm/2003">
 <defs>
  <style type="text/css">
   <![CDATA[
    .fil1 {fill:black;fill-rule:nonzero}
    .fil0 {fill:#00E1C1;fill-rule:nonzero}
   ]]>
  </style>
 </defs>
 <g id="Layer_x0020_1">
  <metadata id="CorelCorpID_0Corel-Layer"/>
  <path class="fil0" d="M16.5 41.82c-2.4,1.45 -4.34,3.42 -6.19,5.49 -4.19,4.27 -7.31,9.2 -8.98,14.96 -3.03,10.42 -0.7,19.96 5.22,28.7 7.95,11.72 19.45,18.82 32.25,24.11 0.36,0.15 0.77,0.4 1.07,-0.01 0.31,-0.43 -0.14,-0.73 -0.36,-1.01 -0.95,-1.21 -1.76,-2.5 -2.29,-3.94 -1.2,-3.2 -0.2,-5.97 2.77,-7.66 1.44,-0.82 2.95,-1.45 4.56,-1.8 4.59,-0.99 9.17,-2 13.76,-2.97 11.84,-2.49 19.89,-9.49 24.49,-20.57 1.44,-3.48 2.31,-7.11 2.26,-10.9 -0.02,-2.06 -0.19,-2.14 -1.92,-1.15 -0.94,0.53 -1.88,1.05 -2.85,1.5 -3.8,1.76 -7.76,2.8 -11.98,2.6 -0.41,-0.02 -1.67,0.53 -1.05,-0.88 0.29,-0.17 0.62,-0.29 0.86,-0.51 10.34,-9.39 16.25,-20.7 14.8,-35.04 -0.43,-4.21 -1.58,-8.29 -3.82,-11.97l-0.01 -0.02c-0.83,-2.43 -2.35,-4.46 -3.86,-6.48 -4.03,-5.37 -8.96,-9.79 -14.66,-13.34 -0.43,-0.48 -1.06,-1.15 -1.55,-0.86 -0.57,0.34 0.2,0.87 0.39,1.32 1.72,4.7 1.11,9.16 -1.29,13.47 -1.3,2.32 -3.1,4.25 -4.8,6.25l-0.01 0.01c-3.93,3.43 -8.63,5.51 -13.29,7.67 -3.7,1.72 -7.49,3.25 -11,5.36l0 0c-1.33,0.29 -2.45,1.09 -3.61,1.74 -3.13,1.72 -6.26,3.47 -8.91,5.92l0.1 0.1 -0.1 -0.09z"/>
  <path class="fil1" d="M82.35 62.5c0.18,-0.11 0.83,-0.14 2.04,-0.14 0.94,0 1.67,0.18 2.14,0.58 0.47,0.4 0.94,1.16 1.45,2.36l0.66 1.67 -0.15 15.67c0,8.62 -0.11,15.24 -0.36,19.85 -0.11,1.13 -0.15,3.02 -0.15,5.68 0,4.87 0.22,8.25 0.66,10.1 1.02,3.35 1.93,5.35 2.69,6.04 0.33,0.25 0.73,0.4 1.16,0.4 0.91,0 2.47,-0.66 4.62,-1.93 4.69,-2.72 7.53,-4.11 8.47,-4.11 0.91,0 1.67,0.33 2.29,1.02 0.95,1.06 1.42,2.18 1.42,3.46 0,0.36 -0.07,1.38 -0.26,3.09 -0.25,1.89 -0.58,3.16 -0.98,3.85 -0.4,0.69 -1.16,1.53 -2.36,2.58 -0.69,0.58 -2.18,1.49 -4.47,2.73 -2.33,1.27 -3.71,1.89 -4.11,1.89 -0.55,0 -1.24,0.11 -2.07,0.36 -1.02,0.26 -2.44,0.4 -4.22,0.4 -1.2,0 -2.58,-0.07 -4.11,-0.25 -2.84,-0.55 -5.74,-2.26 -8.73,-5.17 -2.98,-2.87 -4.94,-5.56 -5.88,-8.07 -0.7,-2.03 -1.1,-4.32 -1.28,-6.9 -0.18,-2.59 -0.29,-9.35 -0.29,-20.29 0,-10.95 0.08,-17.53 0.22,-19.74 0.11,-2.22 0.47,-4.04 1.09,-5.39 1.02,-2.29 2.29,-4.07 3.85,-5.27 0.33,-0.32 1.46,-1.12 3.39,-2.36 1.92,-1.24 3.01,-1.93 3.27,-2.11zm43.6 28.98c1.89,-0.77 3.56,-1.17 4.98,-1.17 1.05,0 1.89,0.04 2.58,0.15 4.98,0.25 9.6,1.89 13.85,4.98 2.15,1.64 3.53,3.27 4.22,4.91 0.36,0.76 0.55,1.56 0.55,2.44 0,1.2 -0.37,2.32 -1.06,3.45 -0.58,1.02 -2.91,3.56 -6.94,7.6 -4.08,4.07 -6.58,6.32 -7.53,6.76 -1.38,0.62 -2.54,0.91 -3.49,0.91 -1.53,0 -2.87,-0.47 -4.07,-1.42 -1.13,-0.76 -1.67,-1.6 -1.67,-2.43 0,-0.62 0.18,-1.2 0.51,-1.82 0.76,-1.71 2.9,-3.82 6.39,-6.4 3.75,-2.91 5.64,-4.69 5.64,-5.38 0,-0.84 -0.84,-1.67 -2.54,-2.51 -1.71,-0.8 -3.68,-1.31 -5.89,-1.49l-1.42 0c-1.64,0 -2.77,0.29 -3.38,0.84 -0.66,0.54 -1.2,1.63 -1.64,3.27 -0.33,1.38 -0.51,3.45 -0.51,6.18 0,1.96 0.15,3.52 0.4,4.72 0.91,3.75 3.02,6.4 6.29,7.97 1.2,0.62 3.05,0.94 5.64,1.01l1.92 0c1.53,0 2.95,-0.1 4.22,-0.36 3.02,-0.62 5.6,-1.53 7.82,-2.73 0.33,-0.18 0.87,-0.25 1.56,-0.25 1.09,0 1.64,0.76 1.64,2.33 0,0.62 -0.04,1.09 -0.11,1.41 -0.44,2.22 -1.49,4.22 -3.2,6.04 -1.27,1.35 -2.33,2.18 -3.09,2.44 -1.28,0.51 -2.84,1.05 -4.62,1.63 -3.6,1.38 -7.02,2.07 -10.25,2.07 -1.64,0 -3.82,-0.21 -6.55,-0.65 -1.63,-0.25 -2.83,-0.58 -3.6,-1.02 -2.8,-1.34 -5.49,-3.74 -8.07,-7.12 -2.58,-3.39 -4.03,-6.77 -4.36,-10.18 -0.11,-0.62 -0.15,-1.39 -0.15,-2.33 0,-0.84 0.15,-2.18 0.4,-3.96 0.7,-4.8 2.26,-8.84 4.77,-12.07 0.91,-1.28 2.47,-2.8 4.61,-4.51 2.15,-1.71 3.53,-2.55 4.22,-2.55 0.11,0 0.73,-0.25 1.93,-0.76zm39.35 -14.36c1.05,-0.26 2.14,-0.11 3.34,0.51 0.69,0.32 1.13,0.94 1.35,1.78 0.21,0.87 0.39,2.94 0.58,6.18l0.25 5.89c2.73,-0.33 5.31,-0.51 7.71,-0.51 1.13,0 2.36,0.07 3.71,0.26 0.62,0.1 1.89,0.32 3.85,0.65 1.97,0.33 3.71,0.62 5.27,0.87 1.53,0.26 2.44,0.47 2.69,0.66 0.19,0.18 0.44,0.25 0.77,0.25 0.32,0 0.73,0.22 1.12,0.65 0.55,0.51 0.8,0.99 0.8,1.42 0,0.91 -1.16,2.11 -3.49,3.57 -3.16,1.96 -6.58,3.56 -10.25,4.76 -1.71,0.62 -3.16,0.91 -4.36,0.91 -1.64,0 -3.67,-1.13 -6.15,-3.35l-2.18 -2.07 -0.65 2.18c-0.51,1.89 -0.77,4.29 -0.77,7.2 0,3.31 0.3,6.47 0.91,9.42 0.58,2.94 1.35,4.69 2.29,5.2 0.33,0.18 0.69,0.25 1.06,0.25 1.42,0 3.31,-0.8 5.63,-2.43 2.29,-1.64 4.51,-3.71 6.66,-6.3 2.47,-2.9 3.96,-4.36 4.51,-4.36 0.07,0 0.54,-0.29 1.38,-0.87 0.87,-0.55 1.78,-0.8 2.72,-0.8 1.64,0 2.69,0.62 3.2,1.82 0.19,0.51 0.26,0.98 0.26,1.41 0,2.04 -0.8,5.5 -2.44,10.37 -0.76,2.83 -2.62,5.67 -5.52,8.47 -1.53,1.45 -2.73,2.36 -3.6,2.69 -1.28,0.43 -2.51,0.94 -3.71,1.56 -2.8,1.27 -5.35,1.93 -7.57,1.93 -4.03,0 -7.67,-1.2 -10.9,-3.56 -3.24,-2.37 -5.67,-5.17 -7.31,-8.4 -0.94,-1.97 -1.49,-4.18 -1.67,-6.66 -0.08,-0.76 -0.18,-1.89 -0.29,-3.34 -0.15,-1.46 -0.26,-2.76 -0.33,-3.96 -0.11,-1.2 -0.15,-2.29 -0.15,-3.35 0,-0.83 0.08,-2.03 0.26,-3.6 0.07,-0.83 0.11,-2.69 0.11,-5.49l0 -2.43c0,-0.44 0,-0.99 -0.04,-1.68 -0.03,-0.69 -0.07,-1.16 -0.07,-1.41 0,-3.42 0.43,-6.11 1.27,-8.08 0.76,-1.56 2.22,-3.23 4.33,-5.01 2.07,-1.79 3.89,-2.87 5.42,-3.2zm39.49 16.03c2,-2.29 5.71,-3.45 11.16,-3.45 2.14,0 4.04,0.18 5.67,0.51 1.96,0.4 3.24,0.76 3.85,1.05 0.59,0.33 1.28,0.87 2.04,1.64 1.78,1.96 2.69,4.18 2.69,6.65 0,1.27 -0.33,2.33 -1.02,3.09 -0.61,0.62 -1.23,0.91 -1.92,0.91 -0.69,0 -1.57,-0.36 -2.69,-1.06 -1.71,-1.01 -4.11,-1.96 -7.2,-2.79 -1.86,-0.51 -3.06,-0.66 -3.6,-0.4 -0.4,0.25 -0.62,0.61 -0.62,1.05 0,0.58 0.33,1.53 1.02,2.8 1.45,2.73 3.41,5.23 5.89,7.45 3.78,3.24 6.25,5.86 7.45,7.82 2.4,3.6 3.6,6.18 3.6,7.82 0,3.01 -1.67,5.31 -5.02,6.94 -3.41,1.71 -6.83,2.55 -10.25,2.55 -0.95,0 -2.62,-0.19 -5.02,-0.51 -4.54,-0.77 -7.96,-2.26 -10.25,-4.48 -1.71,-1.63 -2.54,-3.45 -2.54,-5.52 0,-3.02 0.94,-4.51 2.79,-4.51 1.02,0 2.48,0.62 4.37,1.82 2.14,1.45 4.87,2.21 8.21,2.29 2.22,0.11 3.53,-0.04 3.86,-0.37 0.4,-0.43 0.51,-0.87 0.25,-1.3 -0.18,-0.41 -1.78,-2.15 -4.87,-5.24 -4.87,-5.13 -7.85,-8.91 -8.98,-11.31 -1.13,-2.29 -1.67,-4.51 -1.67,-6.65 0,-2.4 0.94,-4.65 2.8,-6.8zm112.1 -34.25l2.84 -1.67 2.18 0.25c1.46,0.19 2.44,0.37 2.91,0.62 0.47,0.26 0.69,0.84 0.69,1.71 0,2.22 -0.36,4.95 -1.06,8.22 -0.76,3.09 -1.12,7.02 -1.12,11.78 0,1.27 0.04,2.14 0.11,2.58 0.25,2.14 0.47,12 0.65,29.63 0,2.04 -0.51,4.73 -1.53,8.07 -2.14,6.95 -5.78,11.64 -10.9,14.11 -2.91,1.45 -6.29,2.25 -10.15,2.43 -1.01,0.08 -2.25,0.11 -3.7,0.11 -1.64,0 -4.04,-0.72 -7.2,-2.18l-3.71 -1.89 -2.69 1.27c-3.67,1.79 -7.67,2.77 -11.93,2.95 -0.25,0 -0.62,0 -1.09,0.03 -0.47,0.04 -0.8,0.08 -0.98,0.08 -1.64,0 -4,-0.73 -7.16,-2.18 -4.87,-2.29 -8.44,-5.71 -10.65,-10.26 -0.84,-1.85 -1.39,-3.45 -1.6,-4.72 -0.22,-1.28 -0.33,-4.15 -0.33,-8.62l0 -11.27c0.07,-18.98 0.4,-29.45 1.02,-31.41 0.61,-1.89 1.56,-3.42 2.83,-4.58 1.27,-1.13 2.66,-1.71 4.11,-1.71 0.51,0 0.87,0.03 1.13,0.11 1.2,0.32 2.54,1.45 4,3.38 1.45,1.92 2.54,3.96 3.31,6.11 0.61,1.96 0.9,3.63 0.9,5.01 0,1.02 -0.29,3.49 -0.9,7.46 -2.22,12.1 -3.31,19.81 -3.31,23.08 0,0.91 0.03,1.57 0.11,1.89 0.69,4.04 3.23,7.67 7.56,10.91 1.71,1.27 2.98,1.93 3.74,1.93 1.53,0 2.8,-1.17 3.86,-3.46 1.09,-2.4 1.81,-5.16 2.18,-8.32 0.18,-1.57 0.25,-2.73 0.25,-3.49 0,-1.86 -0.4,-5.75 -1.16,-11.67 -0.44,-4.11 -0.65,-6.73 -0.65,-7.93 0,-2.07 0.47,-4.47 1.41,-7.2 1.46,-4.25 3.27,-8.21 5.46,-11.81 2.18,-3.6 3.85,-5.38 5.05,-5.38 1.27,0 2.22,1.74 2.84,5.27 0.62,3.23 0.91,7.52 0.91,12.83 0,4.44 -0.04,8.29 -0.15,11.53 -0.25,10.87 -0.4,17.63 -0.4,20.28 0,2.59 0.26,4.37 0.8,5.38 0.4,0.84 1.13,1.82 2.11,2.95 0.98,1.13 1.85,1.67 2.62,1.67 1.56,0 3.3,-0.98 5.27,-2.91 1.96,-1.92 3.42,-4.1 4.36,-6.58 0.51,-1.38 0.76,-3.16 0.76,-5.38 0,-2.51 -0.4,-5.56 -1.16,-9.23 -1.71,-8.4 -2.54,-15.05 -2.54,-20.04 0,-4.87 0.76,-8.79 2.29,-11.78 1.89,-3.34 4.5,-5.99 7.81,-7.96zm17.61 31.56c0.84,-0.33 1.82,-0.47 2.94,-0.4 1.89,0.25 2.84,1.13 2.84,2.58 0,0.95 0.11,1.71 0.36,2.29 0.69,2.08 1.02,5.56 1.02,10.55 0,1.96 -0.14,6 -0.44,12.1 -0.29,6.11 -0.51,9.42 -0.69,9.93 0,0.18 -0.18,1.27 -0.51,3.34 -0.36,3.09 -1.2,4.91 -2.47,5.53 -0.51,0.33 -1.09,0.29 -1.78,-0.15 -2.14,-1.2 -4.51,-5.16 -7.16,-11.92 -1.06,-2.58 -1.67,-4.51 -1.93,-5.85 -0.25,-1.31 -0.44,-3.9 -0.51,-7.75 0,-0.69 -0.03,-1.67 -0.07,-2.94 -0.04,-1.28 -0.07,-2.22 -0.07,-2.8 0,-0.69 0.03,-1.49 0.07,-2.4 0.04,-0.91 0.07,-1.38 0.07,-1.46l0.11 -2.43 1.78 -2.44c2.33,-3.16 4.47,-5.09 6.44,-5.78zm0.25 -28.98c0.33,-0.1 0.95,-0.14 1.78,-0.14 1.28,0 2.22,0.18 2.84,0.51 0.94,0.61 1.45,2.32 1.53,5.12l0 1.42c0,1.2 -0.22,2.44 -0.62,3.71 -0.55,1.71 -0.8,2.65 -0.8,2.84 0,0.25 -0.26,0.72 -0.76,1.41 -0.51,0.7 -1.35,1.02 -2.55,1.02 -1.2,0 -2.25,-0.29 -3.09,-0.91 -2.14,-1.34 -4.07,-3.34 -5.78,-6 -1.02,-1.45 -1.53,-2.47 -1.53,-3.09 0,-0.32 0.15,-0.72 0.4,-1.16 0.51,-0.76 1.75,-1.71 3.71,-2.76 1.96,-1.06 3.6,-1.71 4.87,-1.97zm32.7 60.65c0,-1.35 0.25,-3.42 0.8,-6.15 0.5,-2.72 0.76,-4.83 0.76,-6.29 0,-2.14 -0.26,-3.7 -0.76,-4.72 -1.28,-2.66 -3.39,-4 -6.29,-4 -1.46,0 -2.88,0.47 -4.22,1.42 -1.38,0.94 -2.47,2.14 -3.24,3.6 -0.4,0.69 -0.65,1.92 -0.76,3.7l0 1.28c0,1.05 0.33,3.05 1.02,6.03 0.69,2.4 1.02,4.26 1.02,5.53 0,1.2 -0.33,2.69 -1.02,4.47 -0.4,1.2 -0.84,2.76 -1.28,4.62 0,0.11 -0.07,0.47 -0.18,1.16 -0.14,0.69 -0.25,1.13 -0.33,1.35 -0.1,0.21 -0.21,0.54 -0.39,1.01 -0.19,0.48 -0.37,0.8 -0.62,0.99 -0.26,0.18 -0.58,0.25 -0.91,0.25 -0.69,0 -1.49,-0.4 -2.47,-1.24 -0.98,-0.8 -1.79,-1.81 -2.4,-3.01 -0.77,-1.28 -1.28,-2.4 -1.49,-3.35 -0.22,-0.91 -0.77,-4.14 -1.6,-9.71 -0.77,-4.9 -1.17,-7.89 -1.17,-8.98 0,-1.27 0.29,-2.98 0.91,-5.12 0.62,-2.4 1.38,-4.29 2.33,-5.67 2.36,-3.24 5.09,-5.64 8.18,-7.17 2,-0.94 3.31,-1.49 3.93,-1.67 0.61,-0.18 2.1,-0.25 4.43,-0.25l0.51 0c4.54,0.07 8.58,1.45 12.18,4.1 2.8,2.04 4.91,4.95 6.29,8.73 0.84,2.47 1.31,8.25 1.42,17.31 0.07,7.27 0.36,11.27 0.87,12.03 0.33,0.62 0.51,1.24 0.51,1.93 0,1.13 -0.51,2.07 -1.53,2.83 -0.51,0.44 -1.2,0.66 -2.03,0.66 -1.89,0 -4.22,-1.35 -6.95,-4 -2.22,-2.15 -3.71,-3.96 -4.43,-5.53 -0.73,-1.53 -1.09,-3.56 -1.09,-6.14zm43.34 -20c-0.69,-0.25 -1.45,-0.33 -2.29,-0.14 -2.07,0.54 -4.22,1.63 -6.47,3.27 -2.29,1.67 -4.07,3.49 -5.34,5.45 -0.7,1.13 -1.02,2 -1.02,2.69 0,1.2 1.23,2.91 3.7,5.13 4.48,4.11 8.44,6.47 11.93,7.05 0.11,0 0.22,0.04 0.36,0.08 0.11,0.03 0.22,0.07 0.3,0.07 1.56,0 2.58,-1.53 3.09,-4.62 0.25,-1.53 0.36,-3.13 0.36,-4.76 0,-3.31 -0.44,-6.37 -1.35,-9.16 -0.91,-2.77 -2,-4.44 -3.27,-5.06zm-13.85 -9.63c1.45,-1.46 4.65,-2.19 9.63,-2.19 2.22,0 4.26,0.15 6.04,0.4 3.09,0.44 5.82,1.6 8.18,3.46 0.87,0.62 2.33,2 4.33,4.18 2,2.18 3.2,3.6 3.52,4.29 0.51,0.95 0.77,2.11 0.77,3.45 0,1.06 -0.15,2.22 -0.4,3.5 -1.2,6.14 -1.79,11.78 -1.79,16.9 0,1.64 -0.29,4.98 -0.9,10.07 -0.62,5.09 -1.17,8.8 -1.68,11.09 -0.25,1.64 -0.58,2.94 -1.01,4 -1.79,3.82 -3.89,6.76 -6.33,8.76 -2.44,2 -5.85,3.02 -10.22,3.02 -2.9,0 -6,-1.02 -9.23,-3.05 -3.6,-2.51 -6.44,-6.29 -8.58,-11.42 -0.69,-1.64 -1.06,-2.87 -1.06,-3.75 0,-0.69 0.3,-1.41 0.91,-2.18 0.62,-0.58 1.38,-0.87 2.33,-0.87 0.58,0 1.31,0.11 2.18,0.36 0.91,0.33 1.67,0.73 2.29,1.2 0.62,0.48 1.96,1.79 4.11,3.93 3.09,3.09 4.84,4.65 5.27,4.76 0.07,0 0.18,0.04 0.33,0.08 0.11,0.03 0.22,0.03 0.29,0.03 1.27,0 2.73,-0.72 4.36,-2.18 1.64,-1.45 2.69,-2.98 3.2,-4.62 0.33,-1.02 0.51,-2.69 0.51,-4.98 0,-1.63 -0.11,-2.83 -0.36,-3.6l-4.77 0.15 -1.52 0c-2.8,0 -5.02,-0.22 -6.58,-0.66 -1.6,-0.43 -3.53,-1.34 -5.75,-2.69 -2.8,-1.78 -5.01,-3.7 -6.65,-5.78 -1.64,-2.07 -2.84,-4.76 -3.6,-8.07 -0.51,-2.14 -0.76,-4.22 -0.76,-6.29 0,-4.69 1.27,-9.09 3.85,-13.2 1.13,-1.7 2,-2.94 2.69,-3.67 0.69,-0.73 1.75,-1.52 3.2,-2.36l3.2 -2.07zm60.55 -2.04c0.84,-0.33 1.82,-0.47 2.94,-0.4 1.9,0.25 2.84,1.13 2.84,2.58 0,0.95 0.11,1.71 0.36,2.29 0.69,2.08 1.02,5.56 1.02,10.55 0,1.96 -0.14,6 -0.43,12.1 -0.29,6.11 -0.51,9.42 -0.69,9.93 0,0.18 -0.19,1.27 -0.51,3.34 -0.37,3.09 -1.2,4.91 -2.48,5.53 -0.5,0.33 -1.09,0.29 -1.78,-0.15 -2.14,-1.2 -4.51,-5.16 -7.16,-11.92 -1.05,-2.58 -1.67,-4.51 -1.93,-5.85 -0.25,-1.31 -0.43,-3.9 -0.51,-7.75 0,-0.69 -0.03,-1.67 -0.07,-2.94 -0.03,-1.28 -0.07,-2.22 -0.07,-2.8 0,-0.69 0.04,-1.49 0.07,-2.4 0.04,-0.91 0.07,-1.38 0.07,-1.46l0.11 -2.43 1.78 -2.44c2.33,-3.16 4.48,-5.09 6.44,-5.78zm0.25 -28.98c0.33,-0.1 0.95,-0.14 1.79,-0.14 1.27,0 2.21,0.18 2.83,0.51 0.95,0.61 1.46,2.32 1.53,5.12l0 1.42c0,1.2 -0.22,2.44 -0.62,3.71 -0.55,1.71 -0.8,2.65 -0.8,2.84 0,0.25 -0.25,0.72 -0.76,1.41 -0.51,0.7 -1.35,1.02 -2.55,1.02 -1.2,0 -2.25,-0.29 -3.09,-0.91 -2.14,-1.34 -4.07,-3.34 -5.78,-6 -1.02,-1.45 -1.53,-2.47 -1.53,-3.09 0,-0.32 0.15,-0.72 0.4,-1.16 0.51,-0.76 1.75,-1.71 3.71,-2.76 1.97,-1.06 3.6,-1.71 4.87,-1.97zm18.08 15.64c1.06,-0.26 2.15,-0.11 3.35,0.51 0.69,0.32 1.12,0.94 1.34,1.78 0.22,0.87 0.4,2.94 0.58,6.18l0.26 5.89c2.73,-0.33 5.31,-0.51 7.71,-0.51 1.12,0 2.36,0.07 3.7,0.26 0.62,0.1 1.89,0.32 3.86,0.65 1.96,0.33 3.71,0.62 5.27,0.87 1.53,0.26 2.44,0.47 2.69,0.66 0.18,0.18 0.44,0.25 0.76,0.25 0.33,0 0.73,0.22 1.13,0.65 0.55,0.51 0.8,0.99 0.8,1.42 0,0.91 -1.16,2.11 -3.49,3.57 -3.16,1.96 -6.58,3.56 -10.25,4.76 -1.71,0.62 -3.16,0.91 -4.37,0.91 -1.63,0 -3.67,-1.13 -6.14,-3.35l-2.18 -2.07 -0.65 2.18c-0.51,1.89 -0.77,4.29 -0.77,7.2 0,3.31 0.29,6.47 0.91,9.42 0.58,2.94 1.35,4.69 2.29,5.2 0.33,0.18 0.69,0.25 1.06,0.25 1.41,0 3.3,-0.8 5.63,-2.43 2.29,-1.64 4.51,-3.71 6.65,-6.3 2.48,-2.9 3.97,-4.36 4.51,-4.36 0.08,0 0.55,-0.29 1.38,-0.87 0.88,-0.55 1.79,-0.8 2.73,-0.8 1.64,0 2.69,0.62 3.2,1.82 0.18,0.51 0.26,0.98 0.26,1.41 0,2.04 -0.81,5.5 -2.44,10.37 -0.77,2.83 -2.62,5.67 -5.53,8.47 -1.52,1.45 -2.72,2.36 -3.6,2.69 -1.27,0.43 -2.5,0.94 -3.71,1.56 -2.79,1.27 -5.34,1.93 -7.56,1.93 -4.03,0 -7.67,-1.2 -10.9,-3.56 -3.24,-2.37 -5.68,-5.17 -7.31,-8.4 -0.95,-1.97 -1.49,-4.18 -1.67,-6.66 -0.08,-0.76 -0.19,-1.89 -0.3,-3.34 -0.14,-1.46 -0.25,-2.76 -0.32,-3.96 -0.11,-1.2 -0.15,-2.29 -0.15,-3.35 0,-0.83 0.07,-2.03 0.26,-3.6 0.07,-0.83 0.1,-2.69 0.1,-5.49l0 -2.43c0,-0.44 0,-0.99 -0.03,-1.68 -0.04,-0.69 -0.07,-1.16 -0.07,-1.41 0,-3.42 0.43,-6.11 1.27,-8.08 0.76,-1.56 2.22,-3.23 4.32,-5.01 2.08,-1.79 3.9,-2.87 5.42,-3.2z"/>
 </g>
</svg>
