<?xml version="1.0" encoding="UTF-8"?>
<!DOCTYPE svg PUBLIC "-//W3C//DTD SVG 1.1//EN" "http://www.w3.org/Graphics/SVG/1.1/DTD/svg11.dtd">
<!-- Creator: CorelDRAW 2021.5 -->
<svg xmlns="http://www.w3.org/2000/svg" xml:space="preserve" width="343px" height="99px" version="1.1" style="shape-rendering:geometricPrecision; text-rendering:geometricPrecision; image-rendering:optimizeQuality; fill-rule:evenodd; clip-rule:evenodd"
viewBox="0 0 344.12 98.98"
 xmlns:xlink="http://www.w3.org/1999/xlink"
 xmlns:xodm="http://www.corel.com/coreldraw/odm/2003">
 <defs>
  <style type="text/css">
   <![CDATA[
    .fil0 {fill:#00331A;fill-rule:nonzero}
   ]]>
  </style>
 </defs>
 <g id="Layer_x0020_1">
  <metadata id="CorelCorpID_0Corel-Layer"/>
  <path class="fil0" d="M27.46 34.43c-0.29,-0.15 -0.67,-0.21 -1.12,-0.21 -0.55,0 -1.39,0.15 -2.54,0.44 -1.5,0.41 -3.12,1.12 -4.92,2.16 -2.83,1.75 -5.01,3.36 -6.51,4.82 -1.53,1.46 -2.6,3.04 -3.26,4.74 -0.19,0.44 -0.29,1.09 -0.29,1.94 0,1.88 0.44,3.68 1.33,5.37 1.1,2.18 3.15,4.08 6.13,5.69 2.98,1.62 5.98,2.43 9,2.43 2.31,0 4.04,-0.26 5.23,-0.74 1.79,-0.74 2.68,-3.15 2.68,-7.23 0,-1.59 -0.25,-3.89 -0.74,-6.92 -0.49,-3 -1.01,-5.32 -1.56,-6.97 -1.04,-3.13 -2.18,-4.97 -3.43,-5.52zm-11.12 -6.93c0.45,0 1.21,-0.09 2.28,-0.26 1.06,-0.17 1.72,-0.27 1.97,-0.34 0.7,-0.1 1.67,-0.14 2.92,-0.14 1.18,0 1.99,0.04 2.39,0.14 2.18,0.45 3.85,1.06 4.99,1.8 0.19,0.15 0.74,0.45 1.65,0.89 0.33,0.19 0.97,0.61 1.92,1.27 0.65,0.48 1.63,1.39 2.92,2.7 1.29,1.34 2.07,2.2 2.3,2.6 1.04,1.63 1.88,3.45 2.54,5.44l0.82 2.39 0.09 4.25 0 1.79c0,1.63 -0.13,2.88 -0.38,3.72 -0.26,0.85 -0.87,2.29 -1.86,4.34 -0.91,1.73 -1.63,3 -2.2,3.82 -0.57,0.83 -1.59,1.93 -3.03,3.26 -3.67,3.53 -8.03,5.28 -13.06,5.28 -1.14,0 -2.54,-0.12 -4.16,-0.35 -3.49,-0.56 -6.58,-1.82 -9.27,-3.81 -2.02,-1.46 -3.63,-2.98 -4.84,-4.61 -1.2,-1.61 -2.24,-3.66 -3.12,-6.13 -0.81,-2.18 -1.21,-4.5 -1.21,-6.93 0,-2.44 0.17,-4.23 0.49,-5.35 0.31,-1.12 0.99,-2.69 1.98,-4.74 0.05,-0.15 0.09,-0.23 0.15,-0.29 0.04,-0.05 0.09,-0.13 0.15,-0.26 0.06,-0.12 0.1,-0.23 0.15,-0.34 0.55,-1.03 1.56,-2.34 3.06,-3.89 1.5,-1.54 2.94,-2.76 4.32,-3.72 0.9,-0.65 2.07,-1.18 3.51,-1.62 1.03,-0.32 1.67,-0.58 1.86,-0.77 0.1,-0.1 0.31,-0.14 0.67,-0.14zm55.19 15.13c0,0.62 -0.07,1.17 -0.21,1.65 -0.15,0.49 -0.24,1 -0.24,1.5 0,0.15 -0.08,1.04 -0.23,2.69 -0.19,2.03 -0.32,4.21 -0.38,6.55 -0.15,4.63 -0.49,7.49 -1.04,8.58 -0.06,0.11 -0.12,0.26 -0.23,0.49 -0.1,0.23 -0.19,0.42 -0.29,0.59 -0.11,0.17 -0.17,0.3 -0.22,0.41 -0.25,0.5 -0.86,1.22 -1.83,2.13 -0.98,0.91 -1.78,1.54 -2.41,1.9 -0.85,0.45 -2.03,0.85 -3.58,1.19 -1.54,0.36 -2.83,0.52 -3.82,0.52l-0.45 0c-1.88,-0.14 -3.68,-0.8 -5.37,-1.94 -2.83,-1.88 -4.86,-5.37 -6.11,-10.44 -0.74,-3.13 -1.12,-5.77 -1.12,-7.91 0,-1.14 0.13,-1.9 0.38,-2.3 0.4,-0.79 1.44,-1.74 3.13,-2.84 1.33,-0.91 2.43,-1.35 3.28,-1.35 0.44,0 0.93,0.17 1.42,0.53 0.78,0.65 1.18,2.2 1.18,4.63 0,0.55 -0.04,2.11 -0.15,4.69 -0.04,0.66 -0.06,1.52 -0.06,2.62 0,2.84 0.53,4.8 1.56,5.88 0.95,0.95 2.07,1.42 3.36,1.42 0.6,0 1.17,-0.15 1.72,-0.45 1.54,-0.84 2.3,-2.75 2.3,-5.73 0,-1.1 -0.13,-2.47 -0.36,-4.12 -0.21,-1.18 -0.32,-2.37 -0.32,-3.57 0,-2.54 0.98,-4.8 2.92,-6.79 1.1,-1.25 2.26,-2.09 3.51,-2.53 0.36,-0.15 0.95,-0.22 1.8,-0.22 0.78,0 1.29,0.13 1.52,0.41 0.23,0.27 0.34,0.86 0.34,1.81zm13.73 0.91c0.23,-0.06 0.61,-0.08 1.12,-0.08 1.14,0 2.32,0.61 3.57,1.86 1.21,1.29 2.07,2.47 2.6,3.51 0.32,0.61 0.47,1.25 0.47,1.94 0,0.85 -0.26,1.5 -0.77,1.95 -0.23,0.19 -0.88,0.29 -1.92,0.29 -2.05,0 -3.76,-0.17 -5.16,-0.53 -0.99,-0.25 -1.71,-0.38 -2.15,-0.38l-0.15 0c-0.49,0.15 -0.74,1.78 -0.74,4.87 0,2.47 -0.09,4.31 -0.23,5.51 -0.49,3.83 -0.91,6.09 -1.27,6.79 -0.55,0.99 -1,1.48 -1.33,1.48 -0.36,0 -0.93,-0.4 -1.74,-1.18 -0.63,-0.55 -1.1,-1.14 -1.41,-1.8 -0.11,-0.19 -0.55,-0.95 -1.34,-2.24 -1.1,-1.8 -1.71,-3.43 -1.86,-4.91 -0.1,-0.84 -0.23,-1.58 -0.38,-2.24 -0.14,-0.74 -0.23,-1.84 -0.23,-3.27 0,-1.89 0.11,-3.13 0.32,-3.75 0.15,-0.44 0.21,-0.95 0.21,-1.48 0,-0.44 0.3,-1.03 0.89,-1.73 0.99,-1.18 1.96,-1.97 2.91,-2.37 2.24,-0.99 5.1,-1.75 8.59,-2.24zm24.98 -13.51c1.19,-1.07 2.41,-1.86 3.66,-2.3 1.25,-0.44 2.98,-0.68 5.2,-0.68 1.9,0 3.7,0.13 5.37,0.38 2.3,0.34 3.72,0.85 4.27,1.55 0.53,0.69 1.01,1.67 1.44,2.91 0.42,1.25 0.63,2.29 0.63,3.07 0,0.85 -0.42,1.39 -1.27,1.65 -0.29,0.1 -0.57,0.15 -0.8,0.15 -0.55,0 -1.9,-0.15 -4.04,-0.45 -2.24,-0.31 -3.82,-0.46 -4.77,-0.46 -1,0 -1.78,0.23 -2.39,0.67 -0.85,0.66 -1.4,1.86 -1.63,3.66 -0.11,1.21 -0.15,2.94 -0.15,5.22 0,1.29 0.02,1.95 0.06,1.95 0.15,0 0.79,-0.23 1.86,-0.68 2.43,-0.95 4.11,-1.42 5.01,-1.42l0.45 0c1.63,0.11 3,0.66 4.1,1.65 0.49,0.45 0.99,1.06 1.52,1.89 0.53,0.82 0.83,1.52 0.93,2.05 0.15,0.69 0.13,1.2 -0.06,1.5 -0.45,0.95 -1.82,1.41 -4.1,1.41 -0.45,0 -1.67,-0.04 -3.66,-0.14 -2.79,-0.19 -4.38,-0.3 -4.78,-0.3l-1.03 0 -0.09 4.1c-0.15,5.26 -0.67,8.99 -1.63,11.12 -0.36,0.95 -0.61,1.48 -0.76,1.63 -0.4,0.48 -1.05,0.38 -2.01,-0.36 -1.33,-1 -2.85,-3.76 -4.54,-8.29 -0.7,-1.88 -1.1,-3.17 -1.23,-3.85 -0.12,-0.65 -0.19,-2.38 -0.19,-5.18l0 -4.1c0,-5.41 0.07,-8.79 0.19,-10.17 0.13,-1.37 0.47,-2.6 1,-3.69 0.74,-1.55 1.9,-3.03 3.44,-4.49zm37.43 20.3c-0.34,-0.25 -0.66,-0.38 -0.97,-0.38 -0.45,0 -1.27,0.32 -2.52,0.97 -2.13,1.1 -3.76,2.6 -4.86,4.48 -0.34,0.59 -0.51,1.04 -0.51,1.33 0,0.91 1.17,2.22 3.51,3.96 2.33,1.75 4.19,2.68 5.58,2.83 0.66,0.06 1.1,-0.04 1.33,-0.3 0.66,-0.65 0.98,-2.11 0.98,-4.39 0,-1.25 -0.11,-2.37 -0.3,-3.36 -0.55,-2.69 -1.29,-4.4 -2.24,-5.14zm-5.81 -6.58c0.99,-0.23 2.05,-0.36 3.15,-0.36 1.08,0 2.2,0.13 3.34,0.36 1.98,0.41 3.84,1.27 5.6,2.58 1.73,1.34 3.02,2.86 3.87,4.59 0.65,1.29 1.05,2.47 1.2,3.51 0.15,1.04 0.21,3 0.21,5.9 0,2.77 0.05,4.48 0.13,5.09 0.06,0.62 0.3,1.21 0.7,1.76 0.29,0.44 0.44,0.86 0.44,1.27 0,0.48 -0.25,0.91 -0.74,1.26 -0.48,0.36 -1.14,0.53 -1.92,0.53 -0.8,0 -1.42,-0.1 -1.84,-0.31 -0.42,-0.19 -0.95,-0.64 -1.61,-1.34l-1.12 -1.18 -1.27 1.04c-1.14,0.91 -2.09,1.5 -2.83,1.79 -0.74,0.3 -1.8,0.45 -3.13,0.45l-1.35 0c-1.73,-0.07 -2.98,-0.24 -3.72,-0.53 -2.35,-0.85 -4.4,-2.26 -6.2,-4.25 -0.59,-0.7 -0.97,-1.18 -1.14,-1.5 -0.19,-0.3 -0.44,-0.97 -0.8,-2.01 -0.66,-1.88 -0.97,-3.68 -0.97,-5.37 0,-2.18 0.53,-4.31 1.58,-6.41 1,-2.05 1.91,-3.34 2.75,-3.88 2.35,-1.59 4.23,-2.58 5.67,-2.99zm38.93 -0.14c1.09,-0.11 1.67,-0.15 1.71,-0.15 0.36,0 0.65,0.1 0.91,0.29 0.48,0.41 0.74,0.76 0.74,1.06 0,0.3 -0.3,0.78 -0.89,1.48 -0.74,0.85 -1.35,1.76 -1.8,2.73 -0.44,0.97 -1.27,3.17 -2.45,6.59 -1.35,3.75 -2.16,6.03 -2.39,6.87 -0.51,1.84 -0.82,3.26 -0.97,4.25 -0.25,1.93 -0.61,3.15 -1.06,3.66l-0.51 0.59 -0.76 -0.23c-0.34,-0.15 -0.67,-0.32 -1.03,-0.55 -0.36,-0.23 -0.74,-0.51 -1.19,-0.87 -0.44,-0.33 -0.78,-0.59 -0.97,-0.74 -0.61,-0.4 -1.01,-0.82 -1.23,-1.26 -0.23,-0.45 -0.5,-1.29 -0.86,-2.54 -0.36,-1.29 -0.74,-2.52 -1.17,-3.66 -0.42,-1.14 -0.65,-1.77 -0.69,-1.92 -0.66,-2.14 -1.38,-3.77 -2.18,-4.86 -0.4,-0.6 -0.91,-1.57 -1.52,-2.92 -0.62,-1.33 -0.93,-2.26 -0.93,-2.75 0,-0.85 0.59,-1.86 1.8,-3.04 1.43,-1.36 2.57,-2.03 3.42,-2.03 0.95,0 1.54,0.4 1.8,1.2 0.4,0.85 0.76,3.02 1.12,6.55 0.23,2.6 0.61,4.63 1.1,6.11 0.5,1.59 1.01,2.39 1.5,2.39 0.55,0 1.01,-1.16 1.41,-3.48 1.14,-6.62 1.82,-10.11 2.01,-10.45 0.15,-0.32 0.64,-0.72 1.42,-1.2 1.1,-0.6 2.32,-0.98 3.66,-1.12zm20.72 5.37c-0.44,-0.15 -1.01,-0.15 -1.71,0 -1.65,0.5 -3.3,1.37 -4.93,2.62 -1.62,1.24 -2.72,2.45 -3.27,3.65 -0.26,0.6 -0.38,1.08 -0.38,1.48 0,0.3 0.12,0.96 0.38,1.95 0.29,1.14 1.03,2.22 2.2,3.23 1.16,1.04 2.51,1.72 4.06,2.05 0.65,0.15 1.56,0.24 2.77,0.24 0.78,0 1.47,-0.05 2.07,-0.15 1.39,-0.4 2.09,-1.63 2.09,-3.72 0,-0.7 -0.02,-1.25 -0.06,-1.65 -0.26,-2.47 -0.68,-4.65 -1.27,-6.49 -0.62,-1.84 -1.25,-2.92 -1.95,-3.21zm-10.29 -3.2c2.43,-1.29 4.94,-1.94 7.54,-1.94 0.74,0 1.27,0.02 1.63,0.06 3.53,0.66 6.09,1.93 7.68,3.81 1.5,1.79 2.55,3.55 3.21,5.3 0.36,0.89 0.53,1.99 0.53,3.28 0,1.14 -0.11,2.18 -0.3,3.13 -0.19,0.8 -0.29,1.58 -0.29,2.32 0,1.59 -1.57,3.68 -4.72,6.33 -1.92,1.58 -4.56,2.38 -7.9,2.38 -1.59,0 -2.84,-0.14 -3.79,-0.44 -5.33,-1.73 -8.43,-5.45 -9.32,-11.18 -0.15,-0.95 -0.23,-1.8 -0.23,-2.54 0,-1.4 0.52,-3.15 1.56,-5.28 1.29,-2.54 2.77,-4.27 4.4,-5.23zm49.01 -3.15c0,0.62 -0.06,1.17 -0.21,1.65 -0.15,0.49 -0.23,1 -0.23,1.5 0,0.15 -0.09,1.04 -0.24,2.69 -0.19,2.03 -0.31,4.21 -0.38,6.55 -0.15,4.63 -0.48,7.49 -1.03,8.58 -0.07,0.11 -0.13,0.26 -0.24,0.49 -0.1,0.23 -0.19,0.42 -0.29,0.59 -0.11,0.17 -0.17,0.3 -0.21,0.41 -0.26,0.5 -0.87,1.22 -1.84,2.13 -0.98,0.91 -1.78,1.54 -2.41,1.9 -0.85,0.45 -2.03,0.85 -3.58,1.19 -1.54,0.36 -2.83,0.52 -3.82,0.52l-0.45 0c-1.88,-0.14 -3.67,-0.8 -5.37,-1.94 -2.83,-1.88 -4.86,-5.37 -6.1,-10.44 -0.74,-3.13 -1.13,-5.77 -1.13,-7.91 0,-1.14 0.13,-1.9 0.39,-2.3 0.4,-0.79 1.43,-1.74 3.12,-2.84 1.34,-0.91 2.44,-1.35 3.28,-1.35 0.44,0 0.93,0.17 1.42,0.53 0.78,0.65 1.18,2.2 1.18,4.63 0,0.55 -0.04,2.11 -0.15,4.69 -0.04,0.66 -0.06,1.52 -0.06,2.62 0,2.84 0.53,4.8 1.56,5.88 0.96,0.95 2.08,1.42 3.37,1.42 0.59,0 1.16,-0.15 1.71,-0.45 1.54,-0.84 2.3,-2.75 2.3,-5.73 0,-1.1 -0.12,-2.47 -0.36,-4.12 -0.21,-1.18 -0.31,-2.37 -0.31,-3.57 0,-2.54 0.97,-4.8 2.91,-6.79 1.1,-1.25 2.26,-2.09 3.51,-2.53 0.36,-0.15 0.95,-0.22 1.8,-0.22 0.78,0 1.29,0.13 1.52,0.41 0.23,0.27 0.34,0.86 0.34,1.81zm13.73 0.91c0.23,-0.06 0.61,-0.08 1.12,-0.08 1.14,0 2.33,0.61 3.57,1.86 1.21,1.29 2.07,2.47 2.6,3.51 0.32,0.61 0.47,1.25 0.47,1.94 0,0.85 -0.26,1.5 -0.76,1.95 -0.24,0.19 -0.89,0.29 -1.93,0.29 -2.05,0 -3.76,-0.17 -5.16,-0.53 -0.99,-0.25 -1.71,-0.38 -2.15,-0.38l-0.15 0c-0.49,0.15 -0.74,1.78 -0.74,4.87 0,2.47 -0.08,4.31 -0.23,5.51 -0.49,3.83 -0.91,6.09 -1.27,6.79 -0.55,0.99 -0.99,1.48 -1.33,1.48 -0.36,0 -0.93,-0.4 -1.74,-1.18 -0.63,-0.55 -1.1,-1.14 -1.41,-1.8 -0.11,-0.19 -0.55,-0.95 -1.33,-2.24 -1.1,-1.8 -1.72,-3.43 -1.86,-4.91 -0.11,-0.84 -0.24,-1.58 -0.38,-2.24 -0.15,-0.74 -0.24,-1.84 -0.24,-3.27 0,-1.89 0.11,-3.13 0.32,-3.75 0.15,-0.44 0.21,-0.95 0.21,-1.48 0,-0.44 0.3,-1.03 0.89,-1.73 0.99,-1.18 1.96,-1.97 2.92,-2.37 2.24,-0.99 5.09,-1.75 8.58,-2.24zm13.64 0.3c0.49,-0.19 1.06,-0.28 1.72,-0.23 1.1,0.14 1.65,0.65 1.65,1.5 0,0.55 0.06,0.99 0.21,1.33 0.4,1.2 0.59,3.23 0.59,6.13 0,1.14 -0.09,3.49 -0.25,7.04 -0.17,3.55 -0.3,5.48 -0.41,5.77 0,0.11 -0.1,0.74 -0.29,1.95 -0.21,1.79 -0.7,2.85 -1.44,3.21 -0.3,0.19 -0.63,0.17 -1.04,-0.09 -1.24,-0.69 -2.62,-3 -4.16,-6.93 -0.61,-1.5 -0.97,-2.62 -1.12,-3.4 -0.15,-0.76 -0.25,-2.27 -0.3,-4.51 0,-0.4 -0.02,-0.97 -0.04,-1.71 -0.02,-0.74 -0.04,-1.29 -0.04,-1.63 0,-0.4 0.02,-0.86 0.04,-1.39 0.02,-0.53 0.04,-0.8 0.04,-0.85l0.07 -1.41 1.03 -1.42c1.36,-1.84 2.6,-2.96 3.74,-3.36zm0.15 -16.85c0.19,-0.06 0.55,-0.09 1.04,-0.09 0.74,0 1.29,0.11 1.65,0.3 0.55,0.36 0.84,1.35 0.88,2.98l0 0.83c0,0.69 -0.12,1.41 -0.35,2.15 -0.32,1 -0.47,1.55 -0.47,1.65 0,0.15 -0.15,0.42 -0.44,0.83 -0.3,0.4 -0.79,0.59 -1.48,0.59 -0.7,0 -1.31,-0.17 -1.8,-0.53 -1.25,-0.78 -2.37,-1.95 -3.36,-3.49 -0.59,-0.84 -0.89,-1.44 -0.89,-1.8 0,-0.19 0.09,-0.42 0.23,-0.67 0.3,-0.45 1.02,-1 2.16,-1.61 1.14,-0.61 2.09,-0.99 2.83,-1.14zm11.11 9.09c0.61,-0.15 1.25,-0.06 1.95,0.3 0.4,0.19 0.65,0.55 0.78,1.03 0.12,0.51 0.23,1.71 0.33,3.6l0.15 3.42c1.59,-0.19 3.09,-0.3 4.48,-0.3 0.66,0 1.38,0.05 2.16,0.15 0.36,0.07 1.1,0.19 2.24,0.38 1.14,0.19 2.16,0.36 3.07,0.51 0.89,0.15 1.41,0.28 1.56,0.38 0.11,0.11 0.26,0.15 0.45,0.15 0.19,0 0.42,0.13 0.65,0.38 0.32,0.3 0.47,0.57 0.47,0.82 0,0.53 -0.68,1.23 -2.03,2.08 -1.84,1.14 -3.83,2.07 -5.96,2.77 -1,0.35 -1.84,0.52 -2.54,0.52 -0.95,0 -2.14,-0.65 -3.57,-1.94l-1.27 -1.21 -0.38 1.27c-0.3,1.1 -0.45,2.5 -0.45,4.19 0,1.92 0.17,3.76 0.53,5.47 0.34,1.72 0.78,2.73 1.33,3.03 0.19,0.1 0.4,0.14 0.62,0.14 0.82,0 1.92,-0.46 3.27,-1.41 1.34,-0.95 2.62,-2.16 3.87,-3.66 1.44,-1.69 2.31,-2.54 2.62,-2.54 0.04,0 0.32,-0.17 0.81,-0.5 0.5,-0.32 1.03,-0.47 1.58,-0.47 0.95,0 1.57,0.36 1.86,1.06 0.11,0.29 0.15,0.57 0.15,0.82 0,1.19 -0.46,3.2 -1.42,6.03 -0.44,1.65 -1.52,3.3 -3.21,4.92 -0.89,0.85 -1.58,1.38 -2.09,1.57 -0.74,0.25 -1.46,0.55 -2.16,0.91 -1.63,0.74 -3.11,1.12 -4.4,1.12 -2.34,0 -4.46,-0.7 -6.34,-2.07 -1.88,-1.38 -3.3,-3.01 -4.25,-4.89 -0.55,-1.14 -0.86,-2.43 -0.97,-3.87 -0.04,-0.44 -0.11,-1.1 -0.17,-1.94 -0.08,-0.85 -0.15,-1.61 -0.19,-2.31 -0.06,-0.69 -0.08,-1.33 -0.08,-1.94 0,-0.49 0.04,-1.18 0.14,-2.09 0.05,-0.49 0.07,-1.57 0.07,-3.2l0 -1.41c0,-0.26 0,-0.57 -0.02,-0.97 -0.02,-0.41 -0.05,-0.68 -0.05,-0.83 0,-1.99 0.26,-3.55 0.74,-4.69 0.45,-0.91 1.29,-1.88 2.52,-2.92 1.2,-1.04 2.26,-1.67 3.15,-1.86zm28.72 8.35c1.1,-0.44 2.07,-0.68 2.89,-0.68 0.62,0 1.1,0.03 1.51,0.09 2.89,0.15 5.58,1.1 8.05,2.9 1.25,0.95 2.05,1.9 2.45,2.85 0.21,0.44 0.32,0.91 0.32,1.42 0,0.69 -0.21,1.35 -0.61,2 -0.34,0.6 -1.7,2.08 -4.04,4.42 -2.37,2.37 -3.83,3.68 -4.38,3.93 -0.8,0.36 -1.48,0.53 -2.03,0.53 -0.89,0 -1.67,-0.27 -2.36,-0.82 -0.66,-0.45 -0.98,-0.93 -0.98,-1.42 0,-0.36 0.11,-0.7 0.3,-1.06 0.44,-0.99 1.69,-2.21 3.72,-3.72 2.18,-1.69 3.28,-2.72 3.28,-3.12 0,-0.49 -0.49,-0.98 -1.48,-1.46 -1,-0.47 -2.14,-0.77 -3.43,-0.87l-0.82 0c-0.95,0 -1.61,0.17 -1.97,0.49 -0.38,0.31 -0.7,0.95 -0.95,1.9 -0.19,0.8 -0.3,2.01 -0.3,3.59 0,1.14 0.09,2.05 0.24,2.75 0.52,2.18 1.75,3.72 3.65,4.63 0.7,0.36 1.78,0.55 3.28,0.59l1.12 0c0.89,0 1.71,-0.06 2.45,-0.21 1.76,-0.36 3.26,-0.89 4.55,-1.59 0.19,-0.1 0.51,-0.14 0.91,-0.14 0.63,0 0.95,0.44 0.95,1.35 0,0.36 -0.02,0.64 -0.07,0.82 -0.25,1.29 -0.86,2.46 -1.86,3.51 -0.74,0.79 -1.35,1.27 -1.79,1.42 -0.74,0.3 -1.65,0.61 -2.69,0.95 -2.09,0.81 -4.08,1.21 -5.96,1.21 -0.95,0 -2.22,-0.13 -3.8,-0.38 -0.96,-0.15 -1.65,-0.34 -2.1,-0.6 -1.62,-0.78 -3.19,-2.17 -4.69,-4.14 -1.5,-1.97 -2.35,-3.93 -2.54,-5.92 -0.06,-0.36 -0.08,-0.8 -0.08,-1.35 0,-0.49 0.08,-1.27 0.23,-2.31 0.4,-2.79 1.31,-5.13 2.77,-7.01 0.53,-0.74 1.44,-1.63 2.69,-2.63 1.24,-0.99 2.05,-1.48 2.45,-1.48 0.06,0 0.42,-0.14 1.12,-0.44zm21.23 0.97c1.16,-1.33 3.32,-2.01 6.49,-2.01 1.25,0 2.35,0.11 3.3,0.3 1.14,0.23 1.88,0.44 2.24,0.61 0.34,0.19 0.74,0.51 1.18,0.95 1.04,1.15 1.57,2.44 1.57,3.87 0,0.74 -0.19,1.36 -0.59,1.8 -0.36,0.36 -0.72,0.53 -1.12,0.53 -0.4,0 -0.91,-0.21 -1.57,-0.61 -0.99,-0.6 -2.39,-1.15 -4.18,-1.63 -1.08,-0.3 -1.78,-0.38 -2.1,-0.23 -0.23,0.14 -0.36,0.36 -0.36,0.61 0,0.34 0.2,0.89 0.6,1.63 0.84,1.58 1.98,3.04 3.42,4.33 2.2,1.88 3.64,3.4 4.33,4.55 1.4,2.09 2.1,3.59 2.1,4.54 0,1.76 -0.97,3.09 -2.92,4.04 -1.99,0.99 -3.97,1.48 -5.96,1.48 -0.55,0 -1.52,-0.11 -2.92,-0.3 -2.64,-0.44 -4.63,-1.31 -5.96,-2.6 -0.99,-0.95 -1.48,-2.01 -1.48,-3.21 0,-1.76 0.55,-2.62 1.63,-2.62 0.59,0 1.44,0.36 2.53,1.05 1.25,0.85 2.84,1.29 4.78,1.34 1.29,0.06 2.05,-0.03 2.24,-0.22 0.24,-0.25 0.3,-0.5 0.15,-0.76 -0.1,-0.23 -1.03,-1.24 -2.83,-3.04 -2.83,-2.98 -4.57,-5.18 -5.22,-6.58 -0.66,-1.33 -0.98,-2.62 -0.98,-3.86 0,-1.4 0.55,-2.71 1.63,-3.96z"/>
  <path class="fil0" d="M121.61 98.64c-7.48,-0.01 -15.01,1.17 -22.42,-0.84 -0.35,-2.75 0.25,-4.55 3.6,-4.73 8.26,-0.43 16.5,-1.1 24.75,-1.67 2.62,2.22 11.46,-0.06 10.8,-0.79 22.99,-1.12 45.98,-2.27 68.97,-3.36 9.29,-0.44 18.6,-0.51 27.86,-1.25 3.58,-0.28 5.85,0.34 5.96,4.02 0.13,3.91 -3.17,2.11 -4.91,2.19 -31.84,1.56 -63.61,4.37 -95.51,4.49 -6.37,0.02 -12.73,1.26 -19.1,1.94z"/>
  <path class="fil0" d="M218.89 9.55c7.42,1.01 15.03,0.83 22.11,3.8 -0.01,2.78 -0.85,4.48 -4.19,4.22 -8.24,-0.67 -16.5,-1.1 -24.75,-1.62 -2.3,-2.55 -11.37,-1.46 -10.81,-0.65 -22.94,-1.93 -45.88,-3.83 -68.81,-5.79 -9.26,-0.79 -18.5,-1.96 -27.78,-2.45 -3.58,-0.19 -5.75,-1.11 -5.38,-4.77 0.39,-3.89 3.42,-1.67 5.16,-1.53 31.76,2.67 63.63,4.09 95.27,8.19 6.31,0.82 12.78,0.43 19.18,0.6z"/>
 </g>
</svg>
