<?xml version="1.0" encoding="UTF-8"?>
<!DOCTYPE svg PUBLIC "-//W3C//DTD SVG 1.1//EN" "http://www.w3.org/Graphics/SVG/1.1/DTD/svg11.dtd">
<!-- Creator: CorelDRAW 2021.5 -->
<svg xmlns="http://www.w3.org/2000/svg" xml:space="preserve" width="215px" height="86px" version="1.1" style="shape-rendering:geometricPrecision; text-rendering:geometricPrecision; image-rendering:optimizeQuality; fill-rule:evenodd; clip-rule:evenodd"
viewBox="0 0 100.86 40.34"
 xmlns:xlink="http://www.w3.org/1999/xlink"
 xmlns:xodm="http://www.corel.com/coreldraw/odm/2003">
 <defs>
  <style type="text/css">
   <![CDATA[
    .fil1 {fill:black;fill-rule:nonzero}
    .fil0 {fill:#E6007E;fill-rule:nonzero}
   ]]>
  </style>
 </defs>
 <g id="Layer_x0020_1">
  <metadata id="CorelCorpID_0Corel-Layer"/>
  <path class="fil0" d="M5.09 12.91c-0.74,0.45 -1.34,1.05 -1.91,1.69 -1.29,1.32 -2.25,2.84 -2.77,4.62 -0.93,3.21 -0.22,6.16 1.61,8.86 2.45,3.61 6,5.8 9.95,7.44 0.12,0.04 0.24,0.12 0.33,-0.01 0.1,-0.13 -0.04,-0.22 -0.11,-0.31 -0.29,-0.37 -0.54,-0.77 -0.7,-1.21 -0.37,-0.99 -0.06,-1.85 0.85,-2.37 0.44,-0.25 0.91,-0.44 1.41,-0.55 1.42,-0.31 2.83,-0.62 4.25,-0.92 3.65,-0.77 6.13,-2.93 7.55,-6.35 0.45,-1.07 0.72,-2.19 0.7,-3.36 0,-0.64 -0.06,-0.66 -0.59,-0.36 -0.29,0.17 -0.58,0.33 -0.88,0.47 -1.17,0.54 -2.4,0.86 -3.7,0.8 -0.12,-0.01 -0.51,0.16 -0.32,-0.27 0.09,-0.06 0.19,-0.09 0.26,-0.16 3.2,-2.9 5.02,-6.39 4.57,-10.82 -0.13,-1.3 -0.49,-2.55 -1.18,-3.69l0 -0.01c-0.26,-0.75 -0.72,-1.37 -1.19,-2 -1.25,-1.65 -2.77,-3.02 -4.53,-4.11 -0.13,-0.15 -0.32,-0.36 -0.48,-0.27 -0.17,0.11 0.07,0.27 0.13,0.41 0.53,1.45 0.34,2.83 -0.4,4.16 -0.4,0.71 -0.96,1.31 -1.48,1.92l-0.01 0.01c-1.21,1.06 -2.66,1.7 -4.1,2.36 -1.14,0.53 -2.31,1.01 -3.39,1.66l0 0c-0.42,0.09 -0.76,0.34 -1.12,0.54 -0.96,0.53 -1.93,1.07 -2.75,1.82l0.03 0.03 -0.03 -0.02z"/>
  <path class="fil1" d="M23.92 14.88c0.11,-0.02 0.31,-0.03 0.6,-0.03 1.19,0 2.31,0.26 3.37,0.79 0.37,0.19 0.6,0.32 0.7,0.41 0.1,0.1 0.25,0.3 0.44,0.62 0.08,0.15 0.18,0.3 0.28,0.45 0.1,0.14 0.17,0.24 0.2,0.3 0.02,0.06 0.05,0.16 0.08,0.31 0.02,0.17 0.05,0.41 0.08,0.72 0.02,0.64 -0.02,1.01 -0.12,1.11 -0.08,0.08 -0.22,0.11 -0.4,0.11 -0.1,0 -0.28,-0.02 -0.52,-0.07 -0.26,-0.06 -0.44,-0.08 -0.55,-0.08 -0.32,-0.06 -0.62,-0.08 -0.91,-0.08 -0.08,0 -0.21,0.01 -0.37,0.02 -0.17,0.01 -0.32,0.02 -0.42,0.02 -2.59,0.13 -4.87,1.23 -6.85,3.28 -0.42,0.45 -0.81,0.94 -1.18,1.48 -0.37,0.55 -0.59,0.94 -0.64,1.18l0 0.19c0,0.62 0.17,1.26 0.51,1.94 0.82,1.78 2.25,3.3 4.28,4.59 1.58,1.03 2.97,1.55 4.15,1.55 0.95,0 1.82,-0.31 2.62,-0.95 0.34,-0.26 0.59,-0.4 0.75,-0.4 0.39,0 0.59,0.22 0.59,0.64 0,0.22 -0.12,0.64 -0.37,1.28 -0.26,0.65 -0.47,1.08 -0.66,1.29 -1.16,1.47 -2.82,2.21 -4.98,2.21 -0.66,0 -1.27,-0.05 -1.82,-0.15 -0.95,-0.16 -2.07,-0.55 -3.33,-1.19 -1.43,-0.71 -2.56,-1.57 -3.41,-2.6 -0.87,-1.01 -1.56,-2.32 -2.09,-3.93 -0.51,-1.53 -0.75,-2.8 -0.75,-3.8 0,-0.52 0.02,-0.93 0.07,-1.19 0.3,-1.95 0.99,-3.72 2.1,-5.3 0.51,-0.71 1.14,-1.42 1.91,-2.1 0.76,-0.69 1.52,-1.23 2.25,-1.62 0.61,-0.35 1.64,-0.6 3.09,-0.79 0.13,-0.04 0.29,-0.06 0.5,-0.09 0.19,-0.03 0.37,-0.05 0.51,-0.08 0.15,-0.03 0.24,-0.04 0.29,-0.04zm15.6 11.33c-0.23,-0.08 -0.53,-0.08 -0.91,0 -0.87,0.26 -1.75,0.72 -2.61,1.39 -0.86,0.66 -1.45,1.3 -1.74,1.94 -0.13,0.31 -0.2,0.57 -0.2,0.78 0,0.16 0.07,0.51 0.2,1.04 0.16,0.6 0.55,1.17 1.17,1.71 0.62,0.55 1.33,0.91 2.15,1.09 0.35,0.08 0.83,0.12 1.47,0.12 0.42,0 0.79,-0.02 1.1,-0.07 0.74,-0.22 1.11,-0.87 1.11,-1.98 0,-0.37 -0.01,-0.66 -0.03,-0.87 -0.14,-1.32 -0.36,-2.47 -0.67,-3.45 -0.33,-0.98 -0.67,-1.55 -1.04,-1.7zm-5.46 -1.7c1.29,-0.68 2.63,-1.03 4.01,-1.03 0.39,0 0.67,0.01 0.86,0.03 1.87,0.35 3.23,1.02 4.07,2.02 0.8,0.96 1.36,1.89 1.71,2.82 0.19,0.47 0.28,1.05 0.28,1.74 0,0.6 -0.06,1.15 -0.16,1.66 -0.1,0.43 -0.16,0.84 -0.16,1.23 0,0.84 -0.83,1.96 -2.5,3.36 -1.02,0.84 -2.42,1.27 -4.19,1.27 -0.85,0 -1.51,-0.08 -2.01,-0.24 -2.83,-0.92 -4.48,-2.89 -4.95,-5.94 -0.08,-0.5 -0.13,-0.95 -0.13,-1.34 0,-0.74 0.29,-1.67 0.84,-2.81 0.68,-1.34 1.47,-2.26 2.33,-2.77zm19.48 -0.59c1.06,-0.43 1.98,-0.64 2.77,-0.64 0.45,0 0.84,0.05 1.19,0.15 0.53,0.11 1.23,0.45 2.1,1.04 0.39,0.23 0.82,0.82 1.27,1.74l0.39 0.79 0 3.4c0,4.36 0.1,6.95 0.32,7.77 0.15,0.6 0.23,1.07 0.23,1.42 0,0.51 -0.2,0.75 -0.59,0.75 -0.26,0 -0.6,-0.07 -0.99,-0.23 -0.58,-0.21 -1.04,-0.49 -1.38,-0.84 -0.93,-0.92 -1.39,-2.03 -1.39,-3.32 0,-0.55 0.02,-1.06 0.08,-1.51 0.05,-0.45 0.14,-0.97 0.28,-1.58 0.13,-0.61 0.22,-1.11 0.28,-1.5 0.12,-1 0.19,-1.56 0.19,-1.66 0,-0.24 -0.01,-0.43 -0.04,-0.57 -0.15,-1.17 -0.68,-2.06 -1.58,-2.64 -0.23,-0.16 -0.46,-0.24 -0.67,-0.24 -0.19,0 -0.38,0.09 -0.6,0.28 -0.37,0.37 -0.56,0.72 -0.56,1.07 0,0.08 0.01,0.29 0.03,0.66 0.01,0.37 0.03,0.92 0.04,1.65 0.01,0.73 0.01,1.39 0.01,2 0,0.48 0.01,1.02 0.02,1.62 0.02,0.61 0.03,0.99 0.03,1.15 0,0.87 -0.05,1.48 -0.13,1.83 -0.18,0.84 -0.41,1.25 -0.7,1.25 -0.14,0 -0.27,-0.05 -0.4,-0.15 -0.13,-0.1 -0.43,-0.54 -0.89,-1.31 -0.46,-0.76 -0.81,-1.38 -1.05,-1.86 -0.19,-0.35 -0.28,-0.77 -0.28,-1.3 0,-0.45 0.06,-1.1 0.16,-1.94 0.1,-0.66 0.16,-1.27 0.16,-1.82 0,-0.37 -0.04,-0.8 -0.12,-1.27 -0.21,-1.19 -0.6,-1.78 -1.15,-1.78 -0.42,0 -0.99,0.38 -1.7,1.14 -0.55,0.64 -0.83,1.16 -0.83,1.55 0,0.37 0.16,1 0.47,1.9 0.38,1.13 0.55,1.93 0.55,2.38 0,0.23 -0.01,0.42 -0.03,0.55 0,0.1 -0.01,0.22 -0.03,0.36 -0.04,0.13 -0.06,0.23 -0.07,0.31 -0.01,0.08 -0.02,0.13 -0.02,0.16 -0.06,0.13 -0.15,0.57 -0.29,1.32 -0.15,0.75 -0.24,1.19 -0.26,1.29l-0.13 0.52 -0.39 -0.08c-0.23,0 -0.46,-0.08 -0.67,-0.24 -0.26,-0.19 -0.61,-0.69 -1.05,-1.51 -0.43,-0.82 -0.74,-1.5 -0.89,-2.05 -0.1,-0.42 -0.16,-1.1 -0.16,-2.06l0 -1.66c0.02,-2.06 0.1,-3.26 0.24,-3.6 0.37,-1.07 0.96,-1.83 1.78,-2.3 0.21,-0.1 0.44,-0.24 0.67,-0.39 0.53,-0.37 1.32,-0.56 2.37,-0.56 0.84,0 1.7,0.2 2.54,0.59l0.4 0.16 0.47 -0.19zm14.85 3c-0.21,-0.05 -0.55,-0.07 -1.03,-0.07 -0.61,0 -0.98,0.06 -1.1,0.19 -0.22,0.16 -0.33,0.61 -0.33,1.34 0,0.84 0.23,1.97 0.68,3.37 0.23,0.71 0.53,1.35 0.89,1.9 0.35,0.56 0.63,0.84 0.84,0.84 0.51,0 1.23,-0.56 2.15,-1.68 0.95,-1.11 1.42,-2.21 1.42,-3.32 0,-0.41 -0.08,-0.71 -0.23,-0.91 -0.71,-0.76 -1.81,-1.31 -3.29,-1.66zm-1.82 -3.16c0.55,-0.19 1.2,-0.28 1.94,-0.28 0.82,0 1.59,0.1 2.29,0.31 0.71,0.24 1.2,0.42 1.47,0.52 0.84,0.45 1.51,0.96 1.98,1.55 1.32,1.56 1.98,3.16 1.98,4.82 0,0.53 -0.05,1.05 -0.16,1.55 -0.22,1.08 -0.71,2.08 -1.49,2.99 -0.77,0.9 -1.65,1.56 -2.62,1.95 -0.29,0.13 -0.82,0.28 -1.6,0.44 -0.44,0.1 -0.81,0.15 -1.09,0.15 -0.06,0 -0.16,-0.01 -0.32,-0.02 -0.17,-0.01 -0.3,-0.01 -0.4,-0.01 -2.21,-0.16 -4.02,-1.16 -5.42,-3.01 -0.55,-0.74 -0.9,-1.47 -1.04,-2.17 -0.19,-0.98 -0.28,-4.03 -0.28,-9.15l0 -1.14c0.04,-0.94 0.25,-1.64 0.64,-2.15 0.8,-1.09 1.59,-1.7 2.38,-1.86 0.37,-0.06 0.59,-0.08 0.66,-0.08 0.22,0 0.4,0.07 0.52,0.2 0.21,0.22 0.35,0.46 0.41,0.77 0.05,0.3 0.07,0.97 0.07,2 0,1.35 0.03,2.23 0.08,2.62zm18.41 2.45c-0.24,-0.08 -0.54,-0.08 -0.91,0 -0.88,0.26 -1.75,0.72 -2.62,1.39 -0.86,0.66 -1.44,1.3 -1.74,1.94 -0.13,0.31 -0.2,0.57 -0.2,0.78 0,0.16 0.07,0.51 0.2,1.04 0.16,0.6 0.55,1.17 1.17,1.71 0.62,0.55 1.34,0.91 2.16,1.09 0.34,0.08 0.83,0.12 1.47,0.12 0.41,0 0.78,-0.02 1.1,-0.07 0.74,-0.22 1.11,-0.87 1.11,-1.98 0,-0.37 -0.01,-0.66 -0.04,-0.87 -0.13,-1.32 -0.36,-2.47 -0.67,-3.45 -0.33,-0.98 -0.66,-1.55 -1.03,-1.7zm-5.47 -1.7c1.29,-0.68 2.63,-1.03 4.01,-1.03 0.39,0 0.67,0.01 0.86,0.03 1.88,0.35 3.23,1.02 4.08,2.02 0.79,0.96 1.35,1.89 1.7,2.82 0.19,0.47 0.28,1.05 0.28,1.74 0,0.6 -0.05,1.15 -0.15,1.66 -0.11,0.43 -0.16,0.84 -0.16,1.23 0,0.84 -0.83,1.96 -2.5,3.36 -1.03,0.84 -2.43,1.27 -4.2,1.27 -0.84,0 -1.5,-0.08 -2.01,-0.24 -2.83,-0.92 -4.48,-2.89 -4.95,-5.94 -0.08,-0.5 -0.12,-0.95 -0.12,-1.34 0,-0.74 0.28,-1.67 0.83,-2.81 0.68,-1.34 1.47,-2.26 2.33,-2.77zm13.22 -0.2c0.62,-0.71 1.77,-1.07 3.45,-1.07 0.66,0 1.24,0.06 1.75,0.16 0.6,0.12 1,0.24 1.19,0.33 0.18,0.1 0.39,0.26 0.63,0.5 0.55,0.61 0.83,1.29 0.83,2.05 0,0.4 -0.1,0.72 -0.32,0.96 -0.19,0.19 -0.38,0.28 -0.59,0.28 -0.21,0 -0.48,-0.11 -0.83,-0.33 -0.53,-0.31 -1.27,-0.6 -2.22,-0.86 -0.58,-0.16 -0.95,-0.2 -1.11,-0.12 -0.13,0.07 -0.2,0.19 -0.2,0.32 0,0.18 0.11,0.47 0.32,0.87 0.45,0.84 1.05,1.61 1.82,2.3 1.16,0.99 1.93,1.8 2.3,2.41 0.74,1.11 1.11,1.91 1.11,2.41 0,0.93 -0.52,1.64 -1.55,2.14 -1.06,0.53 -2.11,0.79 -3.17,0.79 -0.29,0 -0.8,-0.06 -1.54,-0.16 -1.41,-0.23 -2.46,-0.69 -3.17,-1.38 -0.53,-0.5 -0.78,-1.06 -0.78,-1.7 0,-0.93 0.29,-1.4 0.86,-1.4 0.31,0 0.76,0.2 1.35,0.57 0.66,0.44 1.5,0.68 2.53,0.7 0.69,0.04 1.09,-0.01 1.19,-0.11 0.13,-0.13 0.16,-0.27 0.08,-0.4 -0.06,-0.13 -0.55,-0.67 -1.5,-1.62 -1.51,-1.58 -2.43,-2.75 -2.77,-3.49 -0.35,-0.71 -0.52,-1.39 -0.52,-2.05 0,-0.74 0.29,-1.44 0.86,-2.1z"/>
 </g>
</svg>
